<?xml version="1.0" encoding="UTF-8" standalone="no"?>
<!DOCTYPE svg PUBLIC "-//W3C//DTD SVG 1.1//EN"
 "http://www.w3.org/Graphics/SVG/1.1/DTD/svg11.dtd">
<!-- Generated by graphviz version 5.0.0 (20220707.1540)
 -->
<!-- Title: dependencies Pages: 1 -->
<svg width="316pt" height="247pt"
 viewBox="0.00 0.00 316.00 246.80" xmlns="http://www.w3.org/2000/svg" xmlns:xlink="http://www.w3.org/1999/xlink">
<g id="graph0" class="graph" transform="scale(1 1) rotate(0) translate(4 242.8)">
<title>dependencies</title>
<polygon fill="white" stroke="transparent" points="-4,4 -4,-242.8 312,-242.8 312,4 -4,4"/>
<text text-anchor="middle" x="154" y="-8.2" font-family="sans-serif" font-size="14.00">dependencies</text>
<g id="clust1" class="cluster">
<title>cluster_TimechartModule</title>
<polygon fill="none" stroke="black" stroke-dasharray="1,5" points="8,-32.8 8,-230.8 300,-230.8 300,-32.8 8,-32.8"/>
</g>
<g id="clust4" class="cluster">
<title>cluster_TimechartModule_imports</title>
<polygon fill="none" stroke="black" points="178,-40.8 178,-92.8 292,-92.8 292,-40.8 178,-40.8"/>
</g>
<g id="clust5" class="cluster">
<title>cluster_TimechartModule_exports</title>
<polygon fill="none" stroke="black" points="75,-170.8 75,-222.8 233,-222.8 233,-170.8 75,-170.8"/>
</g>
<g id="clust2" class="cluster">
<title>cluster_TimechartModule_declarations</title>
<polygon fill="none" stroke="black" points="16,-40.8 16,-92.8 170,-92.8 170,-40.8 16,-40.8"/>
</g>
<!-- TimechartComponent -->
<g id="node1" class="node">
<title>TimechartComponent</title>
<polygon fill="#ffffb3" stroke="black" points="162.36,-84.8 23.64,-84.8 23.64,-48.8 162.36,-48.8 162.36,-84.8"/>
<text text-anchor="middle" x="93" y="-62.6" font-family="Times,serif" font-size="14.00">TimechartComponent</text>
</g>
<!-- TimechartModule -->
<g id="node2" class="node">
<title>TimechartModule</title>
<polygon fill="#8dd3c7" stroke="black" points="212.58,-149.8 209.58,-153.8 188.58,-153.8 185.58,-149.8 95.42,-149.8 95.42,-113.8 212.58,-113.8 212.58,-149.8"/>
<text text-anchor="middle" x="154" y="-127.6" font-family="Times,serif" font-size="14.00">TimechartModule</text>
</g>
<!-- TimechartComponent&#45;&gt;TimechartModule -->
<g id="edge1" class="edge">
<title>TimechartComponent&#45;&gt;TimechartModule</title>
<path fill="none" stroke="black" d="M128.94,-84.91C128.94,-84.91 128.94,-103.79 128.94,-103.79"/>
<polygon fill="black" stroke="black" points="125.44,-103.79 128.94,-113.79 132.44,-103.79 125.44,-103.79"/>
</g>
<!-- TimechartComponent  -->
<g id="node4" class="node">
<title>TimechartComponent </title>
<polygon fill="#fb8072" stroke="black" points="225.36,-214.8 82.64,-214.8 82.64,-178.8 225.36,-178.8 225.36,-214.8"/>
<text text-anchor="middle" x="154" y="-192.6" font-family="Times,serif" font-size="14.00">TimechartComponent </text>
</g>
<!-- TimechartModule&#45;&gt;TimechartComponent  -->
<g id="edge3" class="edge">
<title>TimechartModule&#45;&gt;TimechartComponent </title>
<path fill="none" stroke="black" stroke-dasharray="5,2" d="M154,-149.91C154,-149.91 154,-168.79 154,-168.79"/>
<polygon fill="black" stroke="black" points="150.5,-168.79 154,-178.79 157.5,-168.79 150.5,-168.79"/>
</g>
<!-- SharedModule -->
<g id="node3" class="node">
<title>SharedModule</title>
<polygon fill="#8dd3c7" stroke="black" points="284.43,-84.8 281.43,-88.8 260.43,-88.8 257.43,-84.8 185.57,-84.8 185.57,-48.8 284.43,-48.8 284.43,-84.8"/>
<text text-anchor="middle" x="235" y="-62.6" font-family="Times,serif" font-size="14.00">SharedModule</text>
</g>
<!-- SharedModule&#45;&gt;TimechartModule -->
<g id="edge2" class="edge">
<title>SharedModule&#45;&gt;TimechartModule</title>
<path fill="none" stroke="black" d="M199.16,-84.91C199.16,-84.91 199.16,-103.79 199.16,-103.79"/>
<polygon fill="black" stroke="black" points="195.66,-103.79 199.16,-113.79 202.66,-103.79 195.66,-103.79"/>
</g>
</g>
</svg>
