<?xml version="1.0" encoding="UTF-8" standalone="no"?>
<!DOCTYPE svg PUBLIC "-//W3C//DTD SVG 1.1//EN"
 "http://www.w3.org/Graphics/SVG/1.1/DTD/svg11.dtd">
<!-- Generated by graphviz version 5.0.0 (20220707.1540)
 -->
<!-- Title: dependencies Pages: 1 -->
<svg width="3198pt" height="174pt"
 viewBox="0.00 0.00 3198.00 173.80" xmlns="http://www.w3.org/2000/svg" xmlns:xlink="http://www.w3.org/1999/xlink">
<g id="graph0" class="graph" transform="scale(1 1) rotate(0) translate(4 169.8)">
<title>dependencies</title>
<polygon fill="white" stroke="transparent" points="-4,4 -4,-169.8 3194,-169.8 3194,4 -4,4"/>
<text text-anchor="middle" x="1595" y="-8.2" font-family="sans-serif" font-size="14.00">dependencies</text>
<g id="clust1" class="cluster">
<title>cluster_WidgetModule</title>
<polygon fill="none" stroke="black" stroke-dasharray="1,5" points="8,-32.8 8,-157.8 3182,-157.8 3182,-32.8 8,-32.8"/>
</g>
<g id="clust21" class="cluster">
<title>cluster_WidgetModule_imports</title>
<polygon fill="none" stroke="black" points="3060,-40.8 3060,-92.8 3174,-92.8 3174,-40.8 3060,-40.8"/>
</g>
<g id="clust2" class="cluster">
<title>cluster_WidgetModule_declarations</title>
<polygon fill="none" stroke="black" points="16,-40.8 16,-92.8 3052,-92.8 3052,-40.8 16,-40.8"/>
</g>
<!-- BoxPlotComponent -->
<g id="node1" class="node">
<title>BoxPlotComponent</title>
<polygon fill="#ffffb3" stroke="black" points="3043.73,-84.8 2916.27,-84.8 2916.27,-48.8 3043.73,-48.8 3043.73,-84.8"/>
<text text-anchor="middle" x="2980" y="-62.6" font-family="Times,serif" font-size="14.00">BoxPlotComponent</text>
</g>
<!-- WidgetModule -->
<g id="node19" class="node">
<title>WidgetModule</title>
<polygon fill="#8dd3c7" stroke="black" points="1806.26,-149.8 1803.26,-153.8 1782.26,-153.8 1779.26,-149.8 1705.74,-149.8 1705.74,-113.8 1806.26,-113.8 1806.26,-149.8"/>
<text text-anchor="middle" x="1756" y="-127.6" font-family="Times,serif" font-size="14.00">WidgetModule</text>
</g>
<!-- BoxPlotComponent&#45;&gt;WidgetModule -->
<g id="edge1" class="edge">
<title>BoxPlotComponent&#45;&gt;WidgetModule</title>
<path fill="none" stroke="black" d="M2980,-84.81C2980,-107.29 2980,-142.8 2980,-142.8 2980,-142.8 1816.26,-142.8 1816.26,-142.8"/>
<polygon fill="black" stroke="black" points="1816.26,-139.3 1806.26,-142.8 1816.26,-146.3 1816.26,-139.3"/>
</g>
<!-- CalendarComponent -->
<g id="node2" class="node">
<title>CalendarComponent</title>
<polygon fill="#ffffb3" stroke="black" points="2897.86,-84.8 2766.14,-84.8 2766.14,-48.8 2897.86,-48.8 2897.86,-84.8"/>
<text text-anchor="middle" x="2832" y="-62.6" font-family="Times,serif" font-size="14.00">CalendarComponent</text>
</g>
<!-- CalendarComponent&#45;&gt;WidgetModule -->
<g id="edge2" class="edge">
<title>CalendarComponent&#45;&gt;WidgetModule</title>
<path fill="none" stroke="black" d="M2832,-84.84C2832,-106.46 2832,-139.8 2832,-139.8 2832,-139.8 1816.45,-139.8 1816.45,-139.8"/>
<polygon fill="black" stroke="black" points="1816.45,-136.3 1806.45,-139.8 1816.45,-143.3 1816.45,-136.3"/>
</g>
<!-- MapComponent -->
<g id="node3" class="node">
<title>MapComponent</title>
<polygon fill="#ffffb3" stroke="black" points="2748.49,-84.8 2641.51,-84.8 2641.51,-48.8 2748.49,-48.8 2748.49,-84.8"/>
<text text-anchor="middle" x="2695" y="-62.6" font-family="Times,serif" font-size="14.00">MapComponent</text>
</g>
<!-- MapComponent&#45;&gt;WidgetModule -->
<g id="edge3" class="edge">
<title>MapComponent&#45;&gt;WidgetModule</title>
<path fill="none" stroke="black" d="M2695,-84.93C2695,-105.37 2695,-135.8 2695,-135.8 2695,-135.8 1816.48,-135.8 1816.48,-135.8"/>
<polygon fill="black" stroke="black" points="1816.48,-132.3 1806.48,-135.8 1816.48,-139.3 1816.48,-132.3"/>
</g>
<!-- MetricToggleComponent -->
<g id="node4" class="node">
<title>MetricToggleComponent</title>
<polygon fill="#ffffb3" stroke="black" points="2623.3,-84.8 2464.7,-84.8 2464.7,-48.8 2623.3,-48.8 2623.3,-84.8"/>
<text text-anchor="middle" x="2544" y="-62.6" font-family="Times,serif" font-size="14.00">MetricToggleComponent</text>
</g>
<!-- MetricToggleComponent&#45;&gt;WidgetModule -->
<g id="edge4" class="edge">
<title>MetricToggleComponent&#45;&gt;WidgetModule</title>
<path fill="none" stroke="black" d="M2544,-84.91C2544,-104.14 2544,-131.8 2544,-131.8 2544,-131.8 1816.49,-131.8 1816.49,-131.8"/>
<polygon fill="black" stroke="black" points="1816.49,-128.3 1806.49,-131.8 1816.49,-135.3 1816.49,-128.3"/>
</g>
<!-- ParallelPlotComponent -->
<g id="node5" class="node">
<title>ParallelPlotComponent</title>
<polygon fill="#ffffb3" stroke="black" points="2447.16,-84.8 2300.84,-84.8 2300.84,-48.8 2447.16,-48.8 2447.16,-84.8"/>
<text text-anchor="middle" x="2374" y="-62.6" font-family="Times,serif" font-size="14.00">ParallelPlotComponent</text>
</g>
<!-- ParallelPlotComponent&#45;&gt;WidgetModule -->
<g id="edge5" class="edge">
<title>ParallelPlotComponent&#45;&gt;WidgetModule</title>
<path fill="none" stroke="black" d="M2374,-85.07C2374,-103.36 2374,-128.8 2374,-128.8 2374,-128.8 1816.31,-128.8 1816.31,-128.8"/>
<polygon fill="black" stroke="black" points="1816.31,-125.3 1806.31,-128.8 1816.31,-132.3 1816.31,-125.3"/>
</g>
<!-- ScatterPlotComponent -->
<g id="node6" class="node">
<title>ScatterPlotComponent</title>
<polygon fill="#ffffb3" stroke="black" points="2282.27,-84.8 2139.73,-84.8 2139.73,-48.8 2282.27,-48.8 2282.27,-84.8"/>
<text text-anchor="middle" x="2211" y="-62.6" font-family="Times,serif" font-size="14.00">ScatterPlotComponent</text>
</g>
<!-- ScatterPlotComponent&#45;&gt;WidgetModule -->
<g id="edge6" class="edge">
<title>ScatterPlotComponent&#45;&gt;WidgetModule</title>
<path fill="none" stroke="black" d="M2211,-84.83C2211,-101.86 2211,-124.8 2211,-124.8 2211,-124.8 1816.43,-124.8 1816.43,-124.8"/>
<polygon fill="black" stroke="black" points="1816.43,-121.3 1806.43,-124.8 1816.43,-128.3 1816.43,-121.3"/>
</g>
<!-- TabularComponent -->
<g id="node7" class="node">
<title>TabularComponent</title>
<polygon fill="#ffffb3" stroke="black" points="2121.36,-84.8 1996.64,-84.8 1996.64,-48.8 2121.36,-48.8 2121.36,-84.8"/>
<text text-anchor="middle" x="2059" y="-62.6" font-family="Times,serif" font-size="14.00">TabularComponent</text>
</g>
<!-- TabularComponent&#45;&gt;WidgetModule -->
<g id="edge7" class="edge">
<title>TabularComponent&#45;&gt;WidgetModule</title>
<path fill="none" stroke="black" d="M2059,-84.81C2059,-100.85 2059,-121.8 2059,-121.8 2059,-121.8 1816.37,-121.8 1816.37,-121.8"/>
<polygon fill="black" stroke="black" points="1816.37,-118.3 1806.37,-121.8 1816.37,-125.3 1816.37,-118.3"/>
</g>
<!-- TimechartComponent -->
<g id="node8" class="node">
<title>TimechartComponent</title>
<polygon fill="#ffffb3" stroke="black" points="1978.36,-84.8 1839.64,-84.8 1839.64,-48.8 1978.36,-48.8 1978.36,-84.8"/>
<text text-anchor="middle" x="1909" y="-62.6" font-family="Times,serif" font-size="14.00">TimechartComponent</text>
</g>
<!-- TimechartComponent&#45;&gt;WidgetModule -->
<g id="edge8" class="edge">
<title>TimechartComponent&#45;&gt;WidgetModule</title>
<path fill="none" stroke="black" d="M1909,-84.92C1909,-99.58 1909,-117.8 1909,-117.8 1909,-117.8 1816.52,-117.8 1816.52,-117.8"/>
<polygon fill="black" stroke="black" points="1816.52,-114.3 1806.52,-117.8 1816.52,-121.3 1816.52,-114.3"/>
</g>
<!-- TimelineComponent -->
<g id="node9" class="node">
<title>TimelineComponent</title>
<polygon fill="#ffffb3" stroke="black" points="1821.87,-84.8 1690.13,-84.8 1690.13,-48.8 1821.87,-48.8 1821.87,-84.8"/>
<text text-anchor="middle" x="1756" y="-62.6" font-family="Times,serif" font-size="14.00">TimelineComponent</text>
</g>
<!-- TimelineComponent&#45;&gt;WidgetModule -->
<g id="edge9" class="edge">
<title>TimelineComponent&#45;&gt;WidgetModule</title>
<path fill="none" stroke="black" d="M1739.21,-84.91C1739.21,-84.91 1739.21,-103.79 1739.21,-103.79"/>
<polygon fill="black" stroke="black" points="1735.71,-103.79 1739.21,-113.79 1742.71,-103.79 1735.71,-103.79"/>
</g>
<!-- TimelineComponent&#45;&gt;WidgetModule -->
<g id="edge10" class="edge">
<title>TimelineComponent&#45;&gt;WidgetModule</title>
<path fill="none" stroke="black" d="M1772.79,-84.91C1772.79,-84.91 1772.79,-103.79 1772.79,-103.79"/>
<polygon fill="black" stroke="black" points="1769.29,-103.79 1772.79,-113.79 1776.29,-103.79 1769.29,-103.79"/>
</g>
<!-- WidgetDetailComponent -->
<g id="node10" class="node">
<title>WidgetDetailComponent</title>
<polygon fill="#ffffb3" stroke="black" points="1672.25,-84.8 1515.75,-84.8 1515.75,-48.8 1672.25,-48.8 1672.25,-84.8"/>
<text text-anchor="middle" x="1594" y="-62.6" font-family="Times,serif" font-size="14.00">WidgetDetailComponent</text>
</g>
<!-- WidgetDetailComponent&#45;&gt;WidgetModule -->
<g id="edge11" class="edge">
<title>WidgetDetailComponent&#45;&gt;WidgetModule</title>
<path fill="none" stroke="black" d="M1594,-84.92C1594,-99.58 1594,-117.8 1594,-117.8 1594,-117.8 1695.63,-117.8 1695.63,-117.8"/>
<polygon fill="black" stroke="black" points="1695.63,-121.3 1705.63,-117.8 1695.63,-114.3 1695.63,-121.3"/>
</g>
<!-- WidgetEditComponent -->
<g id="node11" class="node">
<title>WidgetEditComponent</title>
<polygon fill="#ffffb3" stroke="black" points="1497.87,-84.8 1352.13,-84.8 1352.13,-48.8 1497.87,-48.8 1497.87,-84.8"/>
<text text-anchor="middle" x="1425" y="-62.6" font-family="Times,serif" font-size="14.00">WidgetEditComponent</text>
</g>
<!-- WidgetEditComponent&#45;&gt;WidgetModule -->
<g id="edge12" class="edge">
<title>WidgetEditComponent&#45;&gt;WidgetModule</title>
<path fill="none" stroke="black" d="M1425,-84.81C1425,-100.85 1425,-121.8 1425,-121.8 1425,-121.8 1695.73,-121.8 1695.73,-121.8"/>
<polygon fill="black" stroke="black" points="1695.73,-125.3 1705.73,-121.8 1695.73,-118.3 1695.73,-125.3"/>
</g>
<!-- WidgetEditEntryComponent -->
<g id="node12" class="node">
<title>WidgetEditEntryComponent</title>
<polygon fill="#ffffb3" stroke="black" points="1334.47,-84.8 1157.53,-84.8 1157.53,-48.8 1334.47,-48.8 1334.47,-84.8"/>
<text text-anchor="middle" x="1246" y="-62.6" font-family="Times,serif" font-size="14.00">WidgetEditEntryComponent</text>
</g>
<!-- WidgetEditEntryComponent&#45;&gt;WidgetModule -->
<g id="edge13" class="edge">
<title>WidgetEditEntryComponent&#45;&gt;WidgetModule</title>
<path fill="none" stroke="black" d="M1246,-84.83C1246,-101.86 1246,-124.8 1246,-124.8 1246,-124.8 1695.7,-124.8 1695.7,-124.8"/>
<polygon fill="black" stroke="black" points="1695.7,-128.3 1705.7,-124.8 1695.7,-121.3 1695.7,-128.3"/>
</g>
<!-- WidgetEditInfoComponent -->
<g id="node13" class="node">
<title>WidgetEditInfoComponent</title>
<polygon fill="#ffffb3" stroke="black" points="1139.69,-84.8 970.31,-84.8 970.31,-48.8 1139.69,-48.8 1139.69,-84.8"/>
<text text-anchor="middle" x="1055" y="-62.6" font-family="Times,serif" font-size="14.00">WidgetEditInfoComponent</text>
</g>
<!-- WidgetEditInfoComponent&#45;&gt;WidgetModule -->
<g id="edge14" class="edge">
<title>WidgetEditInfoComponent&#45;&gt;WidgetModule</title>
<path fill="none" stroke="black" d="M1055,-85.07C1055,-103.36 1055,-128.8 1055,-128.8 1055,-128.8 1695.59,-128.8 1695.59,-128.8"/>
<polygon fill="black" stroke="black" points="1695.59,-132.3 1705.59,-128.8 1695.59,-125.3 1695.59,-132.3"/>
</g>
<!-- WidgetEditMetricsComponent -->
<g id="node14" class="node">
<title>WidgetEditMetricsComponent</title>
<polygon fill="#ffffb3" stroke="black" points="952.14,-84.8 763.86,-84.8 763.86,-48.8 952.14,-48.8 952.14,-84.8"/>
<text text-anchor="middle" x="858" y="-62.6" font-family="Times,serif" font-size="14.00">WidgetEditMetricsComponent</text>
</g>
<!-- WidgetEditMetricsComponent&#45;&gt;WidgetModule -->
<g id="edge15" class="edge">
<title>WidgetEditMetricsComponent&#45;&gt;WidgetModule</title>
<path fill="none" stroke="black" d="M858,-84.91C858,-104.14 858,-131.8 858,-131.8 858,-131.8 1695.47,-131.8 1695.47,-131.8"/>
<polygon fill="black" stroke="black" points="1695.47,-135.3 1705.47,-131.8 1695.47,-128.3 1695.47,-135.3"/>
</g>
<!-- WidgetEditOptionsComponent -->
<g id="node15" class="node">
<title>WidgetEditOptionsComponent</title>
<polygon fill="#ffffb3" stroke="black" points="746.21,-84.8 555.79,-84.8 555.79,-48.8 746.21,-48.8 746.21,-84.8"/>
<text text-anchor="middle" x="651" y="-62.6" font-family="Times,serif" font-size="14.00">WidgetEditOptionsComponent</text>
</g>
<!-- WidgetEditOptionsComponent&#45;&gt;WidgetModule -->
<g id="edge16" class="edge">
<title>WidgetEditOptionsComponent&#45;&gt;WidgetModule</title>
<path fill="none" stroke="black" d="M651,-84.93C651,-105.37 651,-135.8 651,-135.8 651,-135.8 1695.65,-135.8 1695.65,-135.8"/>
<polygon fill="black" stroke="black" points="1695.65,-139.3 1705.65,-135.8 1695.65,-132.3 1695.65,-139.3"/>
</g>
<!-- WidgetMainComponent -->
<g id="node16" class="node">
<title>WidgetMainComponent</title>
<polygon fill="#ffffb3" stroke="black" points="538.09,-84.8 385.91,-84.8 385.91,-48.8 538.09,-48.8 538.09,-84.8"/>
<text text-anchor="middle" x="462" y="-62.6" font-family="Times,serif" font-size="14.00">WidgetMainComponent</text>
</g>
<!-- WidgetMainComponent&#45;&gt;WidgetModule -->
<g id="edge17" class="edge">
<title>WidgetMainComponent&#45;&gt;WidgetModule</title>
<path fill="none" stroke="black" d="M462,-84.84C462,-106.46 462,-139.8 462,-139.8 462,-139.8 1695.67,-139.8 1695.67,-139.8"/>
<polygon fill="black" stroke="black" points="1695.67,-143.3 1705.67,-139.8 1695.67,-136.3 1695.67,-143.3"/>
</g>
<!-- WidgetTypeDirective -->
<g id="node17" class="node">
<title>WidgetTypeDirective</title>
<polygon fill="#ffffb3" stroke="black" points="368.06,-84.8 229.94,-84.8 229.94,-48.8 368.06,-48.8 368.06,-84.8"/>
<text text-anchor="middle" x="299" y="-62.6" font-family="Times,serif" font-size="14.00">WidgetTypeDirective</text>
</g>
<!-- WidgetTypeDirective&#45;&gt;WidgetModule -->
<g id="edge18" class="edge">
<title>WidgetTypeDirective&#45;&gt;WidgetModule</title>
<path fill="none" stroke="black" d="M299,-84.81C299,-107.29 299,-142.8 299,-142.8 299,-142.8 1695.42,-142.8 1695.42,-142.8"/>
<polygon fill="black" stroke="black" points="1695.42,-146.3 1705.42,-142.8 1695.42,-139.3 1695.42,-146.3"/>
</g>
<!-- WidgetTypeExampleDirective -->
<g id="node18" class="node">
<title>WidgetTypeExampleDirective</title>
<polygon fill="#ffffb3" stroke="black" points="211.81,-84.8 24.19,-84.8 24.19,-48.8 211.81,-48.8 211.81,-84.8"/>
<text text-anchor="middle" x="118" y="-62.6" font-family="Times,serif" font-size="14.00">WidgetTypeExampleDirective</text>
</g>
<!-- WidgetTypeExampleDirective&#45;&gt;WidgetModule -->
<g id="edge19" class="edge">
<title>WidgetTypeExampleDirective&#45;&gt;WidgetModule</title>
<path fill="none" stroke="black" d="M118,-84.95C118,-108.56 118,-146.8 118,-146.8 118,-146.8 1695.63,-146.8 1695.63,-146.8"/>
<polygon fill="black" stroke="black" points="1695.63,-150.3 1705.63,-146.8 1695.63,-143.3 1695.63,-150.3"/>
</g>
<!-- SharedModule -->
<g id="node20" class="node">
<title>SharedModule</title>
<polygon fill="#8dd3c7" stroke="black" points="3166.43,-84.8 3163.43,-88.8 3142.43,-88.8 3139.43,-84.8 3067.57,-84.8 3067.57,-48.8 3166.43,-48.8 3166.43,-84.8"/>
<text text-anchor="middle" x="3117" y="-62.6" font-family="Times,serif" font-size="14.00">SharedModule</text>
</g>
<!-- SharedModule&#45;&gt;WidgetModule -->
<g id="edge20" class="edge">
<title>SharedModule&#45;&gt;WidgetModule</title>
<path fill="none" stroke="black" d="M3117,-84.95C3117,-108.56 3117,-146.8 3117,-146.8 3117,-146.8 1816.46,-146.8 1816.46,-146.8"/>
<polygon fill="black" stroke="black" points="1816.46,-143.3 1806.46,-146.8 1816.46,-150.3 1816.46,-143.3"/>
</g>
</g>
</svg>
