<?xml version="1.0" encoding="UTF-8" standalone="no"?>
<!DOCTYPE svg PUBLIC "-//W3C//DTD SVG 1.1//EN"
 "http://www.w3.org/Graphics/SVG/1.1/DTD/svg11.dtd">
<!-- Generated by graphviz version 5.0.0 (20220707.1540)
 -->
<!-- Title: dependencies Pages: 1 -->
<svg width="324pt" height="247pt"
 viewBox="0.00 0.00 324.00 246.80" xmlns="http://www.w3.org/2000/svg" xmlns:xlink="http://www.w3.org/1999/xlink">
<g id="graph0" class="graph" transform="scale(1 1) rotate(0) translate(4 242.8)">
<title>dependencies</title>
<polygon fill="white" stroke="transparent" points="-4,4 -4,-242.8 320,-242.8 320,4 -4,4"/>
<text text-anchor="middle" x="158" y="-8.2" font-family="sans-serif" font-size="14.00">dependencies</text>
<g id="clust1" class="cluster">
<title>cluster_ParallelModule</title>
<polygon fill="none" stroke="black" stroke-dasharray="1,5" points="8,-32.8 8,-230.8 308,-230.8 308,-32.8 8,-32.8"/>
</g>
<g id="clust4" class="cluster">
<title>cluster_ParallelModule_imports</title>
<polygon fill="none" stroke="black" points="186,-40.8 186,-92.8 300,-92.8 300,-40.8 186,-40.8"/>
</g>
<g id="clust5" class="cluster">
<title>cluster_ParallelModule_exports</title>
<polygon fill="none" stroke="black" points="75,-170.8 75,-222.8 241,-222.8 241,-170.8 75,-170.8"/>
</g>
<g id="clust2" class="cluster">
<title>cluster_ParallelModule_declarations</title>
<polygon fill="none" stroke="black" points="16,-40.8 16,-92.8 178,-92.8 178,-40.8 16,-40.8"/>
</g>
<!-- ParallelPlotComponent -->
<g id="node1" class="node">
<title>ParallelPlotComponent</title>
<polygon fill="#ffffb3" stroke="black" points="170.16,-84.8 23.84,-84.8 23.84,-48.8 170.16,-48.8 170.16,-84.8"/>
<text text-anchor="middle" x="97" y="-62.6" font-family="Times,serif" font-size="14.00">ParallelPlotComponent</text>
</g>
<!-- ParallelModule -->
<g id="node2" class="node">
<title>ParallelModule</title>
<polygon fill="#8dd3c7" stroke="black" points="209.31,-149.8 206.31,-153.8 185.31,-153.8 182.31,-149.8 106.69,-149.8 106.69,-113.8 209.31,-113.8 209.31,-149.8"/>
<text text-anchor="middle" x="158" y="-127.6" font-family="Times,serif" font-size="14.00">ParallelModule</text>
</g>
<!-- ParallelPlotComponent&#45;&gt;ParallelModule -->
<g id="edge1" class="edge">
<title>ParallelPlotComponent&#45;&gt;ParallelModule</title>
<path fill="none" stroke="black" d="M138.59,-84.91C138.59,-84.91 138.59,-103.79 138.59,-103.79"/>
<polygon fill="black" stroke="black" points="135.09,-103.79 138.59,-113.79 142.09,-103.79 135.09,-103.79"/>
</g>
<!-- ParallelPlotComponent  -->
<g id="node4" class="node">
<title>ParallelPlotComponent </title>
<polygon fill="#fb8072" stroke="black" points="233.16,-214.8 82.84,-214.8 82.84,-178.8 233.16,-178.8 233.16,-214.8"/>
<text text-anchor="middle" x="158" y="-192.6" font-family="Times,serif" font-size="14.00">ParallelPlotComponent </text>
</g>
<!-- ParallelModule&#45;&gt;ParallelPlotComponent  -->
<g id="edge3" class="edge">
<title>ParallelModule&#45;&gt;ParallelPlotComponent </title>
<path fill="none" stroke="black" stroke-dasharray="5,2" d="M158,-149.91C158,-149.91 158,-168.79 158,-168.79"/>
<polygon fill="black" stroke="black" points="154.5,-168.79 158,-178.79 161.5,-168.79 154.5,-168.79"/>
</g>
<!-- SharedModule -->
<g id="node3" class="node">
<title>SharedModule</title>
<polygon fill="#8dd3c7" stroke="black" points="292.43,-84.8 289.43,-88.8 268.43,-88.8 265.43,-84.8 193.57,-84.8 193.57,-48.8 292.43,-48.8 292.43,-84.8"/>
<text text-anchor="middle" x="243" y="-62.6" font-family="Times,serif" font-size="14.00">SharedModule</text>
</g>
<!-- SharedModule&#45;&gt;ParallelModule -->
<g id="edge2" class="edge">
<title>SharedModule&#45;&gt;ParallelModule</title>
<path fill="none" stroke="black" d="M201.47,-84.91C201.47,-84.91 201.47,-103.79 201.47,-103.79"/>
<polygon fill="black" stroke="black" points="197.97,-103.79 201.47,-113.79 204.97,-103.79 197.97,-103.79"/>
</g>
</g>
</svg>
