<?xml version="1.0" encoding="UTF-8" standalone="no"?>
<!DOCTYPE svg PUBLIC "-//W3C//DTD SVG 1.1//EN"
 "http://www.w3.org/Graphics/SVG/1.1/DTD/svg11.dtd">
<!-- Generated by graphviz version 2.47.0 (20210316.0004)
 -->
<!-- Title: dependencies Pages: 1 -->
<svg width="2558pt" height="284pt"
 viewBox="0.00 0.00 2558.00 284.00" xmlns="http://www.w3.org/2000/svg" xmlns:xlink="http://www.w3.org/1999/xlink">
<g id="graph0" class="graph" transform="scale(1 1) rotate(0) translate(4 280)">
<title>dependencies</title>
<polygon fill="white" stroke="transparent" points="-4,4 -4,-280 2554,-280 2554,4 -4,4"/>
<text text-anchor="start" x="1254.01" y="-42.4" font-family="Times-12" font-weight="bold" font-size="14.00">Legend</text>
<polygon fill="#ffffb3" stroke="transparent" points="1041,-10 1041,-30 1061,-30 1061,-10 1041,-10"/>
<text text-anchor="start" x="1064.63" y="-15.4" font-family="Times-12" font-size="14.00"> &#160;Declarations</text>
<polygon fill="#8dd3c7" stroke="transparent" points="1154,-10 1154,-30 1174,-30 1174,-10 1154,-10"/>
<text text-anchor="start" x="1177.73" y="-15.4" font-family="Times-12" font-size="14.00"> &#160;Module</text>
<polygon fill="#80b1d3" stroke="transparent" points="1240,-10 1240,-30 1260,-30 1260,-10 1240,-10"/>
<text text-anchor="start" x="1263.78" y="-15.4" font-family="Times-12" font-size="14.00"> &#160;Bootstrap</text>
<polygon fill="#fdb462" stroke="transparent" points="1337,-10 1337,-30 1357,-30 1357,-10 1337,-10"/>
<text text-anchor="start" x="1360.67" y="-15.4" font-family="Times-12" font-size="14.00"> &#160;Providers</text>
<polygon fill="#fb8072" stroke="transparent" points="1433,-10 1433,-30 1453,-30 1453,-10 1433,-10"/>
<text text-anchor="start" x="1456.73" y="-15.4" font-family="Times-12" font-size="14.00"> &#160;Exports</text>
<g id="clust1" class="cluster">
<title>cluster_SharedModule</title>
<polygon fill="none" stroke="black" stroke-dasharray="1,5" points="8,-70 8,-268 2542,-268 2542,-70 8,-70"/>
</g>
<g id="clust3" class="cluster">
<title>cluster_SharedModule_imports</title>
<polygon fill="none" stroke="black" points="16,-78 16,-130 2534,-130 2534,-78 16,-78"/>
</g>
<g id="clust4" class="cluster">
<title>cluster_SharedModule_exports</title>
<polygon fill="none" stroke="black" points="260,-208 260,-260 2391,-260 2391,-208 260,-208"/>
</g>
<!-- ChannelGroupSelectorComponent -->
<g id="node1" class="node">
<title>ChannelGroupSelectorComponent</title>
<polygon fill="#8dd3c7" stroke="black" points="2525.62,-122 2522.62,-126 2501.62,-126 2498.62,-122 2316.38,-122 2316.38,-86 2525.62,-86 2525.62,-122"/>
<text text-anchor="middle" x="2421" y="-99.8" font-family="Times,serif" font-size="14.00">ChannelGroupSelectorComponent</text>
</g>
<!-- SharedModule -->
<g id="node16" class="node">
<title>SharedModule</title>
<polygon fill="#8dd3c7" stroke="black" points="1349.42,-187 1346.42,-191 1325.42,-191 1322.42,-187 1250.58,-187 1250.58,-151 1349.42,-151 1349.42,-187"/>
<text text-anchor="middle" x="1300" y="-164.8" font-family="Times,serif" font-size="14.00">SharedModule</text>
</g>
<!-- ChannelGroupSelectorComponent&#45;&gt;SharedModule -->
<g id="edge1" class="edge">
<title>ChannelGroupSelectorComponent&#45;&gt;SharedModule</title>
<path fill="none" stroke="black" d="M2349.38,-122.31C2349.38,-142.15 2349.38,-171 2349.38,-171 2349.38,-171 1359.56,-171 1359.56,-171"/>
<polygon fill="black" stroke="black" points="1359.56,-167.5 1349.56,-171 1359.56,-174.5 1359.56,-167.5"/>
</g>
<!-- ConfirmDialogComponent -->
<g id="node2" class="node">
<title>ConfirmDialogComponent</title>
<polygon fill="#8dd3c7" stroke="black" points="2298.37,-122 2295.37,-126 2274.37,-126 2271.37,-122 2131.63,-122 2131.63,-86 2298.37,-86 2298.37,-122"/>
<text text-anchor="middle" x="2215" y="-99.8" font-family="Times,serif" font-size="14.00">ConfirmDialogComponent</text>
</g>
<!-- ConfirmDialogComponent&#45;&gt;SharedModule -->
<g id="edge2" class="edge">
<title>ConfirmDialogComponent&#45;&gt;SharedModule</title>
<path fill="none" stroke="black" d="M2141.38,-122.17C2141.38,-141.09 2141.38,-168 2141.38,-168 2141.38,-168 1359.49,-168 1359.49,-168"/>
<polygon fill="black" stroke="black" points="1359.49,-164.5 1349.49,-168 1359.49,-171.5 1359.49,-164.5"/>
</g>
<!-- DateSelectComponent -->
<g id="node3" class="node">
<title>DateSelectComponent</title>
<polygon fill="#8dd3c7" stroke="black" points="2113.97,-122 2110.97,-126 2089.97,-126 2086.97,-122 1972.03,-122 1972.03,-86 2113.97,-86 2113.97,-122"/>
<text text-anchor="middle" x="2043" y="-99.8" font-family="Times,serif" font-size="14.00">DateSelectComponent</text>
</g>
<!-- DateSelectComponent&#45;&gt;SharedModule -->
<g id="edge3" class="edge">
<title>DateSelectComponent&#45;&gt;SharedModule</title>
<path fill="none" stroke="black" d="M1976.41,-122.3C1976.41,-140.27 1976.41,-165 1976.41,-165 1976.41,-165 1359.46,-165 1359.46,-165"/>
<polygon fill="black" stroke="black" points="1359.46,-161.5 1349.46,-165 1359.46,-168.5 1359.46,-161.5"/>
</g>
<!-- DetailPageComponent -->
<g id="node4" class="node">
<title>DetailPageComponent</title>
<polygon fill="#8dd3c7" stroke="black" points="1954.25,-122 1951.25,-126 1930.25,-126 1927.25,-122 1811.75,-122 1811.75,-86 1954.25,-86 1954.25,-122"/>
<text text-anchor="middle" x="1883" y="-99.8" font-family="Times,serif" font-size="14.00">DetailPageComponent</text>
</g>
<!-- DetailPageComponent&#45;&gt;SharedModule -->
<g id="edge4" class="edge">
<title>DetailPageComponent&#45;&gt;SharedModule</title>
<path fill="none" stroke="black" d="M1908.67,-122.02C1908.67,-139.37 1908.67,-163 1908.67,-163 1908.67,-163 1359.29,-163 1359.29,-163"/>
<polygon fill="black" stroke="black" points="1359.29,-159.5 1349.29,-163 1359.29,-166.5 1359.29,-159.5"/>
</g>
<!-- ErrorComponent -->
<g id="node5" class="node">
<title>ErrorComponent</title>
<polygon fill="#8dd3c7" stroke="black" points="1793.37,-122 1790.37,-126 1769.37,-126 1766.37,-122 1682.63,-122 1682.63,-86 1793.37,-86 1793.37,-122"/>
<text text-anchor="middle" x="1738" y="-99.8" font-family="Times,serif" font-size="14.00">ErrorComponent</text>
</g>
<!-- ErrorComponent&#45;&gt;SharedModule -->
<g id="edge5" class="edge">
<title>ErrorComponent&#45;&gt;SharedModule</title>
<path fill="none" stroke="black" d="M1738,-122.03C1738,-138.4 1738,-160 1738,-160 1738,-160 1359.39,-160 1359.39,-160"/>
<polygon fill="black" stroke="black" points="1359.39,-156.5 1349.39,-160 1359.39,-163.5 1359.39,-156.5"/>
</g>
<!-- LoadingComponent -->
<g id="node6" class="node">
<title>LoadingComponent</title>
<polygon fill="#8dd3c7" stroke="black" points="1664.99,-122 1661.99,-126 1640.99,-126 1637.99,-122 1537.01,-122 1537.01,-86 1664.99,-86 1664.99,-122"/>
<text text-anchor="middle" x="1601" y="-99.8" font-family="Times,serif" font-size="14.00">LoadingComponent</text>
</g>
<!-- LoadingComponent&#45;&gt;SharedModule -->
<g id="edge6" class="edge">
<title>LoadingComponent&#45;&gt;SharedModule</title>
<path fill="none" stroke="black" d="M1585.88,-122.24C1585.88,-137.57 1585.88,-157 1585.88,-157 1585.88,-157 1359.47,-157 1359.47,-157"/>
<polygon fill="black" stroke="black" points="1359.47,-153.5 1349.47,-157 1359.47,-160.5 1359.47,-153.5"/>
</g>
<!-- LoadingDirective -->
<g id="node7" class="node">
<title>LoadingDirective</title>
<polygon fill="#8dd3c7" stroke="black" points="1519.24,-122 1516.24,-126 1495.24,-126 1492.24,-122 1404.76,-122 1404.76,-86 1519.24,-86 1519.24,-122"/>
<text text-anchor="middle" x="1462" y="-99.8" font-family="Times,serif" font-size="14.00">LoadingDirective</text>
</g>
<!-- LoadingDirective&#45;&gt;SharedModule -->
<g id="edge7" class="edge">
<title>LoadingDirective&#45;&gt;SharedModule</title>
<path fill="none" stroke="black" d="M1444.96,-122.05C1444.96,-136.37 1444.96,-154 1444.96,-154 1444.96,-154 1359.48,-154 1359.48,-154"/>
<polygon fill="black" stroke="black" points="1359.48,-150.5 1349.48,-154 1359.48,-157.5 1359.48,-150.5"/>
</g>
<!-- LoadingOverlayComponent -->
<g id="node8" class="node">
<title>LoadingOverlayComponent</title>
<polygon fill="#8dd3c7" stroke="black" points="1386.58,-122 1383.58,-126 1362.58,-126 1359.58,-122 1213.42,-122 1213.42,-86 1386.58,-86 1386.58,-122"/>
<text text-anchor="middle" x="1300" y="-99.8" font-family="Times,serif" font-size="14.00">LoadingOverlayComponent</text>
</g>
<!-- LoadingOverlayComponent&#45;&gt;SharedModule -->
<g id="edge8" class="edge">
<title>LoadingOverlayComponent&#45;&gt;SharedModule</title>
<path fill="none" stroke="black" d="M1300,-122.11C1300,-122.11 1300,-140.99 1300,-140.99"/>
<polygon fill="black" stroke="black" points="1296.5,-140.99 1300,-150.99 1303.5,-140.99 1296.5,-140.99"/>
</g>
<!-- LoadingSpinnerComponent -->
<g id="node9" class="node">
<title>LoadingSpinnerComponent</title>
<polygon fill="#8dd3c7" stroke="black" points="1195.54,-122 1192.54,-126 1171.54,-126 1168.54,-122 1024.46,-122 1024.46,-86 1195.54,-86 1195.54,-122"/>
<text text-anchor="middle" x="1110" y="-99.8" font-family="Times,serif" font-size="14.00">LoadingSpinnerComponent</text>
</g>
<!-- LoadingSpinnerComponent&#45;&gt;SharedModule -->
<g id="edge9" class="edge">
<title>LoadingSpinnerComponent&#45;&gt;SharedModule</title>
<path fill="none" stroke="black" d="M1155.62,-122.05C1155.62,-136.37 1155.62,-154 1155.62,-154 1155.62,-154 1240.72,-154 1240.72,-154"/>
<polygon fill="black" stroke="black" points="1240.72,-157.5 1250.72,-154 1240.72,-150.5 1240.72,-157.5"/>
</g>
<!-- NgxDaterangepickerMd -->
<g id="node10" class="node">
<title>NgxDaterangepickerMd</title>
<polygon fill="#8dd3c7" stroke="black" points="1006.05,-122 1003.05,-126 982.05,-126 979.05,-122 853.95,-122 853.95,-86 1006.05,-86 1006.05,-122"/>
<text text-anchor="middle" x="930" y="-99.8" font-family="Times,serif" font-size="14.00">NgxDaterangepickerMd</text>
</g>
<!-- NgxDaterangepickerMd&#45;&gt;SharedModule -->
<g id="edge10" class="edge">
<title>NgxDaterangepickerMd&#45;&gt;SharedModule</title>
<path fill="none" stroke="black" d="M975.2,-122.24C975.2,-137.57 975.2,-157 975.2,-157 975.2,-157 1240.67,-157 1240.67,-157"/>
<polygon fill="black" stroke="black" points="1240.67,-160.5 1250.67,-157 1240.67,-153.5 1240.67,-160.5"/>
</g>
<!-- SearchFilterComponent -->
<g id="node11" class="node">
<title>SearchFilterComponent</title>
<polygon fill="#8dd3c7" stroke="black" points="835.75,-122 832.75,-126 811.75,-126 808.75,-122 686.25,-122 686.25,-86 835.75,-86 835.75,-122"/>
<text text-anchor="middle" x="761" y="-99.8" font-family="Times,serif" font-size="14.00">SearchFilterComponent</text>
</g>
<!-- SearchFilterComponent&#45;&gt;SharedModule -->
<g id="edge11" class="edge">
<title>SearchFilterComponent&#45;&gt;SharedModule</title>
<path fill="none" stroke="black" d="M793.88,-122.03C793.88,-138.4 793.88,-160 793.88,-160 793.88,-160 1240.55,-160 1240.55,-160"/>
<polygon fill="black" stroke="black" points="1240.55,-163.5 1250.55,-160 1240.55,-156.5 1240.55,-163.5"/>
</g>
<!-- SharedIndicatorComponent -->
<g id="node12" class="node">
<title>SharedIndicatorComponent</title>
<polygon fill="#8dd3c7" stroke="black" points="668.24,-122 665.24,-126 644.24,-126 641.24,-122 497.76,-122 497.76,-86 668.24,-86 668.24,-122"/>
<text text-anchor="middle" x="583" y="-99.8" font-family="Times,serif" font-size="14.00">SharedIndicatorComponent</text>
</g>
<!-- SharedIndicatorComponent&#45;&gt;SharedModule -->
<g id="edge12" class="edge">
<title>SharedIndicatorComponent&#45;&gt;SharedModule</title>
<path fill="none" stroke="black" d="M617.17,-122.02C617.17,-139.37 617.17,-163 617.17,-163 617.17,-163 1240.62,-163 1240.62,-163"/>
<polygon fill="black" stroke="black" points="1240.62,-166.5 1250.62,-163 1240.62,-159.5 1240.62,-166.5"/>
</g>
<!-- SharingToggleComponent -->
<g id="node13" class="node">
<title>SharingToggleComponent</title>
<polygon fill="#8dd3c7" stroke="black" points="479.04,-122 476.04,-126 455.04,-126 452.04,-122 314.96,-122 314.96,-86 479.04,-86 479.04,-122"/>
<text text-anchor="middle" x="397" y="-99.8" font-family="Times,serif" font-size="14.00">SharingToggleComponent</text>
</g>
<!-- SharingToggleComponent&#45;&gt;SharedModule -->
<g id="edge13" class="edge">
<title>SharingToggleComponent&#45;&gt;SharedModule</title>
<path fill="none" stroke="black" d="M456.54,-122.3C456.54,-140.27 456.54,-165 456.54,-165 456.54,-165 1240.7,-165 1240.7,-165"/>
<polygon fill="black" stroke="black" points="1240.7,-168.5 1250.7,-165 1240.7,-161.5 1240.7,-168.5"/>
</g>
<!-- SquacapiModule -->
<g id="node14" class="node">
<title>SquacapiModule</title>
<polygon fill="#8dd3c7" stroke="black" points="296.37,-122 293.37,-126 272.37,-126 269.37,-122 185.63,-122 185.63,-86 296.37,-86 296.37,-122"/>
<text text-anchor="middle" x="241" y="-99.8" font-family="Times,serif" font-size="14.00">SquacapiModule</text>
</g>
<!-- SquacapiModule&#45;&gt;SharedModule -->
<g id="edge14" class="edge">
<title>SquacapiModule&#45;&gt;SharedModule</title>
<path fill="none" stroke="black" d="M282.46,-122.17C282.46,-141.09 282.46,-168 282.46,-168 282.46,-168 1240.58,-168 1240.58,-168"/>
<polygon fill="black" stroke="black" points="1240.58,-171.5 1250.58,-168 1240.58,-164.5 1240.58,-171.5"/>
</g>
<!-- TableViewComponent -->
<g id="node15" class="node">
<title>TableViewComponent</title>
<polygon fill="#8dd3c7" stroke="black" points="167.52,-122 164.52,-126 143.52,-126 140.52,-122 24.48,-122 24.48,-86 167.52,-86 167.52,-122"/>
<text text-anchor="middle" x="96" y="-99.8" font-family="Times,serif" font-size="14.00">TableViewComponent</text>
</g>
<!-- TableViewComponent&#45;&gt;SharedModule -->
<g id="edge15" class="edge">
<title>TableViewComponent&#45;&gt;SharedModule</title>
<path fill="none" stroke="black" d="M96,-122.31C96,-142.15 96,-171 96,-171 96,-171 1240.56,-171 1240.56,-171"/>
<polygon fill="black" stroke="black" points="1240.56,-174.5 1250.56,-171 1240.56,-167.5 1240.56,-174.5"/>
</g>
<!-- ChannelGroupSelectorComponent  -->
<g id="node17" class="node">
<title>ChannelGroupSelectorComponent </title>
<polygon fill="#fb8072" stroke="black" points="2382.62,-252 2169.38,-252 2169.38,-216 2382.62,-216 2382.62,-252"/>
<text text-anchor="middle" x="2276" y="-229.8" font-family="Times,serif" font-size="14.00">ChannelGroupSelectorComponent </text>
</g>
<!-- SharedModule&#45;&gt;ChannelGroupSelectorComponent  -->
<g id="edge16" class="edge">
<title>SharedModule&#45;&gt;ChannelGroupSelectorComponent </title>
<path fill="none" stroke="black" stroke-dasharray="5,2" d="M1349.22,-174C1541.85,-174 2233.94,-174 2233.94,-174 2233.94,-174 2233.94,-206 2233.94,-206"/>
<polygon fill="black" stroke="black" points="2230.44,-206 2233.94,-216 2237.44,-206 2230.44,-206"/>
</g>
<!-- ConfirmDialogComponent  -->
<g id="node18" class="node">
<title>ConfirmDialogComponent </title>
<polygon fill="#fb8072" stroke="black" points="2151.37,-252 1980.63,-252 1980.63,-216 2151.37,-216 2151.37,-252"/>
<text text-anchor="middle" x="2066" y="-229.8" font-family="Times,serif" font-size="14.00">ConfirmDialogComponent </text>
</g>
<!-- SharedModule&#45;&gt;ConfirmDialogComponent  -->
<g id="edge17" class="edge">
<title>SharedModule&#45;&gt;ConfirmDialogComponent </title>
<path fill="none" stroke="black" stroke-dasharray="5,2" d="M1349.33,-176C1515.93,-176 2047.4,-176 2047.4,-176 2047.4,-176 2047.4,-205.97 2047.4,-205.97"/>
<polygon fill="black" stroke="black" points="2043.9,-205.97 2047.4,-215.97 2050.9,-205.97 2043.9,-205.97"/>
</g>
<!-- DateSelectComponent  -->
<g id="node19" class="node">
<title>DateSelectComponent </title>
<polygon fill="#fb8072" stroke="black" points="1962.97,-252 1817.03,-252 1817.03,-216 1962.97,-216 1962.97,-252"/>
<text text-anchor="middle" x="1890" y="-229.8" font-family="Times,serif" font-size="14.00">DateSelectComponent </text>
</g>
<!-- SharedModule&#45;&gt;DateSelectComponent  -->
<g id="edge18" class="edge">
<title>SharedModule&#45;&gt;DateSelectComponent </title>
<path fill="none" stroke="black" stroke-dasharray="5,2" d="M1349.47,-179C1486.84,-179 1862.97,-179 1862.97,-179 1862.97,-179 1862.97,-205.99 1862.97,-205.99"/>
<polygon fill="black" stroke="black" points="1859.47,-205.99 1862.97,-215.99 1866.47,-205.99 1859.47,-205.99"/>
</g>
<!-- DetailPageComponent  -->
<g id="node20" class="node">
<title>DetailPageComponent </title>
<polygon fill="#fb8072" stroke="black" points="1799.25,-252 1652.75,-252 1652.75,-216 1799.25,-216 1799.25,-252"/>
<text text-anchor="middle" x="1726" y="-229.8" font-family="Times,serif" font-size="14.00">DetailPageComponent </text>
</g>
<!-- SharedModule&#45;&gt;DetailPageComponent  -->
<g id="edge19" class="edge">
<title>SharedModule&#45;&gt;DetailPageComponent </title>
<path fill="none" stroke="black" stroke-dasharray="5,2" d="M1349.53,-182C1448,-182 1658.93,-182 1658.93,-182 1658.93,-182 1658.93,-205.81 1658.93,-205.81"/>
<polygon fill="black" stroke="black" points="1655.43,-205.81 1658.93,-215.81 1662.43,-205.81 1655.43,-205.81"/>
</g>
<!-- LoadingComponent  -->
<g id="node21" class="node">
<title>LoadingComponent </title>
<polygon fill="#fb8072" stroke="black" points="1634.99,-252 1503.01,-252 1503.01,-216 1634.99,-216 1634.99,-252"/>
<text text-anchor="middle" x="1569" y="-229.8" font-family="Times,serif" font-size="14.00">LoadingComponent </text>
</g>
<!-- SharedModule&#45;&gt;LoadingComponent  -->
<g id="edge20" class="edge">
<title>SharedModule&#45;&gt;LoadingComponent </title>
<path fill="none" stroke="black" stroke-dasharray="5,2" d="M1349.28,-185C1411.72,-185 1511.31,-185 1511.31,-185 1511.31,-185 1511.31,-205.75 1511.31,-205.75"/>
<polygon fill="black" stroke="black" points="1507.81,-205.75 1511.31,-215.75 1514.81,-205.75 1507.81,-205.75"/>
</g>
<!-- LoadingOverlayComponent  -->
<g id="node22" class="node">
<title>LoadingOverlayComponent </title>
<polygon fill="#fb8072" stroke="black" points="1485.08,-252 1308.92,-252 1308.92,-216 1485.08,-216 1485.08,-252"/>
<text text-anchor="middle" x="1397" y="-229.8" font-family="Times,serif" font-size="14.00">LoadingOverlayComponent </text>
</g>
<!-- SharedModule&#45;&gt;LoadingOverlayComponent  -->
<g id="edge21" class="edge">
<title>SharedModule&#45;&gt;LoadingOverlayComponent </title>
<path fill="none" stroke="black" stroke-dasharray="5,2" d="M1328.96,-187.11C1328.96,-187.11 1328.96,-205.99 1328.96,-205.99"/>
<polygon fill="black" stroke="black" points="1325.46,-205.99 1328.96,-215.99 1332.46,-205.99 1325.46,-205.99"/>
</g>
<!-- LoadingSpinnerComponent  -->
<g id="node23" class="node">
<title>LoadingSpinnerComponent </title>
<polygon fill="#fb8072" stroke="black" points="1290.54,-252 1115.46,-252 1115.46,-216 1290.54,-216 1290.54,-252"/>
<text text-anchor="middle" x="1203" y="-229.8" font-family="Times,serif" font-size="14.00">LoadingSpinnerComponent </text>
</g>
<!-- SharedModule&#45;&gt;LoadingSpinnerComponent  -->
<g id="edge22" class="edge">
<title>SharedModule&#45;&gt;LoadingSpinnerComponent </title>
<path fill="none" stroke="black" stroke-dasharray="5,2" d="M1270.65,-187.11C1270.65,-187.11 1270.65,-205.99 1270.65,-205.99"/>
<polygon fill="black" stroke="black" points="1267.15,-205.99 1270.65,-215.99 1274.15,-205.99 1267.15,-205.99"/>
</g>
<!-- SearchFilterComponent  -->
<g id="node24" class="node">
<title>SearchFilterComponent </title>
<polygon fill="#fb8072" stroke="black" points="1097.75,-252 944.25,-252 944.25,-216 1097.75,-216 1097.75,-252"/>
<text text-anchor="middle" x="1021" y="-229.8" font-family="Times,serif" font-size="14.00">SearchFilterComponent </text>
</g>
<!-- SharedModule&#45;&gt;SearchFilterComponent  -->
<g id="edge23" class="edge">
<title>SharedModule&#45;&gt;SearchFilterComponent </title>
<path fill="none" stroke="black" stroke-dasharray="5,2" d="M1250.75,-185C1180.77,-185 1060.93,-185 1060.93,-185 1060.93,-185 1060.93,-205.75 1060.93,-205.75"/>
<polygon fill="black" stroke="black" points="1057.43,-205.75 1060.93,-215.75 1064.43,-205.75 1057.43,-205.75"/>
</g>
<!-- SharedIndicatorComponent  -->
<g id="node25" class="node">
<title>SharedIndicatorComponent </title>
<polygon fill="#fb8072" stroke="black" points="926.24,-252 751.76,-252 751.76,-216 926.24,-216 926.24,-252"/>
<text text-anchor="middle" x="839" y="-229.8" font-family="Times,serif" font-size="14.00">SharedIndicatorComponent </text>
</g>
<!-- SharedModule&#45;&gt;SharedIndicatorComponent  -->
<g id="edge24" class="edge">
<title>SharedModule&#45;&gt;SharedIndicatorComponent </title>
<path fill="none" stroke="black" stroke-dasharray="5,2" d="M1250.55,-182C1141.52,-182 890.05,-182 890.05,-182 890.05,-182 890.05,-205.81 890.05,-205.81"/>
<polygon fill="black" stroke="black" points="886.55,-205.81 890.05,-215.81 893.55,-205.81 886.55,-205.81"/>
</g>
<!-- SharingToggleComponent  -->
<g id="node26" class="node">
<title>SharingToggleComponent </title>
<polygon fill="#fb8072" stroke="black" points="734.04,-252 565.96,-252 565.96,-216 734.04,-216 734.04,-252"/>
<text text-anchor="middle" x="650" y="-229.8" font-family="Times,serif" font-size="14.00">SharingToggleComponent </text>
</g>
<!-- SharedModule&#45;&gt;SharingToggleComponent  -->
<g id="edge25" class="edge">
<title>SharedModule&#45;&gt;SharingToggleComponent </title>
<path fill="none" stroke="black" stroke-dasharray="5,2" d="M1250.72,-179C1108.93,-179 710.07,-179 710.07,-179 710.07,-179 710.07,-205.99 710.07,-205.99"/>
<polygon fill="black" stroke="black" points="706.57,-205.99 710.07,-215.99 713.57,-205.99 706.57,-205.99"/>
</g>
<!-- SquacapiModule  -->
<g id="node27" class="node">
<title>SquacapiModule </title>
<polygon fill="#fb8072" stroke="black" points="548.37,-252 433.63,-252 433.63,-216 548.37,-216 548.37,-252"/>
<text text-anchor="middle" x="491" y="-229.8" font-family="Times,serif" font-size="14.00">SquacapiModule </text>
</g>
<!-- SharedModule&#45;&gt;SquacapiModule  -->
<g id="edge26" class="edge">
<title>SharedModule&#45;&gt;SquacapiModule </title>
<path fill="none" stroke="black" stroke-dasharray="5,2" d="M1250.5,-176C1079.34,-176 522.91,-176 522.91,-176 522.91,-176 522.91,-205.97 522.91,-205.97"/>
<polygon fill="black" stroke="black" points="519.41,-205.97 522.91,-215.97 526.41,-205.97 519.41,-205.97"/>
</g>
<!-- TableViewComponent  -->
<g id="node28" class="node">
<title>TableViewComponent </title>
<polygon fill="#fb8072" stroke="black" points="415.52,-252 268.48,-252 268.48,-216 415.52,-216 415.52,-252"/>
<text text-anchor="middle" x="342" y="-229.8" font-family="Times,serif" font-size="14.00">TableViewComponent </text>
</g>
<!-- SharedModule&#45;&gt;TableViewComponent  -->
<g id="edge27" class="edge">
<title>SharedModule&#45;&gt;TableViewComponent </title>
<path fill="none" stroke="black" stroke-dasharray="5,2" d="M1250.73,-174C1057.91,-174 365.12,-174 365.12,-174 365.12,-174 365.12,-206 365.12,-206"/>
<polygon fill="black" stroke="black" points="361.62,-206 365.12,-216 368.62,-206 361.62,-206"/>
</g>
</g>
</svg>
