<?xml version="1.0" encoding="UTF-8" standalone="no"?>
<!DOCTYPE svg PUBLIC "-//W3C//DTD SVG 1.1//EN"
 "http://www.w3.org/Graphics/SVG/1.1/DTD/svg11.dtd">
<!-- Generated by graphviz version 5.0.0 (20220707.1540)
 -->
<!-- Title: dependencies Pages: 1 -->
<svg width="2471pt" height="247pt"
 viewBox="0.00 0.00 2471.00 246.80" xmlns="http://www.w3.org/2000/svg" xmlns:xlink="http://www.w3.org/1999/xlink">
<g id="graph0" class="graph" transform="scale(1 1) rotate(0) translate(4 242.8)">
<title>dependencies</title>
<polygon fill="white" stroke="transparent" points="-4,4 -4,-242.8 2467,-242.8 2467,4 -4,4"/>
<text text-anchor="middle" x="1231.5" y="-8.2" font-family="sans-serif" font-size="14.00">dependencies</text>
<g id="clust1" class="cluster">
<title>cluster_SharedModule</title>
<polygon fill="none" stroke="black" stroke-dasharray="1,5" points="8,-32.8 8,-230.8 2455,-230.8 2455,-32.8 8,-32.8"/>
</g>
<g id="clust15" class="cluster">
<title>cluster_SharedModule_imports</title>
<polygon fill="none" stroke="black" points="2026,-40.8 2026,-92.8 2447,-92.8 2447,-40.8 2026,-40.8"/>
</g>
<g id="clust2" class="cluster">
<title>cluster_SharedModule_declarations</title>
<polygon fill="none" stroke="black" points="16,-40.8 16,-92.8 2018,-92.8 2018,-40.8 16,-40.8"/>
</g>
<g id="clust16" class="cluster">
<title>cluster_SharedModule_exports</title>
<polygon fill="none" stroke="black" points="113,-170.8 113,-222.8 2421,-222.8 2421,-170.8 113,-170.8"/>
</g>
<!-- ChannelGroupSelectorComponent -->
<g id="node1" class="node">
<title>ChannelGroupSelectorComponent</title>
<polygon fill="#ffffb3" stroke="black" points="2009.63,-84.8 1800.37,-84.8 1800.37,-48.8 2009.63,-48.8 2009.63,-84.8"/>
<text text-anchor="middle" x="1905" y="-62.6" font-family="Times,serif" font-size="14.00">ChannelGroupSelectorComponent</text>
</g>
<!-- SharedModule -->
<g id="node13" class="node">
<title>SharedModule</title>
<polygon fill="#8dd3c7" stroke="black" points="1284.43,-149.8 1281.43,-153.8 1260.43,-153.8 1257.43,-149.8 1185.57,-149.8 1185.57,-113.8 1284.43,-113.8 1284.43,-149.8"/>
<text text-anchor="middle" x="1235" y="-127.6" font-family="Times,serif" font-size="14.00">SharedModule</text>
</g>
<!-- ChannelGroupSelectorComponent&#45;&gt;SharedModule -->
<g id="edge1" class="edge">
<title>ChannelGroupSelectorComponent&#45;&gt;SharedModule</title>
<path fill="none" stroke="black" d="M1814.96,-84.83C1814.96,-101.86 1814.96,-124.8 1814.96,-124.8 1814.96,-124.8 1294.45,-124.8 1294.45,-124.8"/>
<polygon fill="black" stroke="black" points="1294.45,-121.3 1284.45,-124.8 1294.45,-128.3 1294.45,-121.3"/>
</g>
<!-- ConfirmDialogComponent -->
<g id="node2" class="node">
<title>ConfirmDialogComponent</title>
<polygon fill="#ffffb3" stroke="black" points="1782.38,-84.8 1615.62,-84.8 1615.62,-48.8 1782.38,-48.8 1782.38,-84.8"/>
<text text-anchor="middle" x="1699" y="-62.6" font-family="Times,serif" font-size="14.00">ConfirmDialogComponent</text>
</g>
<!-- ConfirmDialogComponent&#45;&gt;SharedModule -->
<g id="edge2" class="edge">
<title>ConfirmDialogComponent&#45;&gt;SharedModule</title>
<path fill="none" stroke="black" d="M1647.84,-84.81C1647.84,-100.85 1647.84,-121.8 1647.84,-121.8 1647.84,-121.8 1294.39,-121.8 1294.39,-121.8"/>
<polygon fill="black" stroke="black" points="1294.39,-118.3 1284.39,-121.8 1294.39,-125.3 1294.39,-118.3"/>
</g>
<!-- DateSelectComponent -->
<g id="node3" class="node">
<title>DateSelectComponent</title>
<polygon fill="#ffffb3" stroke="black" points="1597.97,-84.8 1456.03,-84.8 1456.03,-48.8 1597.97,-48.8 1597.97,-84.8"/>
<text text-anchor="middle" x="1527" y="-62.6" font-family="Times,serif" font-size="14.00">DateSelectComponent</text>
</g>
<!-- DateSelectComponent&#45;&gt;SharedModule -->
<g id="edge3" class="edge">
<title>DateSelectComponent&#45;&gt;SharedModule</title>
<path fill="none" stroke="black" d="M1500.15,-85.04C1500.15,-100.37 1500.15,-119.8 1500.15,-119.8 1500.15,-119.8 1294.25,-119.8 1294.25,-119.8"/>
<polygon fill="black" stroke="black" points="1294.25,-116.3 1284.25,-119.8 1294.25,-123.3 1294.25,-116.3"/>
</g>
<!-- LoadingComponent -->
<g id="node4" class="node">
<title>LoadingComponent</title>
<polygon fill="#ffffb3" stroke="black" points="1437.99,-84.8 1310.01,-84.8 1310.01,-48.8 1437.99,-48.8 1437.99,-84.8"/>
<text text-anchor="middle" x="1374" y="-62.6" font-family="Times,serif" font-size="14.00">LoadingComponent</text>
</g>
<!-- LoadingComponent&#45;&gt;SharedModule -->
<g id="edge4" class="edge">
<title>LoadingComponent&#45;&gt;SharedModule</title>
<path fill="none" stroke="black" d="M1329.76,-84.85C1329.76,-99.17 1329.76,-116.8 1329.76,-116.8 1329.76,-116.8 1294.32,-116.8 1294.32,-116.8"/>
<polygon fill="black" stroke="black" points="1294.32,-113.3 1284.32,-116.8 1294.32,-120.3 1294.32,-113.3"/>
</g>
<!-- LoadingDirective -->
<g id="node5" class="node">
<title>LoadingDirective</title>
<polygon fill="#ffffb3" stroke="black" points="1292.24,-84.8 1177.76,-84.8 1177.76,-48.8 1292.24,-48.8 1292.24,-84.8"/>
<text text-anchor="middle" x="1235" y="-62.6" font-family="Times,serif" font-size="14.00">LoadingDirective</text>
</g>
<!-- LoadingDirective&#45;&gt;SharedModule -->
<g id="edge5" class="edge">
<title>LoadingDirective&#45;&gt;SharedModule</title>
<path fill="none" stroke="black" d="M1235,-84.91C1235,-84.91 1235,-103.79 1235,-103.79"/>
<polygon fill="black" stroke="black" points="1231.5,-103.79 1235,-113.79 1238.5,-103.79 1231.5,-103.79"/>
</g>
<!-- LoadingOverlayComponent -->
<g id="node6" class="node">
<title>LoadingOverlayComponent</title>
<polygon fill="#ffffb3" stroke="black" points="1159.58,-84.8 986.42,-84.8 986.42,-48.8 1159.58,-48.8 1159.58,-84.8"/>
<text text-anchor="middle" x="1073" y="-62.6" font-family="Times,serif" font-size="14.00">LoadingOverlayComponent</text>
</g>
<!-- LoadingOverlayComponent&#45;&gt;SharedModule -->
<g id="edge6" class="edge">
<title>LoadingOverlayComponent&#45;&gt;SharedModule</title>
<path fill="none" stroke="black" d="M1082.59,-84.85C1082.59,-99.17 1082.59,-116.8 1082.59,-116.8 1082.59,-116.8 1175.52,-116.8 1175.52,-116.8"/>
<polygon fill="black" stroke="black" points="1175.52,-120.3 1185.52,-116.8 1175.52,-113.3 1175.52,-120.3"/>
</g>
<!-- LoadingSpinnerComponent -->
<g id="node7" class="node">
<title>LoadingSpinnerComponent</title>
<polygon fill="#ffffb3" stroke="black" points="968.54,-84.8 797.46,-84.8 797.46,-48.8 968.54,-48.8 968.54,-84.8"/>
<text text-anchor="middle" x="883" y="-62.6" font-family="Times,serif" font-size="14.00">LoadingSpinnerComponent</text>
</g>
<!-- LoadingSpinnerComponent&#45;&gt;SharedModule -->
<g id="edge7" class="edge">
<title>LoadingSpinnerComponent&#45;&gt;SharedModule</title>
<path fill="none" stroke="black" d="M953.52,-84.99C953.52,-99.98 953.52,-118.8 953.52,-118.8 953.52,-118.8 1175.65,-118.8 1175.65,-118.8"/>
<polygon fill="black" stroke="black" points="1175.65,-122.3 1185.65,-118.8 1175.65,-115.3 1175.65,-122.3"/>
</g>
<!-- ReplacePipe -->
<g id="node8" class="node">
<title>ReplacePipe</title>
<polygon fill="#ffffb3" stroke="black" points="778.97,-84.8 693.03,-84.8 693.03,-48.8 778.97,-48.8 778.97,-84.8"/>
<text text-anchor="middle" x="736" y="-62.6" font-family="Times,serif" font-size="14.00">ReplacePipe</text>
</g>
<!-- ReplacePipe&#45;&gt;SharedModule -->
<g id="edge8" class="edge">
<title>ReplacePipe&#45;&gt;SharedModule</title>
<path fill="none" stroke="black" d="M773.18,-84.81C773.18,-100.85 773.18,-121.8 773.18,-121.8 773.18,-121.8 1175.58,-121.8 1175.58,-121.8"/>
<polygon fill="black" stroke="black" points="1175.58,-125.3 1185.58,-121.8 1175.58,-118.3 1175.58,-125.3"/>
</g>
<!-- SearchFilterComponent -->
<g id="node9" class="node">
<title>SearchFilterComponent</title>
<polygon fill="#ffffb3" stroke="black" points="674.75,-84.8 525.25,-84.8 525.25,-48.8 674.75,-48.8 674.75,-84.8"/>
<text text-anchor="middle" x="600" y="-62.6" font-family="Times,serif" font-size="14.00">SearchFilterComponent</text>
</g>
<!-- SearchFilterComponent&#45;&gt;SharedModule -->
<g id="edge9" class="edge">
<title>SearchFilterComponent&#45;&gt;SharedModule</title>
<path fill="none" stroke="black" d="M624.88,-84.84C624.88,-101.53 624.88,-123.8 624.88,-123.8 624.88,-123.8 1175.59,-123.8 1175.59,-123.8"/>
<polygon fill="black" stroke="black" points="1175.59,-127.3 1185.59,-123.8 1175.59,-120.3 1175.59,-127.3"/>
</g>
<!-- SharedIndicatorComponent -->
<g id="node10" class="node">
<title>SharedIndicatorComponent</title>
<polygon fill="#ffffb3" stroke="black" points="507.24,-84.8 336.76,-84.8 336.76,-48.8 507.24,-48.8 507.24,-84.8"/>
<text text-anchor="middle" x="422" y="-62.6" font-family="Times,serif" font-size="14.00">SharedIndicatorComponent</text>
</g>
<!-- SharedIndicatorComponent&#45;&gt;SharedModule -->
<g id="edge10" class="edge">
<title>SharedIndicatorComponent&#45;&gt;SharedModule</title>
<path fill="none" stroke="black" d="M463.45,-84.82C463.45,-102.17 463.45,-125.8 463.45,-125.8 463.45,-125.8 1175.56,-125.8 1175.56,-125.8"/>
<polygon fill="black" stroke="black" points="1175.56,-129.3 1185.56,-125.8 1175.56,-122.3 1175.56,-129.3"/>
</g>
<!-- SnackbarComponent -->
<g id="node11" class="node">
<title>SnackbarComponent</title>
<polygon fill="#ffffb3" stroke="black" points="318.92,-84.8 185.08,-84.8 185.08,-48.8 318.92,-48.8 318.92,-84.8"/>
<text text-anchor="middle" x="252" y="-62.6" font-family="Times,serif" font-size="14.00">SnackbarComponent</text>
</g>
<!-- SnackbarComponent&#45;&gt;SharedModule -->
<g id="edge11" class="edge">
<title>SnackbarComponent&#45;&gt;SharedModule</title>
<path fill="none" stroke="black" d="M302.76,-85.07C302.76,-103.36 302.76,-128.8 302.76,-128.8 302.76,-128.8 1175.54,-128.8 1175.54,-128.8"/>
<polygon fill="black" stroke="black" points="1175.54,-132.3 1185.54,-128.8 1175.54,-125.3 1175.54,-132.3"/>
</g>
<!-- TableViewComponent -->
<g id="node12" class="node">
<title>TableViewComponent</title>
<polygon fill="#ffffb3" stroke="black" points="167.53,-84.8 24.47,-84.8 24.47,-48.8 167.53,-48.8 167.53,-84.8"/>
<text text-anchor="middle" x="96" y="-62.6" font-family="Times,serif" font-size="14.00">TableViewComponent</text>
</g>
<!-- TableViewComponent&#45;&gt;SharedModule -->
<g id="edge12" class="edge">
<title>TableViewComponent&#45;&gt;SharedModule</title>
<path fill="none" stroke="black" d="M144.62,-84.97C144.62,-103.89 144.62,-130.8 144.62,-130.8 144.62,-130.8 1175.67,-130.8 1175.67,-130.8"/>
<polygon fill="black" stroke="black" points="1175.67,-134.3 1185.67,-130.8 1175.67,-127.3 1175.67,-134.3"/>
</g>
<!-- ChannelGroupSelectorComponent  -->
<g id="node17" class="node">
<title>ChannelGroupSelectorComponent </title>
<polygon fill="#fb8072" stroke="black" points="2412.63,-214.8 2199.37,-214.8 2199.37,-178.8 2412.63,-178.8 2412.63,-214.8"/>
<text text-anchor="middle" x="2306" y="-192.6" font-family="Times,serif" font-size="14.00">ChannelGroupSelectorComponent </text>
</g>
<!-- SharedModule&#45;&gt;ChannelGroupSelectorComponent  -->
<g id="edge16" class="edge">
<title>SharedModule&#45;&gt;ChannelGroupSelectorComponent </title>
<path fill="none" stroke="black" stroke-dasharray="5,2" d="M1284.28,-134.8C1488.38,-134.8 2256.73,-134.8 2256.73,-134.8 2256.73,-134.8 2256.73,-168.53 2256.73,-168.53"/>
<polygon fill="black" stroke="black" points="2253.23,-168.53 2256.73,-178.53 2260.23,-168.53 2253.23,-168.53"/>
</g>
<!-- ConfirmDialogComponent  -->
<g id="node18" class="node">
<title>ConfirmDialogComponent </title>
<polygon fill="#fb8072" stroke="black" points="2181.38,-214.8 2010.62,-214.8 2010.62,-178.8 2181.38,-178.8 2181.38,-214.8"/>
<text text-anchor="middle" x="2096" y="-192.6" font-family="Times,serif" font-size="14.00">ConfirmDialogComponent </text>
</g>
<!-- SharedModule&#45;&gt;ConfirmDialogComponent  -->
<g id="edge17" class="edge">
<title>SharedModule&#45;&gt;ConfirmDialogComponent </title>
<path fill="none" stroke="black" stroke-dasharray="5,2" d="M1284.24,-137.8C1456.58,-137.8 2022.19,-137.8 2022.19,-137.8 2022.19,-137.8 2022.19,-168.78 2022.19,-168.78"/>
<polygon fill="black" stroke="black" points="2018.69,-168.78 2022.19,-178.78 2025.69,-168.78 2018.69,-168.78"/>
</g>
<!-- DateSelectComponent  -->
<g id="node19" class="node">
<title>DateSelectComponent </title>
<polygon fill="#fb8072" stroke="black" points="1992.97,-214.8 1847.03,-214.8 1847.03,-178.8 1992.97,-178.8 1992.97,-214.8"/>
<text text-anchor="middle" x="1920" y="-192.6" font-family="Times,serif" font-size="14.00">DateSelectComponent </text>
</g>
<!-- SharedModule&#45;&gt;DateSelectComponent  -->
<g id="edge18" class="edge">
<title>SharedModule&#45;&gt;DateSelectComponent </title>
<path fill="none" stroke="black" stroke-dasharray="5,2" d="M1284.26,-139.8C1441.33,-139.8 1920,-139.8 1920,-139.8 1920,-139.8 1920,-168.76 1920,-168.76"/>
<polygon fill="black" stroke="black" points="1916.5,-168.76 1920,-178.76 1923.5,-168.76 1916.5,-168.76"/>
</g>
<!-- LoadingComponent  -->
<g id="node20" class="node">
<title>LoadingComponent </title>
<polygon fill="#fb8072" stroke="black" points="1829.99,-214.8 1698.01,-214.8 1698.01,-178.8 1829.99,-178.8 1829.99,-214.8"/>
<text text-anchor="middle" x="1764" y="-192.6" font-family="Times,serif" font-size="14.00">LoadingComponent </text>
</g>
<!-- SharedModule&#45;&gt;LoadingComponent  -->
<g id="edge19" class="edge">
<title>SharedModule&#45;&gt;LoadingComponent </title>
<path fill="none" stroke="black" stroke-dasharray="5,2" d="M1284.37,-142.8C1411.53,-142.8 1740.35,-142.8 1740.35,-142.8 1740.35,-142.8 1740.35,-168.52 1740.35,-168.52"/>
<polygon fill="black" stroke="black" points="1736.85,-168.52 1740.35,-178.52 1743.85,-168.52 1736.85,-168.52"/>
</g>
<!-- LoadingDirective  -->
<g id="node21" class="node">
<title>LoadingDirective </title>
<polygon fill="#fb8072" stroke="black" points="1680.24,-214.8 1561.76,-214.8 1561.76,-178.8 1680.24,-178.8 1680.24,-214.8"/>
<text text-anchor="middle" x="1621" y="-192.6" font-family="Times,serif" font-size="14.00">LoadingDirective </text>
</g>
<!-- SharedModule&#45;&gt;LoadingDirective  -->
<g id="edge20" class="edge">
<title>SharedModule&#45;&gt;LoadingDirective </title>
<path fill="none" stroke="black" stroke-dasharray="5,2" d="M1284.42,-144.8C1379.8,-144.8 1579.93,-144.8 1579.93,-144.8 1579.93,-144.8 1579.93,-168.61 1579.93,-168.61"/>
<polygon fill="black" stroke="black" points="1576.43,-168.61 1579.93,-178.61 1583.43,-168.61 1576.43,-168.61"/>
</g>
<!-- LoadingOverlayComponent  -->
<g id="node22" class="node">
<title>LoadingOverlayComponent </title>
<polygon fill="#fb8072" stroke="black" points="1544.08,-214.8 1367.92,-214.8 1367.92,-178.8 1544.08,-178.8 1544.08,-214.8"/>
<text text-anchor="middle" x="1456" y="-192.6" font-family="Times,serif" font-size="14.00">LoadingOverlayComponent </text>
</g>
<!-- SharedModule&#45;&gt;LoadingOverlayComponent  -->
<g id="edge21" class="edge">
<title>SharedModule&#45;&gt;LoadingOverlayComponent </title>
<path fill="none" stroke="black" stroke-dasharray="5,2" d="M1284.45,-147.8C1333.97,-147.8 1402.85,-147.8 1402.85,-147.8 1402.85,-147.8 1402.85,-168.55 1402.85,-168.55"/>
<polygon fill="black" stroke="black" points="1399.35,-168.55 1402.85,-178.55 1406.35,-168.55 1399.35,-168.55"/>
</g>
<!-- LoadingSpinnerComponent  -->
<g id="node23" class="node">
<title>LoadingSpinnerComponent </title>
<polygon fill="#fb8072" stroke="black" points="1349.54,-214.8 1174.46,-214.8 1174.46,-178.8 1349.54,-178.8 1349.54,-214.8"/>
<text text-anchor="middle" x="1262" y="-192.6" font-family="Times,serif" font-size="14.00">LoadingSpinnerComponent </text>
</g>
<!-- SharedModule&#45;&gt;LoadingSpinnerComponent  -->
<g id="edge22" class="edge">
<title>SharedModule&#45;&gt;LoadingSpinnerComponent </title>
<path fill="none" stroke="black" stroke-dasharray="5,2" d="M1235,-149.91C1235,-149.91 1235,-168.79 1235,-168.79"/>
<polygon fill="black" stroke="black" points="1231.5,-168.79 1235,-178.79 1238.5,-168.79 1231.5,-168.79"/>
</g>
<!-- MaterialModule  -->
<g id="node24" class="node">
<title>MaterialModule </title>
<polygon fill="#fb8072" stroke="black" points="1156.47,-214.8 1045.53,-214.8 1045.53,-178.8 1156.47,-178.8 1156.47,-214.8"/>
<text text-anchor="middle" x="1101" y="-192.6" font-family="Times,serif" font-size="14.00">MaterialModule </text>
</g>
<!-- SharedModule&#45;&gt;MaterialModule  -->
<g id="edge23" class="edge">
<title>SharedModule&#45;&gt;MaterialModule </title>
<path fill="none" stroke="black" stroke-dasharray="5,2" d="M1185.65,-147.8C1154.23,-147.8 1119.41,-147.8 1119.41,-147.8 1119.41,-147.8 1119.41,-168.55 1119.41,-168.55"/>
<polygon fill="black" stroke="black" points="1115.91,-168.55 1119.41,-178.55 1122.91,-168.55 1115.91,-168.55"/>
</g>
<!-- ReplacePipe  -->
<g id="node25" class="node">
<title>ReplacePipe </title>
<polygon fill="#fb8072" stroke="black" points="1027.97,-214.8 938.03,-214.8 938.03,-178.8 1027.97,-178.8 1027.97,-214.8"/>
<text text-anchor="middle" x="983" y="-192.6" font-family="Times,serif" font-size="14.00">ReplacePipe </text>
</g>
<!-- SharedModule&#45;&gt;ReplacePipe  -->
<g id="edge24" class="edge">
<title>SharedModule&#45;&gt;ReplacePipe </title>
<path fill="none" stroke="black" stroke-dasharray="5,2" d="M1185.55,-145.8C1118.52,-145.8 1007.1,-145.8 1007.1,-145.8 1007.1,-145.8 1007.1,-168.68 1007.1,-168.68"/>
<polygon fill="black" stroke="black" points="1003.6,-168.68 1007.1,-178.68 1010.6,-168.68 1003.6,-168.68"/>
</g>
<!-- SearchFilterComponent  -->
<g id="node26" class="node">
<title>SearchFilterComponent </title>
<polygon fill="#fb8072" stroke="black" points="920.75,-214.8 767.25,-214.8 767.25,-178.8 920.75,-178.8 920.75,-214.8"/>
<text text-anchor="middle" x="844" y="-192.6" font-family="Times,serif" font-size="14.00">SearchFilterComponent </text>
</g>
<!-- SharedModule&#45;&gt;SearchFilterComponent  -->
<g id="edge25" class="edge">
<title>SharedModule&#45;&gt;SearchFilterComponent </title>
<path fill="none" stroke="black" stroke-dasharray="5,2" d="M1185.45,-142.8C1083.33,-142.8 858.93,-142.8 858.93,-142.8 858.93,-142.8 858.93,-168.52 858.93,-168.52"/>
<polygon fill="black" stroke="black" points="855.43,-168.52 858.93,-178.52 862.43,-168.52 855.43,-168.52"/>
</g>
<!-- SharedIndicatorComponent  -->
<g id="node27" class="node">
<title>SharedIndicatorComponent </title>
<polygon fill="#fb8072" stroke="black" points="749.24,-214.8 574.76,-214.8 574.76,-178.8 749.24,-178.8 749.24,-214.8"/>
<text text-anchor="middle" x="662" y="-192.6" font-family="Times,serif" font-size="14.00">SharedIndicatorComponent </text>
</g>
<!-- SharedModule&#45;&gt;SharedIndicatorComponent  -->
<g id="edge26" class="edge">
<title>SharedModule&#45;&gt;SharedIndicatorComponent </title>
<path fill="none" stroke="black" stroke-dasharray="5,2" d="M1185.72,-140.8C1057.09,-140.8 721.07,-140.8 721.07,-140.8 721.07,-140.8 721.07,-168.77 721.07,-168.77"/>
<polygon fill="black" stroke="black" points="717.57,-168.77 721.07,-178.77 724.57,-168.77 717.57,-168.77"/>
</g>
<!-- SnackbarComponent  -->
<g id="node28" class="node">
<title>SnackbarComponent </title>
<polygon fill="#fb8072" stroke="black" points="556.42,-214.8 419.58,-214.8 419.58,-178.8 556.42,-178.8 556.42,-214.8"/>
<text text-anchor="middle" x="488" y="-192.6" font-family="Times,serif" font-size="14.00">SnackbarComponent </text>
</g>
<!-- SharedModule&#45;&gt;SnackbarComponent  -->
<g id="edge27" class="edge">
<title>SharedModule&#45;&gt;SnackbarComponent </title>
<path fill="none" stroke="black" stroke-dasharray="5,2" d="M1185.63,-137.8C1027.03,-137.8 540.79,-137.8 540.79,-137.8 540.79,-137.8 540.79,-168.78 540.79,-168.78"/>
<polygon fill="black" stroke="black" points="537.29,-168.78 540.79,-178.78 544.29,-168.78 537.29,-168.78"/>
</g>
<!-- SquacapiModule  -->
<g id="node29" class="node">
<title>SquacapiModule </title>
<polygon fill="#fb8072" stroke="black" points="401.37,-214.8 286.63,-214.8 286.63,-178.8 401.37,-178.8 401.37,-214.8"/>
<text text-anchor="middle" x="344" y="-192.6" font-family="Times,serif" font-size="14.00">SquacapiModule </text>
</g>
<!-- SharedModule&#45;&gt;SquacapiModule  -->
<g id="edge28" class="edge">
<title>SharedModule&#45;&gt;SquacapiModule </title>
<path fill="none" stroke="black" stroke-dasharray="5,2" d="M1185.64,-135.8C1002.01,-135.8 368.91,-135.8 368.91,-135.8 368.91,-135.8 368.91,-168.5 368.91,-168.5"/>
<polygon fill="black" stroke="black" points="365.41,-168.5 368.91,-178.5 372.41,-168.5 365.41,-168.5"/>
</g>
<!-- TableViewComponent  -->
<g id="node30" class="node">
<title>TableViewComponent </title>
<polygon fill="#fb8072" stroke="black" points="268.52,-214.8 121.48,-214.8 121.48,-178.8 268.52,-178.8 268.52,-214.8"/>
<text text-anchor="middle" x="195" y="-192.6" font-family="Times,serif" font-size="14.00">TableViewComponent </text>
</g>
<!-- SharedModule&#45;&gt;TableViewComponent  -->
<g id="edge29" class="edge">
<title>SharedModule&#45;&gt;TableViewComponent </title>
<path fill="none" stroke="black" stroke-dasharray="5,2" d="M1185.69,-133.8C983.3,-133.8 226.9,-133.8 226.9,-133.8 226.9,-133.8 226.9,-168.58 226.9,-168.58"/>
<polygon fill="black" stroke="black" points="223.4,-168.58 226.9,-178.58 230.4,-168.58 223.4,-168.58"/>
</g>
<!-- MaterialModule -->
<g id="node14" class="node">
<title>MaterialModule</title>
<polygon fill="#8dd3c7" stroke="black" points="2439.47,-84.8 2436.47,-88.8 2415.47,-88.8 2412.47,-84.8 2332.53,-84.8 2332.53,-48.8 2439.47,-48.8 2439.47,-84.8"/>
<text text-anchor="middle" x="2386" y="-62.6" font-family="Times,serif" font-size="14.00">MaterialModule</text>
</g>
<!-- MaterialModule&#45;&gt;SharedModule -->
<g id="edge13" class="edge">
<title>MaterialModule&#45;&gt;SharedModule</title>
<path fill="none" stroke="black" d="M2372.54,-84.91C2372.54,-104.14 2372.54,-131.8 2372.54,-131.8 2372.54,-131.8 1294.24,-131.8 1294.24,-131.8"/>
<polygon fill="black" stroke="black" points="1294.24,-128.3 1284.24,-131.8 1294.24,-135.3 1294.24,-128.3"/>
</g>
<!-- NgxDaterangepickerMd -->
<g id="node15" class="node">
<title>NgxDaterangepickerMd</title>
<polygon fill="#8dd3c7" stroke="black" points="2314.06,-84.8 2311.06,-88.8 2290.06,-88.8 2287.06,-84.8 2161.94,-84.8 2161.94,-48.8 2314.06,-48.8 2314.06,-84.8"/>
<text text-anchor="middle" x="2238" y="-62.6" font-family="Times,serif" font-size="14.00">NgxDaterangepickerMd</text>
</g>
<!-- NgxDaterangepickerMd&#45;&gt;SharedModule -->
<g id="edge14" class="edge">
<title>NgxDaterangepickerMd&#45;&gt;SharedModule</title>
<path fill="none" stroke="black" d="M2171.58,-85.02C2171.58,-103.63 2171.58,-129.8 2171.58,-129.8 2171.58,-129.8 1294.36,-129.8 1294.36,-129.8"/>
<polygon fill="black" stroke="black" points="1294.36,-126.3 1284.36,-129.8 1294.36,-133.3 1294.36,-126.3"/>
</g>
<!-- SquacapiModule -->
<g id="node16" class="node">
<title>SquacapiModule</title>
<polygon fill="#8dd3c7" stroke="black" points="2144.37,-84.8 2141.37,-88.8 2120.37,-88.8 2117.37,-84.8 2033.63,-84.8 2033.63,-48.8 2144.37,-48.8 2144.37,-84.8"/>
<text text-anchor="middle" x="2089" y="-62.6" font-family="Times,serif" font-size="14.00">SquacapiModule</text>
</g>
<!-- SquacapiModule&#45;&gt;SharedModule -->
<g id="edge15" class="edge">
<title>SquacapiModule&#45;&gt;SharedModule</title>
<path fill="none" stroke="black" d="M2089,-84.8C2089,-102.48 2089,-126.8 2089,-126.8 2089,-126.8 1294.29,-126.8 1294.29,-126.8"/>
<polygon fill="black" stroke="black" points="1294.29,-123.3 1284.29,-126.8 1294.29,-130.3 1294.29,-123.3"/>
</g>
</g>
</svg>
