<?xml version="1.0" encoding="UTF-8" standalone="no"?>
<!DOCTYPE svg PUBLIC "-//W3C//DTD SVG 1.1//EN"
 "http://www.w3.org/Graphics/SVG/1.1/DTD/svg11.dtd">
<!-- Generated by graphviz version 5.0.0 (20220707.1540)
 -->
<!-- Title: dependencies Pages: 1 -->
<svg width="410pt" height="247pt"
 viewBox="0.00 0.00 410.00 246.80" xmlns="http://www.w3.org/2000/svg" xmlns:xlink="http://www.w3.org/1999/xlink">
<g id="graph0" class="graph" transform="scale(1 1) rotate(0) translate(4 242.8)">
<title>dependencies</title>
<polygon fill="white" stroke="transparent" points="-4,4 -4,-242.8 406,-242.8 406,4 -4,4"/>
<text text-anchor="middle" x="201" y="-8.2" font-family="sans-serif" font-size="14.00">dependencies</text>
<g id="clust1" class="cluster">
<title>cluster_SharedModule</title>
<polygon fill="none" stroke="black" stroke-dasharray="1,5" points="8,-32.8 8,-230.8 394,-230.8 394,-32.8 8,-32.8"/>
</g>
<g id="clust2" class="cluster">
<title>cluster_SharedModule_declarations</title>
<polygon fill="none" stroke="black" points="150,-40.8 150,-92.8 381,-92.8 381,-40.8 150,-40.8"/>
</g>
<g id="clust6" class="cluster">
<title>cluster_SharedModule_exports</title>
<polygon fill="none" stroke="black" points="16,-170.8 16,-222.8 386,-222.8 386,-170.8 16,-170.8"/>
</g>
<g id="clust5" class="cluster">
<title>cluster_SharedModule_imports</title>
<polygon fill="none" stroke="black" points="16,-40.8 16,-92.8 142,-92.8 142,-40.8 16,-40.8"/>
</g>
<!-- GuardTypePipe -->
<g id="node1" class="node">
<title>GuardTypePipe</title>
<polygon fill="#ffffb3" stroke="black" points="373.14,-84.8 268.86,-84.8 268.86,-48.8 373.14,-48.8 373.14,-84.8"/>
<text text-anchor="middle" x="321" y="-62.6" font-family="Times,serif" font-size="14.00">GuardTypePipe</text>
</g>
<!-- SharedModule -->
<g id="node3" class="node">
<title>SharedModule</title>
<polygon fill="#8dd3c7" stroke="black" points="253.43,-149.8 250.43,-153.8 229.43,-153.8 226.43,-149.8 154.57,-149.8 154.57,-113.8 253.43,-113.8 253.43,-149.8"/>
<text text-anchor="middle" x="204" y="-127.6" font-family="Times,serif" font-size="14.00">SharedModule</text>
</g>
<!-- GuardTypePipe&#45;&gt;SharedModule -->
<g id="edge1" class="edge">
<title>GuardTypePipe&#45;&gt;SharedModule</title>
<path fill="none" stroke="black" d="M338.86,-84.82C338.86,-102.17 338.86,-125.8 338.86,-125.8 338.86,-125.8 263.45,-125.8 263.45,-125.8"/>
<polygon fill="black" stroke="black" points="263.45,-122.3 253.45,-125.8 263.45,-129.3 263.45,-122.3"/>
</g>
<!-- PrecisionPipe -->
<g id="node2" class="node">
<title>PrecisionPipe</title>
<polygon fill="#ffffb3" stroke="black" points="250.49,-84.8 157.51,-84.8 157.51,-48.8 250.49,-48.8 250.49,-84.8"/>
<text text-anchor="middle" x="204" y="-62.6" font-family="Times,serif" font-size="14.00">PrecisionPipe</text>
</g>
<!-- PrecisionPipe&#45;&gt;SharedModule -->
<g id="edge2" class="edge">
<title>PrecisionPipe&#45;&gt;SharedModule</title>
<path fill="none" stroke="black" d="M204,-84.91C204,-84.91 204,-103.79 204,-103.79"/>
<polygon fill="black" stroke="black" points="200.5,-103.79 204,-113.79 207.5,-103.79 200.5,-103.79"/>
</g>
<!-- GuardTypePipe  -->
<g id="node5" class="node">
<title>GuardTypePipe </title>
<polygon fill="#fb8072" stroke="black" points="378.14,-214.8 269.86,-214.8 269.86,-178.8 378.14,-178.8 378.14,-214.8"/>
<text text-anchor="middle" x="324" y="-192.6" font-family="Times,serif" font-size="14.00">GuardTypePipe </text>
</g>
<!-- SharedModule&#45;&gt;GuardTypePipe  -->
<g id="edge4" class="edge">
<title>SharedModule&#45;&gt;GuardTypePipe </title>
<path fill="none" stroke="black" stroke-dasharray="5,2" d="M253.31,-137.8C278.7,-137.8 304.39,-137.8 304.39,-137.8 304.39,-137.8 304.39,-168.78 304.39,-168.78"/>
<polygon fill="black" stroke="black" points="300.89,-168.78 304.39,-178.78 307.89,-168.78 300.89,-168.78"/>
</g>
<!-- PrecisionPipe  -->
<g id="node6" class="node">
<title>PrecisionPipe </title>
<polygon fill="#fb8072" stroke="black" points="252.49,-214.8 155.51,-214.8 155.51,-178.8 252.49,-178.8 252.49,-214.8"/>
<text text-anchor="middle" x="204" y="-192.6" font-family="Times,serif" font-size="14.00">PrecisionPipe </text>
</g>
<!-- SharedModule&#45;&gt;PrecisionPipe  -->
<g id="edge5" class="edge">
<title>SharedModule&#45;&gt;PrecisionPipe </title>
<path fill="none" stroke="black" stroke-dasharray="5,2" d="M204,-149.91C204,-149.91 204,-168.79 204,-168.79"/>
<polygon fill="black" stroke="black" points="200.5,-168.79 204,-178.79 207.5,-168.79 200.5,-168.79"/>
</g>
<!-- SquacapiModule  -->
<g id="node7" class="node">
<title>SquacapiModule </title>
<polygon fill="#fb8072" stroke="black" points="138.37,-214.8 23.63,-214.8 23.63,-178.8 138.37,-178.8 138.37,-214.8"/>
<text text-anchor="middle" x="81" y="-192.6" font-family="Times,serif" font-size="14.00">SquacapiModule </text>
</g>
<!-- SharedModule&#45;&gt;SquacapiModule  -->
<g id="edge6" class="edge">
<title>SharedModule&#45;&gt;SquacapiModule </title>
<path fill="none" stroke="black" stroke-dasharray="5,2" d="M154.52,-137.8C126.72,-137.8 97.56,-137.8 97.56,-137.8 97.56,-137.8 97.56,-168.78 97.56,-168.78"/>
<polygon fill="black" stroke="black" points="94.06,-168.78 97.56,-178.78 101.06,-168.78 94.06,-168.78"/>
</g>
<!-- SquacapiModule -->
<g id="node4" class="node">
<title>SquacapiModule</title>
<polygon fill="#8dd3c7" stroke="black" points="134.37,-84.8 131.37,-88.8 110.37,-88.8 107.37,-84.8 23.63,-84.8 23.63,-48.8 134.37,-48.8 134.37,-84.8"/>
<text text-anchor="middle" x="79" y="-62.6" font-family="Times,serif" font-size="14.00">SquacapiModule</text>
</g>
<!-- SquacapiModule&#45;&gt;SharedModule -->
<g id="edge3" class="edge">
<title>SquacapiModule&#45;&gt;SharedModule</title>
<path fill="none" stroke="black" d="M60.69,-84.82C60.69,-102.17 60.69,-125.8 60.69,-125.8 60.69,-125.8 144.68,-125.8 144.68,-125.8"/>
<polygon fill="black" stroke="black" points="144.68,-129.3 154.68,-125.8 144.68,-122.3 144.68,-129.3"/>
</g>
</g>
</svg>
