<?xml version="1.0" encoding="UTF-8" standalone="no"?>
<!DOCTYPE svg PUBLIC "-//W3C//DTD SVG 1.1//EN"
 "http://www.w3.org/Graphics/SVG/1.1/DTD/svg11.dtd">
<!-- Generated by graphviz version 5.0.0 (20220707.1540)
 -->
<!-- Title: dependencies Pages: 1 -->
<svg width="2599pt" height="247pt"
 viewBox="0.00 0.00 2599.00 246.80" xmlns="http://www.w3.org/2000/svg" xmlns:xlink="http://www.w3.org/1999/xlink">
<g id="graph0" class="graph" transform="scale(1 1) rotate(0) translate(4 242.8)">
<title>dependencies</title>
<polygon fill="white" stroke="transparent" points="-4,4 -4,-242.8 2595,-242.8 2595,4 -4,4"/>
<text text-anchor="middle" x="1295.5" y="-8.2" font-family="sans-serif" font-size="14.00">dependencies</text>
<g id="clust1" class="cluster">
<title>cluster_SharedModule</title>
<polygon fill="none" stroke="black" stroke-dasharray="1,5" points="8,-32.8 8,-230.8 2583,-230.8 2583,-32.8 8,-32.8"/>
</g>
<g id="clust17" class="cluster">
<title>cluster_SharedModule_exports</title>
<polygon fill="none" stroke="black" points="110,-170.8 110,-222.8 2551,-222.8 2551,-170.8 110,-170.8"/>
</g>
<g id="clust16" class="cluster">
<title>cluster_SharedModule_imports</title>
<polygon fill="none" stroke="black" points="2154,-40.8 2154,-92.8 2575,-92.8 2575,-40.8 2154,-40.8"/>
</g>
<g id="clust2" class="cluster">
<title>cluster_SharedModule_declarations</title>
<polygon fill="none" stroke="black" points="16,-40.8 16,-92.8 2146,-92.8 2146,-40.8 16,-40.8"/>
</g>
<!-- ChannelGroupSelectorComponent -->
<g id="node1" class="node">
<title>ChannelGroupSelectorComponent</title>
<polygon fill="#ffffb3" stroke="black" points="2137.63,-84.8 1928.37,-84.8 1928.37,-48.8 2137.63,-48.8 2137.63,-84.8"/>
<text text-anchor="middle" x="2033" y="-62.6" font-family="Times,serif" font-size="14.00">ChannelGroupSelectorComponent</text>
</g>
<!-- SharedModule -->
<g id="node14" class="node">
<title>SharedModule</title>
<polygon fill="#8dd3c7" stroke="black" points="1308.43,-149.8 1305.43,-153.8 1284.43,-153.8 1281.43,-149.8 1209.57,-149.8 1209.57,-113.8 1308.43,-113.8 1308.43,-149.8"/>
<text text-anchor="middle" x="1259" y="-127.6" font-family="Times,serif" font-size="14.00">SharedModule</text>
</g>
<!-- ChannelGroupSelectorComponent&#45;&gt;SharedModule -->
<g id="edge1" class="edge">
<title>ChannelGroupSelectorComponent&#45;&gt;SharedModule</title>
<path fill="none" stroke="black" d="M1943.69,-84.84C1943.69,-101.53 1943.69,-123.8 1943.69,-123.8 1943.69,-123.8 1318.24,-123.8 1318.24,-123.8"/>
<polygon fill="black" stroke="black" points="1318.24,-120.3 1308.24,-123.8 1318.24,-127.3 1318.24,-120.3"/>
</g>
<!-- ConfirmDialogComponent -->
<g id="node2" class="node">
<title>ConfirmDialogComponent</title>
<polygon fill="#ffffb3" stroke="black" points="1910.38,-84.8 1743.62,-84.8 1743.62,-48.8 1910.38,-48.8 1910.38,-84.8"/>
<text text-anchor="middle" x="1827" y="-62.6" font-family="Times,serif" font-size="14.00">ConfirmDialogComponent</text>
</g>
<!-- ConfirmDialogComponent&#45;&gt;SharedModule -->
<g id="edge2" class="edge">
<title>ConfirmDialogComponent&#45;&gt;SharedModule</title>
<path fill="none" stroke="black" d="M1785.15,-84.81C1785.15,-100.85 1785.15,-121.8 1785.15,-121.8 1785.15,-121.8 1318.5,-121.8 1318.5,-121.8"/>
<polygon fill="black" stroke="black" points="1318.5,-118.3 1308.5,-121.8 1318.5,-125.3 1318.5,-118.3"/>
</g>
<!-- DateSelectComponent -->
<g id="node3" class="node">
<title>DateSelectComponent</title>
<polygon fill="#ffffb3" stroke="black" points="1725.97,-84.8 1584.03,-84.8 1584.03,-48.8 1725.97,-48.8 1725.97,-84.8"/>
<text text-anchor="middle" x="1655" y="-62.6" font-family="Times,serif" font-size="14.00">DateSelectComponent</text>
</g>
<!-- DateSelectComponent&#45;&gt;SharedModule -->
<g id="edge3" class="edge">
<title>DateSelectComponent&#45;&gt;SharedModule</title>
<path fill="none" stroke="black" d="M1630.57,-84.99C1630.57,-99.98 1630.57,-118.8 1630.57,-118.8 1630.57,-118.8 1318.34,-118.8 1318.34,-118.8"/>
<polygon fill="black" stroke="black" points="1318.34,-115.3 1308.34,-118.8 1318.34,-122.3 1318.34,-115.3"/>
</g>
<!-- ErrorComponent -->
<g id="node4" class="node">
<title>ErrorComponent</title>
<polygon fill="#ffffb3" stroke="black" points="1566.37,-84.8 1455.63,-84.8 1455.63,-48.8 1566.37,-48.8 1566.37,-84.8"/>
<text text-anchor="middle" x="1511" y="-62.6" font-family="Times,serif" font-size="14.00">ErrorComponent</text>
</g>
<!-- ErrorComponent&#45;&gt;SharedModule -->
<g id="edge4" class="edge">
<title>ErrorComponent&#45;&gt;SharedModule</title>
<path fill="none" stroke="black" d="M1498.43,-84.85C1498.43,-99.17 1498.43,-116.8 1498.43,-116.8 1498.43,-116.8 1318.32,-116.8 1318.32,-116.8"/>
<polygon fill="black" stroke="black" points="1318.32,-113.3 1308.32,-116.8 1318.32,-120.3 1318.32,-113.3"/>
</g>
<!-- LoadingComponent -->
<g id="node5" class="node">
<title>LoadingComponent</title>
<polygon fill="#ffffb3" stroke="black" points="1437.99,-84.8 1310.01,-84.8 1310.01,-48.8 1437.99,-48.8 1437.99,-84.8"/>
<text text-anchor="middle" x="1374" y="-62.6" font-family="Times,serif" font-size="14.00">LoadingComponent</text>
</g>
<!-- LoadingComponent&#45;&gt;SharedModule -->
<g id="edge5" class="edge">
<title>LoadingComponent&#45;&gt;SharedModule</title>
<path fill="none" stroke="black" d="M1309.93,-66.8C1304.08,-66.8 1300.29,-66.8 1300.29,-66.8 1300.29,-66.8 1300.29,-103.69 1300.29,-103.69"/>
<polygon fill="black" stroke="black" points="1296.79,-103.69 1300.29,-113.69 1303.79,-103.69 1296.79,-103.69"/>
</g>
<!-- LoadingDirective -->
<g id="node6" class="node">
<title>LoadingDirective</title>
<polygon fill="#ffffb3" stroke="black" points="1292.24,-84.8 1177.76,-84.8 1177.76,-48.8 1292.24,-48.8 1292.24,-84.8"/>
<text text-anchor="middle" x="1235" y="-62.6" font-family="Times,serif" font-size="14.00">LoadingDirective</text>
</g>
<!-- LoadingDirective&#45;&gt;SharedModule -->
<g id="edge6" class="edge">
<title>LoadingDirective&#45;&gt;SharedModule</title>
<path fill="none" stroke="black" d="M1251.08,-84.91C1251.08,-84.91 1251.08,-103.79 1251.08,-103.79"/>
<polygon fill="black" stroke="black" points="1247.58,-103.79 1251.08,-113.79 1254.58,-103.79 1247.58,-103.79"/>
</g>
<!-- LoadingOverlayComponent -->
<g id="node7" class="node">
<title>LoadingOverlayComponent</title>
<polygon fill="#ffffb3" stroke="black" points="1159.58,-84.8 986.42,-84.8 986.42,-48.8 1159.58,-48.8 1159.58,-84.8"/>
<text text-anchor="middle" x="1073" y="-62.6" font-family="Times,serif" font-size="14.00">LoadingOverlayComponent</text>
</g>
<!-- LoadingOverlayComponent&#45;&gt;SharedModule -->
<g id="edge7" class="edge">
<title>LoadingOverlayComponent&#45;&gt;SharedModule</title>
<path fill="none" stroke="black" d="M1079.59,-84.85C1079.59,-99.17 1079.59,-116.8 1079.59,-116.8 1079.59,-116.8 1199.5,-116.8 1199.5,-116.8"/>
<polygon fill="black" stroke="black" points="1199.5,-120.3 1209.5,-116.8 1199.5,-113.3 1199.5,-120.3"/>
</g>
<!-- LoadingSpinnerComponent -->
<g id="node8" class="node">
<title>LoadingSpinnerComponent</title>
<polygon fill="#ffffb3" stroke="black" points="968.54,-84.8 797.46,-84.8 797.46,-48.8 968.54,-48.8 968.54,-84.8"/>
<text text-anchor="middle" x="883" y="-62.6" font-family="Times,serif" font-size="14.00">LoadingSpinnerComponent</text>
</g>
<!-- LoadingSpinnerComponent&#45;&gt;SharedModule -->
<g id="edge8" class="edge">
<title>LoadingSpinnerComponent&#45;&gt;SharedModule</title>
<path fill="none" stroke="black" d="M952.02,-84.99C952.02,-99.98 952.02,-118.8 952.02,-118.8 952.02,-118.8 1199.68,-118.8 1199.68,-118.8"/>
<polygon fill="black" stroke="black" points="1199.68,-122.3 1209.68,-118.8 1199.68,-115.3 1199.68,-122.3"/>
</g>
<!-- ReplacePipe -->
<g id="node9" class="node">
<title>ReplacePipe</title>
<polygon fill="#ffffb3" stroke="black" points="778.97,-84.8 693.03,-84.8 693.03,-48.8 778.97,-48.8 778.97,-84.8"/>
<text text-anchor="middle" x="736" y="-62.6" font-family="Times,serif" font-size="14.00">ReplacePipe</text>
</g>
<!-- ReplacePipe&#45;&gt;SharedModule -->
<g id="edge9" class="edge">
<title>ReplacePipe&#45;&gt;SharedModule</title>
<path fill="none" stroke="black" d="M771.68,-84.81C771.68,-100.85 771.68,-121.8 771.68,-121.8 771.68,-121.8 1199.59,-121.8 1199.59,-121.8"/>
<polygon fill="black" stroke="black" points="1199.59,-125.3 1209.59,-121.8 1199.59,-118.3 1199.59,-125.3"/>
</g>
<!-- SearchFilterComponent -->
<g id="node10" class="node">
<title>SearchFilterComponent</title>
<polygon fill="#ffffb3" stroke="black" points="674.75,-84.8 525.25,-84.8 525.25,-48.8 674.75,-48.8 674.75,-84.8"/>
<text text-anchor="middle" x="600" y="-62.6" font-family="Times,serif" font-size="14.00">SearchFilterComponent</text>
</g>
<!-- SearchFilterComponent&#45;&gt;SharedModule -->
<g id="edge10" class="edge">
<title>SearchFilterComponent&#45;&gt;SharedModule</title>
<path fill="none" stroke="black" d="M623.38,-84.84C623.38,-101.53 623.38,-123.8 623.38,-123.8 623.38,-123.8 1199.65,-123.8 1199.65,-123.8"/>
<polygon fill="black" stroke="black" points="1199.65,-127.3 1209.65,-123.8 1199.65,-120.3 1199.65,-127.3"/>
</g>
<!-- SharedIndicatorComponent -->
<g id="node11" class="node">
<title>SharedIndicatorComponent</title>
<polygon fill="#ffffb3" stroke="black" points="507.24,-84.8 336.76,-84.8 336.76,-48.8 507.24,-48.8 507.24,-84.8"/>
<text text-anchor="middle" x="422" y="-62.6" font-family="Times,serif" font-size="14.00">SharedIndicatorComponent</text>
</g>
<!-- SharedIndicatorComponent&#45;&gt;SharedModule -->
<g id="edge11" class="edge">
<title>SharedIndicatorComponent&#45;&gt;SharedModule</title>
<path fill="none" stroke="black" d="M461.95,-84.82C461.95,-102.17 461.95,-125.8 461.95,-125.8 461.95,-125.8 1199.74,-125.8 1199.74,-125.8"/>
<polygon fill="black" stroke="black" points="1199.74,-129.3 1209.74,-125.8 1199.74,-122.3 1199.74,-129.3"/>
</g>
<!-- SnackbarComponent -->
<g id="node12" class="node">
<title>SnackbarComponent</title>
<polygon fill="#ffffb3" stroke="black" points="318.92,-84.8 185.08,-84.8 185.08,-48.8 318.92,-48.8 318.92,-84.8"/>
<text text-anchor="middle" x="252" y="-62.6" font-family="Times,serif" font-size="14.00">SnackbarComponent</text>
</g>
<!-- SnackbarComponent&#45;&gt;SharedModule -->
<g id="edge12" class="edge">
<title>SnackbarComponent&#45;&gt;SharedModule</title>
<path fill="none" stroke="black" d="M301.26,-85.07C301.26,-103.36 301.26,-128.8 301.26,-128.8 301.26,-128.8 1199.52,-128.8 1199.52,-128.8"/>
<polygon fill="black" stroke="black" points="1199.52,-132.3 1209.52,-128.8 1199.52,-125.3 1199.52,-132.3"/>
</g>
<!-- TableViewComponent -->
<g id="node13" class="node">
<title>TableViewComponent</title>
<polygon fill="#ffffb3" stroke="black" points="167.53,-84.8 24.47,-84.8 24.47,-48.8 167.53,-48.8 167.53,-84.8"/>
<text text-anchor="middle" x="96" y="-62.6" font-family="Times,serif" font-size="14.00">TableViewComponent</text>
</g>
<!-- TableViewComponent&#45;&gt;SharedModule -->
<g id="edge13" class="edge">
<title>TableViewComponent&#45;&gt;SharedModule</title>
<path fill="none" stroke="black" d="M143.12,-84.97C143.12,-103.89 143.12,-130.8 143.12,-130.8 143.12,-130.8 1199.61,-130.8 1199.61,-130.8"/>
<polygon fill="black" stroke="black" points="1199.61,-134.3 1209.61,-130.8 1199.61,-127.3 1199.61,-134.3"/>
</g>
<!-- ChannelGroupSelectorComponent  -->
<g id="node18" class="node">
<title>ChannelGroupSelectorComponent </title>
<polygon fill="#fb8072" stroke="black" points="2542.63,-214.8 2329.37,-214.8 2329.37,-178.8 2542.63,-178.8 2542.63,-214.8"/>
<text text-anchor="middle" x="2436" y="-192.6" font-family="Times,serif" font-size="14.00">ChannelGroupSelectorComponent </text>
</g>
<!-- SharedModule&#45;&gt;ChannelGroupSelectorComponent  -->
<g id="edge17" class="edge">
<title>SharedModule&#45;&gt;ChannelGroupSelectorComponent </title>
<path fill="none" stroke="black" stroke-dasharray="5,2" d="M1308.5,-133.8C1525.96,-133.8 2385.73,-133.8 2385.73,-133.8 2385.73,-133.8 2385.73,-168.58 2385.73,-168.58"/>
<polygon fill="black" stroke="black" points="2382.23,-168.58 2385.73,-178.58 2389.23,-168.58 2382.23,-168.58"/>
</g>
<!-- ConfirmDialogComponent  -->
<g id="node19" class="node">
<title>ConfirmDialogComponent </title>
<polygon fill="#fb8072" stroke="black" points="2311.38,-214.8 2140.62,-214.8 2140.62,-178.8 2311.38,-178.8 2311.38,-214.8"/>
<text text-anchor="middle" x="2226" y="-192.6" font-family="Times,serif" font-size="14.00">ConfirmDialogComponent </text>
</g>
<!-- SharedModule&#45;&gt;ConfirmDialogComponent  -->
<g id="edge18" class="edge">
<title>SharedModule&#45;&gt;ConfirmDialogComponent </title>
<path fill="none" stroke="black" stroke-dasharray="5,2" d="M1308.24,-135.8C1495.28,-135.8 2151.19,-135.8 2151.19,-135.8 2151.19,-135.8 2151.19,-168.5 2151.19,-168.5"/>
<polygon fill="black" stroke="black" points="2147.69,-168.5 2151.19,-178.5 2154.69,-168.5 2147.69,-168.5"/>
</g>
<!-- DateSelectComponent  -->
<g id="node20" class="node">
<title>DateSelectComponent </title>
<polygon fill="#fb8072" stroke="black" points="2122.97,-214.8 1977.03,-214.8 1977.03,-178.8 2122.97,-178.8 2122.97,-214.8"/>
<text text-anchor="middle" x="2050" y="-192.6" font-family="Times,serif" font-size="14.00">DateSelectComponent </text>
</g>
<!-- SharedModule&#45;&gt;DateSelectComponent  -->
<g id="edge19" class="edge">
<title>SharedModule&#45;&gt;DateSelectComponent </title>
<path fill="none" stroke="black" stroke-dasharray="5,2" d="M1308.48,-137.8C1481.65,-137.8 2050,-137.8 2050,-137.8 2050,-137.8 2050,-168.78 2050,-168.78"/>
<polygon fill="black" stroke="black" points="2046.5,-168.78 2050,-178.78 2053.5,-168.78 2046.5,-168.78"/>
</g>
<!-- ErrorComponent  -->
<g id="node21" class="node">
<title>ErrorComponent </title>
<polygon fill="#fb8072" stroke="black" points="1959.37,-214.8 1844.63,-214.8 1844.63,-178.8 1959.37,-178.8 1959.37,-214.8"/>
<text text-anchor="middle" x="1902" y="-192.6" font-family="Times,serif" font-size="14.00">ErrorComponent </text>
</g>
<!-- SharedModule&#45;&gt;ErrorComponent  -->
<g id="edge20" class="edge">
<title>SharedModule&#45;&gt;ErrorComponent </title>
<path fill="none" stroke="black" stroke-dasharray="5,2" d="M1308.32,-140.8C1454.88,-140.8 1877.63,-140.8 1877.63,-140.8 1877.63,-140.8 1877.63,-168.77 1877.63,-168.77"/>
<polygon fill="black" stroke="black" points="1874.13,-168.77 1877.63,-178.77 1881.13,-168.77 1874.13,-168.77"/>
</g>
<!-- LoadingComponent  -->
<g id="node22" class="node">
<title>LoadingComponent </title>
<polygon fill="#fb8072" stroke="black" points="1826.99,-214.8 1695.01,-214.8 1695.01,-178.8 1826.99,-178.8 1826.99,-214.8"/>
<text text-anchor="middle" x="1761" y="-192.6" font-family="Times,serif" font-size="14.00">LoadingComponent </text>
</g>
<!-- SharedModule&#45;&gt;LoadingComponent  -->
<g id="edge21" class="edge">
<title>SharedModule&#45;&gt;LoadingComponent </title>
<path fill="none" stroke="black" stroke-dasharray="5,2" d="M1308.62,-142.8C1425.94,-142.8 1710.62,-142.8 1710.62,-142.8 1710.62,-142.8 1710.62,-168.52 1710.62,-168.52"/>
<polygon fill="black" stroke="black" points="1707.12,-168.52 1710.62,-178.52 1714.12,-168.52 1707.12,-168.52"/>
</g>
<!-- LoadingDirective  -->
<g id="node23" class="node">
<title>LoadingDirective </title>
<polygon fill="#fb8072" stroke="black" points="1677.24,-214.8 1558.76,-214.8 1558.76,-178.8 1677.24,-178.8 1677.24,-214.8"/>
<text text-anchor="middle" x="1618" y="-192.6" font-family="Times,serif" font-size="14.00">LoadingDirective </text>
</g>
<!-- SharedModule&#45;&gt;LoadingDirective  -->
<g id="edge22" class="edge">
<title>SharedModule&#45;&gt;LoadingDirective </title>
<path fill="none" stroke="black" stroke-dasharray="5,2" d="M1308.46,-145.8C1394.51,-145.8 1562.66,-145.8 1562.66,-145.8 1562.66,-145.8 1562.66,-168.68 1562.66,-168.68"/>
<polygon fill="black" stroke="black" points="1559.16,-168.68 1562.66,-178.68 1566.16,-168.68 1559.16,-168.68"/>
</g>
<!-- LoadingOverlayComponent  -->
<g id="node24" class="node">
<title>LoadingOverlayComponent </title>
<polygon fill="#fb8072" stroke="black" points="1541.08,-214.8 1364.92,-214.8 1364.92,-178.8 1541.08,-178.8 1541.08,-214.8"/>
<text text-anchor="middle" x="1453" y="-192.6" font-family="Times,serif" font-size="14.00">LoadingOverlayComponent </text>
</g>
<!-- SharedModule&#45;&gt;LoadingOverlayComponent  -->
<g id="edge23" class="edge">
<title>SharedModule&#45;&gt;LoadingOverlayComponent </title>
<path fill="none" stroke="black" stroke-dasharray="5,2" d="M1308.39,-147.8C1349.5,-147.8 1401.35,-147.8 1401.35,-147.8 1401.35,-147.8 1401.35,-168.55 1401.35,-168.55"/>
<polygon fill="black" stroke="black" points="1397.85,-168.55 1401.35,-178.55 1404.85,-168.55 1397.85,-168.55"/>
</g>
<!-- LoadingSpinnerComponent  -->
<g id="node25" class="node">
<title>LoadingSpinnerComponent </title>
<polygon fill="#fb8072" stroke="black" points="1346.54,-214.8 1171.46,-214.8 1171.46,-178.8 1346.54,-178.8 1346.54,-214.8"/>
<text text-anchor="middle" x="1259" y="-192.6" font-family="Times,serif" font-size="14.00">LoadingSpinnerComponent </text>
</g>
<!-- SharedModule&#45;&gt;LoadingSpinnerComponent  -->
<g id="edge24" class="edge">
<title>SharedModule&#45;&gt;LoadingSpinnerComponent </title>
<path fill="none" stroke="black" stroke-dasharray="5,2" d="M1259,-149.91C1259,-149.91 1259,-168.79 1259,-168.79"/>
<polygon fill="black" stroke="black" points="1255.5,-168.79 1259,-178.79 1262.5,-168.79 1255.5,-168.79"/>
</g>
<!-- MaterialModule  -->
<g id="node26" class="node">
<title>MaterialModule </title>
<polygon fill="#fb8072" stroke="black" points="1153.47,-214.8 1042.53,-214.8 1042.53,-178.8 1153.47,-178.8 1153.47,-214.8"/>
<text text-anchor="middle" x="1098" y="-192.6" font-family="Times,serif" font-size="14.00">MaterialModule </text>
</g>
<!-- SharedModule&#45;&gt;MaterialModule  -->
<g id="edge25" class="edge">
<title>SharedModule&#45;&gt;MaterialModule </title>
<path fill="none" stroke="black" stroke-dasharray="5,2" d="M1209.53,-147.8C1168.35,-147.8 1116.41,-147.8 1116.41,-147.8 1116.41,-147.8 1116.41,-168.55 1116.41,-168.55"/>
<polygon fill="black" stroke="black" points="1112.91,-168.55 1116.41,-178.55 1119.91,-168.55 1112.91,-168.55"/>
</g>
<!-- ReplacePipe  -->
<g id="node27" class="node">
<title>ReplacePipe </title>
<polygon fill="#fb8072" stroke="black" points="1024.97,-214.8 935.03,-214.8 935.03,-178.8 1024.97,-178.8 1024.97,-214.8"/>
<text text-anchor="middle" x="980" y="-192.6" font-family="Times,serif" font-size="14.00">ReplacePipe </text>
</g>
<!-- SharedModule&#45;&gt;ReplacePipe  -->
<g id="edge26" class="edge">
<title>SharedModule&#45;&gt;ReplacePipe </title>
<path fill="none" stroke="black" stroke-dasharray="5,2" d="M1209.54,-145.8C1135.8,-145.8 1005.6,-145.8 1005.6,-145.8 1005.6,-145.8 1005.6,-168.68 1005.6,-168.68"/>
<polygon fill="black" stroke="black" points="1002.1,-168.68 1005.6,-178.68 1009.1,-168.68 1002.1,-168.68"/>
</g>
<!-- SearchFilterComponent  -->
<g id="node28" class="node">
<title>SearchFilterComponent </title>
<polygon fill="#fb8072" stroke="black" points="917.75,-214.8 764.25,-214.8 764.25,-178.8 917.75,-178.8 917.75,-214.8"/>
<text text-anchor="middle" x="841" y="-192.6" font-family="Times,serif" font-size="14.00">SearchFilterComponent </text>
</g>
<!-- SharedModule&#45;&gt;SearchFilterComponent  -->
<g id="edge27" class="edge">
<title>SharedModule&#45;&gt;SearchFilterComponent </title>
<path fill="none" stroke="black" stroke-dasharray="5,2" d="M1209.76,-142.8C1102.53,-142.8 857.43,-142.8 857.43,-142.8 857.43,-142.8 857.43,-168.52 857.43,-168.52"/>
<polygon fill="black" stroke="black" points="853.93,-168.52 857.43,-178.52 860.93,-168.52 853.93,-168.52"/>
</g>
<!-- SharedIndicatorComponent  -->
<g id="node29" class="node">
<title>SharedIndicatorComponent </title>
<polygon fill="#fb8072" stroke="black" points="746.24,-214.8 571.76,-214.8 571.76,-178.8 746.24,-178.8 746.24,-214.8"/>
<text text-anchor="middle" x="659" y="-192.6" font-family="Times,serif" font-size="14.00">SharedIndicatorComponent </text>
</g>
<!-- SharedModule&#45;&gt;SharedIndicatorComponent  -->
<g id="edge28" class="edge">
<title>SharedModule&#45;&gt;SharedIndicatorComponent </title>
<path fill="none" stroke="black" stroke-dasharray="5,2" d="M1209.7,-140.8C1076.53,-140.8 719.57,-140.8 719.57,-140.8 719.57,-140.8 719.57,-168.77 719.57,-168.77"/>
<polygon fill="black" stroke="black" points="716.07,-168.77 719.57,-178.77 723.07,-168.77 716.07,-168.77"/>
</g>
<!-- SnackbarComponent  -->
<g id="node30" class="node">
<title>SnackbarComponent </title>
<polygon fill="#fb8072" stroke="black" points="553.42,-214.8 416.58,-214.8 416.58,-178.8 553.42,-178.8 553.42,-214.8"/>
<text text-anchor="middle" x="485" y="-192.6" font-family="Times,serif" font-size="14.00">SnackbarComponent </text>
</g>
<!-- SharedModule&#45;&gt;SnackbarComponent  -->
<g id="edge29" class="edge">
<title>SharedModule&#45;&gt;SnackbarComponent </title>
<path fill="none" stroke="black" stroke-dasharray="5,2" d="M1209.53,-137.8C1046.93,-137.8 539.29,-137.8 539.29,-137.8 539.29,-137.8 539.29,-168.78 539.29,-168.78"/>
<polygon fill="black" stroke="black" points="535.79,-168.78 539.29,-178.78 542.79,-168.78 535.79,-168.78"/>
</g>
<!-- SquacapiModule  -->
<g id="node31" class="node">
<title>SquacapiModule </title>
<polygon fill="#fb8072" stroke="black" points="398.37,-214.8 283.63,-214.8 283.63,-178.8 398.37,-178.8 398.37,-214.8"/>
<text text-anchor="middle" x="341" y="-192.6" font-family="Times,serif" font-size="14.00">SquacapiModule </text>
</g>
<!-- SharedModule&#45;&gt;SquacapiModule  -->
<g id="edge30" class="edge">
<title>SharedModule&#45;&gt;SquacapiModule </title>
<path fill="none" stroke="black" stroke-dasharray="5,2" d="M1209.47,-135.8C1022.14,-135.8 367.41,-135.8 367.41,-135.8 367.41,-135.8 367.41,-168.5 367.41,-168.5"/>
<polygon fill="black" stroke="black" points="363.91,-168.5 367.41,-178.5 370.91,-168.5 363.91,-168.5"/>
</g>
<!-- TableViewComponent  -->
<g id="node32" class="node">
<title>TableViewComponent </title>
<polygon fill="#fb8072" stroke="black" points="265.52,-214.8 118.48,-214.8 118.48,-178.8 265.52,-178.8 265.52,-214.8"/>
<text text-anchor="middle" x="192" y="-192.6" font-family="Times,serif" font-size="14.00">TableViewComponent </text>
</g>
<!-- SharedModule&#45;&gt;TableViewComponent  -->
<g id="edge31" class="edge">
<title>SharedModule&#45;&gt;TableViewComponent </title>
<path fill="none" stroke="black" stroke-dasharray="5,2" d="M1209.5,-133.8C1003.56,-133.8 225.4,-133.8 225.4,-133.8 225.4,-133.8 225.4,-168.58 225.4,-168.58"/>
<polygon fill="black" stroke="black" points="221.9,-168.58 225.4,-178.58 228.9,-168.58 221.9,-168.58"/>
</g>
<!-- MaterialModule -->
<g id="node15" class="node">
<title>MaterialModule</title>
<polygon fill="#8dd3c7" stroke="black" points="2567.47,-84.8 2564.47,-88.8 2543.47,-88.8 2540.47,-84.8 2460.53,-84.8 2460.53,-48.8 2567.47,-48.8 2567.47,-84.8"/>
<text text-anchor="middle" x="2514" y="-62.6" font-family="Times,serif" font-size="14.00">MaterialModule</text>
</g>
<!-- MaterialModule&#45;&gt;SharedModule -->
<g id="edge14" class="edge">
<title>MaterialModule&#45;&gt;SharedModule</title>
<path fill="none" stroke="black" d="M2501.54,-84.97C2501.54,-103.89 2501.54,-130.8 2501.54,-130.8 2501.54,-130.8 1318.48,-130.8 1318.48,-130.8"/>
<polygon fill="black" stroke="black" points="1318.48,-127.3 1308.48,-130.8 1318.48,-134.3 1318.48,-127.3"/>
</g>
<!-- NgxDaterangepickerMd -->
<g id="node16" class="node">
<title>NgxDaterangepickerMd</title>
<polygon fill="#8dd3c7" stroke="black" points="2442.06,-84.8 2439.06,-88.8 2418.06,-88.8 2415.06,-84.8 2289.94,-84.8 2289.94,-48.8 2442.06,-48.8 2442.06,-84.8"/>
<text text-anchor="middle" x="2366" y="-62.6" font-family="Times,serif" font-size="14.00">NgxDaterangepickerMd</text>
</g>
<!-- NgxDaterangepickerMd&#45;&gt;SharedModule -->
<g id="edge15" class="edge">
<title>NgxDaterangepickerMd&#45;&gt;SharedModule</title>
<path fill="none" stroke="black" d="M2300.58,-85.07C2300.58,-103.36 2300.58,-128.8 2300.58,-128.8 2300.58,-128.8 1318.54,-128.8 1318.54,-128.8"/>
<polygon fill="black" stroke="black" points="1318.54,-125.3 1308.54,-128.8 1318.54,-132.3 1318.54,-125.3"/>
</g>
<!-- SquacapiModule -->
<g id="node17" class="node">
<title>SquacapiModule</title>
<polygon fill="#8dd3c7" stroke="black" points="2272.37,-84.8 2269.37,-88.8 2248.37,-88.8 2245.37,-84.8 2161.63,-84.8 2161.63,-48.8 2272.37,-48.8 2272.37,-84.8"/>
<text text-anchor="middle" x="2217" y="-62.6" font-family="Times,serif" font-size="14.00">SquacapiModule</text>
</g>
<!-- SquacapiModule&#45;&gt;SharedModule -->
<g id="edge16" class="edge">
<title>SquacapiModule&#45;&gt;SharedModule</title>
<path fill="none" stroke="black" d="M2217,-84.82C2217,-102.17 2217,-125.8 2217,-125.8 2217,-125.8 1318.49,-125.8 1318.49,-125.8"/>
<polygon fill="black" stroke="black" points="1318.49,-122.3 1308.49,-125.8 1318.49,-129.3 1318.49,-122.3"/>
</g>
</g>
</svg>
