<?xml version="1.0" encoding="UTF-8" standalone="no"?>
<!DOCTYPE svg PUBLIC "-//W3C//DTD SVG 1.1//EN"
 "http://www.w3.org/Graphics/SVG/1.1/DTD/svg11.dtd">
<!-- Generated by graphviz version 5.0.0 (20220707.1540)
 -->
<!-- Title: dependencies Pages: 1 -->
<svg width="3706pt" height="174pt"
 viewBox="0.00 0.00 3706.00 173.80" xmlns="http://www.w3.org/2000/svg" xmlns:xlink="http://www.w3.org/1999/xlink">
<g id="graph0" class="graph" transform="scale(1 1) rotate(0) translate(4 169.8)">
<title>dependencies</title>
<polygon fill="white" stroke="transparent" points="-4,4 -4,-169.8 3702,-169.8 3702,4 -4,4"/>
<text text-anchor="middle" x="1849" y="-8.2" font-family="sans-serif" font-size="14.00">dependencies</text>
<g id="clust1" class="cluster">
<title>cluster_DashboardModule</title>
<polygon fill="none" stroke="black" stroke-dasharray="1,5" points="8,-32.8 8,-157.8 3690,-157.8 3690,-32.8 8,-32.8"/>
</g>
<g id="clust2" class="cluster">
<title>cluster_DashboardModule_declarations</title>
<polygon fill="none" stroke="black" points="565,-40.8 565,-92.8 3682,-92.8 3682,-40.8 565,-40.8"/>
</g>
<g id="clust20" class="cluster">
<title>cluster_DashboardModule_imports</title>
<polygon fill="none" stroke="black" points="16,-40.8 16,-92.8 557,-92.8 557,-40.8 16,-40.8"/>
</g>
<!-- ChannelFilterComponent -->
<g id="node1" class="node">
<title>ChannelFilterComponent</title>
<polygon fill="#ffffb3" stroke="black" points="3674.32,-84.8 3515.68,-84.8 3515.68,-48.8 3674.32,-48.8 3674.32,-84.8"/>
<text text-anchor="middle" x="3595" y="-62.6" font-family="Times,serif" font-size="14.00">ChannelFilterComponent</text>
</g>
<!-- DashboardModule -->
<g id="node18" class="node">
<title>DashboardModule</title>
<polygon fill="#8dd3c7" stroke="black" points="1878.2,-149.8 1875.2,-153.8 1854.2,-153.8 1851.2,-149.8 1757.8,-149.8 1757.8,-113.8 1878.2,-113.8 1878.2,-149.8"/>
<text text-anchor="middle" x="1818" y="-127.6" font-family="Times,serif" font-size="14.00">DashboardModule</text>
</g>
<!-- ChannelFilterComponent&#45;&gt;DashboardModule -->
<g id="edge1" class="edge">
<title>ChannelFilterComponent&#45;&gt;DashboardModule</title>
<path fill="none" stroke="black" d="M3595,-84.95C3595,-108.56 3595,-146.8 3595,-146.8 3595,-146.8 1888.14,-146.8 1888.14,-146.8"/>
<polygon fill="black" stroke="black" points="1888.14,-143.3 1878.14,-146.8 1888.14,-150.3 1888.14,-143.3"/>
</g>
<!-- DashboardComponent -->
<g id="node2" class="node">
<title>DashboardComponent</title>
<polygon fill="#ffffb3" stroke="black" points="3497.98,-84.8 3356.02,-84.8 3356.02,-48.8 3497.98,-48.8 3497.98,-84.8"/>
<text text-anchor="middle" x="3427" y="-62.6" font-family="Times,serif" font-size="14.00">DashboardComponent</text>
</g>
<!-- DashboardComponent&#45;&gt;DashboardModule -->
<g id="edge2" class="edge">
<title>DashboardComponent&#45;&gt;DashboardModule</title>
<path fill="none" stroke="black" d="M3427,-85.05C3427,-107.82 3427,-143.8 3427,-143.8 3427,-143.8 1888.14,-143.8 1888.14,-143.8"/>
<polygon fill="black" stroke="black" points="1888.14,-140.3 1878.14,-143.8 1888.14,-147.3 1888.14,-140.3"/>
</g>
<!-- DashboardDetailComponent -->
<g id="node3" class="node">
<title>DashboardDetailComponent</title>
<polygon fill="#ffffb3" stroke="black" points="3338.19,-84.8 3161.81,-84.8 3161.81,-48.8 3338.19,-48.8 3338.19,-84.8"/>
<text text-anchor="middle" x="3250" y="-62.6" font-family="Times,serif" font-size="14.00">DashboardDetailComponent</text>
</g>
<!-- DashboardDetailComponent&#45;&gt;DashboardModule -->
<g id="edge3" class="edge">
<title>DashboardDetailComponent&#45;&gt;DashboardModule</title>
<path fill="none" stroke="black" d="M3250,-85.09C3250,-107.01 3250,-140.8 3250,-140.8 3250,-140.8 1888.16,-140.8 1888.16,-140.8"/>
<polygon fill="black" stroke="black" points="1888.16,-137.3 1878.16,-140.8 1888.16,-144.3 1888.16,-137.3"/>
</g>
<!-- DashboardEditComponent -->
<g id="node4" class="node">
<title>DashboardEditComponent</title>
<polygon fill="#ffffb3" stroke="black" points="3143.81,-84.8 2978.19,-84.8 2978.19,-48.8 3143.81,-48.8 3143.81,-84.8"/>
<text text-anchor="middle" x="3061" y="-62.6" font-family="Times,serif" font-size="14.00">DashboardEditComponent</text>
</g>
<!-- DashboardEditComponent&#45;&gt;DashboardModule -->
<g id="edge4" class="edge">
<title>DashboardEditComponent&#45;&gt;DashboardModule</title>
<path fill="none" stroke="black" d="M3061,-84.83C3061,-105.57 3061,-136.8 3061,-136.8 3061,-136.8 1888.37,-136.8 1888.37,-136.8"/>
<polygon fill="black" stroke="black" points="1888.37,-133.3 1878.37,-136.8 1888.37,-140.3 1888.37,-133.3"/>
</g>
<!-- DashboardEditEntryComponent -->
<g id="node5" class="node">
<title>DashboardEditEntryComponent</title>
<polygon fill="#ffffb3" stroke="black" points="2960.41,-84.8 2763.59,-84.8 2763.59,-48.8 2960.41,-48.8 2960.41,-84.8"/>
<text text-anchor="middle" x="2862" y="-62.6" font-family="Times,serif" font-size="14.00">DashboardEditEntryComponent</text>
</g>
<!-- DashboardEditEntryComponent&#45;&gt;DashboardModule -->
<g id="edge5" class="edge">
<title>DashboardEditEntryComponent&#45;&gt;DashboardModule</title>
<path fill="none" stroke="black" d="M2862,-85.11C2862,-104.95 2862,-133.8 2862,-133.8 2862,-133.8 1888.26,-133.8 1888.26,-133.8"/>
<polygon fill="black" stroke="black" points="1888.26,-130.3 1878.26,-133.8 1888.26,-137.3 1888.26,-130.3"/>
</g>
<!-- DashboardViewComponent -->
<g id="node6" class="node">
<title>DashboardViewComponent</title>
<polygon fill="#ffffb3" stroke="black" points="2746.3,-84.8 2573.7,-84.8 2573.7,-48.8 2746.3,-48.8 2746.3,-84.8"/>
<text text-anchor="middle" x="2660" y="-62.6" font-family="Times,serif" font-size="14.00">DashboardViewComponent</text>
</g>
<!-- DashboardViewComponent&#45;&gt;DashboardModule -->
<g id="edge6" class="edge">
<title>DashboardViewComponent&#45;&gt;DashboardModule</title>
<path fill="none" stroke="black" d="M2660,-84.97C2660,-103.89 2660,-130.8 2660,-130.8 2660,-130.8 1888.22,-130.8 1888.22,-130.8"/>
<polygon fill="black" stroke="black" points="1888.22,-127.3 1878.22,-130.8 1888.22,-134.3 1888.22,-127.3"/>
</g>
<!-- DataTypePipe -->
<g id="node7" class="node">
<title>DataTypePipe</title>
<polygon fill="#ffffb3" stroke="black" points="2556.08,-84.8 2459.92,-84.8 2459.92,-48.8 2556.08,-48.8 2556.08,-84.8"/>
<text text-anchor="middle" x="2508" y="-62.6" font-family="Times,serif" font-size="14.00">DataTypePipe</text>
</g>
<!-- DataTypePipe&#45;&gt;DashboardModule -->
<g id="edge7" class="edge">
<title>DataTypePipe&#45;&gt;DashboardModule</title>
<path fill="none" stroke="black" d="M2508,-85.1C2508,-103.07 2508,-127.8 2508,-127.8 2508,-127.8 1888.33,-127.8 1888.33,-127.8"/>
<polygon fill="black" stroke="black" points="1888.33,-124.3 1878.33,-127.8 1888.33,-131.3 1888.33,-124.3"/>
</g>
<!-- DataTypeSelectorComponent -->
<g id="node8" class="node">
<title>DataTypeSelectorComponent</title>
<polygon fill="#ffffb3" stroke="black" points="2442.39,-84.8 2259.61,-84.8 2259.61,-48.8 2442.39,-48.8 2442.39,-84.8"/>
<text text-anchor="middle" x="2351" y="-62.6" font-family="Times,serif" font-size="14.00">DataTypeSelectorComponent</text>
</g>
<!-- DataTypeSelectorComponent&#45;&gt;DashboardModule -->
<g id="edge8" class="edge">
<title>DataTypeSelectorComponent&#45;&gt;DashboardModule</title>
<path fill="none" stroke="black" d="M2351,-84.84C2351,-101.53 2351,-123.8 2351,-123.8 2351,-123.8 1888.11,-123.8 1888.11,-123.8"/>
<polygon fill="black" stroke="black" points="1888.11,-120.3 1878.11,-123.8 1888.11,-127.3 1888.11,-120.3"/>
</g>
<!-- MetricToggleComponent -->
<g id="node9" class="node">
<title>MetricToggleComponent</title>
<polygon fill="#ffffb3" stroke="black" points="2242.3,-84.8 2083.7,-84.8 2083.7,-48.8 2242.3,-48.8 2242.3,-84.8"/>
<text text-anchor="middle" x="2163" y="-62.6" font-family="Times,serif" font-size="14.00">MetricToggleComponent</text>
</g>
<!-- MetricToggleComponent&#45;&gt;DashboardModule -->
<g id="edge9" class="edge">
<title>MetricToggleComponent&#45;&gt;DashboardModule</title>
<path fill="none" stroke="black" d="M2163,-85.08C2163,-100.75 2163,-120.8 2163,-120.8 2163,-120.8 1888.49,-120.8 1888.49,-120.8"/>
<polygon fill="black" stroke="black" points="1888.49,-117.3 1878.49,-120.8 1888.49,-124.3 1888.49,-117.3"/>
</g>
<!-- WidgetDetailComponent -->
<g id="node10" class="node">
<title>WidgetDetailComponent</title>
<polygon fill="#ffffb3" stroke="black" points="2065.25,-84.8 1908.75,-84.8 1908.75,-48.8 2065.25,-48.8 2065.25,-84.8"/>
<text text-anchor="middle" x="1987" y="-62.6" font-family="Times,serif" font-size="14.00">WidgetDetailComponent</text>
</g>
<!-- WidgetDetailComponent&#45;&gt;DashboardModule -->
<g id="edge10" class="edge">
<title>WidgetDetailComponent&#45;&gt;DashboardModule</title>
<path fill="none" stroke="black" d="M1987,-84.92C1987,-99.58 1987,-117.8 1987,-117.8 1987,-117.8 1888.54,-117.8 1888.54,-117.8"/>
<polygon fill="black" stroke="black" points="1888.54,-114.3 1878.54,-117.8 1888.54,-121.3 1888.54,-114.3"/>
</g>
<!-- WidgetEditComponent -->
<g id="node11" class="node">
<title>WidgetEditComponent</title>
<polygon fill="#ffffb3" stroke="black" points="1890.87,-84.8 1745.13,-84.8 1745.13,-48.8 1890.87,-48.8 1890.87,-84.8"/>
<text text-anchor="middle" x="1818" y="-62.6" font-family="Times,serif" font-size="14.00">WidgetEditComponent</text>
</g>
<!-- WidgetEditComponent&#45;&gt;DashboardModule -->
<g id="edge11" class="edge">
<title>WidgetEditComponent&#45;&gt;DashboardModule</title>
<path fill="none" stroke="black" d="M1818,-84.91C1818,-84.91 1818,-103.79 1818,-103.79"/>
<polygon fill="black" stroke="black" points="1814.5,-103.79 1818,-113.79 1821.5,-103.79 1814.5,-103.79"/>
</g>
<!-- WidgetEditEntryComponent -->
<g id="node12" class="node">
<title>WidgetEditEntryComponent</title>
<polygon fill="#ffffb3" stroke="black" points="1727.47,-84.8 1550.53,-84.8 1550.53,-48.8 1727.47,-48.8 1727.47,-84.8"/>
<text text-anchor="middle" x="1639" y="-62.6" font-family="Times,serif" font-size="14.00">WidgetEditEntryComponent</text>
</g>
<!-- WidgetEditEntryComponent&#45;&gt;DashboardModule -->
<g id="edge12" class="edge">
<title>WidgetEditEntryComponent&#45;&gt;DashboardModule</title>
<path fill="none" stroke="black" d="M1639,-84.92C1639,-99.58 1639,-117.8 1639,-117.8 1639,-117.8 1747.9,-117.8 1747.9,-117.8"/>
<polygon fill="black" stroke="black" points="1747.9,-121.3 1757.9,-117.8 1747.9,-114.3 1747.9,-121.3"/>
</g>
<!-- WidgetEditInfoComponent -->
<g id="node13" class="node">
<title>WidgetEditInfoComponent</title>
<polygon fill="#ffffb3" stroke="black" points="1532.69,-84.8 1363.31,-84.8 1363.31,-48.8 1532.69,-48.8 1532.69,-84.8"/>
<text text-anchor="middle" x="1448" y="-62.6" font-family="Times,serif" font-size="14.00">WidgetEditInfoComponent</text>
</g>
<!-- WidgetEditInfoComponent&#45;&gt;DashboardModule -->
<g id="edge13" class="edge">
<title>WidgetEditInfoComponent&#45;&gt;DashboardModule</title>
<path fill="none" stroke="black" d="M1448,-85.08C1448,-100.75 1448,-120.8 1448,-120.8 1448,-120.8 1747.73,-120.8 1747.73,-120.8"/>
<polygon fill="black" stroke="black" points="1747.73,-124.3 1757.73,-120.8 1747.73,-117.3 1747.73,-124.3"/>
</g>
<!-- WidgetEditMetricsComponent -->
<g id="node14" class="node">
<title>WidgetEditMetricsComponent</title>
<polygon fill="#ffffb3" stroke="black" points="1345.14,-84.8 1156.86,-84.8 1156.86,-48.8 1345.14,-48.8 1345.14,-84.8"/>
<text text-anchor="middle" x="1251" y="-62.6" font-family="Times,serif" font-size="14.00">WidgetEditMetricsComponent</text>
</g>
<!-- WidgetEditMetricsComponent&#45;&gt;DashboardModule -->
<g id="edge14" class="edge">
<title>WidgetEditMetricsComponent&#45;&gt;DashboardModule</title>
<path fill="none" stroke="black" d="M1251,-84.84C1251,-101.53 1251,-123.8 1251,-123.8 1251,-123.8 1747.86,-123.8 1747.86,-123.8"/>
<polygon fill="black" stroke="black" points="1747.86,-127.3 1757.86,-123.8 1747.86,-120.3 1747.86,-127.3"/>
</g>
<!-- WidgetEditOptionsComponent -->
<g id="node15" class="node">
<title>WidgetEditOptionsComponent</title>
<polygon fill="#ffffb3" stroke="black" points="1139.21,-84.8 948.79,-84.8 948.79,-48.8 1139.21,-48.8 1139.21,-84.8"/>
<text text-anchor="middle" x="1044" y="-62.6" font-family="Times,serif" font-size="14.00">WidgetEditOptionsComponent</text>
</g>
<!-- WidgetEditOptionsComponent&#45;&gt;DashboardModule -->
<g id="edge15" class="edge">
<title>WidgetEditOptionsComponent&#45;&gt;DashboardModule</title>
<path fill="none" stroke="black" d="M1044,-85.1C1044,-103.07 1044,-127.8 1044,-127.8 1044,-127.8 1747.59,-127.8 1747.59,-127.8"/>
<polygon fill="black" stroke="black" points="1747.59,-131.3 1757.59,-127.8 1747.59,-124.3 1747.59,-131.3"/>
</g>
<!-- WidgetMainComponent -->
<g id="node16" class="node">
<title>WidgetMainComponent</title>
<polygon fill="#ffffb3" stroke="black" points="931.09,-84.8 778.91,-84.8 778.91,-48.8 931.09,-48.8 931.09,-84.8"/>
<text text-anchor="middle" x="855" y="-62.6" font-family="Times,serif" font-size="14.00">WidgetMainComponent</text>
</g>
<!-- WidgetMainComponent&#45;&gt;DashboardModule -->
<g id="edge16" class="edge">
<title>WidgetMainComponent&#45;&gt;DashboardModule</title>
<path fill="none" stroke="black" d="M855,-84.97C855,-103.89 855,-130.8 855,-130.8 855,-130.8 1747.76,-130.8 1747.76,-130.8"/>
<polygon fill="black" stroke="black" points="1747.76,-134.3 1757.76,-130.8 1747.76,-127.3 1747.76,-134.3"/>
</g>
<!-- WidgetTypeExampleDirective -->
<g id="node17" class="node">
<title>WidgetTypeExampleDirective</title>
<polygon fill="#ffffb3" stroke="black" points="760.81,-84.8 573.19,-84.8 573.19,-48.8 760.81,-48.8 760.81,-84.8"/>
<text text-anchor="middle" x="667" y="-62.6" font-family="Times,serif" font-size="14.00">WidgetTypeExampleDirective</text>
</g>
<!-- WidgetTypeExampleDirective&#45;&gt;DashboardModule -->
<g id="edge17" class="edge">
<title>WidgetTypeExampleDirective&#45;&gt;DashboardModule</title>
<path fill="none" stroke="black" d="M667,-85.11C667,-104.95 667,-133.8 667,-133.8 667,-133.8 1747.74,-133.8 1747.74,-133.8"/>
<polygon fill="black" stroke="black" points="1747.74,-137.3 1757.74,-133.8 1747.74,-130.3 1747.74,-137.3"/>
</g>
<!-- DashboardRoutingModule -->
<g id="node19" class="node">
<title>DashboardRoutingModule</title>
<polygon fill="#8dd3c7" stroke="black" points="548.82,-84.8 545.82,-88.8 524.82,-88.8 521.82,-84.8 383.18,-84.8 383.18,-48.8 548.82,-48.8 548.82,-84.8"/>
<text text-anchor="middle" x="466" y="-62.6" font-family="Times,serif" font-size="14.00">DashboardRoutingModule</text>
</g>
<!-- DashboardRoutingModule&#45;&gt;DashboardModule -->
<g id="edge18" class="edge">
<title>DashboardRoutingModule&#45;&gt;DashboardModule</title>
<path fill="none" stroke="black" d="M466,-84.83C466,-105.57 466,-136.8 466,-136.8 466,-136.8 1747.72,-136.8 1747.72,-136.8"/>
<polygon fill="black" stroke="black" points="1747.72,-140.3 1757.72,-136.8 1747.72,-133.3 1747.72,-140.3"/>
</g>
<!-- SharedModule -->
<g id="node20" class="node">
<title>SharedModule</title>
<polygon fill="#8dd3c7" stroke="black" points="365.43,-84.8 362.43,-88.8 341.43,-88.8 338.43,-84.8 266.57,-84.8 266.57,-48.8 365.43,-48.8 365.43,-84.8"/>
<text text-anchor="middle" x="316" y="-62.6" font-family="Times,serif" font-size="14.00">SharedModule</text>
</g>
<!-- SharedModule&#45;&gt;DashboardModule -->
<g id="edge19" class="edge">
<title>SharedModule&#45;&gt;DashboardModule</title>
<path fill="none" stroke="black" d="M316,-85.09C316,-107.01 316,-140.8 316,-140.8 316,-140.8 1747.73,-140.8 1747.73,-140.8"/>
<polygon fill="black" stroke="black" points="1747.73,-144.3 1757.73,-140.8 1747.73,-137.3 1747.73,-144.3"/>
</g>
<!-- TooltipModule -->
<g id="node21" class="node">
<title>TooltipModule</title>
<polygon fill="#8dd3c7" stroke="black" points="248.27,-84.8 245.27,-88.8 224.27,-88.8 221.27,-84.8 147.73,-84.8 147.73,-48.8 248.27,-48.8 248.27,-84.8"/>
<text text-anchor="middle" x="198" y="-62.6" font-family="Times,serif" font-size="14.00">TooltipModule</text>
</g>
<!-- TooltipModule&#45;&gt;DashboardModule -->
<g id="edge20" class="edge">
<title>TooltipModule&#45;&gt;DashboardModule</title>
<path fill="none" stroke="black" d="M198,-85.05C198,-107.82 198,-143.8 198,-143.8 198,-143.8 1747.45,-143.8 1747.45,-143.8"/>
<polygon fill="black" stroke="black" points="1747.45,-147.3 1757.45,-143.8 1747.45,-140.3 1747.45,-147.3"/>
</g>
<!-- WidgetsModule -->
<g id="node22" class="node">
<title>WidgetsModule</title>
<polygon fill="#8dd3c7" stroke="black" points="130.21,-84.8 127.21,-88.8 106.21,-88.8 103.21,-84.8 23.79,-84.8 23.79,-48.8 130.21,-48.8 130.21,-84.8"/>
<text text-anchor="middle" x="77" y="-62.6" font-family="Times,serif" font-size="14.00">WidgetsModule</text>
</g>
<!-- WidgetsModule&#45;&gt;DashboardModule -->
<g id="edge21" class="edge">
<title>WidgetsModule&#45;&gt;DashboardModule</title>
<path fill="none" stroke="black" d="M77,-84.95C77,-108.56 77,-146.8 77,-146.8 77,-146.8 1747.82,-146.8 1747.82,-146.8"/>
<polygon fill="black" stroke="black" points="1747.82,-150.3 1757.82,-146.8 1747.82,-143.3 1747.82,-150.3"/>
</g>
</g>
</svg>
