<?xml version="1.0" encoding="UTF-8" standalone="no"?>
<!DOCTYPE svg PUBLIC "-//W3C//DTD SVG 1.1//EN"
 "http://www.w3.org/Graphics/SVG/1.1/DTD/svg11.dtd">
<!-- Generated by graphviz version 5.0.0 (20220707.1540)
 -->
<!-- Title: dependencies Pages: 1 -->
<svg width="1781pt" height="174pt"
 viewBox="0.00 0.00 1781.00 173.80" xmlns="http://www.w3.org/2000/svg" xmlns:xlink="http://www.w3.org/1999/xlink">
<g id="graph0" class="graph" transform="scale(1 1) rotate(0) translate(4 169.8)">
<title>dependencies</title>
<polygon fill="white" stroke="transparent" points="-4,4 -4,-169.8 1777,-169.8 1777,4 -4,4"/>
<text text-anchor="middle" x="886.5" y="-8.2" font-family="sans-serif" font-size="14.00">dependencies</text>
<g id="clust1" class="cluster">
<title>cluster_DashboardModule</title>
<polygon fill="none" stroke="black" stroke-dasharray="1,5" points="8,-32.8 8,-157.8 1765,-157.8 1765,-32.8 8,-32.8"/>
</g>
<g id="clust10" class="cluster">
<title>cluster_DashboardModule_imports</title>
<polygon fill="none" stroke="black" points="1340,-40.8 1340,-92.8 1757,-92.8 1757,-40.8 1340,-40.8"/>
</g>
<g id="clust2" class="cluster">
<title>cluster_DashboardModule_declarations</title>
<polygon fill="none" stroke="black" points="16,-40.8 16,-92.8 1332,-92.8 1332,-40.8 16,-40.8"/>
</g>
<!-- ChannelFilterComponent -->
<g id="node1" class="node">
<title>ChannelFilterComponent</title>
<polygon fill="#ffffb3" stroke="black" points="1324.32,-84.8 1165.68,-84.8 1165.68,-48.8 1324.32,-48.8 1324.32,-84.8"/>
<text text-anchor="middle" x="1245" y="-62.6" font-family="Times,serif" font-size="14.00">ChannelFilterComponent</text>
</g>
<!-- DashboardModule -->
<g id="node8" class="node">
<title>DashboardModule</title>
<polygon fill="#8dd3c7" stroke="black" points="1048.2,-149.8 1045.2,-153.8 1024.2,-153.8 1021.2,-149.8 927.8,-149.8 927.8,-113.8 1048.2,-113.8 1048.2,-149.8"/>
<text text-anchor="middle" x="988" y="-127.6" font-family="Times,serif" font-size="14.00">DashboardModule</text>
</g>
<!-- ChannelFilterComponent&#45;&gt;DashboardModule -->
<g id="edge1" class="edge">
<title>ChannelFilterComponent&#45;&gt;DashboardModule</title>
<path fill="none" stroke="black" d="M1245,-84.81C1245,-100.85 1245,-121.8 1245,-121.8 1245,-121.8 1058.26,-121.8 1058.26,-121.8"/>
<polygon fill="black" stroke="black" points="1058.26,-118.3 1048.26,-121.8 1058.26,-125.3 1058.26,-118.3"/>
</g>
<!-- DashboardComponent -->
<g id="node2" class="node">
<title>DashboardComponent</title>
<polygon fill="#ffffb3" stroke="black" points="1147.98,-84.8 1006.02,-84.8 1006.02,-48.8 1147.98,-48.8 1147.98,-84.8"/>
<text text-anchor="middle" x="1077" y="-62.6" font-family="Times,serif" font-size="14.00">DashboardComponent</text>
</g>
<!-- DashboardComponent&#45;&gt;DashboardModule -->
<g id="edge2" class="edge">
<title>DashboardComponent&#45;&gt;DashboardModule</title>
<path fill="none" stroke="black" d="M1027.06,-84.91C1027.06,-84.91 1027.06,-103.79 1027.06,-103.79"/>
<polygon fill="black" stroke="black" points="1023.56,-103.79 1027.06,-113.79 1030.56,-103.79 1023.56,-103.79"/>
</g>
<!-- DashboardDetailComponent -->
<g id="node3" class="node">
<title>DashboardDetailComponent</title>
<polygon fill="#ffffb3" stroke="black" points="988.19,-84.8 811.81,-84.8 811.81,-48.8 988.19,-48.8 988.19,-84.8"/>
<text text-anchor="middle" x="900" y="-62.6" font-family="Times,serif" font-size="14.00">DashboardDetailComponent</text>
</g>
<!-- DashboardDetailComponent&#45;&gt;DashboardModule -->
<g id="edge3" class="edge">
<title>DashboardDetailComponent&#45;&gt;DashboardModule</title>
<path fill="none" stroke="black" d="M958,-84.91C958,-84.91 958,-103.79 958,-103.79"/>
<polygon fill="black" stroke="black" points="954.5,-103.79 958,-113.79 961.5,-103.79 954.5,-103.79"/>
</g>
<!-- DashboardEditComponent -->
<g id="node4" class="node">
<title>DashboardEditComponent</title>
<polygon fill="#ffffb3" stroke="black" points="793.81,-84.8 628.19,-84.8 628.19,-48.8 793.81,-48.8 793.81,-84.8"/>
<text text-anchor="middle" x="711" y="-62.6" font-family="Times,serif" font-size="14.00">DashboardEditComponent</text>
</g>
<!-- DashboardEditComponent&#45;&gt;DashboardModule -->
<g id="edge4" class="edge">
<title>DashboardEditComponent&#45;&gt;DashboardModule</title>
<path fill="none" stroke="black" d="M711,-84.81C711,-100.85 711,-121.8 711,-121.8 711,-121.8 917.9,-121.8 917.9,-121.8"/>
<polygon fill="black" stroke="black" points="917.9,-125.3 927.9,-121.8 917.9,-118.3 917.9,-125.3"/>
</g>
<!-- DashboardEditEntryComponent -->
<g id="node5" class="node">
<title>DashboardEditEntryComponent</title>
<polygon fill="#ffffb3" stroke="black" points="610.41,-84.8 413.59,-84.8 413.59,-48.8 610.41,-48.8 610.41,-84.8"/>
<text text-anchor="middle" x="512" y="-62.6" font-family="Times,serif" font-size="14.00">DashboardEditEntryComponent</text>
</g>
<!-- DashboardEditEntryComponent&#45;&gt;DashboardModule -->
<g id="edge5" class="edge">
<title>DashboardEditEntryComponent&#45;&gt;DashboardModule</title>
<path fill="none" stroke="black" d="M512,-85.07C512,-103.36 512,-128.8 512,-128.8 512,-128.8 917.71,-128.8 917.71,-128.8"/>
<polygon fill="black" stroke="black" points="917.71,-132.3 927.71,-128.8 917.71,-125.3 917.71,-132.3"/>
</g>
<!-- DashboardViewComponent -->
<g id="node6" class="node">
<title>DashboardViewComponent</title>
<polygon fill="#ffffb3" stroke="black" points="396.3,-84.8 223.7,-84.8 223.7,-48.8 396.3,-48.8 396.3,-84.8"/>
<text text-anchor="middle" x="310" y="-62.6" font-family="Times,serif" font-size="14.00">DashboardViewComponent</text>
</g>
<!-- DashboardViewComponent&#45;&gt;DashboardModule -->
<g id="edge6" class="edge">
<title>DashboardViewComponent&#45;&gt;DashboardModule</title>
<path fill="none" stroke="black" d="M310,-84.93C310,-105.37 310,-135.8 310,-135.8 310,-135.8 917.83,-135.8 917.83,-135.8"/>
<polygon fill="black" stroke="black" points="917.83,-139.3 927.83,-135.8 917.83,-132.3 917.83,-139.3"/>
</g>
<!-- DataTypeSelectorComponent -->
<g id="node7" class="node">
<title>DataTypeSelectorComponent</title>
<polygon fill="#ffffb3" stroke="black" points="206.39,-84.8 23.61,-84.8 23.61,-48.8 206.39,-48.8 206.39,-84.8"/>
<text text-anchor="middle" x="115" y="-62.6" font-family="Times,serif" font-size="14.00">DataTypeSelectorComponent</text>
</g>
<!-- DataTypeSelectorComponent&#45;&gt;DashboardModule -->
<g id="edge7" class="edge">
<title>DataTypeSelectorComponent&#45;&gt;DashboardModule</title>
<path fill="none" stroke="black" d="M115,-84.81C115,-107.29 115,-142.8 115,-142.8 115,-142.8 917.65,-142.8 917.65,-142.8"/>
<polygon fill="black" stroke="black" points="917.65,-146.3 927.65,-142.8 917.65,-139.3 917.65,-146.3"/>
</g>
<!-- DashboardRoutingModule -->
<g id="node9" class="node">
<title>DashboardRoutingModule</title>
<polygon fill="#8dd3c7" stroke="black" points="1748.82,-84.8 1745.82,-88.8 1724.82,-88.8 1721.82,-84.8 1583.18,-84.8 1583.18,-48.8 1748.82,-48.8 1748.82,-84.8"/>
<text text-anchor="middle" x="1666" y="-62.6" font-family="Times,serif" font-size="14.00">DashboardRoutingModule</text>
</g>
<!-- DashboardRoutingModule&#45;&gt;DashboardModule -->
<g id="edge8" class="edge">
<title>DashboardRoutingModule&#45;&gt;DashboardModule</title>
<path fill="none" stroke="black" d="M1666,-84.81C1666,-107.29 1666,-142.8 1666,-142.8 1666,-142.8 1058.17,-142.8 1058.17,-142.8"/>
<polygon fill="black" stroke="black" points="1058.17,-139.3 1048.17,-142.8 1058.17,-146.3 1058.17,-139.3"/>
</g>
<!-- SharedModule -->
<g id="node10" class="node">
<title>SharedModule</title>
<polygon fill="#8dd3c7" stroke="black" points="1565.43,-84.8 1562.43,-88.8 1541.43,-88.8 1538.43,-84.8 1466.57,-84.8 1466.57,-48.8 1565.43,-48.8 1565.43,-84.8"/>
<text text-anchor="middle" x="1516" y="-62.6" font-family="Times,serif" font-size="14.00">SharedModule</text>
</g>
<!-- SharedModule&#45;&gt;DashboardModule -->
<g id="edge9" class="edge">
<title>SharedModule&#45;&gt;DashboardModule</title>
<path fill="none" stroke="black" d="M1516,-84.93C1516,-105.37 1516,-135.8 1516,-135.8 1516,-135.8 1058.31,-135.8 1058.31,-135.8"/>
<polygon fill="black" stroke="black" points="1058.31,-132.3 1048.31,-135.8 1058.31,-139.3 1058.31,-132.3"/>
</g>
<!-- WidgetModule -->
<g id="node11" class="node">
<title>WidgetModule</title>
<polygon fill="#8dd3c7" stroke="black" points="1448.26,-84.8 1445.26,-88.8 1424.26,-88.8 1421.26,-84.8 1347.74,-84.8 1347.74,-48.8 1448.26,-48.8 1448.26,-84.8"/>
<text text-anchor="middle" x="1398" y="-62.6" font-family="Times,serif" font-size="14.00">WidgetModule</text>
</g>
<!-- WidgetModule&#45;&gt;DashboardModule -->
<g id="edge10" class="edge">
<title>WidgetModule&#45;&gt;DashboardModule</title>
<path fill="none" stroke="black" d="M1398,-85.07C1398,-103.36 1398,-128.8 1398,-128.8 1398,-128.8 1058.5,-128.8 1058.5,-128.8"/>
<polygon fill="black" stroke="black" points="1058.5,-125.3 1048.5,-128.8 1058.5,-132.3 1058.5,-125.3"/>
</g>
</g>
</svg>
