<?xml version="1.0" encoding="UTF-8" standalone="no"?>
<!DOCTYPE svg PUBLIC "-//W3C//DTD SVG 1.1//EN"
 "http://www.w3.org/Graphics/SVG/1.1/DTD/svg11.dtd">
<!-- Generated by graphviz version 5.0.0 (20220707.1540)
 -->
<!-- Title: dependencies Pages: 1 -->
<svg width="3473pt" height="174pt"
 viewBox="0.00 0.00 3473.00 173.80" xmlns="http://www.w3.org/2000/svg" xmlns:xlink="http://www.w3.org/1999/xlink">
<g id="graph0" class="graph" transform="scale(1 1) rotate(0) translate(4 169.8)">
<title>dependencies</title>
<polygon fill="white" stroke="transparent" points="-4,4 -4,-169.8 3469,-169.8 3469,4 -4,4"/>
<text text-anchor="middle" x="1732.5" y="-8.2" font-family="sans-serif" font-size="14.00">dependencies</text>
<g id="clust1" class="cluster">
<title>cluster_DashboardModule</title>
<polygon fill="none" stroke="black" stroke-dasharray="1,5" points="8,-32.8 8,-157.8 3457,-157.8 3457,-32.8 8,-32.8"/>
</g>
<g id="clust2" class="cluster">
<title>cluster_DashboardModule_declarations</title>
<polygon fill="none" stroke="black" points="446,-40.8 446,-92.8 3449,-92.8 3449,-40.8 446,-40.8"/>
</g>
<g id="clust19" class="cluster">
<title>cluster_DashboardModule_imports</title>
<polygon fill="none" stroke="black" points="16,-40.8 16,-92.8 438,-92.8 438,-40.8 16,-40.8"/>
</g>
<!-- ChannelFilterComponent -->
<g id="node1" class="node">
<title>ChannelFilterComponent</title>
<polygon fill="#ffffb3" stroke="black" points="3441.32,-84.8 3282.68,-84.8 3282.68,-48.8 3441.32,-48.8 3441.32,-84.8"/>
<text text-anchor="middle" x="3362" y="-62.6" font-family="Times,serif" font-size="14.00">ChannelFilterComponent</text>
</g>
<!-- DashboardModule -->
<g id="node17" class="node">
<title>DashboardModule</title>
<polygon fill="#8dd3c7" stroke="black" points="1759.2,-149.8 1756.2,-153.8 1735.2,-153.8 1732.2,-149.8 1638.8,-149.8 1638.8,-113.8 1759.2,-113.8 1759.2,-149.8"/>
<text text-anchor="middle" x="1699" y="-127.6" font-family="Times,serif" font-size="14.00">DashboardModule</text>
</g>
<!-- ChannelFilterComponent&#45;&gt;DashboardModule -->
<g id="edge1" class="edge">
<title>ChannelFilterComponent&#45;&gt;DashboardModule</title>
<path fill="none" stroke="black" d="M3362,-84.95C3362,-108.56 3362,-146.8 3362,-146.8 3362,-146.8 1769.17,-146.8 1769.17,-146.8"/>
<polygon fill="black" stroke="black" points="1769.17,-143.3 1759.17,-146.8 1769.17,-150.3 1769.17,-143.3"/>
</g>
<!-- DashboardComponent -->
<g id="node2" class="node">
<title>DashboardComponent</title>
<polygon fill="#ffffb3" stroke="black" points="3264.98,-84.8 3123.02,-84.8 3123.02,-48.8 3264.98,-48.8 3264.98,-84.8"/>
<text text-anchor="middle" x="3194" y="-62.6" font-family="Times,serif" font-size="14.00">DashboardComponent</text>
</g>
<!-- DashboardComponent&#45;&gt;DashboardModule -->
<g id="edge2" class="edge">
<title>DashboardComponent&#45;&gt;DashboardModule</title>
<path fill="none" stroke="black" d="M3194,-84.81C3194,-107.29 3194,-142.8 3194,-142.8 3194,-142.8 1769.46,-142.8 1769.46,-142.8"/>
<polygon fill="black" stroke="black" points="1769.46,-139.3 1759.46,-142.8 1769.46,-146.3 1769.46,-139.3"/>
</g>
<!-- DashboardDetailComponent -->
<g id="node3" class="node">
<title>DashboardDetailComponent</title>
<polygon fill="#ffffb3" stroke="black" points="3105.19,-84.8 2928.81,-84.8 2928.81,-48.8 3105.19,-48.8 3105.19,-84.8"/>
<text text-anchor="middle" x="3017" y="-62.6" font-family="Times,serif" font-size="14.00">DashboardDetailComponent</text>
</g>
<!-- DashboardDetailComponent&#45;&gt;DashboardModule -->
<g id="edge3" class="edge">
<title>DashboardDetailComponent&#45;&gt;DashboardModule</title>
<path fill="none" stroke="black" d="M3017,-84.84C3017,-106.46 3017,-139.8 3017,-139.8 3017,-139.8 1769.49,-139.8 1769.49,-139.8"/>
<polygon fill="black" stroke="black" points="1769.49,-136.3 1759.49,-139.8 1769.49,-143.3 1769.49,-136.3"/>
</g>
<!-- DashboardEditComponent -->
<g id="node4" class="node">
<title>DashboardEditComponent</title>
<polygon fill="#ffffb3" stroke="black" points="2910.81,-84.8 2745.19,-84.8 2745.19,-48.8 2910.81,-48.8 2910.81,-84.8"/>
<text text-anchor="middle" x="2828" y="-62.6" font-family="Times,serif" font-size="14.00">DashboardEditComponent</text>
</g>
<!-- DashboardEditComponent&#45;&gt;DashboardModule -->
<g id="edge4" class="edge">
<title>DashboardEditComponent&#45;&gt;DashboardModule</title>
<path fill="none" stroke="black" d="M2828,-84.93C2828,-105.37 2828,-135.8 2828,-135.8 2828,-135.8 1769.3,-135.8 1769.3,-135.8"/>
<polygon fill="black" stroke="black" points="1769.3,-132.3 1759.3,-135.8 1769.3,-139.3 1769.3,-132.3"/>
</g>
<!-- DashboardEditEntryComponent -->
<g id="node5" class="node">
<title>DashboardEditEntryComponent</title>
<polygon fill="#ffffb3" stroke="black" points="2727.41,-84.8 2530.59,-84.8 2530.59,-48.8 2727.41,-48.8 2727.41,-84.8"/>
<text text-anchor="middle" x="2629" y="-62.6" font-family="Times,serif" font-size="14.00">DashboardEditEntryComponent</text>
</g>
<!-- DashboardEditEntryComponent&#45;&gt;DashboardModule -->
<g id="edge5" class="edge">
<title>DashboardEditEntryComponent&#45;&gt;DashboardModule</title>
<path fill="none" stroke="black" d="M2629,-84.91C2629,-104.14 2629,-131.8 2629,-131.8 2629,-131.8 1769.3,-131.8 1769.3,-131.8"/>
<polygon fill="black" stroke="black" points="1769.3,-128.3 1759.3,-131.8 1769.3,-135.3 1769.3,-128.3"/>
</g>
<!-- DashboardViewComponent -->
<g id="node6" class="node">
<title>DashboardViewComponent</title>
<polygon fill="#ffffb3" stroke="black" points="2513.3,-84.8 2340.7,-84.8 2340.7,-48.8 2513.3,-48.8 2513.3,-84.8"/>
<text text-anchor="middle" x="2427" y="-62.6" font-family="Times,serif" font-size="14.00">DashboardViewComponent</text>
</g>
<!-- DashboardViewComponent&#45;&gt;DashboardModule -->
<g id="edge6" class="edge">
<title>DashboardViewComponent&#45;&gt;DashboardModule</title>
<path fill="none" stroke="black" d="M2427,-85.07C2427,-103.36 2427,-128.8 2427,-128.8 2427,-128.8 1769.19,-128.8 1769.19,-128.8"/>
<polygon fill="black" stroke="black" points="1769.19,-125.3 1759.19,-128.8 1769.19,-132.3 1769.19,-125.3"/>
</g>
<!-- DataTypeSelectorComponent -->
<g id="node7" class="node">
<title>DataTypeSelectorComponent</title>
<polygon fill="#ffffb3" stroke="black" points="2323.39,-84.8 2140.61,-84.8 2140.61,-48.8 2323.39,-48.8 2323.39,-84.8"/>
<text text-anchor="middle" x="2232" y="-62.6" font-family="Times,serif" font-size="14.00">DataTypeSelectorComponent</text>
</g>
<!-- DataTypeSelectorComponent&#45;&gt;DashboardModule -->
<g id="edge7" class="edge">
<title>DataTypeSelectorComponent&#45;&gt;DashboardModule</title>
<path fill="none" stroke="black" d="M2232,-84.83C2232,-101.86 2232,-124.8 2232,-124.8 2232,-124.8 1769.11,-124.8 1769.11,-124.8"/>
<polygon fill="black" stroke="black" points="1769.11,-121.3 1759.11,-124.8 1769.11,-128.3 1769.11,-121.3"/>
</g>
<!-- MetricToggleComponent -->
<g id="node8" class="node">
<title>MetricToggleComponent</title>
<polygon fill="#ffffb3" stroke="black" points="2123.3,-84.8 1964.7,-84.8 1964.7,-48.8 2123.3,-48.8 2123.3,-84.8"/>
<text text-anchor="middle" x="2044" y="-62.6" font-family="Times,serif" font-size="14.00">MetricToggleComponent</text>
</g>
<!-- MetricToggleComponent&#45;&gt;DashboardModule -->
<g id="edge8" class="edge">
<title>MetricToggleComponent&#45;&gt;DashboardModule</title>
<path fill="none" stroke="black" d="M2044,-84.81C2044,-100.85 2044,-121.8 2044,-121.8 2044,-121.8 1769.49,-121.8 1769.49,-121.8"/>
<polygon fill="black" stroke="black" points="1769.49,-118.3 1759.49,-121.8 1769.49,-125.3 1769.49,-118.3"/>
</g>
<!-- WidgetDetailComponent -->
<g id="node9" class="node">
<title>WidgetDetailComponent</title>
<polygon fill="#ffffb3" stroke="black" points="1946.25,-84.8 1789.75,-84.8 1789.75,-48.8 1946.25,-48.8 1946.25,-84.8"/>
<text text-anchor="middle" x="1868" y="-62.6" font-family="Times,serif" font-size="14.00">WidgetDetailComponent</text>
</g>
<!-- WidgetDetailComponent&#45;&gt;DashboardModule -->
<g id="edge9" class="edge">
<title>WidgetDetailComponent&#45;&gt;DashboardModule</title>
<path fill="none" stroke="black" d="M1868,-84.92C1868,-99.58 1868,-117.8 1868,-117.8 1868,-117.8 1769.54,-117.8 1769.54,-117.8"/>
<polygon fill="black" stroke="black" points="1769.54,-114.3 1759.54,-117.8 1769.54,-121.3 1769.54,-114.3"/>
</g>
<!-- WidgetEditComponent -->
<g id="node10" class="node">
<title>WidgetEditComponent</title>
<polygon fill="#ffffb3" stroke="black" points="1771.87,-84.8 1626.13,-84.8 1626.13,-48.8 1771.87,-48.8 1771.87,-84.8"/>
<text text-anchor="middle" x="1699" y="-62.6" font-family="Times,serif" font-size="14.00">WidgetEditComponent</text>
</g>
<!-- WidgetEditComponent&#45;&gt;DashboardModule -->
<g id="edge10" class="edge">
<title>WidgetEditComponent&#45;&gt;DashboardModule</title>
<path fill="none" stroke="black" d="M1699,-84.91C1699,-84.91 1699,-103.79 1699,-103.79"/>
<polygon fill="black" stroke="black" points="1695.5,-103.79 1699,-113.79 1702.5,-103.79 1695.5,-103.79"/>
</g>
<!-- WidgetEditEntryComponent -->
<g id="node11" class="node">
<title>WidgetEditEntryComponent</title>
<polygon fill="#ffffb3" stroke="black" points="1608.47,-84.8 1431.53,-84.8 1431.53,-48.8 1608.47,-48.8 1608.47,-84.8"/>
<text text-anchor="middle" x="1520" y="-62.6" font-family="Times,serif" font-size="14.00">WidgetEditEntryComponent</text>
</g>
<!-- WidgetEditEntryComponent&#45;&gt;DashboardModule -->
<g id="edge11" class="edge">
<title>WidgetEditEntryComponent&#45;&gt;DashboardModule</title>
<path fill="none" stroke="black" d="M1520,-84.92C1520,-99.58 1520,-117.8 1520,-117.8 1520,-117.8 1628.9,-117.8 1628.9,-117.8"/>
<polygon fill="black" stroke="black" points="1628.9,-121.3 1638.9,-117.8 1628.9,-114.3 1628.9,-121.3"/>
</g>
<!-- WidgetEditInfoComponent -->
<g id="node12" class="node">
<title>WidgetEditInfoComponent</title>
<polygon fill="#ffffb3" stroke="black" points="1413.69,-84.8 1244.31,-84.8 1244.31,-48.8 1413.69,-48.8 1413.69,-84.8"/>
<text text-anchor="middle" x="1329" y="-62.6" font-family="Times,serif" font-size="14.00">WidgetEditInfoComponent</text>
</g>
<!-- WidgetEditInfoComponent&#45;&gt;DashboardModule -->
<g id="edge12" class="edge">
<title>WidgetEditInfoComponent&#45;&gt;DashboardModule</title>
<path fill="none" stroke="black" d="M1329,-84.81C1329,-100.85 1329,-121.8 1329,-121.8 1329,-121.8 1628.73,-121.8 1628.73,-121.8"/>
<polygon fill="black" stroke="black" points="1628.73,-125.3 1638.73,-121.8 1628.73,-118.3 1628.73,-125.3"/>
</g>
<!-- WidgetEditMetricsComponent -->
<g id="node13" class="node">
<title>WidgetEditMetricsComponent</title>
<polygon fill="#ffffb3" stroke="black" points="1226.14,-84.8 1037.86,-84.8 1037.86,-48.8 1226.14,-48.8 1226.14,-84.8"/>
<text text-anchor="middle" x="1132" y="-62.6" font-family="Times,serif" font-size="14.00">WidgetEditMetricsComponent</text>
</g>
<!-- WidgetEditMetricsComponent&#45;&gt;DashboardModule -->
<g id="edge13" class="edge">
<title>WidgetEditMetricsComponent&#45;&gt;DashboardModule</title>
<path fill="none" stroke="black" d="M1132,-84.83C1132,-101.86 1132,-124.8 1132,-124.8 1132,-124.8 1628.86,-124.8 1628.86,-124.8"/>
<polygon fill="black" stroke="black" points="1628.86,-128.3 1638.86,-124.8 1628.86,-121.3 1628.86,-128.3"/>
</g>
<!-- WidgetEditOptionsComponent -->
<g id="node14" class="node">
<title>WidgetEditOptionsComponent</title>
<polygon fill="#ffffb3" stroke="black" points="1020.21,-84.8 829.79,-84.8 829.79,-48.8 1020.21,-48.8 1020.21,-84.8"/>
<text text-anchor="middle" x="925" y="-62.6" font-family="Times,serif" font-size="14.00">WidgetEditOptionsComponent</text>
</g>
<!-- WidgetEditOptionsComponent&#45;&gt;DashboardModule -->
<g id="edge14" class="edge">
<title>WidgetEditOptionsComponent&#45;&gt;DashboardModule</title>
<path fill="none" stroke="black" d="M925,-85.07C925,-103.36 925,-128.8 925,-128.8 925,-128.8 1628.59,-128.8 1628.59,-128.8"/>
<polygon fill="black" stroke="black" points="1628.59,-132.3 1638.59,-128.8 1628.59,-125.3 1628.59,-132.3"/>
</g>
<!-- WidgetMainComponent -->
<g id="node15" class="node">
<title>WidgetMainComponent</title>
<polygon fill="#ffffb3" stroke="black" points="812.09,-84.8 659.91,-84.8 659.91,-48.8 812.09,-48.8 812.09,-84.8"/>
<text text-anchor="middle" x="736" y="-62.6" font-family="Times,serif" font-size="14.00">WidgetMainComponent</text>
</g>
<!-- WidgetMainComponent&#45;&gt;DashboardModule -->
<g id="edge15" class="edge">
<title>WidgetMainComponent&#45;&gt;DashboardModule</title>
<path fill="none" stroke="black" d="M736,-84.91C736,-104.14 736,-131.8 736,-131.8 736,-131.8 1628.76,-131.8 1628.76,-131.8"/>
<polygon fill="black" stroke="black" points="1628.76,-135.3 1638.76,-131.8 1628.76,-128.3 1628.76,-135.3"/>
</g>
<!-- WidgetTypeExampleDirective -->
<g id="node16" class="node">
<title>WidgetTypeExampleDirective</title>
<polygon fill="#ffffb3" stroke="black" points="641.81,-84.8 454.19,-84.8 454.19,-48.8 641.81,-48.8 641.81,-84.8"/>
<text text-anchor="middle" x="548" y="-62.6" font-family="Times,serif" font-size="14.00">WidgetTypeExampleDirective</text>
</g>
<!-- WidgetTypeExampleDirective&#45;&gt;DashboardModule -->
<g id="edge16" class="edge">
<title>WidgetTypeExampleDirective&#45;&gt;DashboardModule</title>
<path fill="none" stroke="black" d="M548,-84.93C548,-105.37 548,-135.8 548,-135.8 548,-135.8 1628.74,-135.8 1628.74,-135.8"/>
<polygon fill="black" stroke="black" points="1628.74,-139.3 1638.74,-135.8 1628.74,-132.3 1628.74,-139.3"/>
</g>
<!-- DashboardRoutingModule -->
<g id="node18" class="node">
<title>DashboardRoutingModule</title>
<polygon fill="#8dd3c7" stroke="black" points="429.82,-84.8 426.82,-88.8 405.82,-88.8 402.82,-84.8 264.18,-84.8 264.18,-48.8 429.82,-48.8 429.82,-84.8"/>
<text text-anchor="middle" x="347" y="-62.6" font-family="Times,serif" font-size="14.00">DashboardRoutingModule</text>
</g>
<!-- DashboardRoutingModule&#45;&gt;DashboardModule -->
<g id="edge17" class="edge">
<title>DashboardRoutingModule&#45;&gt;DashboardModule</title>
<path fill="none" stroke="black" d="M347,-84.84C347,-106.46 347,-139.8 347,-139.8 347,-139.8 1628.72,-139.8 1628.72,-139.8"/>
<polygon fill="black" stroke="black" points="1628.72,-143.3 1638.72,-139.8 1628.72,-136.3 1628.72,-143.3"/>
</g>
<!-- SharedModule -->
<g id="node19" class="node">
<title>SharedModule</title>
<polygon fill="#8dd3c7" stroke="black" points="246.43,-84.8 243.43,-88.8 222.43,-88.8 219.43,-84.8 147.57,-84.8 147.57,-48.8 246.43,-48.8 246.43,-84.8"/>
<text text-anchor="middle" x="197" y="-62.6" font-family="Times,serif" font-size="14.00">SharedModule</text>
</g>
<!-- SharedModule&#45;&gt;DashboardModule -->
<g id="edge18" class="edge">
<title>SharedModule&#45;&gt;DashboardModule</title>
<path fill="none" stroke="black" d="M197,-84.81C197,-107.29 197,-142.8 197,-142.8 197,-142.8 1628.73,-142.8 1628.73,-142.8"/>
<polygon fill="black" stroke="black" points="1628.73,-146.3 1638.73,-142.8 1628.73,-139.3 1628.73,-146.3"/>
</g>
<!-- WidgetsModule -->
<g id="node20" class="node">
<title>WidgetsModule</title>
<polygon fill="#8dd3c7" stroke="black" points="130.21,-84.8 127.21,-88.8 106.21,-88.8 103.21,-84.8 23.79,-84.8 23.79,-48.8 130.21,-48.8 130.21,-84.8"/>
<text text-anchor="middle" x="77" y="-62.6" font-family="Times,serif" font-size="14.00">WidgetsModule</text>
</g>
<!-- WidgetsModule&#45;&gt;DashboardModule -->
<g id="edge19" class="edge">
<title>WidgetsModule&#45;&gt;DashboardModule</title>
<path fill="none" stroke="black" d="M77,-84.95C77,-108.56 77,-146.8 77,-146.8 77,-146.8 1628.86,-146.8 1628.86,-146.8"/>
<polygon fill="black" stroke="black" points="1628.86,-150.3 1638.86,-146.8 1628.86,-143.3 1628.86,-150.3"/>
</g>
</g>
</svg>
