<?xml version="1.0" encoding="UTF-8" standalone="no"?>
<!DOCTYPE svg PUBLIC "-//W3C//DTD SVG 1.1//EN"
 "http://www.w3.org/Graphics/SVG/1.1/DTD/svg11.dtd">
<!-- Generated by graphviz version 5.0.0 (20220707.1540)
 -->
<!-- Title: dependencies Pages: 1 -->
<svg width="1909pt" height="174pt"
 viewBox="0.00 0.00 1909.00 173.80" xmlns="http://www.w3.org/2000/svg" xmlns:xlink="http://www.w3.org/1999/xlink">
<g id="graph0" class="graph" transform="scale(1 1) rotate(0) translate(4 169.8)">
<title>dependencies</title>
<polygon fill="white" stroke="transparent" points="-4,4 -4,-169.8 1905,-169.8 1905,4 -4,4"/>
<text text-anchor="middle" x="950.5" y="-8.2" font-family="sans-serif" font-size="14.00">dependencies</text>
<g id="clust1" class="cluster">
<title>cluster_UserModule</title>
<polygon fill="none" stroke="black" stroke-dasharray="1,5" points="8,-32.8 8,-157.8 1893,-157.8 1893,-32.8 8,-32.8"/>
</g>
<g id="clust2" class="cluster">
<title>cluster_UserModule_declarations</title>
<polygon fill="none" stroke="black" points="288,-40.8 288,-92.8 1885,-92.8 1885,-40.8 288,-40.8"/>
</g>
<g id="clust12" class="cluster">
<title>cluster_UserModule_imports</title>
<polygon fill="none" stroke="black" points="16,-40.8 16,-92.8 280,-92.8 280,-40.8 16,-40.8"/>
</g>
<!-- LoginComponent -->
<g id="node1" class="node">
<title>LoginComponent</title>
<polygon fill="#ffffb3" stroke="black" points="1877.27,-84.8 1762.73,-84.8 1762.73,-48.8 1877.27,-48.8 1877.27,-84.8"/>
<text text-anchor="middle" x="1820" y="-62.6" font-family="Times,serif" font-size="14.00">LoginComponent</text>
</g>
<!-- UserModule -->
<g id="node10" class="node">
<title>UserModule</title>
<polygon fill="#8dd3c7" stroke="black" points="866.99,-149.8 863.99,-153.8 842.99,-153.8 839.99,-149.8 781.01,-149.8 781.01,-113.8 866.99,-113.8 866.99,-149.8"/>
<text text-anchor="middle" x="824" y="-127.6" font-family="Times,serif" font-size="14.00">UserModule</text>
</g>
<!-- LoginComponent&#45;&gt;UserModule -->
<g id="edge1" class="edge">
<title>LoginComponent&#45;&gt;UserModule</title>
<path fill="none" stroke="black" d="M1820,-84.89C1820,-107.93 1820,-144.8 1820,-144.8 1820,-144.8 877.12,-144.8 877.12,-144.8"/>
<polygon fill="black" stroke="black" points="877.12,-141.3 867.12,-144.8 877.12,-148.3 877.12,-141.3"/>
</g>
<!-- OrganizationDetailComponent -->
<g id="node2" class="node">
<title>OrganizationDetailComponent</title>
<polygon fill="#ffffb3" stroke="black" points="1744.12,-84.8 1555.88,-84.8 1555.88,-48.8 1744.12,-48.8 1744.12,-84.8"/>
<text text-anchor="middle" x="1650" y="-62.6" font-family="Times,serif" font-size="14.00">OrganizationDetailComponent</text>
</g>
<!-- OrganizationDetailComponent&#45;&gt;UserModule -->
<g id="edge2" class="edge">
<title>OrganizationDetailComponent&#45;&gt;UserModule</title>
<path fill="none" stroke="black" d="M1650,-85.08C1650,-106.12 1650,-137.8 1650,-137.8 1650,-137.8 877.25,-137.8 877.25,-137.8"/>
<polygon fill="black" stroke="black" points="877.25,-134.3 867.25,-137.8 877.25,-141.3 877.25,-134.3"/>
</g>
<!-- OrganizationEditComponent -->
<g id="node3" class="node">
<title>OrganizationEditComponent</title>
<polygon fill="#ffffb3" stroke="black" points="1537.75,-84.8 1360.25,-84.8 1360.25,-48.8 1537.75,-48.8 1537.75,-84.8"/>
<text text-anchor="middle" x="1449" y="-62.6" font-family="Times,serif" font-size="14.00">OrganizationEditComponent</text>
</g>
<!-- OrganizationEditComponent&#45;&gt;UserModule -->
<g id="edge3" class="edge">
<title>OrganizationEditComponent&#45;&gt;UserModule</title>
<path fill="none" stroke="black" d="M1449,-84.91C1449,-104.14 1449,-131.8 1449,-131.8 1449,-131.8 877.45,-131.8 877.45,-131.8"/>
<polygon fill="black" stroke="black" points="877.45,-128.3 867.45,-131.8 877.45,-135.3 877.45,-128.3"/>
</g>
<!-- OrganizationEditEntryComponent -->
<g id="node4" class="node">
<title>OrganizationEditEntryComponent</title>
<polygon fill="#ffffb3" stroke="black" points="1342.35,-84.8 1133.65,-84.8 1133.65,-48.8 1342.35,-48.8 1342.35,-84.8"/>
<text text-anchor="middle" x="1238" y="-62.6" font-family="Times,serif" font-size="14.00">OrganizationEditEntryComponent</text>
</g>
<!-- OrganizationEditEntryComponent&#45;&gt;UserModule -->
<g id="edge4" class="edge">
<title>OrganizationEditEntryComponent&#45;&gt;UserModule</title>
<path fill="none" stroke="black" d="M1238,-84.82C1238,-102.17 1238,-125.8 1238,-125.8 1238,-125.8 877.13,-125.8 877.13,-125.8"/>
<polygon fill="black" stroke="black" points="877.13,-122.3 867.13,-125.8 877.13,-129.3 877.13,-122.3"/>
</g>
<!-- OrganizationsViewComponent -->
<g id="node5" class="node">
<title>OrganizationsViewComponent</title>
<polygon fill="#ffffb3" stroke="black" points="1115.19,-84.8 924.81,-84.8 924.81,-48.8 1115.19,-48.8 1115.19,-84.8"/>
<text text-anchor="middle" x="1020" y="-62.6" font-family="Times,serif" font-size="14.00">OrganizationsViewComponent</text>
</g>
<!-- OrganizationsViewComponent&#45;&gt;UserModule -->
<g id="edge5" class="edge">
<title>OrganizationsViewComponent&#45;&gt;UserModule</title>
<path fill="none" stroke="black" d="M1020,-85.04C1020,-100.37 1020,-119.8 1020,-119.8 1020,-119.8 877.01,-119.8 877.01,-119.8"/>
<polygon fill="black" stroke="black" points="877.01,-116.3 867.01,-119.8 877.01,-123.3 877.01,-116.3"/>
</g>
<!-- PasswordResetComponent -->
<g id="node6" class="node">
<title>PasswordResetComponent</title>
<polygon fill="#ffffb3" stroke="black" points="907.1,-84.8 740.9,-84.8 740.9,-48.8 907.1,-48.8 907.1,-84.8"/>
<text text-anchor="middle" x="824" y="-62.6" font-family="Times,serif" font-size="14.00">PasswordResetComponent</text>
</g>
<!-- PasswordResetComponent&#45;&gt;UserModule -->
<g id="edge6" class="edge">
<title>PasswordResetComponent&#45;&gt;UserModule</title>
<path fill="none" stroke="black" d="M824,-84.91C824,-84.91 824,-103.79 824,-103.79"/>
<polygon fill="black" stroke="black" points="820.5,-103.79 824,-113.79 827.5,-103.79 820.5,-103.79"/>
</g>
<!-- UserComponent -->
<g id="node7" class="node">
<title>UserComponent</title>
<polygon fill="#ffffb3" stroke="black" points="722.77,-84.8 615.23,-84.8 615.23,-48.8 722.77,-48.8 722.77,-84.8"/>
<text text-anchor="middle" x="669" y="-62.6" font-family="Times,serif" font-size="14.00">UserComponent</text>
</g>
<!-- UserComponent&#45;&gt;UserModule -->
<g id="edge7" class="edge">
<title>UserComponent&#45;&gt;UserModule</title>
<path fill="none" stroke="black" d="M669,-85.04C669,-100.37 669,-119.8 669,-119.8 669,-119.8 770.82,-119.8 770.82,-119.8"/>
<polygon fill="black" stroke="black" points="770.82,-123.3 780.82,-119.8 770.82,-116.3 770.82,-123.3"/>
</g>
<!-- UserEditComponent -->
<g id="node8" class="node">
<title>UserEditComponent</title>
<polygon fill="#ffffb3" stroke="black" points="597.6,-84.8 466.4,-84.8 466.4,-48.8 597.6,-48.8 597.6,-84.8"/>
<text text-anchor="middle" x="532" y="-62.6" font-family="Times,serif" font-size="14.00">UserEditComponent</text>
</g>
<!-- UserEditComponent&#45;&gt;UserModule -->
<g id="edge8" class="edge">
<title>UserEditComponent&#45;&gt;UserModule</title>
<path fill="none" stroke="black" d="M532,-84.82C532,-102.17 532,-125.8 532,-125.8 532,-125.8 770.91,-125.8 770.91,-125.8"/>
<polygon fill="black" stroke="black" points="770.91,-129.3 780.91,-125.8 770.91,-122.3 770.91,-129.3"/>
</g>
<!-- UserSettingsComponent -->
<g id="node9" class="node">
<title>UserSettingsComponent</title>
<polygon fill="#ffffb3" stroke="black" points="448.38,-84.8 295.62,-84.8 295.62,-48.8 448.38,-48.8 448.38,-84.8"/>
<text text-anchor="middle" x="372" y="-62.6" font-family="Times,serif" font-size="14.00">UserSettingsComponent</text>
</g>
<!-- UserSettingsComponent&#45;&gt;UserModule -->
<g id="edge9" class="edge">
<title>UserSettingsComponent&#45;&gt;UserModule</title>
<path fill="none" stroke="black" d="M372,-84.91C372,-104.14 372,-131.8 372,-131.8 372,-131.8 770.66,-131.8 770.66,-131.8"/>
<polygon fill="black" stroke="black" points="770.66,-135.3 780.66,-131.8 770.66,-128.3 770.66,-135.3"/>
</g>
<!-- SharedModule -->
<g id="node11" class="node">
<title>SharedModule</title>
<polygon fill="#8dd3c7" stroke="black" points="272.43,-84.8 269.43,-88.8 248.43,-88.8 245.43,-84.8 173.57,-84.8 173.57,-48.8 272.43,-48.8 272.43,-84.8"/>
<text text-anchor="middle" x="223" y="-62.6" font-family="Times,serif" font-size="14.00">SharedModule</text>
</g>
<!-- SharedModule&#45;&gt;UserModule -->
<g id="edge10" class="edge">
<title>SharedModule&#45;&gt;UserModule</title>
<path fill="none" stroke="black" d="M223,-85.08C223,-106.12 223,-137.8 223,-137.8 223,-137.8 770.78,-137.8 770.78,-137.8"/>
<polygon fill="black" stroke="black" points="770.78,-141.3 780.78,-137.8 770.78,-134.3 770.78,-141.3"/>
</g>
<!-- UserRoutingModule -->
<g id="node12" class="node">
<title>UserRoutingModule</title>
<polygon fill="#8dd3c7" stroke="black" points="155.6,-84.8 152.6,-88.8 131.6,-88.8 128.6,-84.8 24.4,-84.8 24.4,-48.8 155.6,-48.8 155.6,-84.8"/>
<text text-anchor="middle" x="90" y="-62.6" font-family="Times,serif" font-size="14.00">UserRoutingModule</text>
</g>
<!-- UserRoutingModule&#45;&gt;UserModule -->
<g id="edge11" class="edge">
<title>UserRoutingModule&#45;&gt;UserModule</title>
<path fill="none" stroke="black" d="M90,-84.89C90,-107.93 90,-144.8 90,-144.8 90,-144.8 770.83,-144.8 770.83,-144.8"/>
<polygon fill="black" stroke="black" points="770.83,-148.3 780.83,-144.8 770.83,-141.3 770.83,-148.3"/>
</g>
</g>
</svg>
