<?xml version="1.0" encoding="UTF-8" standalone="no"?>
<!DOCTYPE svg PUBLIC "-//W3C//DTD SVG 1.1//EN"
 "http://www.w3.org/Graphics/SVG/1.1/DTD/svg11.dtd">
<!-- Generated by graphviz version 5.0.0 (20220707.1540)
 -->
<!-- Title: dependencies Pages: 1 -->
<svg width="2028pt" height="174pt"
 viewBox="0.00 0.00 2028.00 173.80" xmlns="http://www.w3.org/2000/svg" xmlns:xlink="http://www.w3.org/1999/xlink">
<g id="graph0" class="graph" transform="scale(1 1) rotate(0) translate(4 169.8)">
<title>dependencies</title>
<polygon fill="white" stroke="transparent" points="-4,4 -4,-169.8 2024,-169.8 2024,4 -4,4"/>
<text text-anchor="middle" x="1010" y="-8.2" font-family="sans-serif" font-size="14.00">dependencies</text>
<g id="clust1" class="cluster">
<title>cluster_UserModule</title>
<polygon fill="none" stroke="black" stroke-dasharray="1,5" points="8,-32.8 8,-157.8 2012,-157.8 2012,-32.8 8,-32.8"/>
</g>
<g id="clust2" class="cluster">
<title>cluster_UserModule_declarations</title>
<polygon fill="none" stroke="black" points="407,-40.8 407,-92.8 2004,-92.8 2004,-40.8 407,-40.8"/>
</g>
<g id="clust12" class="cluster">
<title>cluster_UserModule_imports</title>
<polygon fill="none" stroke="black" points="16,-40.8 16,-92.8 399,-92.8 399,-40.8 16,-40.8"/>
</g>
<!-- LoginComponent -->
<g id="node1" class="node">
<title>LoginComponent</title>
<polygon fill="#ffffb3" stroke="black" points="1996.27,-84.8 1881.73,-84.8 1881.73,-48.8 1996.27,-48.8 1996.27,-84.8"/>
<text text-anchor="middle" x="1939" y="-62.6" font-family="Times,serif" font-size="14.00">LoginComponent</text>
</g>
<!-- UserModule -->
<g id="node10" class="node">
<title>UserModule</title>
<polygon fill="#8dd3c7" stroke="black" points="907.99,-149.8 904.99,-153.8 883.99,-153.8 880.99,-149.8 822.01,-149.8 822.01,-113.8 907.99,-113.8 907.99,-149.8"/>
<text text-anchor="middle" x="865" y="-127.6" font-family="Times,serif" font-size="14.00">UserModule</text>
</g>
<!-- LoginComponent&#45;&gt;UserModule -->
<g id="edge1" class="edge">
<title>LoginComponent&#45;&gt;UserModule</title>
<path fill="none" stroke="black" d="M1939,-84.89C1939,-107.93 1939,-144.8 1939,-144.8 1939,-144.8 918.1,-144.8 918.1,-144.8"/>
<polygon fill="black" stroke="black" points="918.1,-141.3 908.1,-144.8 918.1,-148.3 918.1,-141.3"/>
</g>
<!-- OrganizationDetailComponent -->
<g id="node2" class="node">
<title>OrganizationDetailComponent</title>
<polygon fill="#ffffb3" stroke="black" points="1863.12,-84.8 1674.88,-84.8 1674.88,-48.8 1863.12,-48.8 1863.12,-84.8"/>
<text text-anchor="middle" x="1769" y="-62.6" font-family="Times,serif" font-size="14.00">OrganizationDetailComponent</text>
</g>
<!-- OrganizationDetailComponent&#45;&gt;UserModule -->
<g id="edge2" class="edge">
<title>OrganizationDetailComponent&#45;&gt;UserModule</title>
<path fill="none" stroke="black" d="M1769,-85.08C1769,-106.12 1769,-137.8 1769,-137.8 1769,-137.8 917.99,-137.8 917.99,-137.8"/>
<polygon fill="black" stroke="black" points="917.99,-134.3 907.99,-137.8 917.99,-141.3 917.99,-134.3"/>
</g>
<!-- OrganizationEditComponent -->
<g id="node3" class="node">
<title>OrganizationEditComponent</title>
<polygon fill="#ffffb3" stroke="black" points="1656.75,-84.8 1479.25,-84.8 1479.25,-48.8 1656.75,-48.8 1656.75,-84.8"/>
<text text-anchor="middle" x="1568" y="-62.6" font-family="Times,serif" font-size="14.00">OrganizationEditComponent</text>
</g>
<!-- OrganizationEditComponent&#45;&gt;UserModule -->
<g id="edge3" class="edge">
<title>OrganizationEditComponent&#45;&gt;UserModule</title>
<path fill="none" stroke="black" d="M1568,-84.91C1568,-104.14 1568,-131.8 1568,-131.8 1568,-131.8 918.18,-131.8 918.18,-131.8"/>
<polygon fill="black" stroke="black" points="918.18,-128.3 908.18,-131.8 918.18,-135.3 918.18,-128.3"/>
</g>
<!-- OrganizationEditEntryComponent -->
<g id="node4" class="node">
<title>OrganizationEditEntryComponent</title>
<polygon fill="#ffffb3" stroke="black" points="1461.35,-84.8 1252.65,-84.8 1252.65,-48.8 1461.35,-48.8 1461.35,-84.8"/>
<text text-anchor="middle" x="1357" y="-62.6" font-family="Times,serif" font-size="14.00">OrganizationEditEntryComponent</text>
</g>
<!-- OrganizationEditEntryComponent&#45;&gt;UserModule -->
<g id="edge4" class="edge">
<title>OrganizationEditEntryComponent&#45;&gt;UserModule</title>
<path fill="none" stroke="black" d="M1357,-84.82C1357,-102.17 1357,-125.8 1357,-125.8 1357,-125.8 918.23,-125.8 918.23,-125.8"/>
<polygon fill="black" stroke="black" points="918.23,-122.3 908.23,-125.8 918.23,-129.3 918.23,-122.3"/>
</g>
<!-- OrganizationsViewComponent -->
<g id="node5" class="node">
<title>OrganizationsViewComponent</title>
<polygon fill="#ffffb3" stroke="black" points="1234.19,-84.8 1043.81,-84.8 1043.81,-48.8 1234.19,-48.8 1234.19,-84.8"/>
<text text-anchor="middle" x="1139" y="-62.6" font-family="Times,serif" font-size="14.00">OrganizationsViewComponent</text>
</g>
<!-- OrganizationsViewComponent&#45;&gt;UserModule -->
<g id="edge5" class="edge">
<title>OrganizationsViewComponent&#45;&gt;UserModule</title>
<path fill="none" stroke="black" d="M1139,-85.04C1139,-100.37 1139,-119.8 1139,-119.8 1139,-119.8 918.11,-119.8 918.11,-119.8"/>
<polygon fill="black" stroke="black" points="918.11,-116.3 908.11,-119.8 918.11,-123.3 918.11,-116.3"/>
</g>
<!-- PasswordResetComponent -->
<g id="node6" class="node">
<title>PasswordResetComponent</title>
<polygon fill="#ffffb3" stroke="black" points="1026.1,-84.8 859.9,-84.8 859.9,-48.8 1026.1,-48.8 1026.1,-84.8"/>
<text text-anchor="middle" x="943" y="-62.6" font-family="Times,serif" font-size="14.00">PasswordResetComponent</text>
</g>
<!-- PasswordResetComponent&#45;&gt;UserModule -->
<g id="edge6" class="edge">
<title>PasswordResetComponent&#45;&gt;UserModule</title>
<path fill="none" stroke="black" d="M883.97,-84.91C883.97,-84.91 883.97,-103.79 883.97,-103.79"/>
<polygon fill="black" stroke="black" points="880.47,-103.79 883.97,-113.79 887.47,-103.79 880.47,-103.79"/>
</g>
<!-- UserComponent -->
<g id="node7" class="node">
<title>UserComponent</title>
<polygon fill="#ffffb3" stroke="black" points="841.77,-84.8 734.23,-84.8 734.23,-48.8 841.77,-48.8 841.77,-84.8"/>
<text text-anchor="middle" x="788" y="-62.6" font-family="Times,serif" font-size="14.00">UserComponent</text>
</g>
<!-- UserComponent&#45;&gt;UserModule -->
<g id="edge7" class="edge">
<title>UserComponent&#45;&gt;UserModule</title>
<path fill="none" stroke="black" d="M831.94,-84.91C831.94,-84.91 831.94,-103.79 831.94,-103.79"/>
<polygon fill="black" stroke="black" points="828.44,-103.79 831.94,-113.79 835.44,-103.79 828.44,-103.79"/>
</g>
<!-- UserEditComponent -->
<g id="node8" class="node">
<title>UserEditComponent</title>
<polygon fill="#ffffb3" stroke="black" points="716.6,-84.8 585.4,-84.8 585.4,-48.8 716.6,-48.8 716.6,-84.8"/>
<text text-anchor="middle" x="651" y="-62.6" font-family="Times,serif" font-size="14.00">UserEditComponent</text>
</g>
<!-- UserEditComponent&#45;&gt;UserModule -->
<g id="edge8" class="edge">
<title>UserEditComponent&#45;&gt;UserModule</title>
<path fill="none" stroke="black" d="M651,-85.04C651,-100.37 651,-119.8 651,-119.8 651,-119.8 811.95,-119.8 811.95,-119.8"/>
<polygon fill="black" stroke="black" points="811.95,-123.3 821.95,-119.8 811.95,-116.3 811.95,-123.3"/>
</g>
<!-- UserSettingsComponent -->
<g id="node9" class="node">
<title>UserSettingsComponent</title>
<polygon fill="#ffffb3" stroke="black" points="567.38,-84.8 414.62,-84.8 414.62,-48.8 567.38,-48.8 567.38,-84.8"/>
<text text-anchor="middle" x="491" y="-62.6" font-family="Times,serif" font-size="14.00">UserSettingsComponent</text>
</g>
<!-- UserSettingsComponent&#45;&gt;UserModule -->
<g id="edge9" class="edge">
<title>UserSettingsComponent&#45;&gt;UserModule</title>
<path fill="none" stroke="black" d="M491,-84.82C491,-102.17 491,-125.8 491,-125.8 491,-125.8 811.73,-125.8 811.73,-125.8"/>
<polygon fill="black" stroke="black" points="811.73,-129.3 821.73,-125.8 811.73,-122.3 811.73,-129.3"/>
</g>
<!-- SharedModule -->
<g id="node11" class="node">
<title>SharedModule</title>
<polygon fill="#8dd3c7" stroke="black" points="391.43,-84.8 388.43,-88.8 367.43,-88.8 364.43,-84.8 292.57,-84.8 292.57,-48.8 391.43,-48.8 391.43,-84.8"/>
<text text-anchor="middle" x="342" y="-62.6" font-family="Times,serif" font-size="14.00">SharedModule</text>
</g>
<!-- SharedModule&#45;&gt;UserModule -->
<g id="edge10" class="edge">
<title>SharedModule&#45;&gt;UserModule</title>
<path fill="none" stroke="black" d="M342,-84.91C342,-104.14 342,-131.8 342,-131.8 342,-131.8 811.76,-131.8 811.76,-131.8"/>
<polygon fill="black" stroke="black" points="811.76,-135.3 821.76,-131.8 811.76,-128.3 811.76,-135.3"/>
</g>
<!-- TooltipModule -->
<g id="node12" class="node">
<title>TooltipModule</title>
<polygon fill="#8dd3c7" stroke="black" points="274.27,-84.8 271.27,-88.8 250.27,-88.8 247.27,-84.8 173.73,-84.8 173.73,-48.8 274.27,-48.8 274.27,-84.8"/>
<text text-anchor="middle" x="224" y="-62.6" font-family="Times,serif" font-size="14.00">TooltipModule</text>
</g>
<!-- TooltipModule&#45;&gt;UserModule -->
<g id="edge11" class="edge">
<title>TooltipModule&#45;&gt;UserModule</title>
<path fill="none" stroke="black" d="M224,-85.08C224,-106.12 224,-137.8 224,-137.8 224,-137.8 811.95,-137.8 811.95,-137.8"/>
<polygon fill="black" stroke="black" points="811.95,-141.3 821.95,-137.8 811.95,-134.3 811.95,-141.3"/>
</g>
<!-- UserRoutingModule -->
<g id="node13" class="node">
<title>UserRoutingModule</title>
<polygon fill="#8dd3c7" stroke="black" points="155.6,-84.8 152.6,-88.8 131.6,-88.8 128.6,-84.8 24.4,-84.8 24.4,-48.8 155.6,-48.8 155.6,-84.8"/>
<text text-anchor="middle" x="90" y="-62.6" font-family="Times,serif" font-size="14.00">UserRoutingModule</text>
</g>
<!-- UserRoutingModule&#45;&gt;UserModule -->
<g id="edge12" class="edge">
<title>UserRoutingModule&#45;&gt;UserModule</title>
<path fill="none" stroke="black" d="M90,-84.89C90,-107.93 90,-144.8 90,-144.8 90,-144.8 811.95,-144.8 811.95,-144.8"/>
<polygon fill="black" stroke="black" points="811.95,-148.3 821.95,-144.8 811.95,-141.3 811.95,-148.3"/>
</g>
</g>
</svg>
