<?xml version="1.0" encoding="UTF-8" standalone="no"?>
<!DOCTYPE svg PUBLIC "-//W3C//DTD SVG 1.1//EN"
 "http://www.w3.org/Graphics/SVG/1.1/DTD/svg11.dtd">
<!-- Generated by graphviz version 5.0.0 (20220707.1540)
 -->
<!-- Title: dependencies Pages: 1 -->
<svg width="1909pt" height="174pt"
 viewBox="0.00 0.00 1909.00 173.80" xmlns="http://www.w3.org/2000/svg" xmlns:xlink="http://www.w3.org/1999/xlink">
<g id="graph0" class="graph" transform="scale(1 1) rotate(0) translate(4 169.8)">
<title>dependencies</title>
<polygon fill="white" stroke="transparent" points="-4,4 -4,-169.8 1905,-169.8 1905,4 -4,4"/>
<text text-anchor="middle" x="950.5" y="-8.2" font-family="sans-serif" font-size="14.00">dependencies</text>
<g id="clust1" class="cluster">
<title>cluster_UserModule</title>
<polygon fill="none" stroke="black" stroke-dasharray="1,5" points="8,-32.8 8,-157.8 1893,-157.8 1893,-32.8 8,-32.8"/>
</g>
<g id="clust12" class="cluster">
<title>cluster_UserModule_imports</title>
<polygon fill="none" stroke="black" points="1621,-40.8 1621,-92.8 1885,-92.8 1885,-40.8 1621,-40.8"/>
</g>
<g id="clust2" class="cluster">
<title>cluster_UserModule_declarations</title>
<polygon fill="none" stroke="black" points="16,-40.8 16,-92.8 1613,-92.8 1613,-40.8 16,-40.8"/>
</g>
<!-- LoginComponent -->
<g id="node1" class="node">
<title>LoginComponent</title>
<polygon fill="#ffffb3" stroke="black" points="1605.27,-84.8 1490.73,-84.8 1490.73,-48.8 1605.27,-48.8 1605.27,-84.8"/>
<text text-anchor="middle" x="1548" y="-62.6" font-family="Times,serif" font-size="14.00">LoginComponent</text>
</g>
<!-- UserModule -->
<g id="node10" class="node">
<title>UserModule</title>
<polygon fill="#8dd3c7" stroke="black" points="1008.99,-149.8 1005.99,-153.8 984.99,-153.8 981.99,-149.8 923.01,-149.8 923.01,-113.8 1008.99,-113.8 1008.99,-149.8"/>
<text text-anchor="middle" x="966" y="-127.6" font-family="Times,serif" font-size="14.00">UserModule</text>
</g>
<!-- LoginComponent&#45;&gt;UserModule -->
<g id="edge1" class="edge">
<title>LoginComponent&#45;&gt;UserModule</title>
<path fill="none" stroke="black" d="M1548,-84.91C1548,-104.14 1548,-131.8 1548,-131.8 1548,-131.8 1019.27,-131.8 1019.27,-131.8"/>
<polygon fill="black" stroke="black" points="1019.27,-128.3 1009.27,-131.8 1019.27,-135.3 1019.27,-128.3"/>
</g>
<!-- OrganizationDetailComponent -->
<g id="node2" class="node">
<title>OrganizationDetailComponent</title>
<polygon fill="#ffffb3" stroke="black" points="1472.12,-84.8 1283.88,-84.8 1283.88,-48.8 1472.12,-48.8 1472.12,-84.8"/>
<text text-anchor="middle" x="1378" y="-62.6" font-family="Times,serif" font-size="14.00">OrganizationDetailComponent</text>
</g>
<!-- OrganizationDetailComponent&#45;&gt;UserModule -->
<g id="edge2" class="edge">
<title>OrganizationDetailComponent&#45;&gt;UserModule</title>
<path fill="none" stroke="black" d="M1378,-84.82C1378,-102.17 1378,-125.8 1378,-125.8 1378,-125.8 1019.31,-125.8 1019.31,-125.8"/>
<polygon fill="black" stroke="black" points="1019.31,-122.3 1009.31,-125.8 1019.31,-129.3 1019.31,-122.3"/>
</g>
<!-- OrganizationEditComponent -->
<g id="node3" class="node">
<title>OrganizationEditComponent</title>
<polygon fill="#ffffb3" stroke="black" points="1265.75,-84.8 1088.25,-84.8 1088.25,-48.8 1265.75,-48.8 1265.75,-84.8"/>
<text text-anchor="middle" x="1177" y="-62.6" font-family="Times,serif" font-size="14.00">OrganizationEditComponent</text>
</g>
<!-- OrganizationEditComponent&#45;&gt;UserModule -->
<g id="edge3" class="edge">
<title>OrganizationEditComponent&#45;&gt;UserModule</title>
<path fill="none" stroke="black" d="M1177,-85.04C1177,-100.37 1177,-119.8 1177,-119.8 1177,-119.8 1019.21,-119.8 1019.21,-119.8"/>
<polygon fill="black" stroke="black" points="1019.21,-116.3 1009.21,-119.8 1019.21,-123.3 1019.21,-116.3"/>
</g>
<!-- OrganizationEditEntryComponent -->
<g id="node4" class="node">
<title>OrganizationEditEntryComponent</title>
<polygon fill="#ffffb3" stroke="black" points="1070.35,-84.8 861.65,-84.8 861.65,-48.8 1070.35,-48.8 1070.35,-84.8"/>
<text text-anchor="middle" x="966" y="-62.6" font-family="Times,serif" font-size="14.00">OrganizationEditEntryComponent</text>
</g>
<!-- OrganizationEditEntryComponent&#45;&gt;UserModule -->
<g id="edge4" class="edge">
<title>OrganizationEditEntryComponent&#45;&gt;UserModule</title>
<path fill="none" stroke="black" d="M966,-84.91C966,-84.91 966,-103.79 966,-103.79"/>
<polygon fill="black" stroke="black" points="962.5,-103.79 966,-113.79 969.5,-103.79 962.5,-103.79"/>
</g>
<!-- OrganizationsViewComponent -->
<g id="node5" class="node">
<title>OrganizationsViewComponent</title>
<polygon fill="#ffffb3" stroke="black" points="843.19,-84.8 652.81,-84.8 652.81,-48.8 843.19,-48.8 843.19,-84.8"/>
<text text-anchor="middle" x="748" y="-62.6" font-family="Times,serif" font-size="14.00">OrganizationsViewComponent</text>
</g>
<!-- OrganizationsViewComponent&#45;&gt;UserModule -->
<g id="edge5" class="edge">
<title>OrganizationsViewComponent&#45;&gt;UserModule</title>
<path fill="none" stroke="black" d="M748,-85.04C748,-100.37 748,-119.8 748,-119.8 748,-119.8 912.93,-119.8 912.93,-119.8"/>
<polygon fill="black" stroke="black" points="912.93,-123.3 922.93,-119.8 912.93,-116.3 912.93,-123.3"/>
</g>
<!-- PasswordResetComponent -->
<g id="node6" class="node">
<title>PasswordResetComponent</title>
<polygon fill="#ffffb3" stroke="black" points="635.1,-84.8 468.9,-84.8 468.9,-48.8 635.1,-48.8 635.1,-84.8"/>
<text text-anchor="middle" x="552" y="-62.6" font-family="Times,serif" font-size="14.00">PasswordResetComponent</text>
</g>
<!-- PasswordResetComponent&#45;&gt;UserModule -->
<g id="edge6" class="edge">
<title>PasswordResetComponent&#45;&gt;UserModule</title>
<path fill="none" stroke="black" d="M552,-84.82C552,-102.17 552,-125.8 552,-125.8 552,-125.8 912.87,-125.8 912.87,-125.8"/>
<polygon fill="black" stroke="black" points="912.87,-129.3 922.87,-125.8 912.87,-122.3 912.87,-129.3"/>
</g>
<!-- UserComponent -->
<g id="node7" class="node">
<title>UserComponent</title>
<polygon fill="#ffffb3" stroke="black" points="450.77,-84.8 343.23,-84.8 343.23,-48.8 450.77,-48.8 450.77,-84.8"/>
<text text-anchor="middle" x="397" y="-62.6" font-family="Times,serif" font-size="14.00">UserComponent</text>
</g>
<!-- UserComponent&#45;&gt;UserModule -->
<g id="edge7" class="edge">
<title>UserComponent&#45;&gt;UserModule</title>
<path fill="none" stroke="black" d="M397,-84.91C397,-104.14 397,-131.8 397,-131.8 397,-131.8 912.77,-131.8 912.77,-131.8"/>
<polygon fill="black" stroke="black" points="912.77,-135.3 922.77,-131.8 912.77,-128.3 912.77,-135.3"/>
</g>
<!-- UserEditComponent -->
<g id="node8" class="node">
<title>UserEditComponent</title>
<polygon fill="#ffffb3" stroke="black" points="325.6,-84.8 194.4,-84.8 194.4,-48.8 325.6,-48.8 325.6,-84.8"/>
<text text-anchor="middle" x="260" y="-62.6" font-family="Times,serif" font-size="14.00">UserEditComponent</text>
</g>
<!-- UserEditComponent&#45;&gt;UserModule -->
<g id="edge8" class="edge">
<title>UserEditComponent&#45;&gt;UserModule</title>
<path fill="none" stroke="black" d="M260,-85.08C260,-106.12 260,-137.8 260,-137.8 260,-137.8 912.9,-137.8 912.9,-137.8"/>
<polygon fill="black" stroke="black" points="912.9,-141.3 922.9,-137.8 912.9,-134.3 912.9,-141.3"/>
</g>
<!-- UserSettingsComponent -->
<g id="node9" class="node">
<title>UserSettingsComponent</title>
<polygon fill="#ffffb3" stroke="black" points="176.38,-84.8 23.62,-84.8 23.62,-48.8 176.38,-48.8 176.38,-84.8"/>
<text text-anchor="middle" x="100" y="-62.6" font-family="Times,serif" font-size="14.00">UserSettingsComponent</text>
</g>
<!-- UserSettingsComponent&#45;&gt;UserModule -->
<g id="edge9" class="edge">
<title>UserSettingsComponent&#45;&gt;UserModule</title>
<path fill="none" stroke="black" d="M100,-84.89C100,-107.93 100,-144.8 100,-144.8 100,-144.8 912.76,-144.8 912.76,-144.8"/>
<polygon fill="black" stroke="black" points="912.76,-148.3 922.76,-144.8 912.76,-141.3 912.76,-148.3"/>
</g>
<!-- SharedModule -->
<g id="node11" class="node">
<title>SharedModule</title>
<polygon fill="#8dd3c7" stroke="black" points="1877.43,-84.8 1874.43,-88.8 1853.43,-88.8 1850.43,-84.8 1778.57,-84.8 1778.57,-48.8 1877.43,-48.8 1877.43,-84.8"/>
<text text-anchor="middle" x="1828" y="-62.6" font-family="Times,serif" font-size="14.00">SharedModule</text>
</g>
<!-- SharedModule&#45;&gt;UserModule -->
<g id="edge10" class="edge">
<title>SharedModule&#45;&gt;UserModule</title>
<path fill="none" stroke="black" d="M1828,-84.89C1828,-107.93 1828,-144.8 1828,-144.8 1828,-144.8 1019.04,-144.8 1019.04,-144.8"/>
<polygon fill="black" stroke="black" points="1019.04,-141.3 1009.04,-144.8 1019.04,-148.3 1019.04,-141.3"/>
</g>
<!-- UserRoutingModule -->
<g id="node12" class="node">
<title>UserRoutingModule</title>
<polygon fill="#8dd3c7" stroke="black" points="1760.6,-84.8 1757.6,-88.8 1736.6,-88.8 1733.6,-84.8 1629.4,-84.8 1629.4,-48.8 1760.6,-48.8 1760.6,-84.8"/>
<text text-anchor="middle" x="1695" y="-62.6" font-family="Times,serif" font-size="14.00">UserRoutingModule</text>
</g>
<!-- UserRoutingModule&#45;&gt;UserModule -->
<g id="edge11" class="edge">
<title>UserRoutingModule&#45;&gt;UserModule</title>
<path fill="none" stroke="black" d="M1695,-85.08C1695,-106.12 1695,-137.8 1695,-137.8 1695,-137.8 1019.15,-137.8 1019.15,-137.8"/>
<polygon fill="black" stroke="black" points="1019.15,-134.3 1009.15,-137.8 1019.15,-141.3 1019.15,-134.3"/>
</g>
</g>
</svg>
