<?xml version="1.0" encoding="UTF-8" standalone="no"?>
<!DOCTYPE svg PUBLIC "-//W3C//DTD SVG 1.1//EN"
 "http://www.w3.org/Graphics/SVG/1.1/DTD/svg11.dtd">
<!-- Generated by graphviz version 5.0.0 (20220707.1540)
 -->
<!-- Title: dependencies Pages: 1 -->
<svg width="284pt" height="247pt"
 viewBox="0.00 0.00 284.00 246.80" xmlns="http://www.w3.org/2000/svg" xmlns:xlink="http://www.w3.org/1999/xlink">
<g id="graph0" class="graph" transform="scale(1 1) rotate(0) translate(4 242.8)">
<title>dependencies</title>
<polygon fill="white" stroke="transparent" points="-4,4 -4,-242.8 280,-242.8 280,4 -4,4"/>
<text text-anchor="middle" x="138" y="-8.2" font-family="sans-serif" font-size="14.00">dependencies</text>
<g id="clust1" class="cluster">
<title>cluster_MapModule</title>
<polygon fill="none" stroke="black" stroke-dasharray="1,5" points="8,-32.8 8,-230.8 268,-230.8 268,-32.8 8,-32.8"/>
</g>
<g id="clust5" class="cluster">
<title>cluster_MapModule_exports</title>
<polygon fill="none" stroke="black" points="75,-170.8 75,-222.8 201,-222.8 201,-170.8 75,-170.8"/>
</g>
<g id="clust2" class="cluster">
<title>cluster_MapModule_declarations</title>
<polygon fill="none" stroke="black" points="138,-40.8 138,-92.8 260,-92.8 260,-40.8 138,-40.8"/>
</g>
<g id="clust4" class="cluster">
<title>cluster_MapModule_imports</title>
<polygon fill="none" stroke="black" points="16,-40.8 16,-92.8 130,-92.8 130,-40.8 16,-40.8"/>
</g>
<!-- MapComponent -->
<g id="node1" class="node">
<title>MapComponent</title>
<polygon fill="#ffffb3" stroke="black" points="252.49,-84.8 145.51,-84.8 145.51,-48.8 252.49,-48.8 252.49,-84.8"/>
<text text-anchor="middle" x="199" y="-62.6" font-family="Times,serif" font-size="14.00">MapComponent</text>
</g>
<!-- MapModule -->
<g id="node2" class="node">
<title>MapModule</title>
<polygon fill="#8dd3c7" stroke="black" points="180.71,-149.8 177.71,-153.8 156.71,-153.8 153.71,-149.8 95.29,-149.8 95.29,-113.8 180.71,-113.8 180.71,-149.8"/>
<text text-anchor="middle" x="138" y="-127.6" font-family="Times,serif" font-size="14.00">MapModule</text>
</g>
<!-- MapComponent&#45;&gt;MapModule -->
<g id="edge1" class="edge">
<title>MapComponent&#45;&gt;MapModule</title>
<path fill="none" stroke="black" d="M163.06,-84.91C163.06,-84.91 163.06,-103.79 163.06,-103.79"/>
<polygon fill="black" stroke="black" points="159.56,-103.79 163.06,-113.79 166.56,-103.79 159.56,-103.79"/>
</g>
<!-- MapComponent  -->
<g id="node4" class="node">
<title>MapComponent </title>
<polygon fill="#fb8072" stroke="black" points="193.49,-214.8 82.51,-214.8 82.51,-178.8 193.49,-178.8 193.49,-214.8"/>
<text text-anchor="middle" x="138" y="-192.6" font-family="Times,serif" font-size="14.00">MapComponent </text>
</g>
<!-- MapModule&#45;&gt;MapComponent  -->
<g id="edge3" class="edge">
<title>MapModule&#45;&gt;MapComponent </title>
<path fill="none" stroke="black" stroke-dasharray="5,2" d="M138,-149.91C138,-149.91 138,-168.79 138,-168.79"/>
<polygon fill="black" stroke="black" points="134.5,-168.79 138,-178.79 141.5,-168.79 134.5,-168.79"/>
</g>
<!-- SharedModule -->
<g id="node3" class="node">
<title>SharedModule</title>
<polygon fill="#8dd3c7" stroke="black" points="122.43,-84.8 119.43,-88.8 98.43,-88.8 95.43,-84.8 23.57,-84.8 23.57,-48.8 122.43,-48.8 122.43,-84.8"/>
<text text-anchor="middle" x="73" y="-62.6" font-family="Times,serif" font-size="14.00">SharedModule</text>
</g>
<!-- SharedModule&#45;&gt;MapModule -->
<g id="edge2" class="edge">
<title>SharedModule&#45;&gt;MapModule</title>
<path fill="none" stroke="black" d="M108.8,-84.91C108.8,-84.91 108.8,-103.79 108.8,-103.79"/>
<polygon fill="black" stroke="black" points="105.3,-103.79 108.8,-113.79 112.3,-103.79 105.3,-103.79"/>
</g>
</g>
</svg>
