<?xml version="1.0" encoding="UTF-8" standalone="no"?>
<!DOCTYPE svg PUBLIC "-//W3C//DTD SVG 1.1//EN"
 "http://www.w3.org/Graphics/SVG/1.1/DTD/svg11.dtd">
<!-- Generated by graphviz version 5.0.0 (20220707.1540)
 -->
<!-- Title: dependencies Pages: 1 -->
<svg width="262pt" height="247pt"
 viewBox="0.00 0.00 262.00 246.80" xmlns="http://www.w3.org/2000/svg" xmlns:xlink="http://www.w3.org/1999/xlink">
<g id="graph0" class="graph" transform="scale(1 1) rotate(0) translate(4 242.8)">
<title>dependencies</title>
<polygon fill="white" stroke="transparent" points="-4,4 -4,-242.8 258,-242.8 258,4 -4,4"/>
<text text-anchor="middle" x="127" y="-8.2" font-family="sans-serif" font-size="14.00">dependencies</text>
<g id="clust1" class="cluster">
<title>cluster_SquacapiModule</title>
<polygon fill="none" stroke="black" stroke-dasharray="1,5" points="8,-32.8 8,-230.8 246,-230.8 246,-32.8 8,-32.8"/>
</g>
<g id="clust6" class="cluster">
<title>cluster_SquacapiModule_exports</title>
<polygon fill="none" stroke="black" points="16,-170.8 16,-222.8 238,-222.8 238,-170.8 16,-170.8"/>
</g>
<g id="clust2" class="cluster">
<title>cluster_SquacapiModule_declarations</title>
<polygon fill="none" stroke="black" points="19,-40.8 19,-92.8 235,-92.8 235,-40.8 19,-40.8"/>
</g>
<!-- OrganizationPipe -->
<g id="node1" class="node">
<title>OrganizationPipe</title>
<polygon fill="#ffffb3" stroke="black" points="226.97,-84.8 113.03,-84.8 113.03,-48.8 226.97,-48.8 226.97,-84.8"/>
<text text-anchor="middle" x="170" y="-62.6" font-family="Times,serif" font-size="14.00">OrganizationPipe</text>
</g>
<!-- SquacapiModule -->
<g id="node3" class="node">
<title>SquacapiModule</title>
<polygon fill="#8dd3c7" stroke="black" points="174.37,-149.8 171.37,-153.8 150.37,-153.8 147.37,-149.8 63.63,-149.8 63.63,-113.8 174.37,-113.8 174.37,-149.8"/>
<text text-anchor="middle" x="119" y="-127.6" font-family="Times,serif" font-size="14.00">SquacapiModule</text>
</g>
<!-- OrganizationPipe&#45;&gt;SquacapiModule -->
<g id="edge1" class="edge">
<title>OrganizationPipe&#45;&gt;SquacapiModule</title>
<path fill="none" stroke="black" d="M143.72,-84.91C143.72,-84.91 143.72,-103.79 143.72,-103.79"/>
<polygon fill="black" stroke="black" points="140.22,-103.79 143.72,-113.79 147.22,-103.79 140.22,-103.79"/>
</g>
<!-- UserPipe -->
<g id="node2" class="node">
<title>UserPipe</title>
<polygon fill="#ffffb3" stroke="black" points="94.83,-84.8 27.17,-84.8 27.17,-48.8 94.83,-48.8 94.83,-84.8"/>
<text text-anchor="middle" x="61" y="-62.6" font-family="Times,serif" font-size="14.00">UserPipe</text>
</g>
<!-- UserPipe&#45;&gt;SquacapiModule -->
<g id="edge2" class="edge">
<title>UserPipe&#45;&gt;SquacapiModule</title>
<path fill="none" stroke="black" d="M79.11,-84.91C79.11,-84.91 79.11,-103.79 79.11,-103.79"/>
<polygon fill="black" stroke="black" points="75.61,-103.79 79.11,-113.79 82.61,-103.79 75.61,-103.79"/>
</g>
<!-- OrganizationPipe  -->
<g id="node4" class="node">
<title>OrganizationPipe </title>
<polygon fill="#fb8072" stroke="black" points="229.97,-214.8 112.03,-214.8 112.03,-178.8 229.97,-178.8 229.97,-214.8"/>
<text text-anchor="middle" x="171" y="-192.6" font-family="Times,serif" font-size="14.00">OrganizationPipe </text>
</g>
<!-- SquacapiModule&#45;&gt;OrganizationPipe  -->
<g id="edge3" class="edge">
<title>SquacapiModule&#45;&gt;OrganizationPipe </title>
<path fill="none" stroke="black" stroke-dasharray="5,2" d="M143.35,-149.91C143.35,-149.91 143.35,-168.79 143.35,-168.79"/>
<polygon fill="black" stroke="black" points="139.85,-168.79 143.35,-178.79 146.85,-168.79 139.85,-168.79"/>
</g>
<!-- UserPipe  -->
<g id="node5" class="node">
<title>UserPipe </title>
<polygon fill="#fb8072" stroke="black" points="94.32,-214.8 23.68,-214.8 23.68,-178.8 94.32,-178.8 94.32,-214.8"/>
<text text-anchor="middle" x="59" y="-192.6" font-family="Times,serif" font-size="14.00">UserPipe </text>
</g>
<!-- SquacapiModule&#45;&gt;UserPipe  -->
<g id="edge4" class="edge">
<title>SquacapiModule&#45;&gt;UserPipe </title>
<path fill="none" stroke="black" stroke-dasharray="5,2" d="M78.99,-149.91C78.99,-149.91 78.99,-168.79 78.99,-168.79"/>
<polygon fill="black" stroke="black" points="75.49,-168.79 78.99,-178.79 82.49,-168.79 75.49,-168.79"/>
</g>
</g>
</svg>
