<?xml version="1.0" encoding="UTF-8" standalone="no"?>
<!DOCTYPE svg PUBLIC "-//W3C//DTD SVG 1.1//EN"
 "http://www.w3.org/Graphics/SVG/1.1/DTD/svg11.dtd">
<!-- Generated by graphviz version 5.0.0 (20220707.1540)
 -->
<!-- Title: dependencies Pages: 1 -->
<svg width="400pt" height="247pt"
 viewBox="0.00 0.00 400.00 246.80" xmlns="http://www.w3.org/2000/svg" xmlns:xlink="http://www.w3.org/1999/xlink">
<g id="graph0" class="graph" transform="scale(1 1) rotate(0) translate(4 242.8)">
<title>dependencies</title>
<polygon fill="white" stroke="transparent" points="-4,4 -4,-242.8 396,-242.8 396,4 -4,4"/>
<text text-anchor="middle" x="196" y="-8.2" font-family="sans-serif" font-size="14.00">dependencies</text>
<g id="clust1" class="cluster">
<title>cluster_SquacapiModule</title>
<polygon fill="none" stroke="black" stroke-dasharray="1,5" points="8,-32.8 8,-230.8 384,-230.8 384,-32.8 8,-32.8"/>
</g>
<g id="clust7" class="cluster">
<title>cluster_SquacapiModule_exports</title>
<polygon fill="none" stroke="black" points="16,-170.8 16,-222.8 376,-222.8 376,-170.8 16,-170.8"/>
</g>
<g id="clust2" class="cluster">
<title>cluster_SquacapiModule_declarations</title>
<polygon fill="none" stroke="black" points="20,-40.8 20,-92.8 372,-92.8 372,-40.8 20,-40.8"/>
</g>
<!-- MeasurementPipe -->
<g id="node1" class="node">
<title>MeasurementPipe</title>
<polygon fill="#ffffb3" stroke="black" points="363.58,-84.8 246.42,-84.8 246.42,-48.8 363.58,-48.8 363.58,-84.8"/>
<text text-anchor="middle" x="305" y="-62.6" font-family="Times,serif" font-size="14.00">MeasurementPipe</text>
</g>
<!-- SquacapiModule -->
<g id="node4" class="node">
<title>SquacapiModule</title>
<polygon fill="#8dd3c7" stroke="black" points="226.37,-149.8 223.37,-153.8 202.37,-153.8 199.37,-149.8 115.63,-149.8 115.63,-113.8 226.37,-113.8 226.37,-149.8"/>
<text text-anchor="middle" x="171" y="-127.6" font-family="Times,serif" font-size="14.00">SquacapiModule</text>
</g>
<!-- MeasurementPipe&#45;&gt;SquacapiModule -->
<g id="edge1" class="edge">
<title>MeasurementPipe&#45;&gt;SquacapiModule</title>
<path fill="none" stroke="black" d="M324.93,-84.82C324.93,-102.17 324.93,-125.8 324.93,-125.8 324.93,-125.8 236.57,-125.8 236.57,-125.8"/>
<polygon fill="black" stroke="black" points="236.57,-122.3 226.57,-125.8 236.57,-129.3 236.57,-122.3"/>
</g>
<!-- OrganizationPipe -->
<g id="node2" class="node">
<title>OrganizationPipe</title>
<polygon fill="#ffffb3" stroke="black" points="227.97,-84.8 114.03,-84.8 114.03,-48.8 227.97,-48.8 227.97,-84.8"/>
<text text-anchor="middle" x="171" y="-62.6" font-family="Times,serif" font-size="14.00">OrganizationPipe</text>
</g>
<!-- OrganizationPipe&#45;&gt;SquacapiModule -->
<g id="edge2" class="edge">
<title>OrganizationPipe&#45;&gt;SquacapiModule</title>
<path fill="none" stroke="black" d="M171,-84.91C171,-84.91 171,-103.79 171,-103.79"/>
<polygon fill="black" stroke="black" points="167.5,-103.79 171,-113.79 174.5,-103.79 167.5,-103.79"/>
</g>
<!-- UserPipe -->
<g id="node3" class="node">
<title>UserPipe</title>
<polygon fill="#ffffb3" stroke="black" points="95.83,-84.8 28.17,-84.8 28.17,-48.8 95.83,-48.8 95.83,-84.8"/>
<text text-anchor="middle" x="62" y="-62.6" font-family="Times,serif" font-size="14.00">UserPipe</text>
</g>
<!-- UserPipe&#45;&gt;SquacapiModule -->
<g id="edge3" class="edge">
<title>UserPipe&#45;&gt;SquacapiModule</title>
<path fill="none" stroke="black" d="M72.39,-84.82C72.39,-102.17 72.39,-125.8 72.39,-125.8 72.39,-125.8 105.35,-125.8 105.35,-125.8"/>
<polygon fill="black" stroke="black" points="105.35,-129.3 115.35,-125.8 105.35,-122.3 105.35,-129.3"/>
</g>
<!-- MeasurementPipe  -->
<g id="node5" class="node">
<title>MeasurementPipe </title>
<polygon fill="#fb8072" stroke="black" points="368.08,-214.8 247.92,-214.8 247.92,-178.8 368.08,-178.8 368.08,-214.8"/>
<text text-anchor="middle" x="308" y="-192.6" font-family="Times,serif" font-size="14.00">MeasurementPipe </text>
</g>
<!-- SquacapiModule&#45;&gt;MeasurementPipe  -->
<g id="edge4" class="edge">
<title>SquacapiModule&#45;&gt;MeasurementPipe </title>
<path fill="none" stroke="black" stroke-dasharray="5,2" d="M226.63,-137.8C256.12,-137.8 286.32,-137.8 286.32,-137.8 286.32,-137.8 286.32,-168.78 286.32,-168.78"/>
<polygon fill="black" stroke="black" points="282.82,-168.78 286.32,-178.78 289.82,-168.78 282.82,-168.78"/>
</g>
<!-- OrganizationPipe  -->
<g id="node6" class="node">
<title>OrganizationPipe </title>
<polygon fill="#fb8072" stroke="black" points="229.97,-214.8 112.03,-214.8 112.03,-178.8 229.97,-178.8 229.97,-214.8"/>
<text text-anchor="middle" x="171" y="-192.6" font-family="Times,serif" font-size="14.00">OrganizationPipe </text>
</g>
<!-- SquacapiModule&#45;&gt;OrganizationPipe  -->
<g id="edge5" class="edge">
<title>SquacapiModule&#45;&gt;OrganizationPipe </title>
<path fill="none" stroke="black" stroke-dasharray="5,2" d="M171,-149.91C171,-149.91 171,-168.79 171,-168.79"/>
<polygon fill="black" stroke="black" points="167.5,-168.79 171,-178.79 174.5,-168.79 167.5,-168.79"/>
</g>
<!-- UserPipe  -->
<g id="node7" class="node">
<title>UserPipe </title>
<polygon fill="#fb8072" stroke="black" points="94.32,-214.8 23.68,-214.8 23.68,-178.8 94.32,-178.8 94.32,-214.8"/>
<text text-anchor="middle" x="59" y="-192.6" font-family="Times,serif" font-size="14.00">UserPipe </text>
</g>
<!-- SquacapiModule&#45;&gt;UserPipe  -->
<g id="edge6" class="edge">
<title>SquacapiModule&#45;&gt;UserPipe </title>
<path fill="none" stroke="black" stroke-dasharray="5,2" d="M115.62,-137.8C83.91,-137.8 50.36,-137.8 50.36,-137.8 50.36,-137.8 50.36,-168.78 50.36,-168.78"/>
<polygon fill="black" stroke="black" points="46.86,-168.78 50.36,-178.78 53.86,-168.78 46.86,-168.78"/>
</g>
</g>
</svg>
