<?xml version="1.0" encoding="UTF-8" standalone="no"?>
<!DOCTYPE svg PUBLIC "-//W3C//DTD SVG 1.1//EN"
 "http://www.w3.org/Graphics/SVG/1.1/DTD/svg11.dtd">
<!-- Generated by graphviz version 2.47.0 (20210316.0004)
 -->
<!-- Title: dependencies Pages: 1 -->
<svg width="504pt" height="284pt"
 viewBox="0.00 0.00 504.00 284.00" xmlns="http://www.w3.org/2000/svg" xmlns:xlink="http://www.w3.org/1999/xlink">
<g id="graph0" class="graph" transform="scale(1 1) rotate(0) translate(4 280)">
<title>dependencies</title>
<polygon fill="white" stroke="transparent" points="-4,4 -4,-280 500,-280 500,4 -4,4"/>
<text text-anchor="start" x="227.01" y="-42.4" font-family="Times-12" font-weight="bold" font-size="14.00">Legend</text>
<polygon fill="#ffffb3" stroke="transparent" points="14,-10 14,-30 34,-30 34,-10 14,-10"/>
<text text-anchor="start" x="37.63" y="-15.4" font-family="Times-12" font-size="14.00"> &#160;Declarations</text>
<polygon fill="#8dd3c7" stroke="transparent" points="127,-10 127,-30 147,-30 147,-10 127,-10"/>
<text text-anchor="start" x="150.73" y="-15.4" font-family="Times-12" font-size="14.00"> &#160;Module</text>
<polygon fill="#80b1d3" stroke="transparent" points="213,-10 213,-30 233,-30 233,-10 213,-10"/>
<text text-anchor="start" x="236.78" y="-15.4" font-family="Times-12" font-size="14.00"> &#160;Bootstrap</text>
<polygon fill="#fdb462" stroke="transparent" points="310,-10 310,-30 330,-30 330,-10 310,-10"/>
<text text-anchor="start" x="333.67" y="-15.4" font-family="Times-12" font-size="14.00"> &#160;Providers</text>
<polygon fill="#fb8072" stroke="transparent" points="406,-10 406,-30 426,-30 426,-10 406,-10"/>
<text text-anchor="start" x="429.73" y="-15.4" font-family="Times-12" font-size="14.00"> &#160;Exports</text>
<g id="clust1" class="cluster">
<title>cluster_SquacapiModule</title>
<polygon fill="none" stroke="black" stroke-dasharray="1,5" points="60,-70 60,-268 436,-268 436,-70 60,-70"/>
</g>
<g id="clust4" class="cluster">
<title>cluster_SquacapiModule_exports</title>
<polygon fill="none" stroke="black" points="68,-208 68,-260 428,-260 428,-208 68,-208"/>
</g>
<g id="clust3" class="cluster">
<title>cluster_SquacapiModule_imports</title>
<polygon fill="none" stroke="black" points="72,-78 72,-130 424,-130 424,-78 72,-78"/>
</g>
<!-- MeasurementPipe -->
<g id="node1" class="node">
<title>MeasurementPipe</title>
<polygon fill="#8dd3c7" stroke="black" points="415.58,-122 412.58,-126 391.58,-126 388.58,-122 298.42,-122 298.42,-86 415.58,-86 415.58,-122"/>
<text text-anchor="middle" x="357" y="-99.8" font-family="Times,serif" font-size="14.00">MeasurementPipe</text>
</g>
<!-- SquacapiModule -->
<g id="node4" class="node">
<title>SquacapiModule</title>
<polygon fill="#8dd3c7" stroke="black" points="278.37,-187 275.37,-191 254.37,-191 251.37,-187 167.63,-187 167.63,-151 278.37,-151 278.37,-187"/>
<text text-anchor="middle" x="223" y="-164.8" font-family="Times,serif" font-size="14.00">SquacapiModule</text>
</g>
<!-- MeasurementPipe&#45;&gt;SquacapiModule -->
<g id="edge1" class="edge">
<title>MeasurementPipe&#45;&gt;SquacapiModule</title>
<path fill="none" stroke="black" d="M376.93,-122.02C376.93,-139.37 376.93,-163 376.93,-163 376.93,-163 288.57,-163 288.57,-163"/>
<polygon fill="black" stroke="black" points="288.57,-159.5 278.57,-163 288.57,-166.5 288.57,-159.5"/>
</g>
<!-- OrganizationPipe -->
<g id="node2" class="node">
<title>OrganizationPipe</title>
<polygon fill="#8dd3c7" stroke="black" points="279.97,-122 276.97,-126 255.97,-126 252.97,-122 166.03,-122 166.03,-86 279.97,-86 279.97,-122"/>
<text text-anchor="middle" x="223" y="-99.8" font-family="Times,serif" font-size="14.00">OrganizationPipe</text>
</g>
<!-- OrganizationPipe&#45;&gt;SquacapiModule -->
<g id="edge2" class="edge">
<title>OrganizationPipe&#45;&gt;SquacapiModule</title>
<path fill="none" stroke="black" d="M223,-122.11C223,-122.11 223,-140.99 223,-140.99"/>
<polygon fill="black" stroke="black" points="219.5,-140.99 223,-150.99 226.5,-140.99 219.5,-140.99"/>
</g>
<!-- UserPipe -->
<g id="node3" class="node">
<title>UserPipe</title>
<polygon fill="#8dd3c7" stroke="black" points="147.81,-122 144.81,-126 123.81,-126 120.81,-122 80.19,-122 80.19,-86 147.81,-86 147.81,-122"/>
<text text-anchor="middle" x="114" y="-99.8" font-family="Times,serif" font-size="14.00">UserPipe</text>
</g>
<!-- UserPipe&#45;&gt;SquacapiModule -->
<g id="edge3" class="edge">
<title>UserPipe&#45;&gt;SquacapiModule</title>
<path fill="none" stroke="black" d="M124.39,-122.02C124.39,-139.37 124.39,-163 124.39,-163 124.39,-163 157.35,-163 157.35,-163"/>
<polygon fill="black" stroke="black" points="157.35,-166.5 167.35,-163 157.35,-159.5 157.35,-166.5"/>
</g>
<!-- MeasurementPipe  -->
<g id="node5" class="node">
<title>MeasurementPipe </title>
<polygon fill="#fb8072" stroke="black" points="420.08,-252 299.92,-252 299.92,-216 420.08,-216 420.08,-252"/>
<text text-anchor="middle" x="360" y="-229.8" font-family="Times,serif" font-size="14.00">MeasurementPipe </text>
</g>
<!-- SquacapiModule&#45;&gt;MeasurementPipe  -->
<g id="edge4" class="edge">
<title>SquacapiModule&#45;&gt;MeasurementPipe </title>
<path fill="none" stroke="black" stroke-dasharray="5,2" d="M278.63,-175C308.12,-175 338.32,-175 338.32,-175 338.32,-175 338.32,-205.98 338.32,-205.98"/>
<polygon fill="black" stroke="black" points="334.82,-205.98 338.32,-215.98 341.82,-205.98 334.82,-205.98"/>
</g>
<!-- OrganizationPipe  -->
<g id="node6" class="node">
<title>OrganizationPipe </title>
<polygon fill="#fb8072" stroke="black" points="281.97,-252 164.03,-252 164.03,-216 281.97,-216 281.97,-252"/>
<text text-anchor="middle" x="223" y="-229.8" font-family="Times,serif" font-size="14.00">OrganizationPipe </text>
</g>
<!-- SquacapiModule&#45;&gt;OrganizationPipe  -->
<g id="edge5" class="edge">
<title>SquacapiModule&#45;&gt;OrganizationPipe </title>
<path fill="none" stroke="black" stroke-dasharray="5,2" d="M223,-187.11C223,-187.11 223,-205.99 223,-205.99"/>
<polygon fill="black" stroke="black" points="219.5,-205.99 223,-215.99 226.5,-205.99 219.5,-205.99"/>
</g>
<!-- UserPipe  -->
<g id="node7" class="node">
<title>UserPipe </title>
<polygon fill="#fb8072" stroke="black" points="146.31,-252 75.69,-252 75.69,-216 146.31,-216 146.31,-252"/>
<text text-anchor="middle" x="111" y="-229.8" font-family="Times,serif" font-size="14.00">UserPipe </text>
</g>
<!-- SquacapiModule&#45;&gt;UserPipe  -->
<g id="edge6" class="edge">
<title>SquacapiModule&#45;&gt;UserPipe </title>
<path fill="none" stroke="black" stroke-dasharray="5,2" d="M167.63,-175C135.91,-175 102.36,-175 102.36,-175 102.36,-175 102.36,-205.98 102.36,-205.98"/>
<polygon fill="black" stroke="black" points="98.86,-205.98 102.36,-215.98 105.86,-205.98 98.86,-205.98"/>
</g>
</g>
</svg>
