<?xml version="1.0" encoding="UTF-8" standalone="no"?>
<!DOCTYPE svg PUBLIC "-//W3C//DTD SVG 1.1//EN"
 "http://www.w3.org/Graphics/SVG/1.1/DTD/svg11.dtd">
<!-- Generated by graphviz version 5.0.0 (20220707.1540)
 -->
<!-- Title: dependencies Pages: 1 -->
<svg width="2181pt" height="174pt"
 viewBox="0.00 0.00 2181.00 173.80" xmlns="http://www.w3.org/2000/svg" xmlns:xlink="http://www.w3.org/1999/xlink">
<g id="graph0" class="graph" transform="scale(1 1) rotate(0) translate(4 169.8)">
<title>dependencies</title>
<polygon fill="white" stroke="transparent" points="-4,4 -4,-169.8 2177,-169.8 2177,4 -4,4"/>
<text text-anchor="middle" x="1086.5" y="-8.2" font-family="sans-serif" font-size="14.00">dependencies</text>
<g id="clust1" class="cluster">
<title>cluster_ChannelGroupModule</title>
<polygon fill="none" stroke="black" stroke-dasharray="1,5" points="8,-32.8 8,-157.8 2165,-157.8 2165,-32.8 8,-32.8"/>
</g>
<g id="clust2" class="cluster">
<title>cluster_ChannelGroupModule_declarations</title>
<polygon fill="none" stroke="black" points="344,-40.8 344,-92.8 2157,-92.8 2157,-40.8 344,-40.8"/>
</g>
<g id="clust12" class="cluster">
<title>cluster_ChannelGroupModule_imports</title>
<polygon fill="none" stroke="black" points="16,-40.8 16,-92.8 336,-92.8 336,-40.8 16,-40.8"/>
</g>
<!-- ChannelGroupComponent -->
<g id="node1" class="node">
<title>ChannelGroupComponent</title>
<polygon fill="#ffffb3" stroke="black" points="2148.76,-84.8 1985.24,-84.8 1985.24,-48.8 2148.76,-48.8 2148.76,-84.8"/>
<text text-anchor="middle" x="2067" y="-62.6" font-family="Times,serif" font-size="14.00">ChannelGroupComponent</text>
</g>
<!-- ChannelGroupModule -->
<g id="node10" class="node">
<title>ChannelGroupModule</title>
<polygon fill="#8dd3c7" stroke="black" points="1097.98,-149.8 1094.98,-153.8 1073.98,-153.8 1070.98,-149.8 956.02,-149.8 956.02,-113.8 1097.98,-113.8 1097.98,-149.8"/>
<text text-anchor="middle" x="1027" y="-127.6" font-family="Times,serif" font-size="14.00">ChannelGroupModule</text>
</g>
<!-- ChannelGroupComponent&#45;&gt;ChannelGroupModule -->
<g id="edge1" class="edge">
<title>ChannelGroupComponent&#45;&gt;ChannelGroupModule</title>
<path fill="none" stroke="black" d="M2067,-84.89C2067,-107.93 2067,-144.8 2067,-144.8 2067,-144.8 1108.07,-144.8 1108.07,-144.8"/>
<polygon fill="black" stroke="black" points="1108.07,-141.3 1098.07,-144.8 1108.07,-148.3 1108.07,-141.3"/>
</g>
<!-- ChannelGroupDetailComponent -->
<g id="node2" class="node">
<title>ChannelGroupDetailComponent</title>
<polygon fill="#ffffb3" stroke="black" points="1966.97,-84.8 1769.03,-84.8 1769.03,-48.8 1966.97,-48.8 1966.97,-84.8"/>
<text text-anchor="middle" x="1868" y="-62.6" font-family="Times,serif" font-size="14.00">ChannelGroupDetailComponent</text>
</g>
<!-- ChannelGroupDetailComponent&#45;&gt;ChannelGroupModule -->
<g id="edge2" class="edge">
<title>ChannelGroupDetailComponent&#45;&gt;ChannelGroupModule</title>
<path fill="none" stroke="black" d="M1868,-85.08C1868,-106.12 1868,-137.8 1868,-137.8 1868,-137.8 1108.34,-137.8 1108.34,-137.8"/>
<polygon fill="black" stroke="black" points="1108.34,-134.3 1098.34,-137.8 1108.34,-141.3 1108.34,-134.3"/>
</g>
<!-- ChannelGroupEditComponent -->
<g id="node3" class="node">
<title>ChannelGroupEditComponent</title>
<polygon fill="#ffffb3" stroke="black" points="1750.59,-84.8 1563.41,-84.8 1563.41,-48.8 1750.59,-48.8 1750.59,-84.8"/>
<text text-anchor="middle" x="1657" y="-62.6" font-family="Times,serif" font-size="14.00">ChannelGroupEditComponent</text>
</g>
<!-- ChannelGroupEditComponent&#45;&gt;ChannelGroupModule -->
<g id="edge3" class="edge">
<title>ChannelGroupEditComponent&#45;&gt;ChannelGroupModule</title>
<path fill="none" stroke="black" d="M1657,-84.91C1657,-104.14 1657,-131.8 1657,-131.8 1657,-131.8 1108.04,-131.8 1108.04,-131.8"/>
<polygon fill="black" stroke="black" points="1108.04,-128.3 1098.04,-131.8 1108.04,-135.3 1108.04,-128.3"/>
</g>
<!-- ChannelGroupFilterComponent -->
<g id="node4" class="node">
<title>ChannelGroupFilterComponent</title>
<polygon fill="#ffffb3" stroke="black" points="1545.09,-84.8 1350.91,-84.8 1350.91,-48.8 1545.09,-48.8 1545.09,-84.8"/>
<text text-anchor="middle" x="1448" y="-62.6" font-family="Times,serif" font-size="14.00">ChannelGroupFilterComponent</text>
</g>
<!-- ChannelGroupFilterComponent&#45;&gt;ChannelGroupModule -->
<g id="edge4" class="edge">
<title>ChannelGroupFilterComponent&#45;&gt;ChannelGroupModule</title>
<path fill="none" stroke="black" d="M1448,-84.82C1448,-102.17 1448,-125.8 1448,-125.8 1448,-125.8 1108.42,-125.8 1108.42,-125.8"/>
<polygon fill="black" stroke="black" points="1108.42,-122.3 1098.42,-125.8 1108.42,-129.3 1108.42,-122.3"/>
</g>
<!-- ChannelGroupMapComponent -->
<g id="node5" class="node">
<title>ChannelGroupMapComponent</title>
<polygon fill="#ffffb3" stroke="black" points="1332.92,-84.8 1143.08,-84.8 1143.08,-48.8 1332.92,-48.8 1332.92,-84.8"/>
<text text-anchor="middle" x="1238" y="-62.6" font-family="Times,serif" font-size="14.00">ChannelGroupMapComponent</text>
</g>
<!-- ChannelGroupMapComponent&#45;&gt;ChannelGroupModule -->
<g id="edge5" class="edge">
<title>ChannelGroupMapComponent&#45;&gt;ChannelGroupModule</title>
<path fill="none" stroke="black" d="M1238,-85.04C1238,-100.37 1238,-119.8 1238,-119.8 1238,-119.8 1108.14,-119.8 1108.14,-119.8"/>
<polygon fill="black" stroke="black" points="1108.14,-116.3 1098.14,-119.8 1108.14,-123.3 1108.14,-116.3"/>
</g>
<!-- ChannelGroupTableComponent -->
<g id="node6" class="node">
<title>ChannelGroupTableComponent</title>
<polygon fill="#ffffb3" stroke="black" points="1124.63,-84.8 929.37,-84.8 929.37,-48.8 1124.63,-48.8 1124.63,-84.8"/>
<text text-anchor="middle" x="1027" y="-62.6" font-family="Times,serif" font-size="14.00">ChannelGroupTableComponent</text>
</g>
<!-- ChannelGroupTableComponent&#45;&gt;ChannelGroupModule -->
<g id="edge6" class="edge">
<title>ChannelGroupTableComponent&#45;&gt;ChannelGroupModule</title>
<path fill="none" stroke="black" d="M1027,-84.91C1027,-84.91 1027,-103.79 1027,-103.79"/>
<polygon fill="black" stroke="black" points="1023.5,-103.79 1027,-113.79 1030.5,-103.79 1023.5,-103.79"/>
</g>
<!-- ChannelGroupViewComponent -->
<g id="node7" class="node">
<title>ChannelGroupViewComponent</title>
<polygon fill="#ffffb3" stroke="black" points="911.08,-84.8 716.92,-84.8 716.92,-48.8 911.08,-48.8 911.08,-84.8"/>
<text text-anchor="middle" x="814" y="-62.6" font-family="Times,serif" font-size="14.00">ChannelGroupViewComponent</text>
</g>
<!-- ChannelGroupViewComponent&#45;&gt;ChannelGroupModule -->
<g id="edge7" class="edge">
<title>ChannelGroupViewComponent&#45;&gt;ChannelGroupModule</title>
<path fill="none" stroke="black" d="M814,-85.04C814,-100.37 814,-119.8 814,-119.8 814,-119.8 945.78,-119.8 945.78,-119.8"/>
<polygon fill="black" stroke="black" points="945.78,-123.3 955.78,-119.8 945.78,-116.3 945.78,-123.3"/>
</g>
<!-- CsvUploadComponent -->
<g id="node8" class="node">
<title>CsvUploadComponent</title>
<polygon fill="#ffffb3" stroke="black" points="699.33,-84.8 554.67,-84.8 554.67,-48.8 699.33,-48.8 699.33,-84.8"/>
<text text-anchor="middle" x="627" y="-62.6" font-family="Times,serif" font-size="14.00">CsvUploadComponent</text>
</g>
<!-- CsvUploadComponent&#45;&gt;ChannelGroupModule -->
<g id="edge8" class="edge">
<title>CsvUploadComponent&#45;&gt;ChannelGroupModule</title>
<path fill="none" stroke="black" d="M627,-84.82C627,-102.17 627,-125.8 627,-125.8 627,-125.8 945.95,-125.8 945.95,-125.8"/>
<polygon fill="black" stroke="black" points="945.95,-129.3 955.95,-125.8 945.95,-122.3 945.95,-129.3"/>
</g>
<!-- MatchingRuleEditComponent -->
<g id="node9" class="node">
<title>MatchingRuleEditComponent</title>
<polygon fill="#ffffb3" stroke="black" points="536.26,-84.8 351.74,-84.8 351.74,-48.8 536.26,-48.8 536.26,-84.8"/>
<text text-anchor="middle" x="444" y="-62.6" font-family="Times,serif" font-size="14.00">MatchingRuleEditComponent</text>
</g>
<!-- MatchingRuleEditComponent&#45;&gt;ChannelGroupModule -->
<g id="edge9" class="edge">
<title>MatchingRuleEditComponent&#45;&gt;ChannelGroupModule</title>
<path fill="none" stroke="black" d="M444,-84.91C444,-104.14 444,-131.8 444,-131.8 444,-131.8 945.8,-131.8 945.8,-131.8"/>
<polygon fill="black" stroke="black" points="945.8,-135.3 955.8,-131.8 945.8,-128.3 945.8,-135.3"/>
</g>
<!-- ChannelGroupRoutingModule -->
<g id="node11" class="node">
<title>ChannelGroupRoutingModule</title>
<polygon fill="#8dd3c7" stroke="black" points="327.6,-84.8 324.6,-88.8 303.6,-88.8 300.6,-84.8 140.4,-84.8 140.4,-48.8 327.6,-48.8 327.6,-84.8"/>
<text text-anchor="middle" x="234" y="-62.6" font-family="Times,serif" font-size="14.00">ChannelGroupRoutingModule</text>
</g>
<!-- ChannelGroupRoutingModule&#45;&gt;ChannelGroupModule -->
<g id="edge10" class="edge">
<title>ChannelGroupRoutingModule&#45;&gt;ChannelGroupModule</title>
<path fill="none" stroke="black" d="M234,-85.08C234,-106.12 234,-137.8 234,-137.8 234,-137.8 945.93,-137.8 945.93,-137.8"/>
<polygon fill="black" stroke="black" points="945.93,-141.3 955.93,-137.8 945.93,-134.3 945.93,-141.3"/>
</g>
<!-- SharedModule -->
<g id="node12" class="node">
<title>SharedModule</title>
<polygon fill="#8dd3c7" stroke="black" points="122.43,-84.8 119.43,-88.8 98.43,-88.8 95.43,-84.8 23.57,-84.8 23.57,-48.8 122.43,-48.8 122.43,-84.8"/>
<text text-anchor="middle" x="73" y="-62.6" font-family="Times,serif" font-size="14.00">SharedModule</text>
</g>
<!-- SharedModule&#45;&gt;ChannelGroupModule -->
<g id="edge11" class="edge">
<title>SharedModule&#45;&gt;ChannelGroupModule</title>
<path fill="none" stroke="black" d="M73,-84.89C73,-107.93 73,-144.8 73,-144.8 73,-144.8 945.69,-144.8 945.69,-144.8"/>
<polygon fill="black" stroke="black" points="945.69,-148.3 955.69,-144.8 945.69,-141.3 945.69,-148.3"/>
</g>
</g>
</svg>
