<?xml version="1.0" encoding="UTF-8" standalone="no"?>
<!DOCTYPE svg PUBLIC "-//W3C//DTD SVG 1.1//EN"
 "http://www.w3.org/Graphics/SVG/1.1/DTD/svg11.dtd">
<!-- Generated by graphviz version 5.0.0 (20220707.1540)
 -->
<!-- Title: dependencies Pages: 1 -->
<svg width="2300pt" height="174pt"
 viewBox="0.00 0.00 2300.00 173.80" xmlns="http://www.w3.org/2000/svg" xmlns:xlink="http://www.w3.org/1999/xlink">
<g id="graph0" class="graph" transform="scale(1 1) rotate(0) translate(4 169.8)">
<title>dependencies</title>
<polygon fill="white" stroke="transparent" points="-4,4 -4,-169.8 2296,-169.8 2296,4 -4,4"/>
<text text-anchor="middle" x="1146" y="-8.2" font-family="sans-serif" font-size="14.00">dependencies</text>
<g id="clust1" class="cluster">
<title>cluster_ChannelGroupModule</title>
<polygon fill="none" stroke="black" stroke-dasharray="1,5" points="8,-32.8 8,-157.8 2284,-157.8 2284,-32.8 8,-32.8"/>
</g>
<g id="clust2" class="cluster">
<title>cluster_ChannelGroupModule_declarations</title>
<polygon fill="none" stroke="black" points="463,-40.8 463,-92.8 2276,-92.8 2276,-40.8 463,-40.8"/>
</g>
<g id="clust12" class="cluster">
<title>cluster_ChannelGroupModule_imports</title>
<polygon fill="none" stroke="black" points="16,-40.8 16,-92.8 455,-92.8 455,-40.8 16,-40.8"/>
</g>
<!-- ChannelGroupComponent -->
<g id="node1" class="node">
<title>ChannelGroupComponent</title>
<polygon fill="#ffffb3" stroke="black" points="2267.76,-84.8 2104.24,-84.8 2104.24,-48.8 2267.76,-48.8 2267.76,-84.8"/>
<text text-anchor="middle" x="2186" y="-62.6" font-family="Times,serif" font-size="14.00">ChannelGroupComponent</text>
</g>
<!-- ChannelGroupModule -->
<g id="node10" class="node">
<title>ChannelGroupModule</title>
<polygon fill="#8dd3c7" stroke="black" points="1109.98,-149.8 1106.98,-153.8 1085.98,-153.8 1082.98,-149.8 968.02,-149.8 968.02,-113.8 1109.98,-113.8 1109.98,-149.8"/>
<text text-anchor="middle" x="1039" y="-127.6" font-family="Times,serif" font-size="14.00">ChannelGroupModule</text>
</g>
<!-- ChannelGroupComponent&#45;&gt;ChannelGroupModule -->
<g id="edge1" class="edge">
<title>ChannelGroupComponent&#45;&gt;ChannelGroupModule</title>
<path fill="none" stroke="black" d="M2186,-84.89C2186,-107.93 2186,-144.8 2186,-144.8 2186,-144.8 1120.32,-144.8 1120.32,-144.8"/>
<polygon fill="black" stroke="black" points="1120.32,-141.3 1110.32,-144.8 1120.32,-148.3 1120.32,-141.3"/>
</g>
<!-- ChannelGroupDetailComponent -->
<g id="node2" class="node">
<title>ChannelGroupDetailComponent</title>
<polygon fill="#ffffb3" stroke="black" points="2085.97,-84.8 1888.03,-84.8 1888.03,-48.8 2085.97,-48.8 2085.97,-84.8"/>
<text text-anchor="middle" x="1987" y="-62.6" font-family="Times,serif" font-size="14.00">ChannelGroupDetailComponent</text>
</g>
<!-- ChannelGroupDetailComponent&#45;&gt;ChannelGroupModule -->
<g id="edge2" class="edge">
<title>ChannelGroupDetailComponent&#45;&gt;ChannelGroupModule</title>
<path fill="none" stroke="black" d="M1987,-85.08C1987,-106.12 1987,-137.8 1987,-137.8 1987,-137.8 1120.25,-137.8 1120.25,-137.8"/>
<polygon fill="black" stroke="black" points="1120.25,-134.3 1110.25,-137.8 1120.25,-141.3 1120.25,-134.3"/>
</g>
<!-- ChannelGroupEditComponent -->
<g id="node3" class="node">
<title>ChannelGroupEditComponent</title>
<polygon fill="#ffffb3" stroke="black" points="1869.59,-84.8 1682.41,-84.8 1682.41,-48.8 1869.59,-48.8 1869.59,-84.8"/>
<text text-anchor="middle" x="1776" y="-62.6" font-family="Times,serif" font-size="14.00">ChannelGroupEditComponent</text>
</g>
<!-- ChannelGroupEditComponent&#45;&gt;ChannelGroupModule -->
<g id="edge3" class="edge">
<title>ChannelGroupEditComponent&#45;&gt;ChannelGroupModule</title>
<path fill="none" stroke="black" d="M1776,-84.91C1776,-104.14 1776,-131.8 1776,-131.8 1776,-131.8 1120,-131.8 1120,-131.8"/>
<polygon fill="black" stroke="black" points="1120,-128.3 1110,-131.8 1120,-135.3 1120,-128.3"/>
</g>
<!-- ChannelGroupFilterComponent -->
<g id="node4" class="node">
<title>ChannelGroupFilterComponent</title>
<polygon fill="#ffffb3" stroke="black" points="1664.09,-84.8 1469.91,-84.8 1469.91,-48.8 1664.09,-48.8 1664.09,-84.8"/>
<text text-anchor="middle" x="1567" y="-62.6" font-family="Times,serif" font-size="14.00">ChannelGroupFilterComponent</text>
</g>
<!-- ChannelGroupFilterComponent&#45;&gt;ChannelGroupModule -->
<g id="edge4" class="edge">
<title>ChannelGroupFilterComponent&#45;&gt;ChannelGroupModule</title>
<path fill="none" stroke="black" d="M1567,-84.82C1567,-102.17 1567,-125.8 1567,-125.8 1567,-125.8 1120.21,-125.8 1120.21,-125.8"/>
<polygon fill="black" stroke="black" points="1120.21,-122.3 1110.21,-125.8 1120.21,-129.3 1120.21,-122.3"/>
</g>
<!-- ChannelGroupMapComponent -->
<g id="node5" class="node">
<title>ChannelGroupMapComponent</title>
<polygon fill="#ffffb3" stroke="black" points="1451.92,-84.8 1262.08,-84.8 1262.08,-48.8 1451.92,-48.8 1451.92,-84.8"/>
<text text-anchor="middle" x="1357" y="-62.6" font-family="Times,serif" font-size="14.00">ChannelGroupMapComponent</text>
</g>
<!-- ChannelGroupMapComponent&#45;&gt;ChannelGroupModule -->
<g id="edge5" class="edge">
<title>ChannelGroupMapComponent&#45;&gt;ChannelGroupModule</title>
<path fill="none" stroke="black" d="M1357,-85.04C1357,-100.37 1357,-119.8 1357,-119.8 1357,-119.8 1120.37,-119.8 1120.37,-119.8"/>
<polygon fill="black" stroke="black" points="1120.37,-116.3 1110.37,-119.8 1120.37,-123.3 1120.37,-116.3"/>
</g>
<!-- ChannelGroupTableComponent -->
<g id="node6" class="node">
<title>ChannelGroupTableComponent</title>
<polygon fill="#ffffb3" stroke="black" points="1243.63,-84.8 1048.37,-84.8 1048.37,-48.8 1243.63,-48.8 1243.63,-84.8"/>
<text text-anchor="middle" x="1146" y="-62.6" font-family="Times,serif" font-size="14.00">ChannelGroupTableComponent</text>
</g>
<!-- ChannelGroupTableComponent&#45;&gt;ChannelGroupModule -->
<g id="edge6" class="edge">
<title>ChannelGroupTableComponent&#45;&gt;ChannelGroupModule</title>
<path fill="none" stroke="black" d="M1079.09,-84.91C1079.09,-84.91 1079.09,-103.79 1079.09,-103.79"/>
<polygon fill="black" stroke="black" points="1075.59,-103.79 1079.09,-113.79 1082.59,-103.79 1075.59,-103.79"/>
</g>
<!-- ChannelGroupViewComponent -->
<g id="node7" class="node">
<title>ChannelGroupViewComponent</title>
<polygon fill="#ffffb3" stroke="black" points="1030.08,-84.8 835.92,-84.8 835.92,-48.8 1030.08,-48.8 1030.08,-84.8"/>
<text text-anchor="middle" x="933" y="-62.6" font-family="Times,serif" font-size="14.00">ChannelGroupViewComponent</text>
</g>
<!-- ChannelGroupViewComponent&#45;&gt;ChannelGroupModule -->
<g id="edge7" class="edge">
<title>ChannelGroupViewComponent&#45;&gt;ChannelGroupModule</title>
<path fill="none" stroke="black" d="M999.03,-84.91C999.03,-84.91 999.03,-103.79 999.03,-103.79"/>
<polygon fill="black" stroke="black" points="995.53,-103.79 999.03,-113.79 1002.53,-103.79 995.53,-103.79"/>
</g>
<!-- CsvUploadComponent -->
<g id="node8" class="node">
<title>CsvUploadComponent</title>
<polygon fill="#ffffb3" stroke="black" points="818.33,-84.8 673.67,-84.8 673.67,-48.8 818.33,-48.8 818.33,-84.8"/>
<text text-anchor="middle" x="746" y="-62.6" font-family="Times,serif" font-size="14.00">CsvUploadComponent</text>
</g>
<!-- CsvUploadComponent&#45;&gt;ChannelGroupModule -->
<g id="edge8" class="edge">
<title>CsvUploadComponent&#45;&gt;ChannelGroupModule</title>
<path fill="none" stroke="black" d="M746,-85.04C746,-100.37 746,-119.8 746,-119.8 746,-119.8 957.7,-119.8 957.7,-119.8"/>
<polygon fill="black" stroke="black" points="957.7,-123.3 967.7,-119.8 957.7,-116.3 957.7,-123.3"/>
</g>
<!-- MatchingRuleEditComponent -->
<g id="node9" class="node">
<title>MatchingRuleEditComponent</title>
<polygon fill="#ffffb3" stroke="black" points="655.26,-84.8 470.74,-84.8 470.74,-48.8 655.26,-48.8 655.26,-84.8"/>
<text text-anchor="middle" x="563" y="-62.6" font-family="Times,serif" font-size="14.00">MatchingRuleEditComponent</text>
</g>
<!-- MatchingRuleEditComponent&#45;&gt;ChannelGroupModule -->
<g id="edge9" class="edge">
<title>MatchingRuleEditComponent&#45;&gt;ChannelGroupModule</title>
<path fill="none" stroke="black" d="M563,-84.82C563,-102.17 563,-125.8 563,-125.8 563,-125.8 958,-125.8 958,-125.8"/>
<polygon fill="black" stroke="black" points="958,-129.3 968,-125.8 958,-122.3 958,-129.3"/>
</g>
<!-- ChannelGroupRoutingModule -->
<g id="node11" class="node">
<title>ChannelGroupRoutingModule</title>
<polygon fill="#8dd3c7" stroke="black" points="446.6,-84.8 443.6,-88.8 422.6,-88.8 419.6,-84.8 259.4,-84.8 259.4,-48.8 446.6,-48.8 446.6,-84.8"/>
<text text-anchor="middle" x="353" y="-62.6" font-family="Times,serif" font-size="14.00">ChannelGroupRoutingModule</text>
</g>
<!-- ChannelGroupRoutingModule&#45;&gt;ChannelGroupModule -->
<g id="edge10" class="edge">
<title>ChannelGroupRoutingModule&#45;&gt;ChannelGroupModule</title>
<path fill="none" stroke="black" d="M353,-84.91C353,-104.14 353,-131.8 353,-131.8 353,-131.8 957.85,-131.8 957.85,-131.8"/>
<polygon fill="black" stroke="black" points="957.85,-135.3 967.85,-131.8 957.85,-128.3 957.85,-135.3"/>
</g>
<!-- SharedModule -->
<g id="node12" class="node">
<title>SharedModule</title>
<polygon fill="#8dd3c7" stroke="black" points="241.43,-84.8 238.43,-88.8 217.43,-88.8 214.43,-84.8 142.57,-84.8 142.57,-48.8 241.43,-48.8 241.43,-84.8"/>
<text text-anchor="middle" x="192" y="-62.6" font-family="Times,serif" font-size="14.00">SharedModule</text>
</g>
<!-- SharedModule&#45;&gt;ChannelGroupModule -->
<g id="edge11" class="edge">
<title>SharedModule&#45;&gt;ChannelGroupModule</title>
<path fill="none" stroke="black" d="M192,-85.08C192,-106.12 192,-137.8 192,-137.8 192,-137.8 957.88,-137.8 957.88,-137.8"/>
<polygon fill="black" stroke="black" points="957.88,-141.3 967.88,-137.8 957.88,-134.3 957.88,-141.3"/>
</g>
<!-- TooltipModule -->
<g id="node13" class="node">
<title>TooltipModule</title>
<polygon fill="#8dd3c7" stroke="black" points="124.27,-84.8 121.27,-88.8 100.27,-88.8 97.27,-84.8 23.73,-84.8 23.73,-48.8 124.27,-48.8 124.27,-84.8"/>
<text text-anchor="middle" x="74" y="-62.6" font-family="Times,serif" font-size="14.00">TooltipModule</text>
</g>
<!-- TooltipModule&#45;&gt;ChannelGroupModule -->
<g id="edge12" class="edge">
<title>TooltipModule&#45;&gt;ChannelGroupModule</title>
<path fill="none" stroke="black" d="M74,-84.89C74,-107.93 74,-144.8 74,-144.8 74,-144.8 957.65,-144.8 957.65,-144.8"/>
<polygon fill="black" stroke="black" points="957.65,-148.3 967.65,-144.8 957.65,-141.3 957.65,-148.3"/>
</g>
</g>
</svg>
