<?xml version="1.0" encoding="UTF-8" standalone="no"?>
<!DOCTYPE svg PUBLIC "-//W3C//DTD SVG 1.1//EN"
 "http://www.w3.org/Graphics/SVG/1.1/DTD/svg11.dtd">
<!-- Generated by graphviz version 5.0.0 (20220707.1540)
 -->
<!-- Title: dependencies Pages: 1 -->
<svg width="2181pt" height="174pt"
 viewBox="0.00 0.00 2181.00 173.80" xmlns="http://www.w3.org/2000/svg" xmlns:xlink="http://www.w3.org/1999/xlink">
<g id="graph0" class="graph" transform="scale(1 1) rotate(0) translate(4 169.8)">
<title>dependencies</title>
<polygon fill="white" stroke="transparent" points="-4,4 -4,-169.8 2177,-169.8 2177,4 -4,4"/>
<text text-anchor="middle" x="1086.5" y="-8.2" font-family="sans-serif" font-size="14.00">dependencies</text>
<g id="clust1" class="cluster">
<title>cluster_ChannelGroupModule</title>
<polygon fill="none" stroke="black" stroke-dasharray="1,5" points="8,-32.8 8,-157.8 2165,-157.8 2165,-32.8 8,-32.8"/>
</g>
<g id="clust12" class="cluster">
<title>cluster_ChannelGroupModule_imports</title>
<polygon fill="none" stroke="black" points="1837,-40.8 1837,-92.8 2157,-92.8 2157,-40.8 1837,-40.8"/>
</g>
<g id="clust2" class="cluster">
<title>cluster_ChannelGroupModule_declarations</title>
<polygon fill="none" stroke="black" points="16,-40.8 16,-92.8 1829,-92.8 1829,-40.8 16,-40.8"/>
</g>
<!-- ChannelGroupComponent -->
<g id="node1" class="node">
<title>ChannelGroupComponent</title>
<polygon fill="#ffffb3" stroke="black" points="1820.76,-84.8 1657.24,-84.8 1657.24,-48.8 1820.76,-48.8 1820.76,-84.8"/>
<text text-anchor="middle" x="1739" y="-62.6" font-family="Times,serif" font-size="14.00">ChannelGroupComponent</text>
</g>
<!-- ChannelGroupModule -->
<g id="node10" class="node">
<title>ChannelGroupModule</title>
<polygon fill="#8dd3c7" stroke="black" points="1190.98,-149.8 1187.98,-153.8 1166.98,-153.8 1163.98,-149.8 1049.02,-149.8 1049.02,-113.8 1190.98,-113.8 1190.98,-149.8"/>
<text text-anchor="middle" x="1120" y="-127.6" font-family="Times,serif" font-size="14.00">ChannelGroupModule</text>
</g>
<!-- ChannelGroupComponent&#45;&gt;ChannelGroupModule -->
<g id="edge1" class="edge">
<title>ChannelGroupComponent&#45;&gt;ChannelGroupModule</title>
<path fill="none" stroke="black" d="M1739,-84.91C1739,-104.14 1739,-131.8 1739,-131.8 1739,-131.8 1201.01,-131.8 1201.01,-131.8"/>
<polygon fill="black" stroke="black" points="1201.01,-128.3 1191.01,-131.8 1201.01,-135.3 1201.01,-128.3"/>
</g>
<!-- ChannelGroupDetailComponent -->
<g id="node2" class="node">
<title>ChannelGroupDetailComponent</title>
<polygon fill="#ffffb3" stroke="black" points="1638.97,-84.8 1441.03,-84.8 1441.03,-48.8 1638.97,-48.8 1638.97,-84.8"/>
<text text-anchor="middle" x="1540" y="-62.6" font-family="Times,serif" font-size="14.00">ChannelGroupDetailComponent</text>
</g>
<!-- ChannelGroupDetailComponent&#45;&gt;ChannelGroupModule -->
<g id="edge2" class="edge">
<title>ChannelGroupDetailComponent&#45;&gt;ChannelGroupModule</title>
<path fill="none" stroke="black" d="M1540,-84.82C1540,-102.17 1540,-125.8 1540,-125.8 1540,-125.8 1201.25,-125.8 1201.25,-125.8"/>
<polygon fill="black" stroke="black" points="1201.25,-122.3 1191.25,-125.8 1201.25,-129.3 1201.25,-122.3"/>
</g>
<!-- ChannelGroupEditComponent -->
<g id="node3" class="node">
<title>ChannelGroupEditComponent</title>
<polygon fill="#ffffb3" stroke="black" points="1422.59,-84.8 1235.41,-84.8 1235.41,-48.8 1422.59,-48.8 1422.59,-84.8"/>
<text text-anchor="middle" x="1329" y="-62.6" font-family="Times,serif" font-size="14.00">ChannelGroupEditComponent</text>
</g>
<!-- ChannelGroupEditComponent&#45;&gt;ChannelGroupModule -->
<g id="edge3" class="edge">
<title>ChannelGroupEditComponent&#45;&gt;ChannelGroupModule</title>
<path fill="none" stroke="black" d="M1329,-85.04C1329,-100.37 1329,-119.8 1329,-119.8 1329,-119.8 1201.05,-119.8 1201.05,-119.8"/>
<polygon fill="black" stroke="black" points="1201.05,-116.3 1191.05,-119.8 1201.05,-123.3 1201.05,-116.3"/>
</g>
<!-- ChannelGroupFilterComponent -->
<g id="node4" class="node">
<title>ChannelGroupFilterComponent</title>
<polygon fill="#ffffb3" stroke="black" points="1217.09,-84.8 1022.91,-84.8 1022.91,-48.8 1217.09,-48.8 1217.09,-84.8"/>
<text text-anchor="middle" x="1120" y="-62.6" font-family="Times,serif" font-size="14.00">ChannelGroupFilterComponent</text>
</g>
<!-- ChannelGroupFilterComponent&#45;&gt;ChannelGroupModule -->
<g id="edge4" class="edge">
<title>ChannelGroupFilterComponent&#45;&gt;ChannelGroupModule</title>
<path fill="none" stroke="black" d="M1120,-84.91C1120,-84.91 1120,-103.79 1120,-103.79"/>
<polygon fill="black" stroke="black" points="1116.5,-103.79 1120,-113.79 1123.5,-103.79 1116.5,-103.79"/>
</g>
<!-- ChannelGroupMapComponent -->
<g id="node5" class="node">
<title>ChannelGroupMapComponent</title>
<polygon fill="#ffffb3" stroke="black" points="1004.92,-84.8 815.08,-84.8 815.08,-48.8 1004.92,-48.8 1004.92,-84.8"/>
<text text-anchor="middle" x="910" y="-62.6" font-family="Times,serif" font-size="14.00">ChannelGroupMapComponent</text>
</g>
<!-- ChannelGroupMapComponent&#45;&gt;ChannelGroupModule -->
<g id="edge5" class="edge">
<title>ChannelGroupMapComponent&#45;&gt;ChannelGroupModule</title>
<path fill="none" stroke="black" d="M910,-85.04C910,-100.37 910,-119.8 910,-119.8 910,-119.8 1038.9,-119.8 1038.9,-119.8"/>
<polygon fill="black" stroke="black" points="1038.9,-123.3 1048.9,-119.8 1038.9,-116.3 1038.9,-123.3"/>
</g>
<!-- ChannelGroupTableComponent -->
<g id="node6" class="node">
<title>ChannelGroupTableComponent</title>
<polygon fill="#ffffb3" stroke="black" points="796.63,-84.8 601.37,-84.8 601.37,-48.8 796.63,-48.8 796.63,-84.8"/>
<text text-anchor="middle" x="699" y="-62.6" font-family="Times,serif" font-size="14.00">ChannelGroupTableComponent</text>
</g>
<!-- ChannelGroupTableComponent&#45;&gt;ChannelGroupModule -->
<g id="edge6" class="edge">
<title>ChannelGroupTableComponent&#45;&gt;ChannelGroupModule</title>
<path fill="none" stroke="black" d="M699,-84.82C699,-102.17 699,-125.8 699,-125.8 699,-125.8 1038.58,-125.8 1038.58,-125.8"/>
<polygon fill="black" stroke="black" points="1038.58,-129.3 1048.58,-125.8 1038.58,-122.3 1038.58,-129.3"/>
</g>
<!-- ChannelGroupViewComponent -->
<g id="node7" class="node">
<title>ChannelGroupViewComponent</title>
<polygon fill="#ffffb3" stroke="black" points="583.08,-84.8 388.92,-84.8 388.92,-48.8 583.08,-48.8 583.08,-84.8"/>
<text text-anchor="middle" x="486" y="-62.6" font-family="Times,serif" font-size="14.00">ChannelGroupViewComponent</text>
</g>
<!-- ChannelGroupViewComponent&#45;&gt;ChannelGroupModule -->
<g id="edge7" class="edge">
<title>ChannelGroupViewComponent&#45;&gt;ChannelGroupModule</title>
<path fill="none" stroke="black" d="M486,-84.91C486,-104.14 486,-131.8 486,-131.8 486,-131.8 1038.81,-131.8 1038.81,-131.8"/>
<polygon fill="black" stroke="black" points="1038.81,-135.3 1048.81,-131.8 1038.81,-128.3 1038.81,-135.3"/>
</g>
<!-- CsvUploadComponent -->
<g id="node8" class="node">
<title>CsvUploadComponent</title>
<polygon fill="#ffffb3" stroke="black" points="371.33,-84.8 226.67,-84.8 226.67,-48.8 371.33,-48.8 371.33,-84.8"/>
<text text-anchor="middle" x="299" y="-62.6" font-family="Times,serif" font-size="14.00">CsvUploadComponent</text>
</g>
<!-- CsvUploadComponent&#45;&gt;ChannelGroupModule -->
<g id="edge8" class="edge">
<title>CsvUploadComponent&#45;&gt;ChannelGroupModule</title>
<path fill="none" stroke="black" d="M299,-85.08C299,-106.12 299,-137.8 299,-137.8 299,-137.8 1038.94,-137.8 1038.94,-137.8"/>
<polygon fill="black" stroke="black" points="1038.94,-141.3 1048.94,-137.8 1038.93,-134.3 1038.94,-141.3"/>
</g>
<!-- MatchingRuleEditComponent -->
<g id="node9" class="node">
<title>MatchingRuleEditComponent</title>
<polygon fill="#ffffb3" stroke="black" points="208.26,-84.8 23.74,-84.8 23.74,-48.8 208.26,-48.8 208.26,-84.8"/>
<text text-anchor="middle" x="116" y="-62.6" font-family="Times,serif" font-size="14.00">MatchingRuleEditComponent</text>
</g>
<!-- MatchingRuleEditComponent&#45;&gt;ChannelGroupModule -->
<g id="edge9" class="edge">
<title>MatchingRuleEditComponent&#45;&gt;ChannelGroupModule</title>
<path fill="none" stroke="black" d="M116,-84.89C116,-107.93 116,-144.8 116,-144.8 116,-144.8 1039,-144.8 1039,-144.8"/>
<polygon fill="black" stroke="black" points="1039,-148.3 1049,-144.8 1039,-141.3 1039,-148.3"/>
</g>
<!-- ChannelGroupRoutingModule -->
<g id="node11" class="node">
<title>ChannelGroupRoutingModule</title>
<polygon fill="#8dd3c7" stroke="black" points="2148.6,-84.8 2145.6,-88.8 2124.6,-88.8 2121.6,-84.8 1961.4,-84.8 1961.4,-48.8 2148.6,-48.8 2148.6,-84.8"/>
<text text-anchor="middle" x="2055" y="-62.6" font-family="Times,serif" font-size="14.00">ChannelGroupRoutingModule</text>
</g>
<!-- ChannelGroupRoutingModule&#45;&gt;ChannelGroupModule -->
<g id="edge10" class="edge">
<title>ChannelGroupRoutingModule&#45;&gt;ChannelGroupModule</title>
<path fill="none" stroke="black" d="M2055,-84.89C2055,-107.93 2055,-144.8 2055,-144.8 2055,-144.8 1201.04,-144.8 1201.04,-144.8"/>
<polygon fill="black" stroke="black" points="1201.04,-141.3 1191.04,-144.8 1201.04,-148.3 1201.04,-141.3"/>
</g>
<!-- SharedModule -->
<g id="node12" class="node">
<title>SharedModule</title>
<polygon fill="#8dd3c7" stroke="black" points="1943.43,-84.8 1940.43,-88.8 1919.43,-88.8 1916.43,-84.8 1844.57,-84.8 1844.57,-48.8 1943.43,-48.8 1943.43,-84.8"/>
<text text-anchor="middle" x="1894" y="-62.6" font-family="Times,serif" font-size="14.00">SharedModule</text>
</g>
<!-- SharedModule&#45;&gt;ChannelGroupModule -->
<g id="edge11" class="edge">
<title>SharedModule&#45;&gt;ChannelGroupModule</title>
<path fill="none" stroke="black" d="M1894,-85.08C1894,-106.12 1894,-137.8 1894,-137.8 1894,-137.8 1201.08,-137.8 1201.08,-137.8"/>
<polygon fill="black" stroke="black" points="1201.08,-134.3 1191.08,-137.8 1201.08,-141.3 1201.08,-134.3"/>
</g>
</g>
</svg>
