<?xml version="1.0" encoding="UTF-8" standalone="no"?>
<!DOCTYPE svg PUBLIC "-//W3C//DTD SVG 1.1//EN"
 "http://www.w3.org/Graphics/SVG/1.1/DTD/svg11.dtd">
<!-- Generated by graphviz version 5.0.0 (20220707.1540)
 -->
<!-- Title: dependencies Pages: 1 -->
<svg width="974pt" height="174pt"
 viewBox="0.00 0.00 974.00 173.80" xmlns="http://www.w3.org/2000/svg" xmlns:xlink="http://www.w3.org/1999/xlink">
<g id="graph0" class="graph" transform="scale(1 1) rotate(0) translate(4 169.8)">
<title>dependencies</title>
<polygon fill="white" stroke="transparent" points="-4,4 -4,-169.8 970,-169.8 970,4 -4,4"/>
<text text-anchor="middle" x="483" y="-8.2" font-family="sans-serif" font-size="14.00">dependencies</text>
<g id="clust1" class="cluster">
<title>cluster_MetricModule</title>
<polygon fill="none" stroke="black" stroke-dasharray="1,5" points="8,-32.8 8,-157.8 958,-157.8 958,-32.8 8,-32.8"/>
</g>
<g id="clust7" class="cluster">
<title>cluster_MetricModule_imports</title>
<polygon fill="none" stroke="black" points="676,-40.8 676,-92.8 950,-92.8 950,-40.8 676,-40.8"/>
</g>
<g id="clust2" class="cluster">
<title>cluster_MetricModule_declarations</title>
<polygon fill="none" stroke="black" points="16,-40.8 16,-92.8 668,-92.8 668,-40.8 16,-40.8"/>
</g>
<!-- MetricComponent -->
<g id="node1" class="node">
<title>MetricComponent</title>
<polygon fill="#ffffb3" stroke="black" points="660.15,-84.8 541.85,-84.8 541.85,-48.8 660.15,-48.8 660.15,-84.8"/>
<text text-anchor="middle" x="601" y="-62.6" font-family="Times,serif" font-size="14.00">MetricComponent</text>
</g>
<!-- MetricModule -->
<g id="node5" class="node">
<title>MetricModule</title>
<polygon fill="#8dd3c7" stroke="black" points="575.37,-149.8 572.37,-153.8 551.37,-153.8 548.37,-149.8 478.63,-149.8 478.63,-113.8 575.37,-113.8 575.37,-149.8"/>
<text text-anchor="middle" x="527" y="-127.6" font-family="Times,serif" font-size="14.00">MetricModule</text>
</g>
<!-- MetricComponent&#45;&gt;MetricModule -->
<g id="edge1" class="edge">
<title>MetricComponent&#45;&gt;MetricModule</title>
<path fill="none" stroke="black" d="M558.56,-84.91C558.56,-84.91 558.56,-103.79 558.56,-103.79"/>
<polygon fill="black" stroke="black" points="555.06,-103.79 558.56,-113.79 562.06,-103.79 555.06,-103.79"/>
</g>
<!-- MetricEditComponent -->
<g id="node2" class="node">
<title>MetricEditComponent</title>
<polygon fill="#ffffb3" stroke="black" points="523.98,-84.8 382.02,-84.8 382.02,-48.8 523.98,-48.8 523.98,-84.8"/>
<text text-anchor="middle" x="453" y="-62.6" font-family="Times,serif" font-size="14.00">MetricEditComponent</text>
</g>
<!-- MetricEditComponent&#45;&gt;MetricModule -->
<g id="edge2" class="edge">
<title>MetricEditComponent&#45;&gt;MetricModule</title>
<path fill="none" stroke="black" d="M501.28,-84.91C501.28,-84.91 501.28,-103.79 501.28,-103.79"/>
<polygon fill="black" stroke="black" points="497.78,-103.79 501.28,-113.79 504.78,-103.79 497.78,-103.79"/>
</g>
<!-- MetricEditEntryComponent -->
<g id="node3" class="node">
<title>MetricEditEntryComponent</title>
<polygon fill="#ffffb3" stroke="black" points="363.58,-84.8 190.42,-84.8 190.42,-48.8 363.58,-48.8 363.58,-84.8"/>
<text text-anchor="middle" x="277" y="-62.6" font-family="Times,serif" font-size="14.00">MetricEditEntryComponent</text>
</g>
<!-- MetricEditEntryComponent&#45;&gt;MetricModule -->
<g id="edge3" class="edge">
<title>MetricEditEntryComponent&#45;&gt;MetricModule</title>
<path fill="none" stroke="black" d="M277,-84.82C277,-102.17 277,-125.8 277,-125.8 277,-125.8 468.5,-125.8 468.5,-125.8"/>
<polygon fill="black" stroke="black" points="468.5,-129.3 478.5,-125.8 468.5,-122.3 468.5,-129.3"/>
</g>
<!-- MetricViewComponent -->
<g id="node4" class="node">
<title>MetricViewComponent</title>
<polygon fill="#ffffb3" stroke="black" points="172.47,-84.8 23.53,-84.8 23.53,-48.8 172.47,-48.8 172.47,-84.8"/>
<text text-anchor="middle" x="98" y="-62.6" font-family="Times,serif" font-size="14.00">MetricViewComponent</text>
</g>
<!-- MetricViewComponent&#45;&gt;MetricModule -->
<g id="edge4" class="edge">
<title>MetricViewComponent&#45;&gt;MetricModule</title>
<path fill="none" stroke="black" d="M98,-85.08C98,-106.12 98,-137.8 98,-137.8 98,-137.8 468.62,-137.8 468.62,-137.8"/>
<polygon fill="black" stroke="black" points="468.62,-141.3 478.62,-137.8 468.62,-134.3 468.62,-141.3"/>
</g>
<!-- MetricRoutingModule -->
<g id="node6" class="node">
<title>MetricRoutingModule</title>
<polygon fill="#8dd3c7" stroke="black" points="941.99,-84.8 938.99,-88.8 917.99,-88.8 914.99,-84.8 800.01,-84.8 800.01,-48.8 941.99,-48.8 941.99,-84.8"/>
<text text-anchor="middle" x="871" y="-62.6" font-family="Times,serif" font-size="14.00">MetricRoutingModule</text>
</g>
<!-- MetricRoutingModule&#45;&gt;MetricModule -->
<g id="edge5" class="edge">
<title>MetricRoutingModule&#45;&gt;MetricModule</title>
<path fill="none" stroke="black" d="M871,-85.08C871,-106.12 871,-137.8 871,-137.8 871,-137.8 585.56,-137.8 585.56,-137.8"/>
<polygon fill="black" stroke="black" points="585.56,-134.3 575.56,-137.8 585.56,-141.3 585.56,-134.3"/>
</g>
<!-- SharedModule -->
<g id="node7" class="node">
<title>SharedModule</title>
<polygon fill="#8dd3c7" stroke="black" points="782.43,-84.8 779.43,-88.8 758.43,-88.8 755.43,-84.8 683.57,-84.8 683.57,-48.8 782.43,-48.8 782.43,-84.8"/>
<text text-anchor="middle" x="733" y="-62.6" font-family="Times,serif" font-size="14.00">SharedModule</text>
</g>
<!-- SharedModule&#45;&gt;MetricModule -->
<g id="edge6" class="edge">
<title>SharedModule&#45;&gt;MetricModule</title>
<path fill="none" stroke="black" d="M733,-84.82C733,-102.17 733,-125.8 733,-125.8 733,-125.8 585.56,-125.8 585.56,-125.8"/>
<polygon fill="black" stroke="black" points="585.56,-122.3 575.56,-125.8 585.56,-129.3 585.56,-122.3"/>
</g>
</g>
</svg>
