<?xml version="1.0" encoding="UTF-8" standalone="no"?>
<!DOCTYPE svg PUBLIC "-//W3C//DTD SVG 1.1//EN"
 "http://www.w3.org/Graphics/SVG/1.1/DTD/svg11.dtd">
<!-- Generated by graphviz version 5.0.0 (20220707.1540)
 -->
<!-- Title: dependencies Pages: 1 -->
<svg width="1093pt" height="174pt"
 viewBox="0.00 0.00 1093.00 173.80" xmlns="http://www.w3.org/2000/svg" xmlns:xlink="http://www.w3.org/1999/xlink">
<g id="graph0" class="graph" transform="scale(1 1) rotate(0) translate(4 169.8)">
<title>dependencies</title>
<polygon fill="white" stroke="transparent" points="-4,4 -4,-169.8 1089,-169.8 1089,4 -4,4"/>
<text text-anchor="middle" x="542.5" y="-8.2" font-family="sans-serif" font-size="14.00">dependencies</text>
<g id="clust1" class="cluster">
<title>cluster_MetricModule</title>
<polygon fill="none" stroke="black" stroke-dasharray="1,5" points="8,-32.8 8,-157.8 1077,-157.8 1077,-32.8 8,-32.8"/>
</g>
<g id="clust2" class="cluster">
<title>cluster_MetricModule_declarations</title>
<polygon fill="none" stroke="black" points="417,-40.8 417,-92.8 1069,-92.8 1069,-40.8 417,-40.8"/>
</g>
<g id="clust7" class="cluster">
<title>cluster_MetricModule_imports</title>
<polygon fill="none" stroke="black" points="16,-40.8 16,-92.8 409,-92.8 409,-40.8 16,-40.8"/>
</g>
<!-- MetricComponent -->
<g id="node1" class="node">
<title>MetricComponent</title>
<polygon fill="#ffffb3" stroke="black" points="1061.15,-84.8 942.85,-84.8 942.85,-48.8 1061.15,-48.8 1061.15,-84.8"/>
<text text-anchor="middle" x="1002" y="-62.6" font-family="Times,serif" font-size="14.00">MetricComponent</text>
</g>
<!-- MetricModule -->
<g id="node5" class="node">
<title>MetricModule</title>
<polygon fill="#8dd3c7" stroke="black" points="547.37,-149.8 544.37,-153.8 523.37,-153.8 520.37,-149.8 450.63,-149.8 450.63,-113.8 547.37,-113.8 547.37,-149.8"/>
<text text-anchor="middle" x="499" y="-127.6" font-family="Times,serif" font-size="14.00">MetricModule</text>
</g>
<!-- MetricComponent&#45;&gt;MetricModule -->
<g id="edge1" class="edge">
<title>MetricComponent&#45;&gt;MetricModule</title>
<path fill="none" stroke="black" d="M1002,-85.09C1002,-107.01 1002,-140.8 1002,-140.8 1002,-140.8 557.69,-140.8 557.69,-140.8"/>
<polygon fill="black" stroke="black" points="557.69,-137.3 547.69,-140.8 557.69,-144.3 557.69,-137.3"/>
</g>
<!-- MetricEditComponent -->
<g id="node2" class="node">
<title>MetricEditComponent</title>
<polygon fill="#ffffb3" stroke="black" points="924.98,-84.8 783.02,-84.8 783.02,-48.8 924.98,-48.8 924.98,-84.8"/>
<text text-anchor="middle" x="854" y="-62.6" font-family="Times,serif" font-size="14.00">MetricEditComponent</text>
</g>
<!-- MetricEditComponent&#45;&gt;MetricModule -->
<g id="edge2" class="edge">
<title>MetricEditComponent&#45;&gt;MetricModule</title>
<path fill="none" stroke="black" d="M854,-84.91C854,-104.14 854,-131.8 854,-131.8 854,-131.8 557.62,-131.8 557.62,-131.8"/>
<polygon fill="black" stroke="black" points="557.62,-128.3 547.62,-131.8 557.62,-135.3 557.62,-128.3"/>
</g>
<!-- MetricEditEntryComponent -->
<g id="node3" class="node">
<title>MetricEditEntryComponent</title>
<polygon fill="#ffffb3" stroke="black" points="764.58,-84.8 591.42,-84.8 591.42,-48.8 764.58,-48.8 764.58,-84.8"/>
<text text-anchor="middle" x="678" y="-62.6" font-family="Times,serif" font-size="14.00">MetricEditEntryComponent</text>
</g>
<!-- MetricEditEntryComponent&#45;&gt;MetricModule -->
<g id="edge3" class="edge">
<title>MetricEditEntryComponent&#45;&gt;MetricModule</title>
<path fill="none" stroke="black" d="M678,-84.83C678,-101.2 678,-122.8 678,-122.8 678,-122.8 557.44,-122.8 557.44,-122.8"/>
<polygon fill="black" stroke="black" points="557.44,-119.3 547.44,-122.8 557.44,-126.3 557.44,-119.3"/>
</g>
<!-- MetricViewComponent -->
<g id="node4" class="node">
<title>MetricViewComponent</title>
<polygon fill="#ffffb3" stroke="black" points="573.47,-84.8 424.53,-84.8 424.53,-48.8 573.47,-48.8 573.47,-84.8"/>
<text text-anchor="middle" x="499" y="-62.6" font-family="Times,serif" font-size="14.00">MetricViewComponent</text>
</g>
<!-- MetricViewComponent&#45;&gt;MetricModule -->
<g id="edge4" class="edge">
<title>MetricViewComponent&#45;&gt;MetricModule</title>
<path fill="none" stroke="black" d="M499,-84.91C499,-84.91 499,-103.79 499,-103.79"/>
<polygon fill="black" stroke="black" points="495.5,-103.79 499,-113.79 502.5,-103.79 495.5,-103.79"/>
</g>
<!-- MetricRoutingModule -->
<g id="node6" class="node">
<title>MetricRoutingModule</title>
<polygon fill="#8dd3c7" stroke="black" points="400.99,-84.8 397.99,-88.8 376.99,-88.8 373.99,-84.8 259.01,-84.8 259.01,-48.8 400.99,-48.8 400.99,-84.8"/>
<text text-anchor="middle" x="330" y="-62.6" font-family="Times,serif" font-size="14.00">MetricRoutingModule</text>
</g>
<!-- MetricRoutingModule&#45;&gt;MetricModule -->
<g id="edge5" class="edge">
<title>MetricRoutingModule&#45;&gt;MetricModule</title>
<path fill="none" stroke="black" d="M330,-84.83C330,-101.2 330,-122.8 330,-122.8 330,-122.8 440.57,-122.8 440.57,-122.8"/>
<polygon fill="black" stroke="black" points="440.57,-126.3 450.57,-122.8 440.57,-119.3 440.57,-126.3"/>
</g>
<!-- SharedModule -->
<g id="node7" class="node">
<title>SharedModule</title>
<polygon fill="#8dd3c7" stroke="black" points="241.43,-84.8 238.43,-88.8 217.43,-88.8 214.43,-84.8 142.57,-84.8 142.57,-48.8 241.43,-48.8 241.43,-84.8"/>
<text text-anchor="middle" x="192" y="-62.6" font-family="Times,serif" font-size="14.00">SharedModule</text>
</g>
<!-- SharedModule&#45;&gt;MetricModule -->
<g id="edge6" class="edge">
<title>SharedModule&#45;&gt;MetricModule</title>
<path fill="none" stroke="black" d="M192,-84.91C192,-104.14 192,-131.8 192,-131.8 192,-131.8 440.35,-131.8 440.35,-131.8"/>
<polygon fill="black" stroke="black" points="440.35,-135.3 450.35,-131.8 440.35,-128.3 440.35,-135.3"/>
</g>
<!-- TooltipModule -->
<g id="node8" class="node">
<title>TooltipModule</title>
<polygon fill="#8dd3c7" stroke="black" points="124.27,-84.8 121.27,-88.8 100.27,-88.8 97.27,-84.8 23.73,-84.8 23.73,-48.8 124.27,-48.8 124.27,-84.8"/>
<text text-anchor="middle" x="74" y="-62.6" font-family="Times,serif" font-size="14.00">TooltipModule</text>
</g>
<!-- TooltipModule&#45;&gt;MetricModule -->
<g id="edge7" class="edge">
<title>TooltipModule&#45;&gt;MetricModule</title>
<path fill="none" stroke="black" d="M74,-85.09C74,-107.01 74,-140.8 74,-140.8 74,-140.8 440.25,-140.8 440.25,-140.8"/>
<polygon fill="black" stroke="black" points="440.25,-144.3 450.25,-140.8 440.25,-137.3 440.25,-144.3"/>
</g>
</g>
</svg>
