<?xml version="1.0" encoding="UTF-8" standalone="no"?>
<!DOCTYPE svg PUBLIC "-//W3C//DTD SVG 1.1//EN"
 "http://www.w3.org/Graphics/SVG/1.1/DTD/svg11.dtd">
<!-- Generated by graphviz version 5.0.0 (20220707.1540)
 -->
<!-- Title: dependencies Pages: 1 -->
<svg width="974pt" height="174pt"
 viewBox="0.00 0.00 974.00 173.80" xmlns="http://www.w3.org/2000/svg" xmlns:xlink="http://www.w3.org/1999/xlink">
<g id="graph0" class="graph" transform="scale(1 1) rotate(0) translate(4 169.8)">
<title>dependencies</title>
<polygon fill="white" stroke="transparent" points="-4,4 -4,-169.8 970,-169.8 970,4 -4,4"/>
<text text-anchor="middle" x="483" y="-8.2" font-family="sans-serif" font-size="14.00">dependencies</text>
<g id="clust1" class="cluster">
<title>cluster_MetricModule</title>
<polygon fill="none" stroke="black" stroke-dasharray="1,5" points="8,-32.8 8,-157.8 958,-157.8 958,-32.8 8,-32.8"/>
</g>
<g id="clust2" class="cluster">
<title>cluster_MetricModule_declarations</title>
<polygon fill="none" stroke="black" points="298,-40.8 298,-92.8 950,-92.8 950,-40.8 298,-40.8"/>
</g>
<g id="clust7" class="cluster">
<title>cluster_MetricModule_imports</title>
<polygon fill="none" stroke="black" points="16,-40.8 16,-92.8 290,-92.8 290,-40.8 16,-40.8"/>
</g>
<!-- MetricComponent -->
<g id="node1" class="node">
<title>MetricComponent</title>
<polygon fill="#ffffb3" stroke="black" points="942.15,-84.8 823.85,-84.8 823.85,-48.8 942.15,-48.8 942.15,-84.8"/>
<text text-anchor="middle" x="883" y="-62.6" font-family="Times,serif" font-size="14.00">MetricComponent</text>
</g>
<!-- MetricModule -->
<g id="node5" class="node">
<title>MetricModule</title>
<polygon fill="#8dd3c7" stroke="black" points="517.37,-149.8 514.37,-153.8 493.37,-153.8 490.37,-149.8 420.63,-149.8 420.63,-113.8 517.37,-113.8 517.37,-149.8"/>
<text text-anchor="middle" x="469" y="-127.6" font-family="Times,serif" font-size="14.00">MetricModule</text>
</g>
<!-- MetricComponent&#45;&gt;MetricModule -->
<g id="edge1" class="edge">
<title>MetricComponent&#45;&gt;MetricModule</title>
<path fill="none" stroke="black" d="M883,-85.08C883,-106.12 883,-137.8 883,-137.8 883,-137.8 527.71,-137.8 527.71,-137.8"/>
<polygon fill="black" stroke="black" points="527.71,-134.3 517.71,-137.8 527.71,-141.3 527.71,-134.3"/>
</g>
<!-- MetricEditComponent -->
<g id="node2" class="node">
<title>MetricEditComponent</title>
<polygon fill="#ffffb3" stroke="black" points="805.98,-84.8 664.02,-84.8 664.02,-48.8 805.98,-48.8 805.98,-84.8"/>
<text text-anchor="middle" x="735" y="-62.6" font-family="Times,serif" font-size="14.00">MetricEditComponent</text>
</g>
<!-- MetricEditComponent&#45;&gt;MetricModule -->
<g id="edge2" class="edge">
<title>MetricEditComponent&#45;&gt;MetricModule</title>
<path fill="none" stroke="black" d="M735,-84.82C735,-102.17 735,-125.8 735,-125.8 735,-125.8 527.48,-125.8 527.48,-125.8"/>
<polygon fill="black" stroke="black" points="527.48,-122.3 517.48,-125.8 527.48,-129.3 527.48,-122.3"/>
</g>
<!-- MetricEditEntryComponent -->
<g id="node3" class="node">
<title>MetricEditEntryComponent</title>
<polygon fill="#ffffb3" stroke="black" points="645.58,-84.8 472.42,-84.8 472.42,-48.8 645.58,-48.8 645.58,-84.8"/>
<text text-anchor="middle" x="559" y="-62.6" font-family="Times,serif" font-size="14.00">MetricEditEntryComponent</text>
</g>
<!-- MetricEditEntryComponent&#45;&gt;MetricModule -->
<g id="edge3" class="edge">
<title>MetricEditEntryComponent&#45;&gt;MetricModule</title>
<path fill="none" stroke="black" d="M494.95,-84.91C494.95,-84.91 494.95,-103.79 494.95,-103.79"/>
<polygon fill="black" stroke="black" points="491.45,-103.79 494.95,-113.79 498.45,-103.79 491.45,-103.79"/>
</g>
<!-- MetricViewComponent -->
<g id="node4" class="node">
<title>MetricViewComponent</title>
<polygon fill="#ffffb3" stroke="black" points="454.47,-84.8 305.53,-84.8 305.53,-48.8 454.47,-48.8 454.47,-84.8"/>
<text text-anchor="middle" x="380" y="-62.6" font-family="Times,serif" font-size="14.00">MetricViewComponent</text>
</g>
<!-- MetricViewComponent&#45;&gt;MetricModule -->
<g id="edge4" class="edge">
<title>MetricViewComponent&#45;&gt;MetricModule</title>
<path fill="none" stroke="black" d="M437.53,-84.91C437.53,-84.91 437.53,-103.79 437.53,-103.79"/>
<polygon fill="black" stroke="black" points="434.03,-103.79 437.53,-113.79 441.03,-103.79 434.03,-103.79"/>
</g>
<!-- MetricRoutingModule -->
<g id="node6" class="node">
<title>MetricRoutingModule</title>
<polygon fill="#8dd3c7" stroke="black" points="281.99,-84.8 278.99,-88.8 257.99,-88.8 254.99,-84.8 140.01,-84.8 140.01,-48.8 281.99,-48.8 281.99,-84.8"/>
<text text-anchor="middle" x="211" y="-62.6" font-family="Times,serif" font-size="14.00">MetricRoutingModule</text>
</g>
<!-- MetricRoutingModule&#45;&gt;MetricModule -->
<g id="edge5" class="edge">
<title>MetricRoutingModule&#45;&gt;MetricModule</title>
<path fill="none" stroke="black" d="M211,-84.82C211,-102.17 211,-125.8 211,-125.8 211,-125.8 410.47,-125.8 410.47,-125.8"/>
<polygon fill="black" stroke="black" points="410.47,-129.3 420.47,-125.8 410.47,-122.3 410.47,-129.3"/>
</g>
<!-- SharedModule -->
<g id="node7" class="node">
<title>SharedModule</title>
<polygon fill="#8dd3c7" stroke="black" points="122.43,-84.8 119.43,-88.8 98.43,-88.8 95.43,-84.8 23.57,-84.8 23.57,-48.8 122.43,-48.8 122.43,-84.8"/>
<text text-anchor="middle" x="73" y="-62.6" font-family="Times,serif" font-size="14.00">SharedModule</text>
</g>
<!-- SharedModule&#45;&gt;MetricModule -->
<g id="edge6" class="edge">
<title>SharedModule&#45;&gt;MetricModule</title>
<path fill="none" stroke="black" d="M73,-85.08C73,-106.12 73,-137.8 73,-137.8 73,-137.8 410.44,-137.8 410.44,-137.8"/>
<polygon fill="black" stroke="black" points="410.44,-141.3 420.44,-137.8 410.44,-134.3 410.44,-141.3"/>
</g>
</g>
</svg>
