<?xml version="1.0" encoding="UTF-8" standalone="no"?>
<!DOCTYPE svg PUBLIC "-//W3C//DTD SVG 1.1//EN"
 "http://www.w3.org/Graphics/SVG/1.1/DTD/svg11.dtd">
<!-- Generated by graphviz version 5.0.0 (20220707.1540)
 -->
<!-- Title: dependencies Pages: 1 -->
<svg width="306pt" height="247pt"
 viewBox="0.00 0.00 306.00 246.80" xmlns="http://www.w3.org/2000/svg" xmlns:xlink="http://www.w3.org/1999/xlink">
<g id="graph0" class="graph" transform="scale(1 1) rotate(0) translate(4 242.8)">
<title>dependencies</title>
<polygon fill="white" stroke="transparent" points="-4,4 -4,-242.8 302,-242.8 302,4 -4,4"/>
<text text-anchor="middle" x="149" y="-8.2" font-family="sans-serif" font-size="14.00">dependencies</text>
<g id="clust1" class="cluster">
<title>cluster_TooltipModule</title>
<polygon fill="none" stroke="black" stroke-dasharray="1,5" points="8,-32.8 8,-230.8 290,-230.8 290,-32.8 8,-32.8"/>
</g>
<g id="clust2" class="cluster">
<title>cluster_TooltipModule_declarations</title>
<polygon fill="none" stroke="black" points="16,-40.8 16,-92.8 282,-92.8 282,-40.8 16,-40.8"/>
</g>
<g id="clust6" class="cluster">
<title>cluster_TooltipModule_exports</title>
<polygon fill="none" stroke="black" points="82,-170.8 82,-222.8 210,-222.8 210,-170.8 82,-170.8"/>
</g>
<!-- TooltipComponent -->
<g id="node1" class="node">
<title>TooltipComponent</title>
<polygon fill="#ffffb3" stroke="black" points="274.05,-84.8 151.95,-84.8 151.95,-48.8 274.05,-48.8 274.05,-84.8"/>
<text text-anchor="middle" x="213" y="-62.6" font-family="Times,serif" font-size="14.00">TooltipComponent</text>
</g>
<!-- TooltipModule -->
<g id="node3" class="node">
<title>TooltipModule</title>
<polygon fill="#8dd3c7" stroke="black" points="196.27,-149.8 193.27,-153.8 172.27,-153.8 169.27,-149.8 95.73,-149.8 95.73,-113.8 196.27,-113.8 196.27,-149.8"/>
<text text-anchor="middle" x="146" y="-127.6" font-family="Times,serif" font-size="14.00">TooltipModule</text>
</g>
<!-- TooltipComponent&#45;&gt;TooltipModule -->
<g id="edge1" class="edge">
<title>TooltipComponent&#45;&gt;TooltipModule</title>
<path fill="none" stroke="black" d="M174.06,-84.91C174.06,-84.91 174.06,-103.79 174.06,-103.79"/>
<polygon fill="black" stroke="black" points="170.56,-103.79 174.06,-113.79 177.56,-103.79 170.56,-103.79"/>
</g>
<!-- TooltipDirective -->
<g id="node2" class="node">
<title>TooltipDirective</title>
<polygon fill="#ffffb3" stroke="black" points="133.8,-84.8 24.2,-84.8 24.2,-48.8 133.8,-48.8 133.8,-84.8"/>
<text text-anchor="middle" x="79" y="-62.6" font-family="Times,serif" font-size="14.00">TooltipDirective</text>
</g>
<!-- TooltipDirective&#45;&gt;TooltipModule -->
<g id="edge2" class="edge">
<title>TooltipDirective&#45;&gt;TooltipModule</title>
<path fill="none" stroke="black" d="M114.63,-84.91C114.63,-84.91 114.63,-103.79 114.63,-103.79"/>
<polygon fill="black" stroke="black" points="111.13,-103.79 114.63,-113.79 118.13,-103.79 111.13,-103.79"/>
</g>
<!-- TooltipDirective  -->
<g id="node4" class="node">
<title>TooltipDirective </title>
<polygon fill="#fb8072" stroke="black" points="202.3,-214.8 89.7,-214.8 89.7,-178.8 202.3,-178.8 202.3,-214.8"/>
<text text-anchor="middle" x="146" y="-192.6" font-family="Times,serif" font-size="14.00">TooltipDirective </text>
</g>
<!-- TooltipModule&#45;&gt;TooltipDirective  -->
<g id="edge3" class="edge">
<title>TooltipModule&#45;&gt;TooltipDirective </title>
<path fill="none" stroke="black" stroke-dasharray="5,2" d="M146,-149.91C146,-149.91 146,-168.79 146,-168.79"/>
<polygon fill="black" stroke="black" points="142.5,-168.79 146,-178.79 149.5,-168.79 142.5,-168.79"/>
</g>
</g>
</svg>
