<?xml version="1.0" encoding="UTF-8" standalone="no"?>
<!DOCTYPE svg PUBLIC "-//W3C//DTD SVG 1.1//EN"
 "http://www.w3.org/Graphics/SVG/1.1/DTD/svg11.dtd">
<!-- Generated by graphviz version 5.0.0 (20220707.1540)
 -->
<!-- Title: dependencies Pages: 1 -->
<svg width="1016pt" height="247pt"
 viewBox="0.00 0.00 1016.00 246.80" xmlns="http://www.w3.org/2000/svg" xmlns:xlink="http://www.w3.org/1999/xlink">
<g id="graph0" class="graph" transform="scale(1 1) rotate(0) translate(4 242.8)">
<title>dependencies</title>
<polygon fill="white" stroke="transparent" points="-4,4 -4,-242.8 1012,-242.8 1012,4 -4,4"/>
<text text-anchor="middle" x="504" y="-8.2" font-family="sans-serif" font-size="14.00">dependencies</text>
<g id="clust1" class="cluster">
<title>cluster_WidgetsModule</title>
<polygon fill="none" stroke="black" stroke-dasharray="1,5" points="8,-32.8 8,-230.8 1000,-230.8 1000,-32.8 8,-32.8"/>
</g>
<g id="clust5" class="cluster">
<title>cluster_WidgetsModule_imports</title>
<polygon fill="none" stroke="black" points="306,-40.8 306,-92.8 992,-92.8 992,-40.8 306,-40.8"/>
</g>
<g id="clust2" class="cluster">
<title>cluster_WidgetsModule_declarations</title>
<polygon fill="none" stroke="black" points="16,-40.8 16,-92.8 298,-92.8 298,-40.8 16,-40.8"/>
</g>
<g id="clust6" class="cluster">
<title>cluster_WidgetsModule_exports</title>
<polygon fill="none" stroke="black" points="492,-170.8 492,-222.8 650,-222.8 650,-170.8 492,-170.8"/>
</g>
<!-- ErrorComponent -->
<g id="node1" class="node">
<title>ErrorComponent</title>
<polygon fill="#ffffb3" stroke="black" points="290.37,-84.8 179.63,-84.8 179.63,-48.8 290.37,-48.8 290.37,-84.8"/>
<text text-anchor="middle" x="235" y="-62.6" font-family="Times,serif" font-size="14.00">ErrorComponent</text>
</g>
<!-- WidgetsModule -->
<g id="node3" class="node">
<title>WidgetsModule</title>
<polygon fill="#8dd3c7" stroke="black" points="624.21,-149.8 621.21,-153.8 600.21,-153.8 597.21,-149.8 517.79,-149.8 517.79,-113.8 624.21,-113.8 624.21,-149.8"/>
<text text-anchor="middle" x="571" y="-127.6" font-family="Times,serif" font-size="14.00">WidgetsModule</text>
</g>
<!-- ErrorComponent&#45;&gt;WidgetsModule -->
<g id="edge1" class="edge">
<title>ErrorComponent&#45;&gt;WidgetsModule</title>
<path fill="none" stroke="black" d="M235,-84.93C235,-105.37 235,-135.8 235,-135.8 235,-135.8 507.76,-135.8 507.76,-135.8"/>
<polygon fill="black" stroke="black" points="507.76,-139.3 517.76,-135.8 507.76,-132.3 507.76,-139.3"/>
</g>
<!-- WidgetTypeDirective -->
<g id="node2" class="node">
<title>WidgetTypeDirective</title>
<polygon fill="#ffffb3" stroke="black" points="162.06,-84.8 23.94,-84.8 23.94,-48.8 162.06,-48.8 162.06,-84.8"/>
<text text-anchor="middle" x="93" y="-62.6" font-family="Times,serif" font-size="14.00">WidgetTypeDirective</text>
</g>
<!-- WidgetTypeDirective&#45;&gt;WidgetsModule -->
<g id="edge2" class="edge">
<title>WidgetTypeDirective&#45;&gt;WidgetsModule</title>
<path fill="none" stroke="black" d="M93,-84.81C93,-107.29 93,-142.8 93,-142.8 93,-142.8 507.56,-142.8 507.56,-142.8"/>
<polygon fill="black" stroke="black" points="507.56,-146.3 517.56,-142.8 507.56,-139.3 507.56,-146.3"/>
</g>
<!-- WidgetTypeDirective  -->
<g id="node12" class="node">
<title>WidgetTypeDirective </title>
<polygon fill="#fb8072" stroke="black" points="641.56,-214.8 500.44,-214.8 500.44,-178.8 641.56,-178.8 641.56,-214.8"/>
<text text-anchor="middle" x="571" y="-192.6" font-family="Times,serif" font-size="14.00">WidgetTypeDirective </text>
</g>
<!-- WidgetsModule&#45;&gt;WidgetTypeDirective  -->
<g id="edge11" class="edge">
<title>WidgetsModule&#45;&gt;WidgetTypeDirective </title>
<path fill="none" stroke="black" stroke-dasharray="5,2" d="M571,-149.91C571,-149.91 571,-168.79 571,-168.79"/>
<polygon fill="black" stroke="black" points="567.5,-168.79 571,-178.79 574.5,-168.79 567.5,-168.79"/>
</g>
<!-- Calendar -->
<g id="node4" class="node">
<title>Calendar</title>
<polygon fill="#8dd3c7" stroke="black" points="984.03,-84.8 981.03,-88.8 960.03,-88.8 957.03,-84.8 917.97,-84.8 917.97,-48.8 984.03,-48.8 984.03,-84.8"/>
<text text-anchor="middle" x="951" y="-62.6" font-family="Times,serif" font-size="14.00">Calendar</text>
</g>
<!-- Calendar&#45;&gt;WidgetsModule -->
<g id="edge3" class="edge">
<title>Calendar&#45;&gt;WidgetsModule</title>
<path fill="none" stroke="black" d="M951,-84.81C951,-107.29 951,-142.8 951,-142.8 951,-142.8 634.24,-142.8 634.24,-142.8"/>
<polygon fill="black" stroke="black" points="634.24,-139.3 624.24,-142.8 634.24,-146.3 634.24,-139.3"/>
</g>
<!-- Map -->
<g id="node5" class="node">
<title>Map</title>
<polygon fill="#8dd3c7" stroke="black" points="900,-84.8 897,-88.8 876,-88.8 873,-84.8 846,-84.8 846,-48.8 900,-48.8 900,-84.8"/>
<text text-anchor="middle" x="873" y="-62.6" font-family="Times,serif" font-size="14.00">Map</text>
</g>
<!-- Map&#45;&gt;WidgetsModule -->
<g id="edge4" class="edge">
<title>Map&#45;&gt;WidgetsModule</title>
<path fill="none" stroke="black" d="M873,-84.93C873,-105.37 873,-135.8 873,-135.8 873,-135.8 634.3,-135.8 634.3,-135.8"/>
<polygon fill="black" stroke="black" points="634.3,-132.3 624.3,-135.8 634.3,-139.3 634.3,-132.3"/>
</g>
<!-- Parallel -->
<g id="node6" class="node">
<title>Parallel</title>
<polygon fill="#8dd3c7" stroke="black" points="828.26,-84.8 825.26,-88.8 804.26,-88.8 801.26,-84.8 769.74,-84.8 769.74,-48.8 828.26,-48.8 828.26,-84.8"/>
<text text-anchor="middle" x="799" y="-62.6" font-family="Times,serif" font-size="14.00">Parallel</text>
</g>
<!-- Parallel&#45;&gt;WidgetsModule -->
<g id="edge5" class="edge">
<title>Parallel&#45;&gt;WidgetsModule</title>
<path fill="none" stroke="black" d="M799,-85.07C799,-103.36 799,-128.8 799,-128.8 799,-128.8 634.17,-128.8 634.17,-128.8"/>
<polygon fill="black" stroke="black" points="634.17,-125.3 624.17,-128.8 634.17,-132.3 634.17,-125.3"/>
</g>
<!-- Scatter -->
<g id="node7" class="node">
<title>Scatter</title>
<polygon fill="#8dd3c7" stroke="black" points="751.37,-84.8 748.37,-88.8 727.37,-88.8 724.37,-84.8 696.63,-84.8 696.63,-48.8 751.37,-48.8 751.37,-84.8"/>
<text text-anchor="middle" x="724" y="-62.6" font-family="Times,serif" font-size="14.00">Scatter</text>
</g>
<!-- Scatter&#45;&gt;WidgetsModule -->
<g id="edge6" class="edge">
<title>Scatter&#45;&gt;WidgetsModule</title>
<path fill="none" stroke="black" d="M724,-84.81C724,-100.85 724,-121.8 724,-121.8 724,-121.8 634.51,-121.8 634.51,-121.8"/>
<polygon fill="black" stroke="black" points="634.51,-118.3 624.51,-121.8 634.51,-125.3 634.51,-118.3"/>
</g>
<!-- SquacapiModule -->
<g id="node8" class="node">
<title>SquacapiModule</title>
<polygon fill="#8dd3c7" stroke="black" points="678.37,-84.8 675.37,-88.8 654.37,-88.8 651.37,-84.8 567.63,-84.8 567.63,-48.8 678.37,-48.8 678.37,-84.8"/>
<text text-anchor="middle" x="623" y="-62.6" font-family="Times,serif" font-size="14.00">SquacapiModule</text>
</g>
<!-- SquacapiModule&#45;&gt;WidgetsModule -->
<g id="edge7" class="edge">
<title>SquacapiModule&#45;&gt;WidgetsModule</title>
<path fill="none" stroke="black" d="M595.83,-84.91C595.83,-84.91 595.83,-103.79 595.83,-103.79"/>
<polygon fill="black" stroke="black" points="592.33,-103.79 595.83,-113.79 599.33,-103.79 592.33,-103.79"/>
</g>
<!-- Tabular -->
<g id="node9" class="node">
<title>Tabular</title>
<polygon fill="#8dd3c7" stroke="black" points="549.53,-84.8 546.53,-88.8 525.53,-88.8 522.53,-84.8 490.47,-84.8 490.47,-48.8 549.53,-48.8 549.53,-84.8"/>
<text text-anchor="middle" x="520" y="-62.6" font-family="Times,serif" font-size="14.00">Tabular</text>
</g>
<!-- Tabular&#45;&gt;WidgetsModule -->
<g id="edge8" class="edge">
<title>Tabular&#45;&gt;WidgetsModule</title>
<path fill="none" stroke="black" d="M533.83,-84.91C533.83,-84.91 533.83,-103.79 533.83,-103.79"/>
<polygon fill="black" stroke="black" points="530.33,-103.79 533.83,-113.79 537.33,-103.79 530.33,-103.79"/>
</g>
<!-- Timechart -->
<g id="node10" class="node">
<title>Timechart</title>
<polygon fill="#8dd3c7" stroke="black" points="471.53,-84.8 468.53,-88.8 447.53,-88.8 444.53,-84.8 398.47,-84.8 398.47,-48.8 471.53,-48.8 471.53,-84.8"/>
<text text-anchor="middle" x="435" y="-62.6" font-family="Times,serif" font-size="14.00">Timechart</text>
</g>
<!-- Timechart&#45;&gt;WidgetsModule -->
<g id="edge9" class="edge">
<title>Timechart&#45;&gt;WidgetsModule</title>
<path fill="none" stroke="black" d="M435,-84.81C435,-100.85 435,-121.8 435,-121.8 435,-121.8 507.64,-121.8 507.64,-121.8"/>
<polygon fill="black" stroke="black" points="507.64,-125.3 517.64,-121.8 507.64,-118.3 507.64,-125.3"/>
</g>
<!-- Timeline -->
<g id="node11" class="node">
<title>Timeline</title>
<polygon fill="#8dd3c7" stroke="black" points="380.04,-84.8 377.04,-88.8 356.04,-88.8 353.04,-84.8 313.96,-84.8 313.96,-48.8 380.04,-48.8 380.04,-84.8"/>
<text text-anchor="middle" x="347" y="-62.6" font-family="Times,serif" font-size="14.00">Timeline</text>
</g>
<!-- Timeline&#45;&gt;WidgetsModule -->
<g id="edge10" class="edge">
<title>Timeline&#45;&gt;WidgetsModule</title>
<path fill="none" stroke="black" d="M347,-85.07C347,-103.36 347,-128.8 347,-128.8 347,-128.8 507.63,-128.8 507.63,-128.8"/>
<polygon fill="black" stroke="black" points="507.63,-132.3 517.63,-128.8 507.63,-125.3 507.63,-132.3"/>
</g>
</g>
</svg>
