<?xml version="1.0" encoding="UTF-8" standalone="no"?>
<!DOCTYPE svg PUBLIC "-//W3C//DTD SVG 1.1//EN"
 "http://www.w3.org/Graphics/SVG/1.1/DTD/svg11.dtd">
<!-- Generated by graphviz version 5.0.0 (20220707.1540)
 -->
<!-- Title: dependencies Pages: 1 -->
<svg width="1016pt" height="247pt"
 viewBox="0.00 0.00 1016.00 246.80" xmlns="http://www.w3.org/2000/svg" xmlns:xlink="http://www.w3.org/1999/xlink">
<g id="graph0" class="graph" transform="scale(1 1) rotate(0) translate(4 242.8)">
<title>dependencies</title>
<polygon fill="white" stroke="transparent" points="-4,4 -4,-242.8 1012,-242.8 1012,4 -4,4"/>
<text text-anchor="middle" x="504" y="-8.2" font-family="sans-serif" font-size="14.00">dependencies</text>
<g id="clust1" class="cluster">
<title>cluster_WidgetsModule</title>
<polygon fill="none" stroke="black" stroke-dasharray="1,5" points="8,-32.8 8,-230.8 1000,-230.8 1000,-32.8 8,-32.8"/>
</g>
<g id="clust6" class="cluster">
<title>cluster_WidgetsModule_exports</title>
<polygon fill="none" stroke="black" points="392,-170.8 392,-222.8 550,-222.8 550,-170.8 392,-170.8"/>
</g>
<g id="clust2" class="cluster">
<title>cluster_WidgetsModule_declarations</title>
<polygon fill="none" stroke="black" points="710,-40.8 710,-92.8 992,-92.8 992,-40.8 710,-40.8"/>
</g>
<g id="clust5" class="cluster">
<title>cluster_WidgetsModule_imports</title>
<polygon fill="none" stroke="black" points="16,-40.8 16,-92.8 702,-92.8 702,-40.8 16,-40.8"/>
</g>
<!-- ErrorComponent -->
<g id="node1" class="node">
<title>ErrorComponent</title>
<polygon fill="#ffffb3" stroke="black" points="984.37,-84.8 873.63,-84.8 873.63,-48.8 984.37,-48.8 984.37,-84.8"/>
<text text-anchor="middle" x="929" y="-62.6" font-family="Times,serif" font-size="14.00">ErrorComponent</text>
</g>
<!-- WidgetsModule -->
<g id="node3" class="node">
<title>WidgetsModule</title>
<polygon fill="#8dd3c7" stroke="black" points="524.21,-149.8 521.21,-153.8 500.21,-153.8 497.21,-149.8 417.79,-149.8 417.79,-113.8 524.21,-113.8 524.21,-149.8"/>
<text text-anchor="middle" x="471" y="-127.6" font-family="Times,serif" font-size="14.00">WidgetsModule</text>
</g>
<!-- ErrorComponent&#45;&gt;WidgetsModule -->
<g id="edge1" class="edge">
<title>ErrorComponent&#45;&gt;WidgetsModule</title>
<path fill="none" stroke="black" d="M929,-84.81C929,-107.29 929,-142.8 929,-142.8 929,-142.8 534.43,-142.8 534.43,-142.8"/>
<polygon fill="black" stroke="black" points="534.43,-139.3 524.43,-142.8 534.43,-146.3 534.43,-139.3"/>
</g>
<!-- WidgetTypeDirective -->
<g id="node2" class="node">
<title>WidgetTypeDirective</title>
<polygon fill="#ffffb3" stroke="black" points="856.06,-84.8 717.94,-84.8 717.94,-48.8 856.06,-48.8 856.06,-84.8"/>
<text text-anchor="middle" x="787" y="-62.6" font-family="Times,serif" font-size="14.00">WidgetTypeDirective</text>
</g>
<!-- WidgetTypeDirective&#45;&gt;WidgetsModule -->
<g id="edge2" class="edge">
<title>WidgetTypeDirective&#45;&gt;WidgetsModule</title>
<path fill="none" stroke="black" d="M787,-84.93C787,-105.37 787,-135.8 787,-135.8 787,-135.8 534.25,-135.8 534.25,-135.8"/>
<polygon fill="black" stroke="black" points="534.25,-132.3 524.25,-135.8 534.25,-139.3 534.25,-132.3"/>
</g>
<!-- WidgetTypeDirective  -->
<g id="node12" class="node">
<title>WidgetTypeDirective </title>
<polygon fill="#fb8072" stroke="black" points="541.56,-214.8 400.44,-214.8 400.44,-178.8 541.56,-178.8 541.56,-214.8"/>
<text text-anchor="middle" x="471" y="-192.6" font-family="Times,serif" font-size="14.00">WidgetTypeDirective </text>
</g>
<!-- WidgetsModule&#45;&gt;WidgetTypeDirective  -->
<g id="edge11" class="edge">
<title>WidgetsModule&#45;&gt;WidgetTypeDirective </title>
<path fill="none" stroke="black" stroke-dasharray="5,2" d="M471,-149.91C471,-149.91 471,-168.79 471,-168.79"/>
<polygon fill="black" stroke="black" points="467.5,-168.79 471,-178.79 474.5,-168.79 467.5,-168.79"/>
</g>
<!-- Calendar -->
<g id="node4" class="node">
<title>Calendar</title>
<polygon fill="#8dd3c7" stroke="black" points="694.03,-84.8 691.03,-88.8 670.03,-88.8 667.03,-84.8 627.97,-84.8 627.97,-48.8 694.03,-48.8 694.03,-84.8"/>
<text text-anchor="middle" x="661" y="-62.6" font-family="Times,serif" font-size="14.00">Calendar</text>
</g>
<!-- Calendar&#45;&gt;WidgetsModule -->
<g id="edge3" class="edge">
<title>Calendar&#45;&gt;WidgetsModule</title>
<path fill="none" stroke="black" d="M661,-85.07C661,-103.36 661,-128.8 661,-128.8 661,-128.8 534.18,-128.8 534.18,-128.8"/>
<polygon fill="black" stroke="black" points="534.18,-125.3 524.18,-128.8 534.18,-132.3 534.18,-125.3"/>
</g>
<!-- Map -->
<g id="node5" class="node">
<title>Map</title>
<polygon fill="#8dd3c7" stroke="black" points="610,-84.8 607,-88.8 586,-88.8 583,-84.8 556,-84.8 556,-48.8 610,-48.8 610,-84.8"/>
<text text-anchor="middle" x="583" y="-62.6" font-family="Times,serif" font-size="14.00">Map</text>
</g>
<!-- Map&#45;&gt;WidgetsModule -->
<g id="edge4" class="edge">
<title>Map&#45;&gt;WidgetsModule</title>
<path fill="none" stroke="black" d="M583,-84.81C583,-100.85 583,-121.8 583,-121.8 583,-121.8 534.38,-121.8 534.38,-121.8"/>
<polygon fill="black" stroke="black" points="534.38,-118.3 524.38,-121.8 534.38,-125.3 534.38,-118.3"/>
</g>
<!-- Parallel -->
<g id="node6" class="node">
<title>Parallel</title>
<polygon fill="#8dd3c7" stroke="black" points="538.26,-84.8 535.26,-88.8 514.26,-88.8 511.26,-84.8 479.74,-84.8 479.74,-48.8 538.26,-48.8 538.26,-84.8"/>
<text text-anchor="middle" x="509" y="-62.6" font-family="Times,serif" font-size="14.00">Parallel</text>
</g>
<!-- Parallel&#45;&gt;WidgetsModule -->
<g id="edge5" class="edge">
<title>Parallel&#45;&gt;WidgetsModule</title>
<path fill="none" stroke="black" d="M501.86,-84.91C501.86,-84.91 501.86,-103.79 501.86,-103.79"/>
<polygon fill="black" stroke="black" points="498.36,-103.79 501.86,-113.79 505.36,-103.79 498.36,-103.79"/>
</g>
<!-- Scatter -->
<g id="node7" class="node">
<title>Scatter</title>
<polygon fill="#8dd3c7" stroke="black" points="461.37,-84.8 458.37,-88.8 437.37,-88.8 434.37,-84.8 406.63,-84.8 406.63,-48.8 461.37,-48.8 461.37,-84.8"/>
<text text-anchor="middle" x="434" y="-62.6" font-family="Times,serif" font-size="14.00">Scatter</text>
</g>
<!-- Scatter&#45;&gt;WidgetsModule -->
<g id="edge6" class="edge">
<title>Scatter&#45;&gt;WidgetsModule</title>
<path fill="none" stroke="black" d="M439.67,-84.91C439.67,-84.91 439.67,-103.79 439.67,-103.79"/>
<polygon fill="black" stroke="black" points="436.17,-103.79 439.67,-113.79 443.17,-103.79 436.17,-103.79"/>
</g>
<!-- SquacapiModule -->
<g id="node8" class="node">
<title>SquacapiModule</title>
<polygon fill="#8dd3c7" stroke="black" points="388.37,-84.8 385.37,-88.8 364.37,-88.8 361.37,-84.8 277.63,-84.8 277.63,-48.8 388.37,-48.8 388.37,-84.8"/>
<text text-anchor="middle" x="333" y="-62.6" font-family="Times,serif" font-size="14.00">SquacapiModule</text>
</g>
<!-- SquacapiModule&#45;&gt;WidgetsModule -->
<g id="edge7" class="edge">
<title>SquacapiModule&#45;&gt;WidgetsModule</title>
<path fill="none" stroke="black" d="M333,-84.81C333,-100.85 333,-121.8 333,-121.8 333,-121.8 407.65,-121.8 407.65,-121.8"/>
<polygon fill="black" stroke="black" points="407.65,-125.3 417.65,-121.8 407.65,-118.3 407.65,-125.3"/>
</g>
<!-- Tabular -->
<g id="node9" class="node">
<title>Tabular</title>
<polygon fill="#8dd3c7" stroke="black" points="259.53,-84.8 256.53,-88.8 235.53,-88.8 232.53,-84.8 200.47,-84.8 200.47,-48.8 259.53,-48.8 259.53,-84.8"/>
<text text-anchor="middle" x="230" y="-62.6" font-family="Times,serif" font-size="14.00">Tabular</text>
</g>
<!-- Tabular&#45;&gt;WidgetsModule -->
<g id="edge8" class="edge">
<title>Tabular&#45;&gt;WidgetsModule</title>
<path fill="none" stroke="black" d="M230,-85.07C230,-103.36 230,-128.8 230,-128.8 230,-128.8 407.81,-128.8 407.81,-128.8"/>
<polygon fill="black" stroke="black" points="407.81,-132.3 417.81,-128.8 407.81,-125.3 407.81,-132.3"/>
</g>
<!-- Timechart -->
<g id="node10" class="node">
<title>Timechart</title>
<polygon fill="#8dd3c7" stroke="black" points="181.53,-84.8 178.53,-88.8 157.53,-88.8 154.53,-84.8 108.47,-84.8 108.47,-48.8 181.53,-48.8 181.53,-84.8"/>
<text text-anchor="middle" x="145" y="-62.6" font-family="Times,serif" font-size="14.00">Timechart</text>
</g>
<!-- Timechart&#45;&gt;WidgetsModule -->
<g id="edge9" class="edge">
<title>Timechart&#45;&gt;WidgetsModule</title>
<path fill="none" stroke="black" d="M145,-84.93C145,-105.37 145,-135.8 145,-135.8 145,-135.8 407.53,-135.8 407.53,-135.8"/>
<polygon fill="black" stroke="black" points="407.53,-139.3 417.53,-135.8 407.53,-132.3 407.53,-139.3"/>
</g>
<!-- Timeline -->
<g id="node11" class="node">
<title>Timeline</title>
<polygon fill="#8dd3c7" stroke="black" points="90.04,-84.8 87.04,-88.8 66.04,-88.8 63.04,-84.8 23.96,-84.8 23.96,-48.8 90.04,-48.8 90.04,-84.8"/>
<text text-anchor="middle" x="57" y="-62.6" font-family="Times,serif" font-size="14.00">Timeline</text>
</g>
<!-- Timeline&#45;&gt;WidgetsModule -->
<g id="edge10" class="edge">
<title>Timeline&#45;&gt;WidgetsModule</title>
<path fill="none" stroke="black" d="M57,-84.81C57,-107.29 57,-142.8 57,-142.8 57,-142.8 407.72,-142.8 407.72,-142.8"/>
<polygon fill="black" stroke="black" points="407.72,-146.3 417.72,-142.8 407.72,-139.3 407.72,-146.3"/>
</g>
</g>
</svg>
