<?xml version="1.0" encoding="UTF-8" standalone="no"?>
<!DOCTYPE svg PUBLIC "-//W3C//DTD SVG 1.1//EN"
 "http://www.w3.org/Graphics/SVG/1.1/DTD/svg11.dtd">
<!-- Generated by graphviz version 5.0.0 (20220707.1540)
 -->
<!-- Title: dependencies Pages: 1 -->
<svg width="888pt" height="247pt"
 viewBox="0.00 0.00 888.00 246.80" xmlns="http://www.w3.org/2000/svg" xmlns:xlink="http://www.w3.org/1999/xlink">
<g id="graph0" class="graph" transform="scale(1 1) rotate(0) translate(4 242.8)">
<title>dependencies</title>
<polygon fill="white" stroke="transparent" points="-4,4 -4,-242.8 884,-242.8 884,4 -4,4"/>
<text text-anchor="middle" x="440" y="-8.2" font-family="sans-serif" font-size="14.00">dependencies</text>
<g id="clust1" class="cluster">
<title>cluster_WidgetsModule</title>
<polygon fill="none" stroke="black" stroke-dasharray="1,5" points="8,-32.8 8,-230.8 872,-230.8 872,-32.8 8,-32.8"/>
</g>
<g id="clust5" class="cluster">
<title>cluster_WidgetsModule_exports</title>
<polygon fill="none" stroke="black" points="355,-170.8 355,-222.8 513,-222.8 513,-170.8 355,-170.8"/>
</g>
<g id="clust2" class="cluster">
<title>cluster_WidgetsModule_declarations</title>
<polygon fill="none" stroke="black" points="710,-40.8 710,-92.8 864,-92.8 864,-40.8 710,-40.8"/>
</g>
<g id="clust4" class="cluster">
<title>cluster_WidgetsModule_imports</title>
<polygon fill="none" stroke="black" points="16,-40.8 16,-92.8 702,-92.8 702,-40.8 16,-40.8"/>
</g>
<!-- WidgetTypeDirective -->
<g id="node1" class="node">
<title>WidgetTypeDirective</title>
<polygon fill="#ffffb3" stroke="black" points="856.06,-84.8 717.94,-84.8 717.94,-48.8 856.06,-48.8 856.06,-84.8"/>
<text text-anchor="middle" x="787" y="-62.6" font-family="Times,serif" font-size="14.00">WidgetTypeDirective</text>
</g>
<!-- WidgetsModule -->
<g id="node2" class="node">
<title>WidgetsModule</title>
<polygon fill="#8dd3c7" stroke="black" points="487.21,-149.8 484.21,-153.8 463.21,-153.8 460.21,-149.8 380.79,-149.8 380.79,-113.8 487.21,-113.8 487.21,-149.8"/>
<text text-anchor="middle" x="434" y="-127.6" font-family="Times,serif" font-size="14.00">WidgetsModule</text>
</g>
<!-- WidgetTypeDirective&#45;&gt;WidgetsModule -->
<g id="edge1" class="edge">
<title>WidgetTypeDirective&#45;&gt;WidgetsModule</title>
<path fill="none" stroke="black" d="M787,-85.09C787,-107.01 787,-140.8 787,-140.8 787,-140.8 497.23,-140.8 497.23,-140.8"/>
<polygon fill="black" stroke="black" points="497.23,-137.3 487.23,-140.8 497.23,-144.3 497.23,-137.3"/>
</g>
<!-- WidgetTypeDirective  -->
<g id="node11" class="node">
<title>WidgetTypeDirective </title>
<polygon fill="#fb8072" stroke="black" points="504.56,-214.8 363.44,-214.8 363.44,-178.8 504.56,-178.8 504.56,-214.8"/>
<text text-anchor="middle" x="434" y="-192.6" font-family="Times,serif" font-size="14.00">WidgetTypeDirective </text>
</g>
<!-- WidgetsModule&#45;&gt;WidgetTypeDirective  -->
<g id="edge10" class="edge">
<title>WidgetsModule&#45;&gt;WidgetTypeDirective </title>
<path fill="none" stroke="black" stroke-dasharray="5,2" d="M434,-149.91C434,-149.91 434,-168.79 434,-168.79"/>
<polygon fill="black" stroke="black" points="430.5,-168.79 434,-178.79 437.5,-168.79 430.5,-168.79"/>
</g>
<!-- Calendar -->
<g id="node3" class="node">
<title>Calendar</title>
<polygon fill="#8dd3c7" stroke="black" points="694.03,-84.8 691.03,-88.8 670.03,-88.8 667.03,-84.8 627.97,-84.8 627.97,-48.8 694.03,-48.8 694.03,-84.8"/>
<text text-anchor="middle" x="661" y="-62.6" font-family="Times,serif" font-size="14.00">Calendar</text>
</g>
<!-- Calendar&#45;&gt;WidgetsModule -->
<g id="edge2" class="edge">
<title>Calendar&#45;&gt;WidgetsModule</title>
<path fill="none" stroke="black" d="M661,-84.91C661,-104.14 661,-131.8 661,-131.8 661,-131.8 497.22,-131.8 497.22,-131.8"/>
<polygon fill="black" stroke="black" points="497.22,-128.3 487.22,-131.8 497.22,-135.3 497.22,-128.3"/>
</g>
<!-- Map -->
<g id="node4" class="node">
<title>Map</title>
<polygon fill="#8dd3c7" stroke="black" points="610,-84.8 607,-88.8 586,-88.8 583,-84.8 556,-84.8 556,-48.8 610,-48.8 610,-84.8"/>
<text text-anchor="middle" x="583" y="-62.6" font-family="Times,serif" font-size="14.00">Map</text>
</g>
<!-- Map&#45;&gt;WidgetsModule -->
<g id="edge3" class="edge">
<title>Map&#45;&gt;WidgetsModule</title>
<path fill="none" stroke="black" d="M583,-84.83C583,-101.2 583,-122.8 583,-122.8 583,-122.8 497.37,-122.8 497.37,-122.8"/>
<polygon fill="black" stroke="black" points="497.37,-119.3 487.37,-122.8 497.37,-126.3 497.37,-119.3"/>
</g>
<!-- Parallel -->
<g id="node5" class="node">
<title>Parallel</title>
<polygon fill="#8dd3c7" stroke="black" points="538.26,-84.8 535.26,-88.8 514.26,-88.8 511.26,-84.8 479.74,-84.8 479.74,-48.8 538.26,-48.8 538.26,-84.8"/>
<text text-anchor="middle" x="509" y="-62.6" font-family="Times,serif" font-size="14.00">Parallel</text>
</g>
<!-- Parallel&#45;&gt;WidgetsModule -->
<g id="edge4" class="edge">
<title>Parallel&#45;&gt;WidgetsModule</title>
<path fill="none" stroke="black" d="M483.36,-84.91C483.36,-84.91 483.36,-103.79 483.36,-103.79"/>
<polygon fill="black" stroke="black" points="479.86,-103.79 483.36,-113.79 486.86,-103.79 479.86,-103.79"/>
</g>
<!-- Scatter -->
<g id="node6" class="node">
<title>Scatter</title>
<polygon fill="#8dd3c7" stroke="black" points="461.37,-84.8 458.37,-88.8 437.37,-88.8 434.37,-84.8 406.63,-84.8 406.63,-48.8 461.37,-48.8 461.37,-84.8"/>
<text text-anchor="middle" x="434" y="-62.6" font-family="Times,serif" font-size="14.00">Scatter</text>
</g>
<!-- Scatter&#45;&gt;WidgetsModule -->
<g id="edge5" class="edge">
<title>Scatter&#45;&gt;WidgetsModule</title>
<path fill="none" stroke="black" d="M434,-84.91C434,-84.91 434,-103.79 434,-103.79"/>
<polygon fill="black" stroke="black" points="430.5,-103.79 434,-113.79 437.5,-103.79 430.5,-103.79"/>
</g>
<!-- SquacapiModule -->
<g id="node7" class="node">
<title>SquacapiModule</title>
<polygon fill="#8dd3c7" stroke="black" points="388.37,-84.8 385.37,-88.8 364.37,-88.8 361.37,-84.8 277.63,-84.8 277.63,-48.8 388.37,-48.8 388.37,-84.8"/>
<text text-anchor="middle" x="333" y="-62.6" font-family="Times,serif" font-size="14.00">SquacapiModule</text>
</g>
<!-- SquacapiModule&#45;&gt;WidgetsModule -->
<g id="edge6" class="edge">
<title>SquacapiModule&#45;&gt;WidgetsModule</title>
<path fill="none" stroke="black" d="M384.67,-84.91C384.67,-84.91 384.67,-103.79 384.67,-103.79"/>
<polygon fill="black" stroke="black" points="381.17,-103.79 384.67,-113.79 388.17,-103.79 381.17,-103.79"/>
</g>
<!-- Tabular -->
<g id="node8" class="node">
<title>Tabular</title>
<polygon fill="#8dd3c7" stroke="black" points="259.53,-84.8 256.53,-88.8 235.53,-88.8 232.53,-84.8 200.47,-84.8 200.47,-48.8 259.53,-48.8 259.53,-84.8"/>
<text text-anchor="middle" x="230" y="-62.6" font-family="Times,serif" font-size="14.00">Tabular</text>
</g>
<!-- Tabular&#45;&gt;WidgetsModule -->
<g id="edge7" class="edge">
<title>Tabular&#45;&gt;WidgetsModule</title>
<path fill="none" stroke="black" d="M230,-84.83C230,-101.2 230,-122.8 230,-122.8 230,-122.8 370.67,-122.8 370.67,-122.8"/>
<polygon fill="black" stroke="black" points="370.67,-126.3 380.67,-122.8 370.67,-119.3 370.67,-126.3"/>
</g>
<!-- Timechart -->
<g id="node9" class="node">
<title>Timechart</title>
<polygon fill="#8dd3c7" stroke="black" points="181.53,-84.8 178.53,-88.8 157.53,-88.8 154.53,-84.8 108.47,-84.8 108.47,-48.8 181.53,-48.8 181.53,-84.8"/>
<text text-anchor="middle" x="145" y="-62.6" font-family="Times,serif" font-size="14.00">Timechart</text>
</g>
<!-- Timechart&#45;&gt;WidgetsModule -->
<g id="edge8" class="edge">
<title>Timechart&#45;&gt;WidgetsModule</title>
<path fill="none" stroke="black" d="M145,-84.91C145,-104.14 145,-131.8 145,-131.8 145,-131.8 370.66,-131.8 370.66,-131.8"/>
<polygon fill="black" stroke="black" points="370.66,-135.3 380.66,-131.8 370.66,-128.3 370.66,-135.3"/>
</g>
<!-- Timeline -->
<g id="node10" class="node">
<title>Timeline</title>
<polygon fill="#8dd3c7" stroke="black" points="90.04,-84.8 87.04,-88.8 66.04,-88.8 63.04,-84.8 23.96,-84.8 23.96,-48.8 90.04,-48.8 90.04,-84.8"/>
<text text-anchor="middle" x="57" y="-62.6" font-family="Times,serif" font-size="14.00">Timeline</text>
</g>
<!-- Timeline&#45;&gt;WidgetsModule -->
<g id="edge9" class="edge">
<title>Timeline&#45;&gt;WidgetsModule</title>
<path fill="none" stroke="black" d="M57,-85.09C57,-107.01 57,-140.8 57,-140.8 57,-140.8 370.78,-140.8 370.78,-140.8"/>
<polygon fill="black" stroke="black" points="370.78,-144.3 380.78,-140.8 370.78,-137.3 370.78,-144.3"/>
</g>
</g>
</svg>
