<?xml version="1.0" encoding="UTF-8" standalone="no"?>
<!DOCTYPE svg PUBLIC "-//W3C//DTD SVG 1.1//EN"
 "http://www.w3.org/Graphics/SVG/1.1/DTD/svg11.dtd">
<!-- Generated by graphviz version 5.0.0 (20220707.1540)
 -->
<!-- Title: dependencies Pages: 1 -->
<svg width="888pt" height="247pt"
 viewBox="0.00 0.00 888.00 246.80" xmlns="http://www.w3.org/2000/svg" xmlns:xlink="http://www.w3.org/1999/xlink">
<g id="graph0" class="graph" transform="scale(1 1) rotate(0) translate(4 242.8)">
<title>dependencies</title>
<polygon fill="white" stroke="transparent" points="-4,4 -4,-242.8 884,-242.8 884,4 -4,4"/>
<text text-anchor="middle" x="440" y="-8.2" font-family="sans-serif" font-size="14.00">dependencies</text>
<g id="clust1" class="cluster">
<title>cluster_WidgetsModule</title>
<polygon fill="none" stroke="black" stroke-dasharray="1,5" points="8,-32.8 8,-230.8 872,-230.8 872,-32.8 8,-32.8"/>
</g>
<g id="clust5" class="cluster">
<title>cluster_WidgetsModule_exports</title>
<polygon fill="none" stroke="black" points="416,-170.8 416,-222.8 574,-222.8 574,-170.8 416,-170.8"/>
</g>
<g id="clust4" class="cluster">
<title>cluster_WidgetsModule_imports</title>
<polygon fill="none" stroke="black" points="178,-40.8 178,-92.8 864,-92.8 864,-40.8 178,-40.8"/>
</g>
<g id="clust2" class="cluster">
<title>cluster_WidgetsModule_declarations</title>
<polygon fill="none" stroke="black" points="16,-40.8 16,-92.8 170,-92.8 170,-40.8 16,-40.8"/>
</g>
<!-- WidgetTypeDirective -->
<g id="node1" class="node">
<title>WidgetTypeDirective</title>
<polygon fill="#ffffb3" stroke="black" points="162.06,-84.8 23.94,-84.8 23.94,-48.8 162.06,-48.8 162.06,-84.8"/>
<text text-anchor="middle" x="93" y="-62.6" font-family="Times,serif" font-size="14.00">WidgetTypeDirective</text>
</g>
<!-- WidgetsModule -->
<g id="node2" class="node">
<title>WidgetsModule</title>
<polygon fill="#8dd3c7" stroke="black" points="548.21,-149.8 545.21,-153.8 524.21,-153.8 521.21,-149.8 441.79,-149.8 441.79,-113.8 548.21,-113.8 548.21,-149.8"/>
<text text-anchor="middle" x="495" y="-127.6" font-family="Times,serif" font-size="14.00">WidgetsModule</text>
</g>
<!-- WidgetTypeDirective&#45;&gt;WidgetsModule -->
<g id="edge1" class="edge">
<title>WidgetTypeDirective&#45;&gt;WidgetsModule</title>
<path fill="none" stroke="black" d="M93,-84.81C93,-107.29 93,-142.8 93,-142.8 93,-142.8 431.62,-142.8 431.62,-142.8"/>
<polygon fill="black" stroke="black" points="431.62,-146.3 441.62,-142.8 431.62,-139.3 431.62,-146.3"/>
</g>
<!-- WidgetTypeDirective  -->
<g id="node11" class="node">
<title>WidgetTypeDirective </title>
<polygon fill="#fb8072" stroke="black" points="565.56,-214.8 424.44,-214.8 424.44,-178.8 565.56,-178.8 565.56,-214.8"/>
<text text-anchor="middle" x="495" y="-192.6" font-family="Times,serif" font-size="14.00">WidgetTypeDirective </text>
</g>
<!-- WidgetsModule&#45;&gt;WidgetTypeDirective  -->
<g id="edge10" class="edge">
<title>WidgetsModule&#45;&gt;WidgetTypeDirective </title>
<path fill="none" stroke="black" stroke-dasharray="5,2" d="M495,-149.91C495,-149.91 495,-168.79 495,-168.79"/>
<polygon fill="black" stroke="black" points="491.5,-168.79 495,-178.79 498.5,-168.79 491.5,-168.79"/>
</g>
<!-- Calendar -->
<g id="node3" class="node">
<title>Calendar</title>
<polygon fill="#8dd3c7" stroke="black" points="856.03,-84.8 853.03,-88.8 832.03,-88.8 829.03,-84.8 789.97,-84.8 789.97,-48.8 856.03,-48.8 856.03,-84.8"/>
<text text-anchor="middle" x="823" y="-62.6" font-family="Times,serif" font-size="14.00">Calendar</text>
</g>
<!-- Calendar&#45;&gt;WidgetsModule -->
<g id="edge2" class="edge">
<title>Calendar&#45;&gt;WidgetsModule</title>
<path fill="none" stroke="black" d="M823,-84.81C823,-107.29 823,-142.8 823,-142.8 823,-142.8 558.43,-142.8 558.43,-142.8"/>
<polygon fill="black" stroke="black" points="558.43,-139.3 548.43,-142.8 558.43,-146.3 558.43,-139.3"/>
</g>
<!-- Map -->
<g id="node4" class="node">
<title>Map</title>
<polygon fill="#8dd3c7" stroke="black" points="772,-84.8 769,-88.8 748,-88.8 745,-84.8 718,-84.8 718,-48.8 772,-48.8 772,-84.8"/>
<text text-anchor="middle" x="745" y="-62.6" font-family="Times,serif" font-size="14.00">Map</text>
</g>
<!-- Map&#45;&gt;WidgetsModule -->
<g id="edge3" class="edge">
<title>Map&#45;&gt;WidgetsModule</title>
<path fill="none" stroke="black" d="M745,-84.93C745,-105.37 745,-135.8 745,-135.8 745,-135.8 558.32,-135.8 558.32,-135.8"/>
<polygon fill="black" stroke="black" points="558.32,-132.3 548.32,-135.8 558.32,-139.3 558.32,-132.3"/>
</g>
<!-- Parallel -->
<g id="node5" class="node">
<title>Parallel</title>
<polygon fill="#8dd3c7" stroke="black" points="700.26,-84.8 697.26,-88.8 676.26,-88.8 673.26,-84.8 641.74,-84.8 641.74,-48.8 700.26,-48.8 700.26,-84.8"/>
<text text-anchor="middle" x="671" y="-62.6" font-family="Times,serif" font-size="14.00">Parallel</text>
</g>
<!-- Parallel&#45;&gt;WidgetsModule -->
<g id="edge4" class="edge">
<title>Parallel&#45;&gt;WidgetsModule</title>
<path fill="none" stroke="black" d="M671,-85.07C671,-103.36 671,-128.8 671,-128.8 671,-128.8 558.28,-128.8 558.28,-128.8"/>
<polygon fill="black" stroke="black" points="558.28,-125.3 548.28,-128.8 558.28,-132.3 558.28,-125.3"/>
</g>
<!-- Scatter -->
<g id="node6" class="node">
<title>Scatter</title>
<polygon fill="#8dd3c7" stroke="black" points="623.37,-84.8 620.37,-88.8 599.37,-88.8 596.37,-84.8 568.63,-84.8 568.63,-48.8 623.37,-48.8 623.37,-84.8"/>
<text text-anchor="middle" x="596" y="-62.6" font-family="Times,serif" font-size="14.00">Scatter</text>
</g>
<!-- Scatter&#45;&gt;WidgetsModule -->
<g id="edge5" class="edge">
<title>Scatter&#45;&gt;WidgetsModule</title>
<path fill="none" stroke="black" d="M596,-84.81C596,-100.85 596,-121.8 596,-121.8 596,-121.8 558.16,-121.8 558.16,-121.8"/>
<polygon fill="black" stroke="black" points="558.16,-118.3 548.16,-121.8 558.16,-125.3 558.16,-118.3"/>
</g>
<!-- SquacapiModule -->
<g id="node7" class="node">
<title>SquacapiModule</title>
<polygon fill="#8dd3c7" stroke="black" points="550.37,-84.8 547.37,-88.8 526.37,-88.8 523.37,-84.8 439.63,-84.8 439.63,-48.8 550.37,-48.8 550.37,-84.8"/>
<text text-anchor="middle" x="495" y="-62.6" font-family="Times,serif" font-size="14.00">SquacapiModule</text>
</g>
<!-- SquacapiModule&#45;&gt;WidgetsModule -->
<g id="edge6" class="edge">
<title>SquacapiModule&#45;&gt;WidgetsModule</title>
<path fill="none" stroke="black" d="M495,-84.91C495,-84.91 495,-103.79 495,-103.79"/>
<polygon fill="black" stroke="black" points="491.5,-103.79 495,-113.79 498.5,-103.79 491.5,-103.79"/>
</g>
<!-- Tabular -->
<g id="node8" class="node">
<title>Tabular</title>
<polygon fill="#8dd3c7" stroke="black" points="421.53,-84.8 418.53,-88.8 397.53,-88.8 394.53,-84.8 362.47,-84.8 362.47,-48.8 421.53,-48.8 421.53,-84.8"/>
<text text-anchor="middle" x="392" y="-62.6" font-family="Times,serif" font-size="14.00">Tabular</text>
</g>
<!-- Tabular&#45;&gt;WidgetsModule -->
<g id="edge7" class="edge">
<title>Tabular&#45;&gt;WidgetsModule</title>
<path fill="none" stroke="black" d="M392,-84.81C392,-100.85 392,-121.8 392,-121.8 392,-121.8 431.69,-121.8 431.69,-121.8"/>
<polygon fill="black" stroke="black" points="431.69,-125.3 441.69,-121.8 431.69,-118.3 431.69,-125.3"/>
</g>
<!-- Timechart -->
<g id="node9" class="node">
<title>Timechart</title>
<polygon fill="#8dd3c7" stroke="black" points="343.53,-84.8 340.53,-88.8 319.53,-88.8 316.53,-84.8 270.47,-84.8 270.47,-48.8 343.53,-48.8 343.53,-84.8"/>
<text text-anchor="middle" x="307" y="-62.6" font-family="Times,serif" font-size="14.00">Timechart</text>
</g>
<!-- Timechart&#45;&gt;WidgetsModule -->
<g id="edge8" class="edge">
<title>Timechart&#45;&gt;WidgetsModule</title>
<path fill="none" stroke="black" d="M307,-85.07C307,-103.36 307,-128.8 307,-128.8 307,-128.8 431.88,-128.8 431.88,-128.8"/>
<polygon fill="black" stroke="black" points="431.88,-132.3 441.88,-128.8 431.88,-125.3 431.88,-132.3"/>
</g>
<!-- Timeline -->
<g id="node10" class="node">
<title>Timeline</title>
<polygon fill="#8dd3c7" stroke="black" points="252.04,-84.8 249.04,-88.8 228.04,-88.8 225.04,-84.8 185.96,-84.8 185.96,-48.8 252.04,-48.8 252.04,-84.8"/>
<text text-anchor="middle" x="219" y="-62.6" font-family="Times,serif" font-size="14.00">Timeline</text>
</g>
<!-- Timeline&#45;&gt;WidgetsModule -->
<g id="edge9" class="edge">
<title>Timeline&#45;&gt;WidgetsModule</title>
<path fill="none" stroke="black" d="M219,-84.93C219,-105.37 219,-135.8 219,-135.8 219,-135.8 431.78,-135.8 431.78,-135.8"/>
<polygon fill="black" stroke="black" points="431.78,-139.3 441.78,-135.8 431.78,-132.3 431.78,-139.3"/>
</g>
</g>
</svg>
