<?xml version="1.0" encoding="UTF-8" standalone="no"?>
<!DOCTYPE svg PUBLIC "-//W3C//DTD SVG 1.1//EN"
 "http://www.w3.org/Graphics/SVG/1.1/DTD/svg11.dtd">
<!-- Generated by graphviz version 5.0.0 (20220707.1540)
 -->
<!-- Title: dependencies Pages: 1 -->
<svg width="320pt" height="247pt"
 viewBox="0.00 0.00 320.00 246.80" xmlns="http://www.w3.org/2000/svg" xmlns:xlink="http://www.w3.org/1999/xlink">
<g id="graph0" class="graph" transform="scale(1 1) rotate(0) translate(4 242.8)">
<title>dependencies</title>
<polygon fill="white" stroke="transparent" points="-4,4 -4,-242.8 316,-242.8 316,4 -4,4"/>
<text text-anchor="middle" x="156" y="-8.2" font-family="sans-serif" font-size="14.00">dependencies</text>
<g id="clust1" class="cluster">
<title>cluster_ScatterModule</title>
<polygon fill="none" stroke="black" stroke-dasharray="1,5" points="8,-32.8 8,-230.8 304,-230.8 304,-32.8 8,-32.8"/>
</g>
<g id="clust5" class="cluster">
<title>cluster_ScatterModule_exports</title>
<polygon fill="none" stroke="black" points="75,-170.8 75,-222.8 237,-222.8 237,-170.8 75,-170.8"/>
</g>
<g id="clust2" class="cluster">
<title>cluster_ScatterModule_declarations</title>
<polygon fill="none" stroke="black" points="138,-40.8 138,-92.8 296,-92.8 296,-40.8 138,-40.8"/>
</g>
<g id="clust4" class="cluster">
<title>cluster_ScatterModule_imports</title>
<polygon fill="none" stroke="black" points="16,-40.8 16,-92.8 130,-92.8 130,-40.8 16,-40.8"/>
</g>
<!-- ScatterPlotComponent -->
<g id="node1" class="node">
<title>ScatterPlotComponent</title>
<polygon fill="#ffffb3" stroke="black" points="288.27,-84.8 145.73,-84.8 145.73,-48.8 288.27,-48.8 288.27,-84.8"/>
<text text-anchor="middle" x="217" y="-62.6" font-family="Times,serif" font-size="14.00">ScatterPlotComponent</text>
</g>
<!-- ScatterModule -->
<g id="node2" class="node">
<title>ScatterModule</title>
<polygon fill="#8dd3c7" stroke="black" points="205.42,-149.8 202.42,-153.8 181.42,-153.8 178.42,-149.8 106.58,-149.8 106.58,-113.8 205.42,-113.8 205.42,-149.8"/>
<text text-anchor="middle" x="156" y="-127.6" font-family="Times,serif" font-size="14.00">ScatterModule</text>
</g>
<!-- ScatterPlotComponent&#45;&gt;ScatterModule -->
<g id="edge1" class="edge">
<title>ScatterPlotComponent&#45;&gt;ScatterModule</title>
<path fill="none" stroke="black" d="M175.41,-84.91C175.41,-84.91 175.41,-103.79 175.41,-103.79"/>
<polygon fill="black" stroke="black" points="171.91,-103.79 175.41,-113.79 178.91,-103.79 171.91,-103.79"/>
</g>
<!-- ScatterPlotComponent  -->
<g id="node4" class="node">
<title>ScatterPlotComponent </title>
<polygon fill="#fb8072" stroke="black" points="229.27,-214.8 82.73,-214.8 82.73,-178.8 229.27,-178.8 229.27,-214.8"/>
<text text-anchor="middle" x="156" y="-192.6" font-family="Times,serif" font-size="14.00">ScatterPlotComponent </text>
</g>
<!-- ScatterModule&#45;&gt;ScatterPlotComponent  -->
<g id="edge3" class="edge">
<title>ScatterModule&#45;&gt;ScatterPlotComponent </title>
<path fill="none" stroke="black" stroke-dasharray="5,2" d="M156,-149.91C156,-149.91 156,-168.79 156,-168.79"/>
<polygon fill="black" stroke="black" points="152.5,-168.79 156,-178.79 159.5,-168.79 152.5,-168.79"/>
</g>
<!-- SharedModule -->
<g id="node3" class="node">
<title>SharedModule</title>
<polygon fill="#8dd3c7" stroke="black" points="122.43,-84.8 119.43,-88.8 98.43,-88.8 95.43,-84.8 23.57,-84.8 23.57,-48.8 122.43,-48.8 122.43,-84.8"/>
<text text-anchor="middle" x="73" y="-62.6" font-family="Times,serif" font-size="14.00">SharedModule</text>
</g>
<!-- SharedModule&#45;&gt;ScatterModule -->
<g id="edge2" class="edge">
<title>SharedModule&#45;&gt;ScatterModule</title>
<path fill="none" stroke="black" d="M114.5,-84.91C114.5,-84.91 114.5,-103.79 114.5,-103.79"/>
<polygon fill="black" stroke="black" points="111,-103.79 114.5,-113.79 118,-103.79 111,-103.79"/>
</g>
</g>
</svg>
