<?xml version="1.0" encoding="UTF-8" standalone="no"?>
<!DOCTYPE svg PUBLIC "-//W3C//DTD SVG 1.1//EN"
 "http://www.w3.org/Graphics/SVG/1.1/DTD/svg11.dtd">
<!-- Generated by graphviz version 5.0.0 (20220707.1540)
 -->
<!-- Title: dependencies Pages: 1 -->
<svg width="310pt" height="247pt"
 viewBox="0.00 0.00 310.00 246.80" xmlns="http://www.w3.org/2000/svg" xmlns:xlink="http://www.w3.org/1999/xlink">
<g id="graph0" class="graph" transform="scale(1 1) rotate(0) translate(4 242.8)">
<title>dependencies</title>
<polygon fill="white" stroke="transparent" points="-4,4 -4,-242.8 306,-242.8 306,4 -4,4"/>
<text text-anchor="middle" x="151" y="-8.2" font-family="sans-serif" font-size="14.00">dependencies</text>
<g id="clust1" class="cluster">
<title>cluster_TimelineModule</title>
<polygon fill="none" stroke="black" stroke-dasharray="1,5" points="8,-32.8 8,-230.8 294,-230.8 294,-32.8 8,-32.8"/>
</g>
<g id="clust2" class="cluster">
<title>cluster_TimelineModule_declarations</title>
<polygon fill="none" stroke="black" points="138,-40.8 138,-92.8 286,-92.8 286,-40.8 138,-40.8"/>
</g>
<g id="clust4" class="cluster">
<title>cluster_TimelineModule_imports</title>
<polygon fill="none" stroke="black" points="16,-40.8 16,-92.8 130,-92.8 130,-40.8 16,-40.8"/>
</g>
<g id="clust5" class="cluster">
<title>cluster_TimelineModule_exports</title>
<polygon fill="none" stroke="black" points="75,-170.8 75,-222.8 227,-222.8 227,-170.8 75,-170.8"/>
</g>
<!-- TimelineComponent -->
<g id="node1" class="node">
<title>TimelineComponent</title>
<polygon fill="#ffffb3" stroke="black" points="277.87,-84.8 146.13,-84.8 146.13,-48.8 277.87,-48.8 277.87,-84.8"/>
<text text-anchor="middle" x="212" y="-62.6" font-family="Times,serif" font-size="14.00">TimelineComponent</text>
</g>
<!-- TimelineModule -->
<g id="node2" class="node">
<title>TimelineModule</title>
<polygon fill="#8dd3c7" stroke="black" points="206.09,-149.8 203.09,-153.8 182.09,-153.8 179.09,-149.8 95.91,-149.8 95.91,-113.8 206.09,-113.8 206.09,-149.8"/>
<text text-anchor="middle" x="151" y="-127.6" font-family="Times,serif" font-size="14.00">TimelineModule</text>
</g>
<!-- TimelineComponent&#45;&gt;TimelineModule -->
<g id="edge1" class="edge">
<title>TimelineComponent&#45;&gt;TimelineModule</title>
<path fill="none" stroke="black" d="M176.06,-84.91C176.06,-84.91 176.06,-103.79 176.06,-103.79"/>
<polygon fill="black" stroke="black" points="172.56,-103.79 176.06,-113.79 179.56,-103.79 172.56,-103.79"/>
</g>
<!-- TimelineComponent  -->
<g id="node4" class="node">
<title>TimelineComponent </title>
<polygon fill="#fb8072" stroke="black" points="218.87,-214.8 83.13,-214.8 83.13,-178.8 218.87,-178.8 218.87,-214.8"/>
<text text-anchor="middle" x="151" y="-192.6" font-family="Times,serif" font-size="14.00">TimelineComponent </text>
</g>
<!-- TimelineModule&#45;&gt;TimelineComponent  -->
<g id="edge3" class="edge">
<title>TimelineModule&#45;&gt;TimelineComponent </title>
<path fill="none" stroke="black" stroke-dasharray="5,2" d="M151,-149.91C151,-149.91 151,-168.79 151,-168.79"/>
<polygon fill="black" stroke="black" points="147.5,-168.79 151,-178.79 154.5,-168.79 147.5,-168.79"/>
</g>
<!-- SharedModule -->
<g id="node3" class="node">
<title>SharedModule</title>
<polygon fill="#8dd3c7" stroke="black" points="122.43,-84.8 119.43,-88.8 98.43,-88.8 95.43,-84.8 23.57,-84.8 23.57,-48.8 122.43,-48.8 122.43,-84.8"/>
<text text-anchor="middle" x="73" y="-62.6" font-family="Times,serif" font-size="14.00">SharedModule</text>
</g>
<!-- SharedModule&#45;&gt;TimelineModule -->
<g id="edge2" class="edge">
<title>SharedModule&#45;&gt;TimelineModule</title>
<path fill="none" stroke="black" d="M109.08,-84.91C109.08,-84.91 109.08,-103.79 109.08,-103.79"/>
<polygon fill="black" stroke="black" points="105.58,-103.79 109.08,-113.79 112.58,-103.79 105.58,-103.79"/>
</g>
</g>
</svg>
