<?xml version="1.0" encoding="UTF-8" standalone="no"?>
<!DOCTYPE svg PUBLIC "-//W3C//DTD SVG 1.1//EN"
 "http://www.w3.org/Graphics/SVG/1.1/DTD/svg11.dtd">
<!-- Generated by graphviz version 5.0.0 (20220707.1540)
 -->
<!-- Title: dependencies Pages: 1 -->
<svg width="1521pt" height="247pt"
 viewBox="0.00 0.00 1521.00 246.80" xmlns="http://www.w3.org/2000/svg" xmlns:xlink="http://www.w3.org/1999/xlink">
<g id="graph0" class="graph" transform="scale(1 1) rotate(0) translate(4 242.8)">
<title>dependencies</title>
<polygon fill="white" stroke="transparent" points="-4,4 -4,-242.8 1517,-242.8 1517,4 -4,4"/>
<text text-anchor="middle" x="756.5" y="-8.2" font-family="sans-serif" font-size="14.00">dependencies</text>
<g id="clust1" class="cluster">
<title>cluster_AppModule</title>
<polygon fill="none" stroke="black" stroke-dasharray="1,5" points="8,-32.8 8,-230.8 1505,-230.8 1505,-32.8 8,-32.8"/>
</g>
<g id="clust8" class="cluster">
<title>cluster_AppModule_imports</title>
<polygon fill="none" stroke="black" points="1236,-40.8 1236,-92.8 1497,-92.8 1497,-40.8 1236,-40.8"/>
</g>
<g id="clust2" class="cluster">
<title>cluster_AppModule_declarations</title>
<polygon fill="none" stroke="black" points="558,-40.8 558,-92.8 1228,-92.8 1228,-40.8 558,-40.8"/>
</g>
<g id="clust11" class="cluster">
<title>cluster_AppModule_providers</title>
<polygon fill="none" stroke="black" points="16,-40.8 16,-92.8 550,-92.8 550,-40.8 16,-40.8"/>
</g>
<g id="clust10" class="cluster">
<title>cluster_AppModule_bootstrap</title>
<polygon fill="none" stroke="black" points="783,-170.8 783,-222.8 907,-222.8 907,-170.8 783,-170.8"/>
</g>
<!-- AppComponent -->
<g id="node1" class="node">
<title>AppComponent</title>
<polygon fill="#ffffb3" stroke="black" points="1219.94,-84.8 1114.06,-84.8 1114.06,-48.8 1219.94,-48.8 1219.94,-84.8"/>
<text text-anchor="middle" x="1167" y="-62.6" font-family="Times,serif" font-size="14.00">AppComponent</text>
</g>
<!-- AppModule -->
<g id="node6" class="node">
<title>AppModule</title>
<polygon fill="#8dd3c7" stroke="black" points="886.66,-149.8 883.66,-153.8 862.66,-153.8 859.66,-149.8 803.34,-149.8 803.34,-113.8 886.66,-113.8 886.66,-149.8"/>
<text text-anchor="middle" x="845" y="-127.6" font-family="Times,serif" font-size="14.00">AppModule</text>
</g>
<!-- AppComponent&#45;&gt;AppModule -->
<g id="edge1" class="edge">
<title>AppComponent&#45;&gt;AppModule</title>
<path fill="none" stroke="black" d="M1167,-85.07C1167,-103.36 1167,-128.8 1167,-128.8 1167,-128.8 896.77,-128.8 896.77,-128.8"/>
<polygon fill="black" stroke="black" points="896.77,-125.3 886.77,-128.8 896.77,-132.3 896.77,-125.3"/>
</g>
<!-- AuthComponent -->
<g id="node2" class="node">
<title>AuthComponent</title>
<polygon fill="#ffffb3" stroke="black" points="1096.83,-84.8 987.17,-84.8 987.17,-48.8 1096.83,-48.8 1096.83,-84.8"/>
<text text-anchor="middle" x="1042" y="-62.6" font-family="Times,serif" font-size="14.00">AuthComponent</text>
</g>
<!-- AuthComponent&#45;&gt;AppModule -->
<g id="edge2" class="edge">
<title>AuthComponent&#45;&gt;AppModule</title>
<path fill="none" stroke="black" d="M1042,-84.81C1042,-100.85 1042,-121.8 1042,-121.8 1042,-121.8 896.78,-121.8 896.78,-121.8"/>
<polygon fill="black" stroke="black" points="896.78,-118.3 886.78,-121.8 896.78,-125.3 896.78,-118.3"/>
</g>
<!-- HomeComponent -->
<g id="node3" class="node">
<title>HomeComponent</title>
<polygon fill="#ffffb3" stroke="black" points="969.55,-84.8 854.45,-84.8 854.45,-48.8 969.55,-48.8 969.55,-84.8"/>
<text text-anchor="middle" x="912" y="-62.6" font-family="Times,serif" font-size="14.00">HomeComponent</text>
</g>
<!-- HomeComponent&#45;&gt;AppModule -->
<g id="edge3" class="edge">
<title>HomeComponent&#45;&gt;AppModule</title>
<path fill="none" stroke="black" d="M870.53,-84.91C870.53,-84.91 870.53,-103.79 870.53,-103.79"/>
<polygon fill="black" stroke="black" points="867.03,-103.79 870.53,-113.79 874.03,-103.79 867.03,-103.79"/>
</g>
<!-- MenuComponent -->
<g id="node4" class="node">
<title>MenuComponent</title>
<polygon fill="#ffffb3" stroke="black" points="835.99,-84.8 722.01,-84.8 722.01,-48.8 835.99,-48.8 835.99,-84.8"/>
<text text-anchor="middle" x="779" y="-62.6" font-family="Times,serif" font-size="14.00">MenuComponent</text>
</g>
<!-- MenuComponent&#45;&gt;AppModule -->
<g id="edge4" class="edge">
<title>MenuComponent&#45;&gt;AppModule</title>
<path fill="none" stroke="black" d="M819.58,-84.91C819.58,-84.91 819.58,-103.79 819.58,-103.79"/>
<polygon fill="black" stroke="black" points="816.08,-103.79 819.58,-113.79 823.08,-103.79 816.08,-103.79"/>
</g>
<!-- NotFoundComponent -->
<g id="node5" class="node">
<title>NotFoundComponent</title>
<polygon fill="#ffffb3" stroke="black" points="704.12,-84.8 565.88,-84.8 565.88,-48.8 704.12,-48.8 704.12,-84.8"/>
<text text-anchor="middle" x="635" y="-62.6" font-family="Times,serif" font-size="14.00">NotFoundComponent</text>
</g>
<!-- NotFoundComponent&#45;&gt;AppModule -->
<g id="edge5" class="edge">
<title>NotFoundComponent&#45;&gt;AppModule</title>
<path fill="none" stroke="black" d="M635,-84.81C635,-100.85 635,-121.8 635,-121.8 635,-121.8 793.26,-121.8 793.26,-121.8"/>
<polygon fill="black" stroke="black" points="793.26,-125.3 803.26,-121.8 793.26,-118.3 793.26,-125.3"/>
</g>
<!-- AppComponent  -->
<g id="node9" class="node">
<title>AppComponent </title>
<polygon fill="#80b1d3" stroke="black" points="899.44,-214.8 790.56,-214.8 790.56,-178.8 899.44,-178.8 899.44,-214.8"/>
<text text-anchor="middle" x="845" y="-192.6" font-family="Times,serif" font-size="14.00">AppComponent </text>
</g>
<!-- AppModule&#45;&gt;AppComponent  -->
<g id="edge8" class="edge">
<title>AppModule&#45;&gt;AppComponent </title>
<path fill="none" stroke="black" stroke-dasharray="1,5" d="M845,-149.91C845,-149.91 845,-168.79 845,-168.79"/>
<polygon fill="black" stroke="black" points="841.5,-168.79 845,-178.79 848.5,-168.79 841.5,-168.79"/>
</g>
<!-- AppRoutingModule -->
<g id="node7" class="node">
<title>AppRoutingModule</title>
<polygon fill="#8dd3c7" stroke="black" points="1489.28,-84.8 1486.28,-88.8 1465.28,-88.8 1462.28,-84.8 1360.72,-84.8 1360.72,-48.8 1489.28,-48.8 1489.28,-84.8"/>
<text text-anchor="middle" x="1425" y="-62.6" font-family="Times,serif" font-size="14.00">AppRoutingModule</text>
</g>
<!-- AppRoutingModule&#45;&gt;AppModule -->
<g id="edge6" class="edge">
<title>AppRoutingModule&#45;&gt;AppModule</title>
<path fill="none" stroke="black" d="M1425,-84.81C1425,-107.29 1425,-142.8 1425,-142.8 1425,-142.8 896.71,-142.8 896.71,-142.8"/>
<polygon fill="black" stroke="black" points="896.71,-139.3 886.71,-142.8 896.71,-146.3 896.71,-139.3"/>
</g>
<!-- SharedModule -->
<g id="node8" class="node">
<title>SharedModule</title>
<polygon fill="#8dd3c7" stroke="black" points="1342.43,-84.8 1339.43,-88.8 1318.43,-88.8 1315.43,-84.8 1243.57,-84.8 1243.57,-48.8 1342.43,-48.8 1342.43,-84.8"/>
<text text-anchor="middle" x="1293" y="-62.6" font-family="Times,serif" font-size="14.00">SharedModule</text>
</g>
<!-- SharedModule&#45;&gt;AppModule -->
<g id="edge7" class="edge">
<title>SharedModule&#45;&gt;AppModule</title>
<path fill="none" stroke="black" d="M1293,-84.93C1293,-105.37 1293,-135.8 1293,-135.8 1293,-135.8 896.74,-135.8 896.74,-135.8"/>
<polygon fill="black" stroke="black" points="896.74,-132.3 886.74,-135.8 896.74,-139.3 896.74,-132.3"/>
</g>
<!-- AuthInterceptor -->
<g id="node10" class="node">
<title>AuthInterceptor</title>
<ellipse fill="#fdb462" stroke="black" cx="469" cy="-66.8" rx="72.92" ry="18"/>
<text text-anchor="middle" x="469" y="-62.6" font-family="Times,serif" font-size="14.00">AuthInterceptor</text>
</g>
<!-- AuthInterceptor&#45;&gt;AppModule -->
<g id="edge9" class="edge">
<title>AuthInterceptor&#45;&gt;AppModule</title>
<path fill="none" stroke="black" d="M469,-85.07C469,-103.36 469,-128.8 469,-128.8 469,-128.8 793.32,-128.8 793.32,-128.8"/>
<polygon fill="black" stroke="black" points="793.32,-132.3 803.32,-128.8 793.32,-125.3 793.32,-132.3"/>
</g>
<!-- CacheInterceptor -->
<g id="node11" class="node">
<title>CacheInterceptor</title>
<ellipse fill="#fdb462" stroke="black" cx="301" cy="-66.8" rx="77.54" ry="18"/>
<text text-anchor="middle" x="301" y="-62.6" font-family="Times,serif" font-size="14.00">CacheInterceptor</text>
</g>
<!-- CacheInterceptor&#45;&gt;AppModule -->
<g id="edge10" class="edge">
<title>CacheInterceptor&#45;&gt;AppModule</title>
<path fill="none" stroke="black" d="M301,-84.93C301,-105.37 301,-135.8 301,-135.8 301,-135.8 793.22,-135.8 793.22,-135.8"/>
<polygon fill="black" stroke="black" points="793.22,-139.3 803.22,-135.8 793.22,-132.3 793.22,-139.3"/>
</g>
<!-- HttpErrorInterceptor -->
<g id="node12" class="node">
<title>HttpErrorInterceptor</title>
<ellipse fill="#fdb462" stroke="black" cx="115" cy="-66.8" rx="90.87" ry="18"/>
<text text-anchor="middle" x="115" y="-62.6" font-family="Times,serif" font-size="14.00">HttpErrorInterceptor</text>
</g>
<!-- HttpErrorInterceptor&#45;&gt;AppModule -->
<g id="edge11" class="edge">
<title>HttpErrorInterceptor&#45;&gt;AppModule</title>
<path fill="none" stroke="black" d="M115,-84.81C115,-107.29 115,-142.8 115,-142.8 115,-142.8 793.13,-142.8 793.13,-142.8"/>
<polygon fill="black" stroke="black" points="793.13,-146.3 803.13,-142.8 793.13,-139.3 793.13,-146.3"/>
</g>
</g>
</svg>
