<?xml version="1.0" encoding="UTF-8" standalone="no"?>
<!DOCTYPE svg PUBLIC "-//W3C//DTD SVG 1.1//EN"
 "http://www.w3.org/Graphics/SVG/1.1/DTD/svg11.dtd">
<!-- Generated by graphviz version 5.0.0 (20220707.1540)
 -->
<!-- Title: dependencies Pages: 1 -->
<svg width="1521pt" height="247pt"
 viewBox="0.00 0.00 1521.00 246.80" xmlns="http://www.w3.org/2000/svg" xmlns:xlink="http://www.w3.org/1999/xlink">
<g id="graph0" class="graph" transform="scale(1 1) rotate(0) translate(4 242.8)">
<title>dependencies</title>
<polygon fill="white" stroke="transparent" points="-4,4 -4,-242.8 1517,-242.8 1517,4 -4,4"/>
<text text-anchor="middle" x="756.5" y="-8.2" font-family="sans-serif" font-size="14.00">dependencies</text>
<g id="clust1" class="cluster">
<title>cluster_AppModule</title>
<polygon fill="none" stroke="black" stroke-dasharray="1,5" points="8,-32.8 8,-230.8 1505,-230.8 1505,-32.8 8,-32.8"/>
</g>
<g id="clust2" class="cluster">
<title>cluster_AppModule_declarations</title>
<polygon fill="none" stroke="black" points="827,-40.8 827,-92.8 1497,-92.8 1497,-40.8 827,-40.8"/>
</g>
<g id="clust11" class="cluster">
<title>cluster_AppModule_providers</title>
<polygon fill="none" stroke="black" points="285,-40.8 285,-92.8 819,-92.8 819,-40.8 285,-40.8"/>
</g>
<g id="clust8" class="cluster">
<title>cluster_AppModule_imports</title>
<polygon fill="none" stroke="black" points="16,-40.8 16,-92.8 277,-92.8 277,-40.8 16,-40.8"/>
</g>
<g id="clust10" class="cluster">
<title>cluster_AppModule_bootstrap</title>
<polygon fill="none" stroke="black" points="759,-170.8 759,-222.8 883,-222.8 883,-170.8 759,-170.8"/>
</g>
<!-- AppComponent -->
<g id="node1" class="node">
<title>AppComponent</title>
<polygon fill="#ffffb3" stroke="black" points="1488.94,-84.8 1383.06,-84.8 1383.06,-48.8 1488.94,-48.8 1488.94,-84.8"/>
<text text-anchor="middle" x="1436" y="-62.6" font-family="Times,serif" font-size="14.00">AppComponent</text>
</g>
<!-- AppModule -->
<g id="node6" class="node">
<title>AppModule</title>
<polygon fill="#8dd3c7" stroke="black" points="862.66,-149.8 859.66,-153.8 838.66,-153.8 835.66,-149.8 779.34,-149.8 779.34,-113.8 862.66,-113.8 862.66,-149.8"/>
<text text-anchor="middle" x="821" y="-127.6" font-family="Times,serif" font-size="14.00">AppModule</text>
</g>
<!-- AppComponent&#45;&gt;AppModule -->
<g id="edge1" class="edge">
<title>AppComponent&#45;&gt;AppModule</title>
<path fill="none" stroke="black" d="M1436,-84.81C1436,-107.29 1436,-142.8 1436,-142.8 1436,-142.8 872.79,-142.8 872.79,-142.8"/>
<polygon fill="black" stroke="black" points="872.79,-139.3 862.79,-142.8 872.79,-146.3 872.79,-139.3"/>
</g>
<!-- AuthComponent -->
<g id="node2" class="node">
<title>AuthComponent</title>
<polygon fill="#ffffb3" stroke="black" points="1365.83,-84.8 1256.17,-84.8 1256.17,-48.8 1365.83,-48.8 1365.83,-84.8"/>
<text text-anchor="middle" x="1311" y="-62.6" font-family="Times,serif" font-size="14.00">AuthComponent</text>
</g>
<!-- AuthComponent&#45;&gt;AppModule -->
<g id="edge2" class="edge">
<title>AuthComponent&#45;&gt;AppModule</title>
<path fill="none" stroke="black" d="M1311,-84.93C1311,-105.37 1311,-135.8 1311,-135.8 1311,-135.8 872.78,-135.8 872.78,-135.8"/>
<polygon fill="black" stroke="black" points="872.78,-132.3 862.78,-135.8 872.78,-139.3 872.78,-132.3"/>
</g>
<!-- HomeComponent -->
<g id="node3" class="node">
<title>HomeComponent</title>
<polygon fill="#ffffb3" stroke="black" points="1238.55,-84.8 1123.45,-84.8 1123.45,-48.8 1238.55,-48.8 1238.55,-84.8"/>
<text text-anchor="middle" x="1181" y="-62.6" font-family="Times,serif" font-size="14.00">HomeComponent</text>
</g>
<!-- HomeComponent&#45;&gt;AppModule -->
<g id="edge3" class="edge">
<title>HomeComponent&#45;&gt;AppModule</title>
<path fill="none" stroke="black" d="M1181,-85.07C1181,-103.36 1181,-128.8 1181,-128.8 1181,-128.8 873,-128.8 873,-128.8"/>
<polygon fill="black" stroke="black" points="873,-125.3 863,-128.8 873,-132.3 873,-125.3"/>
</g>
<!-- MenuComponent -->
<g id="node4" class="node">
<title>MenuComponent</title>
<polygon fill="#ffffb3" stroke="black" points="1104.99,-84.8 991.01,-84.8 991.01,-48.8 1104.99,-48.8 1104.99,-84.8"/>
<text text-anchor="middle" x="1048" y="-62.6" font-family="Times,serif" font-size="14.00">MenuComponent</text>
</g>
<!-- MenuComponent&#45;&gt;AppModule -->
<g id="edge4" class="edge">
<title>MenuComponent&#45;&gt;AppModule</title>
<path fill="none" stroke="black" d="M1048,-84.81C1048,-100.85 1048,-121.8 1048,-121.8 1048,-121.8 872.9,-121.8 872.9,-121.8"/>
<polygon fill="black" stroke="black" points="872.9,-118.3 862.9,-121.8 872.9,-125.3 872.9,-118.3"/>
</g>
<!-- NotFoundComponent -->
<g id="node5" class="node">
<title>NotFoundComponent</title>
<polygon fill="#ffffb3" stroke="black" points="973.12,-84.8 834.88,-84.8 834.88,-48.8 973.12,-48.8 973.12,-84.8"/>
<text text-anchor="middle" x="904" y="-62.6" font-family="Times,serif" font-size="14.00">NotFoundComponent</text>
</g>
<!-- NotFoundComponent&#45;&gt;AppModule -->
<g id="edge5" class="edge">
<title>NotFoundComponent&#45;&gt;AppModule</title>
<path fill="none" stroke="black" d="M848.89,-84.91C848.89,-84.91 848.89,-103.79 848.89,-103.79"/>
<polygon fill="black" stroke="black" points="845.39,-103.79 848.89,-113.79 852.39,-103.79 845.39,-103.79"/>
</g>
<!-- AppComponent  -->
<g id="node9" class="node">
<title>AppComponent </title>
<polygon fill="#80b1d3" stroke="black" points="875.44,-214.8 766.56,-214.8 766.56,-178.8 875.44,-178.8 875.44,-214.8"/>
<text text-anchor="middle" x="821" y="-192.6" font-family="Times,serif" font-size="14.00">AppComponent </text>
</g>
<!-- AppModule&#45;&gt;AppComponent  -->
<g id="edge8" class="edge">
<title>AppModule&#45;&gt;AppComponent </title>
<path fill="none" stroke="black" stroke-dasharray="1,5" d="M821,-149.91C821,-149.91 821,-168.79 821,-168.79"/>
<polygon fill="black" stroke="black" points="817.5,-168.79 821,-178.79 824.5,-168.79 817.5,-168.79"/>
</g>
<!-- AppRoutingModule -->
<g id="node7" class="node">
<title>AppRoutingModule</title>
<polygon fill="#8dd3c7" stroke="black" points="269.28,-84.8 266.28,-88.8 245.28,-88.8 242.28,-84.8 140.72,-84.8 140.72,-48.8 269.28,-48.8 269.28,-84.8"/>
<text text-anchor="middle" x="205" y="-62.6" font-family="Times,serif" font-size="14.00">AppRoutingModule</text>
</g>
<!-- AppRoutingModule&#45;&gt;AppModule -->
<g id="edge6" class="edge">
<title>AppRoutingModule&#45;&gt;AppModule</title>
<path fill="none" stroke="black" d="M205,-84.93C205,-105.37 205,-135.8 205,-135.8 205,-135.8 769.14,-135.8 769.14,-135.8"/>
<polygon fill="black" stroke="black" points="769.14,-139.3 779.14,-135.8 769.14,-132.3 769.14,-139.3"/>
</g>
<!-- SharedModule -->
<g id="node8" class="node">
<title>SharedModule</title>
<polygon fill="#8dd3c7" stroke="black" points="122.43,-84.8 119.43,-88.8 98.43,-88.8 95.43,-84.8 23.57,-84.8 23.57,-48.8 122.43,-48.8 122.43,-84.8"/>
<text text-anchor="middle" x="73" y="-62.6" font-family="Times,serif" font-size="14.00">SharedModule</text>
</g>
<!-- SharedModule&#45;&gt;AppModule -->
<g id="edge7" class="edge">
<title>SharedModule&#45;&gt;AppModule</title>
<path fill="none" stroke="black" d="M73,-84.81C73,-107.29 73,-142.8 73,-142.8 73,-142.8 769.18,-142.8 769.18,-142.8"/>
<polygon fill="black" stroke="black" points="769.18,-146.3 779.18,-142.8 769.18,-139.3 769.18,-146.3"/>
</g>
<!-- AuthInterceptor -->
<g id="node10" class="node">
<title>AuthInterceptor</title>
<ellipse fill="#fdb462" stroke="black" cx="738" cy="-66.8" rx="72.92" ry="18"/>
<text text-anchor="middle" x="738" y="-62.6" font-family="Times,serif" font-size="14.00">AuthInterceptor</text>
</g>
<!-- AuthInterceptor&#45;&gt;AppModule -->
<g id="edge9" class="edge">
<title>AuthInterceptor&#45;&gt;AppModule</title>
<path fill="none" stroke="black" d="M794.94,-78.12C794.94,-78.12 794.94,-103.74 794.94,-103.74"/>
<polygon fill="black" stroke="black" points="791.44,-103.74 794.94,-113.74 798.44,-103.74 791.44,-103.74"/>
</g>
<!-- CacheInterceptor -->
<g id="node11" class="node">
<title>CacheInterceptor</title>
<ellipse fill="#fdb462" stroke="black" cx="570" cy="-66.8" rx="77.54" ry="18"/>
<text text-anchor="middle" x="570" y="-62.6" font-family="Times,serif" font-size="14.00">CacheInterceptor</text>
</g>
<!-- CacheInterceptor&#45;&gt;AppModule -->
<g id="edge10" class="edge">
<title>CacheInterceptor&#45;&gt;AppModule</title>
<path fill="none" stroke="black" d="M570,-84.81C570,-100.85 570,-121.8 570,-121.8 570,-121.8 769.27,-121.8 769.27,-121.8"/>
<polygon fill="black" stroke="black" points="769.27,-125.3 779.27,-121.8 769.27,-118.3 769.27,-125.3"/>
</g>
<!-- HttpErrorInterceptor -->
<g id="node12" class="node">
<title>HttpErrorInterceptor</title>
<ellipse fill="#fdb462" stroke="black" cx="384" cy="-66.8" rx="90.87" ry="18"/>
<text text-anchor="middle" x="384" y="-62.6" font-family="Times,serif" font-size="14.00">HttpErrorInterceptor</text>
</g>
<!-- HttpErrorInterceptor&#45;&gt;AppModule -->
<g id="edge11" class="edge">
<title>HttpErrorInterceptor&#45;&gt;AppModule</title>
<path fill="none" stroke="black" d="M384,-85.07C384,-103.36 384,-128.8 384,-128.8 384,-128.8 769.1,-128.8 769.1,-128.8"/>
<polygon fill="black" stroke="black" points="769.1,-132.3 779.1,-128.8 769.1,-125.3 769.1,-132.3"/>
</g>
</g>
</svg>
