<?xml version="1.0" encoding="UTF-8" standalone="no"?>
<!DOCTYPE svg PUBLIC "-//W3C//DTD SVG 1.1//EN"
 "http://www.w3.org/Graphics/SVG/1.1/DTD/svg11.dtd">
<!-- Generated by graphviz version 5.0.0 (20220707.1540)
 -->
<!-- Title: dependencies Pages: 1 -->
<svg width="1521pt" height="247pt"
 viewBox="0.00 0.00 1521.00 246.80" xmlns="http://www.w3.org/2000/svg" xmlns:xlink="http://www.w3.org/1999/xlink">
<g id="graph0" class="graph" transform="scale(1 1) rotate(0) translate(4 242.8)">
<title>dependencies</title>
<polygon fill="white" stroke="transparent" points="-4,4 -4,-242.8 1517,-242.8 1517,4 -4,4"/>
<text text-anchor="middle" x="756.5" y="-8.2" font-family="sans-serif" font-size="14.00">dependencies</text>
<g id="clust1" class="cluster">
<title>cluster_AppModule</title>
<polygon fill="none" stroke="black" stroke-dasharray="1,5" points="8,-32.8 8,-230.8 1505,-230.8 1505,-32.8 8,-32.8"/>
</g>
<g id="clust2" class="cluster">
<title>cluster_AppModule_declarations</title>
<polygon fill="none" stroke="black" points="827,-40.8 827,-92.8 1497,-92.8 1497,-40.8 827,-40.8"/>
</g>
<g id="clust8" class="cluster">
<title>cluster_AppModule_imports</title>
<polygon fill="none" stroke="black" points="558,-40.8 558,-92.8 819,-92.8 819,-40.8 558,-40.8"/>
</g>
<g id="clust11" class="cluster">
<title>cluster_AppModule_providers</title>
<polygon fill="none" stroke="black" points="16,-40.8 16,-92.8 550,-92.8 550,-40.8 16,-40.8"/>
</g>
<g id="clust10" class="cluster">
<title>cluster_AppModule_bootstrap</title>
<polygon fill="none" stroke="black" points="763,-170.8 763,-222.8 887,-222.8 887,-170.8 763,-170.8"/>
</g>
<!-- AppComponent -->
<g id="node1" class="node">
<title>AppComponent</title>
<polygon fill="#ffffb3" stroke="black" points="1488.94,-84.8 1383.06,-84.8 1383.06,-48.8 1488.94,-48.8 1488.94,-84.8"/>
<text text-anchor="middle" x="1436" y="-62.6" font-family="Times,serif" font-size="14.00">AppComponent</text>
</g>
<!-- AppModule -->
<g id="node6" class="node">
<title>AppModule</title>
<polygon fill="#8dd3c7" stroke="black" points="866.66,-149.8 863.66,-153.8 842.66,-153.8 839.66,-149.8 783.34,-149.8 783.34,-113.8 866.66,-113.8 866.66,-149.8"/>
<text text-anchor="middle" x="825" y="-127.6" font-family="Times,serif" font-size="14.00">AppModule</text>
</g>
<!-- AppComponent&#45;&gt;AppModule -->
<g id="edge1" class="edge">
<title>AppComponent&#45;&gt;AppModule</title>
<path fill="none" stroke="black" d="M1436,-84.81C1436,-107.29 1436,-142.8 1436,-142.8 1436,-142.8 877,-142.8 877,-142.8"/>
<polygon fill="black" stroke="black" points="877,-139.3 867,-142.8 877,-146.3 877,-139.3"/>
</g>
<!-- AuthComponent -->
<g id="node2" class="node">
<title>AuthComponent</title>
<polygon fill="#ffffb3" stroke="black" points="1365.83,-84.8 1256.17,-84.8 1256.17,-48.8 1365.83,-48.8 1365.83,-84.8"/>
<text text-anchor="middle" x="1311" y="-62.6" font-family="Times,serif" font-size="14.00">AuthComponent</text>
</g>
<!-- AuthComponent&#45;&gt;AppModule -->
<g id="edge2" class="edge">
<title>AuthComponent&#45;&gt;AppModule</title>
<path fill="none" stroke="black" d="M1311,-84.93C1311,-105.37 1311,-135.8 1311,-135.8 1311,-135.8 876.86,-135.8 876.86,-135.8"/>
<polygon fill="black" stroke="black" points="876.86,-132.3 866.86,-135.8 876.86,-139.3 876.86,-132.3"/>
</g>
<!-- HomeComponent -->
<g id="node3" class="node">
<title>HomeComponent</title>
<polygon fill="#ffffb3" stroke="black" points="1238.55,-84.8 1123.45,-84.8 1123.45,-48.8 1238.55,-48.8 1238.55,-84.8"/>
<text text-anchor="middle" x="1181" y="-62.6" font-family="Times,serif" font-size="14.00">HomeComponent</text>
</g>
<!-- HomeComponent&#45;&gt;AppModule -->
<g id="edge3" class="edge">
<title>HomeComponent&#45;&gt;AppModule</title>
<path fill="none" stroke="black" d="M1181,-85.07C1181,-103.36 1181,-128.8 1181,-128.8 1181,-128.8 876.88,-128.8 876.88,-128.8"/>
<polygon fill="black" stroke="black" points="876.88,-125.3 866.88,-128.8 876.88,-132.3 876.88,-125.3"/>
</g>
<!-- MenuComponent -->
<g id="node4" class="node">
<title>MenuComponent</title>
<polygon fill="#ffffb3" stroke="black" points="1104.99,-84.8 991.01,-84.8 991.01,-48.8 1104.99,-48.8 1104.99,-84.8"/>
<text text-anchor="middle" x="1048" y="-62.6" font-family="Times,serif" font-size="14.00">MenuComponent</text>
</g>
<!-- MenuComponent&#45;&gt;AppModule -->
<g id="edge4" class="edge">
<title>MenuComponent&#45;&gt;AppModule</title>
<path fill="none" stroke="black" d="M1048,-84.81C1048,-100.85 1048,-121.8 1048,-121.8 1048,-121.8 876.68,-121.8 876.68,-121.8"/>
<polygon fill="black" stroke="black" points="876.68,-118.3 866.68,-121.8 876.68,-125.3 876.68,-118.3"/>
</g>
<!-- NotFoundComponent -->
<g id="node5" class="node">
<title>NotFoundComponent</title>
<polygon fill="#ffffb3" stroke="black" points="973.12,-84.8 834.88,-84.8 834.88,-48.8 973.12,-48.8 973.12,-84.8"/>
<text text-anchor="middle" x="904" y="-62.6" font-family="Times,serif" font-size="14.00">NotFoundComponent</text>
</g>
<!-- NotFoundComponent&#45;&gt;AppModule -->
<g id="edge5" class="edge">
<title>NotFoundComponent&#45;&gt;AppModule</title>
<path fill="none" stroke="black" d="M850.89,-84.91C850.89,-84.91 850.89,-103.79 850.89,-103.79"/>
<polygon fill="black" stroke="black" points="847.39,-103.79 850.89,-113.79 854.39,-103.79 847.39,-103.79"/>
</g>
<!-- AppComponent  -->
<g id="node9" class="node">
<title>AppComponent </title>
<polygon fill="#80b1d3" stroke="black" points="879.44,-214.8 770.56,-214.8 770.56,-178.8 879.44,-178.8 879.44,-214.8"/>
<text text-anchor="middle" x="825" y="-192.6" font-family="Times,serif" font-size="14.00">AppComponent </text>
</g>
<!-- AppModule&#45;&gt;AppComponent  -->
<g id="edge8" class="edge">
<title>AppModule&#45;&gt;AppComponent </title>
<path fill="none" stroke="black" stroke-dasharray="1,5" d="M825,-149.91C825,-149.91 825,-168.79 825,-168.79"/>
<polygon fill="black" stroke="black" points="821.5,-168.79 825,-178.79 828.5,-168.79 821.5,-168.79"/>
</g>
<!-- AppRoutingModule -->
<g id="node7" class="node">
<title>AppRoutingModule</title>
<polygon fill="#8dd3c7" stroke="black" points="811.28,-84.8 808.28,-88.8 787.28,-88.8 784.28,-84.8 682.72,-84.8 682.72,-48.8 811.28,-48.8 811.28,-84.8"/>
<text text-anchor="middle" x="747" y="-62.6" font-family="Times,serif" font-size="14.00">AppRoutingModule</text>
</g>
<!-- AppRoutingModule&#45;&gt;AppModule -->
<g id="edge6" class="edge">
<title>AppRoutingModule&#45;&gt;AppModule</title>
<path fill="none" stroke="black" d="M797.28,-84.91C797.28,-84.91 797.28,-103.79 797.28,-103.79"/>
<polygon fill="black" stroke="black" points="793.78,-103.79 797.28,-113.79 800.78,-103.79 793.78,-103.79"/>
</g>
<!-- SharedModule -->
<g id="node8" class="node">
<title>SharedModule</title>
<polygon fill="#8dd3c7" stroke="black" points="664.43,-84.8 661.43,-88.8 640.43,-88.8 637.43,-84.8 565.57,-84.8 565.57,-48.8 664.43,-48.8 664.43,-84.8"/>
<text text-anchor="middle" x="615" y="-62.6" font-family="Times,serif" font-size="14.00">SharedModule</text>
</g>
<!-- SharedModule&#45;&gt;AppModule -->
<g id="edge7" class="edge">
<title>SharedModule&#45;&gt;AppModule</title>
<path fill="none" stroke="black" d="M615,-84.81C615,-100.85 615,-121.8 615,-121.8 615,-121.8 773.26,-121.8 773.26,-121.8"/>
<polygon fill="black" stroke="black" points="773.26,-125.3 783.26,-121.8 773.26,-118.3 773.26,-125.3"/>
</g>
<!-- AuthInterceptor -->
<g id="node10" class="node">
<title>AuthInterceptor</title>
<ellipse fill="#fdb462" stroke="black" cx="469" cy="-66.8" rx="72.92" ry="18"/>
<text text-anchor="middle" x="469" y="-62.6" font-family="Times,serif" font-size="14.00">AuthInterceptor</text>
</g>
<!-- AuthInterceptor&#45;&gt;AppModule -->
<g id="edge9" class="edge">
<title>AuthInterceptor&#45;&gt;AppModule</title>
<path fill="none" stroke="black" d="M469,-85.07C469,-103.36 469,-128.8 469,-128.8 469,-128.8 773.12,-128.8 773.12,-128.8"/>
<polygon fill="black" stroke="black" points="773.12,-132.3 783.12,-128.8 773.12,-125.3 773.12,-132.3"/>
</g>
<!-- CacheInterceptor -->
<g id="node11" class="node">
<title>CacheInterceptor</title>
<ellipse fill="#fdb462" stroke="black" cx="301" cy="-66.8" rx="77.54" ry="18"/>
<text text-anchor="middle" x="301" y="-62.6" font-family="Times,serif" font-size="14.00">CacheInterceptor</text>
</g>
<!-- CacheInterceptor&#45;&gt;AppModule -->
<g id="edge10" class="edge">
<title>CacheInterceptor&#45;&gt;AppModule</title>
<path fill="none" stroke="black" d="M301,-84.93C301,-105.37 301,-135.8 301,-135.8 301,-135.8 773,-135.8 773,-135.8"/>
<polygon fill="black" stroke="black" points="773,-139.3 783,-135.8 773,-132.3 773,-139.3"/>
</g>
<!-- HttpErrorInterceptor -->
<g id="node12" class="node">
<title>HttpErrorInterceptor</title>
<ellipse fill="#fdb462" stroke="black" cx="115" cy="-66.8" rx="90.87" ry="18"/>
<text text-anchor="middle" x="115" y="-62.6" font-family="Times,serif" font-size="14.00">HttpErrorInterceptor</text>
</g>
<!-- HttpErrorInterceptor&#45;&gt;AppModule -->
<g id="edge11" class="edge">
<title>HttpErrorInterceptor&#45;&gt;AppModule</title>
<path fill="none" stroke="black" d="M115,-84.81C115,-107.29 115,-142.8 115,-142.8 115,-142.8 773.24,-142.8 773.24,-142.8"/>
<polygon fill="black" stroke="black" points="773.24,-146.3 783.24,-142.8 773.24,-139.3 773.24,-146.3"/>
</g>
</g>
</svg>
