<?xml version="1.0" encoding="UTF-8" standalone="no"?>
<!DOCTYPE svg PUBLIC "-//W3C//DTD SVG 1.1//EN"
 "http://www.w3.org/Graphics/SVG/1.1/DTD/svg11.dtd">
<!-- Generated by graphviz version 5.0.0 (20220707.1540)
 -->
<!-- Title: dependencies Pages: 1 -->
<svg width="302pt" height="247pt"
 viewBox="0.00 0.00 302.00 246.80" xmlns="http://www.w3.org/2000/svg" xmlns:xlink="http://www.w3.org/1999/xlink">
<g id="graph0" class="graph" transform="scale(1 1) rotate(0) translate(4 242.8)">
<title>dependencies</title>
<polygon fill="white" stroke="transparent" points="-4,4 -4,-242.8 298,-242.8 298,4 -4,4"/>
<text text-anchor="middle" x="147" y="-8.2" font-family="sans-serif" font-size="14.00">dependencies</text>
<g id="clust1" class="cluster">
<title>cluster_TabularModule</title>
<polygon fill="none" stroke="black" stroke-dasharray="1,5" points="8,-32.8 8,-230.8 286,-230.8 286,-32.8 8,-32.8"/>
</g>
<g id="clust2" class="cluster">
<title>cluster_TabularModule_declarations</title>
<polygon fill="none" stroke="black" points="138,-40.8 138,-92.8 278,-92.8 278,-40.8 138,-40.8"/>
</g>
<g id="clust4" class="cluster">
<title>cluster_TabularModule_imports</title>
<polygon fill="none" stroke="black" points="16,-40.8 16,-92.8 130,-92.8 130,-40.8 16,-40.8"/>
</g>
<g id="clust5" class="cluster">
<title>cluster_TabularModule_exports</title>
<polygon fill="none" stroke="black" points="75,-170.8 75,-222.8 219,-222.8 219,-170.8 75,-170.8"/>
</g>
<!-- TabularComponent -->
<g id="node1" class="node">
<title>TabularComponent</title>
<polygon fill="#ffffb3" stroke="black" points="270.36,-84.8 145.64,-84.8 145.64,-48.8 270.36,-48.8 270.36,-84.8"/>
<text text-anchor="middle" x="208" y="-62.6" font-family="Times,serif" font-size="14.00">TabularComponent</text>
</g>
<!-- TabularModule -->
<g id="node2" class="node">
<title>TabularModule</title>
<polygon fill="#8dd3c7" stroke="black" points="198.58,-149.8 195.58,-153.8 174.58,-153.8 171.58,-149.8 95.42,-149.8 95.42,-113.8 198.58,-113.8 198.58,-149.8"/>
<text text-anchor="middle" x="147" y="-127.6" font-family="Times,serif" font-size="14.00">TabularModule</text>
</g>
<!-- TabularComponent&#45;&gt;TabularModule -->
<g id="edge1" class="edge">
<title>TabularComponent&#45;&gt;TabularModule</title>
<path fill="none" stroke="black" d="M172.06,-84.91C172.06,-84.91 172.06,-103.79 172.06,-103.79"/>
<polygon fill="black" stroke="black" points="168.56,-103.79 172.06,-113.79 175.56,-103.79 168.56,-103.79"/>
</g>
<!-- TabularComponent  -->
<g id="node4" class="node">
<title>TabularComponent </title>
<polygon fill="#fb8072" stroke="black" points="211.36,-214.8 82.64,-214.8 82.64,-178.8 211.36,-178.8 211.36,-214.8"/>
<text text-anchor="middle" x="147" y="-192.6" font-family="Times,serif" font-size="14.00">TabularComponent </text>
</g>
<!-- TabularModule&#45;&gt;TabularComponent  -->
<g id="edge3" class="edge">
<title>TabularModule&#45;&gt;TabularComponent </title>
<path fill="none" stroke="black" stroke-dasharray="5,2" d="M147,-149.91C147,-149.91 147,-168.79 147,-168.79"/>
<polygon fill="black" stroke="black" points="143.5,-168.79 147,-178.79 150.5,-168.79 143.5,-168.79"/>
</g>
<!-- SharedModule -->
<g id="node3" class="node">
<title>SharedModule</title>
<polygon fill="#8dd3c7" stroke="black" points="122.43,-84.8 119.43,-88.8 98.43,-88.8 95.43,-84.8 23.57,-84.8 23.57,-48.8 122.43,-48.8 122.43,-84.8"/>
<text text-anchor="middle" x="73" y="-62.6" font-family="Times,serif" font-size="14.00">SharedModule</text>
</g>
<!-- SharedModule&#45;&gt;TabularModule -->
<g id="edge2" class="edge">
<title>SharedModule&#45;&gt;TabularModule</title>
<path fill="none" stroke="black" d="M108.84,-84.91C108.84,-84.91 108.84,-103.79 108.84,-103.79"/>
<polygon fill="black" stroke="black" points="105.34,-103.79 108.84,-113.79 112.34,-103.79 105.34,-103.79"/>
</g>
</g>
</svg>
