<?xml version="1.0" encoding="UTF-8" standalone="no"?>
<!DOCTYPE svg PUBLIC "-//W3C//DTD SVG 1.1//EN"
 "http://www.w3.org/Graphics/SVG/1.1/DTD/svg11.dtd">
<!-- Generated by graphviz version 5.0.0 (20220707.1540)
 -->
<!-- Title: dependencies Pages: 1 -->
<svg width="1176pt" height="174pt"
 viewBox="0.00 0.00 1176.00 173.80" xmlns="http://www.w3.org/2000/svg" xmlns:xlink="http://www.w3.org/1999/xlink">
<g id="graph0" class="graph" transform="scale(1 1) rotate(0) translate(4 169.8)">
<title>dependencies</title>
<polygon fill="white" stroke="transparent" points="-4,4 -4,-169.8 1172,-169.8 1172,4 -4,4"/>
<text text-anchor="middle" x="584" y="-8.2" font-family="sans-serif" font-size="14.00">dependencies</text>
<g id="clust1" class="cluster">
<title>cluster_MonitorModule</title>
<polygon fill="none" stroke="black" stroke-dasharray="1,5" points="8,-32.8 8,-157.8 1160,-157.8 1160,-32.8 8,-32.8"/>
</g>
<g id="clust2" class="cluster">
<title>cluster_MonitorModule_declarations</title>
<polygon fill="none" stroke="black" points="306,-40.8 306,-92.8 1152,-92.8 1152,-40.8 306,-40.8"/>
</g>
<g id="clust8" class="cluster">
<title>cluster_MonitorModule_imports</title>
<polygon fill="none" stroke="black" points="16,-40.8 16,-92.8 298,-92.8 298,-40.8 16,-40.8"/>
</g>
<!-- AlertViewComponent -->
<g id="node1" class="node">
<title>AlertViewComponent</title>
<polygon fill="#ffffb3" stroke="black" points="1144.42,-84.8 1003.58,-84.8 1003.58,-48.8 1144.42,-48.8 1144.42,-84.8"/>
<text text-anchor="middle" x="1074" y="-62.6" font-family="Times,serif" font-size="14.00">AlertViewComponent</text>
</g>
<!-- MonitorModule -->
<g id="node6" class="node">
<title>MonitorModule</title>
<polygon fill="#8dd3c7" stroke="black" points="633.94,-149.8 630.94,-153.8 609.94,-153.8 606.94,-149.8 528.06,-149.8 528.06,-113.8 633.94,-113.8 633.94,-149.8"/>
<text text-anchor="middle" x="581" y="-127.6" font-family="Times,serif" font-size="14.00">MonitorModule</text>
</g>
<!-- AlertViewComponent&#45;&gt;MonitorModule -->
<g id="edge1" class="edge">
<title>AlertViewComponent&#45;&gt;MonitorModule</title>
<path fill="none" stroke="black" d="M1074,-85.09C1074,-107.01 1074,-140.8 1074,-140.8 1074,-140.8 643.76,-140.8 643.76,-140.8"/>
<polygon fill="black" stroke="black" points="643.76,-137.3 633.76,-140.8 643.76,-144.3 643.76,-137.3"/>
</g>
<!-- MonitorComponent -->
<g id="node2" class="node">
<title>MonitorComponent</title>
<polygon fill="#ffffb3" stroke="black" points="985.72,-84.8 858.28,-84.8 858.28,-48.8 985.72,-48.8 985.72,-84.8"/>
<text text-anchor="middle" x="922" y="-62.6" font-family="Times,serif" font-size="14.00">MonitorComponent</text>
</g>
<!-- MonitorComponent&#45;&gt;MonitorModule -->
<g id="edge2" class="edge">
<title>MonitorComponent&#45;&gt;MonitorModule</title>
<path fill="none" stroke="black" d="M922,-84.91C922,-104.14 922,-131.8 922,-131.8 922,-131.8 643.91,-131.8 643.91,-131.8"/>
<polygon fill="black" stroke="black" points="643.91,-128.3 633.91,-131.8 643.91,-135.3 643.91,-128.3"/>
</g>
<!-- MonitorEditComponent -->
<g id="node3" class="node">
<title>MonitorEditComponent</title>
<polygon fill="#ffffb3" stroke="black" points="840.05,-84.8 689.95,-84.8 689.95,-48.8 840.05,-48.8 840.05,-84.8"/>
<text text-anchor="middle" x="765" y="-62.6" font-family="Times,serif" font-size="14.00">MonitorEditComponent</text>
</g>
<!-- MonitorEditComponent&#45;&gt;MonitorModule -->
<g id="edge3" class="edge">
<title>MonitorEditComponent&#45;&gt;MonitorModule</title>
<path fill="none" stroke="black" d="M765,-84.83C765,-101.2 765,-122.8 765,-122.8 765,-122.8 643.73,-122.8 643.73,-122.8"/>
<polygon fill="black" stroke="black" points="643.73,-119.3 633.73,-122.8 643.73,-126.3 643.73,-119.3"/>
</g>
<!-- MonitorEditEntryComponent -->
<g id="node4" class="node">
<title>MonitorEditEntryComponent</title>
<polygon fill="#ffffb3" stroke="black" points="671.66,-84.8 490.34,-84.8 490.34,-48.8 671.66,-48.8 671.66,-84.8"/>
<text text-anchor="middle" x="581" y="-62.6" font-family="Times,serif" font-size="14.00">MonitorEditEntryComponent</text>
</g>
<!-- MonitorEditEntryComponent&#45;&gt;MonitorModule -->
<g id="edge4" class="edge">
<title>MonitorEditEntryComponent&#45;&gt;MonitorModule</title>
<path fill="none" stroke="black" d="M581,-84.91C581,-84.91 581,-103.79 581,-103.79"/>
<polygon fill="black" stroke="black" points="577.5,-103.79 581,-113.79 584.5,-103.79 577.5,-103.79"/>
</g>
<!-- MonitorViewComponent -->
<g id="node5" class="node">
<title>MonitorViewComponent</title>
<polygon fill="#ffffb3" stroke="black" points="471.55,-84.8 314.45,-84.8 314.45,-48.8 471.55,-48.8 471.55,-84.8"/>
<text text-anchor="middle" x="393" y="-62.6" font-family="Times,serif" font-size="14.00">MonitorViewComponent</text>
</g>
<!-- MonitorViewComponent&#45;&gt;MonitorModule -->
<g id="edge5" class="edge">
<title>MonitorViewComponent&#45;&gt;MonitorModule</title>
<path fill="none" stroke="black" d="M393,-84.83C393,-101.2 393,-122.8 393,-122.8 393,-122.8 518.13,-122.8 518.13,-122.8"/>
<polygon fill="black" stroke="black" points="518.13,-126.3 528.13,-122.8 518.13,-119.3 518.13,-126.3"/>
</g>
<!-- MonitorRoutingModule -->
<g id="node7" class="node">
<title>MonitorRoutingModule</title>
<polygon fill="#8dd3c7" stroke="black" points="290.06,-84.8 287.06,-88.8 266.06,-88.8 263.06,-84.8 139.94,-84.8 139.94,-48.8 290.06,-48.8 290.06,-84.8"/>
<text text-anchor="middle" x="215" y="-62.6" font-family="Times,serif" font-size="14.00">MonitorRoutingModule</text>
</g>
<!-- MonitorRoutingModule&#45;&gt;MonitorModule -->
<g id="edge6" class="edge">
<title>MonitorRoutingModule&#45;&gt;MonitorModule</title>
<path fill="none" stroke="black" d="M215,-84.91C215,-104.14 215,-131.8 215,-131.8 215,-131.8 518.17,-131.8 518.17,-131.8"/>
<polygon fill="black" stroke="black" points="518.17,-135.3 528.17,-131.8 518.17,-128.3 518.17,-135.3"/>
</g>
<!-- SharedModule -->
<g id="node8" class="node">
<title>SharedModule</title>
<polygon fill="#8dd3c7" stroke="black" points="122.43,-84.8 119.43,-88.8 98.43,-88.8 95.43,-84.8 23.57,-84.8 23.57,-48.8 122.43,-48.8 122.43,-84.8"/>
<text text-anchor="middle" x="73" y="-62.6" font-family="Times,serif" font-size="14.00">SharedModule</text>
</g>
<!-- SharedModule&#45;&gt;MonitorModule -->
<g id="edge7" class="edge">
<title>SharedModule&#45;&gt;MonitorModule</title>
<path fill="none" stroke="black" d="M73,-85.09C73,-107.01 73,-140.8 73,-140.8 73,-140.8 518.07,-140.8 518.07,-140.8"/>
<polygon fill="black" stroke="black" points="518.07,-144.3 528.07,-140.8 518.07,-137.3 518.07,-144.3"/>
</g>
</g>
</svg>
