<?xml version="1.0" encoding="UTF-8" standalone="no"?>
<!DOCTYPE svg PUBLIC "-//W3C//DTD SVG 1.1//EN"
 "http://www.w3.org/Graphics/SVG/1.1/DTD/svg11.dtd">
<!-- Generated by graphviz version 5.0.0 (20220707.1540)
 -->
<!-- Title: dependencies Pages: 1 -->
<svg width="1176pt" height="174pt"
 viewBox="0.00 0.00 1176.00 173.80" xmlns="http://www.w3.org/2000/svg" xmlns:xlink="http://www.w3.org/1999/xlink">
<g id="graph0" class="graph" transform="scale(1 1) rotate(0) translate(4 169.8)">
<title>dependencies</title>
<polygon fill="white" stroke="transparent" points="-4,4 -4,-169.8 1172,-169.8 1172,4 -4,4"/>
<text text-anchor="middle" x="584" y="-8.2" font-family="sans-serif" font-size="14.00">dependencies</text>
<g id="clust1" class="cluster">
<title>cluster_MonitorModule</title>
<polygon fill="none" stroke="black" stroke-dasharray="1,5" points="8,-32.8 8,-157.8 1160,-157.8 1160,-32.8 8,-32.8"/>
</g>
<g id="clust8" class="cluster">
<title>cluster_MonitorModule_imports</title>
<polygon fill="none" stroke="black" points="870,-40.8 870,-92.8 1152,-92.8 1152,-40.8 870,-40.8"/>
</g>
<g id="clust2" class="cluster">
<title>cluster_MonitorModule_declarations</title>
<polygon fill="none" stroke="black" points="16,-40.8 16,-92.8 862,-92.8 862,-40.8 16,-40.8"/>
</g>
<!-- AlertViewComponent -->
<g id="node1" class="node">
<title>AlertViewComponent</title>
<polygon fill="#ffffb3" stroke="black" points="854.42,-84.8 713.58,-84.8 713.58,-48.8 854.42,-48.8 854.42,-84.8"/>
<text text-anchor="middle" x="784" y="-62.6" font-family="Times,serif" font-size="14.00">AlertViewComponent</text>
</g>
<!-- MonitorModule -->
<g id="node6" class="node">
<title>MonitorModule</title>
<polygon fill="#8dd3c7" stroke="black" points="684.94,-149.8 681.94,-153.8 660.94,-153.8 657.94,-149.8 579.06,-149.8 579.06,-113.8 684.94,-113.8 684.94,-149.8"/>
<text text-anchor="middle" x="632" y="-127.6" font-family="Times,serif" font-size="14.00">MonitorModule</text>
</g>
<!-- AlertViewComponent&#45;&gt;MonitorModule -->
<g id="edge1" class="edge">
<title>AlertViewComponent&#45;&gt;MonitorModule</title>
<path fill="none" stroke="black" d="M784,-84.83C784,-101.2 784,-122.8 784,-122.8 784,-122.8 694.74,-122.8 694.74,-122.8"/>
<polygon fill="black" stroke="black" points="694.74,-119.3 684.74,-122.8 694.74,-126.3 694.74,-119.3"/>
</g>
<!-- MonitorComponent -->
<g id="node2" class="node">
<title>MonitorComponent</title>
<polygon fill="#ffffb3" stroke="black" points="695.72,-84.8 568.28,-84.8 568.28,-48.8 695.72,-48.8 695.72,-84.8"/>
<text text-anchor="middle" x="632" y="-62.6" font-family="Times,serif" font-size="14.00">MonitorComponent</text>
</g>
<!-- MonitorComponent&#45;&gt;MonitorModule -->
<g id="edge2" class="edge">
<title>MonitorComponent&#45;&gt;MonitorModule</title>
<path fill="none" stroke="black" d="M632,-84.91C632,-84.91 632,-103.79 632,-103.79"/>
<polygon fill="black" stroke="black" points="628.5,-103.79 632,-113.79 635.5,-103.79 628.5,-103.79"/>
</g>
<!-- MonitorEditComponent -->
<g id="node3" class="node">
<title>MonitorEditComponent</title>
<polygon fill="#ffffb3" stroke="black" points="550.05,-84.8 399.95,-84.8 399.95,-48.8 550.05,-48.8 550.05,-84.8"/>
<text text-anchor="middle" x="475" y="-62.6" font-family="Times,serif" font-size="14.00">MonitorEditComponent</text>
</g>
<!-- MonitorEditComponent&#45;&gt;MonitorModule -->
<g id="edge3" class="edge">
<title>MonitorEditComponent&#45;&gt;MonitorModule</title>
<path fill="none" stroke="black" d="M475,-84.83C475,-101.2 475,-122.8 475,-122.8 475,-122.8 568.85,-122.8 568.85,-122.8"/>
<polygon fill="black" stroke="black" points="568.85,-126.3 578.85,-122.8 568.85,-119.3 568.85,-126.3"/>
</g>
<!-- MonitorEditEntryComponent -->
<g id="node4" class="node">
<title>MonitorEditEntryComponent</title>
<polygon fill="#ffffb3" stroke="black" points="381.66,-84.8 200.34,-84.8 200.34,-48.8 381.66,-48.8 381.66,-84.8"/>
<text text-anchor="middle" x="291" y="-62.6" font-family="Times,serif" font-size="14.00">MonitorEditEntryComponent</text>
</g>
<!-- MonitorEditEntryComponent&#45;&gt;MonitorModule -->
<g id="edge4" class="edge">
<title>MonitorEditEntryComponent&#45;&gt;MonitorModule</title>
<path fill="none" stroke="black" d="M291,-84.91C291,-104.14 291,-131.8 291,-131.8 291,-131.8 569.09,-131.8 569.09,-131.8"/>
<polygon fill="black" stroke="black" points="569.09,-135.3 579.09,-131.8 569.09,-128.3 569.09,-135.3"/>
</g>
<!-- MonitorViewComponent -->
<g id="node5" class="node">
<title>MonitorViewComponent</title>
<polygon fill="#ffffb3" stroke="black" points="181.55,-84.8 24.45,-84.8 24.45,-48.8 181.55,-48.8 181.55,-84.8"/>
<text text-anchor="middle" x="103" y="-62.6" font-family="Times,serif" font-size="14.00">MonitorViewComponent</text>
</g>
<!-- MonitorViewComponent&#45;&gt;MonitorModule -->
<g id="edge5" class="edge">
<title>MonitorViewComponent&#45;&gt;MonitorModule</title>
<path fill="none" stroke="black" d="M103,-85.09C103,-107.01 103,-140.8 103,-140.8 103,-140.8 568.86,-140.8 568.86,-140.8"/>
<polygon fill="black" stroke="black" points="568.86,-144.3 578.86,-140.8 568.86,-137.3 568.86,-144.3"/>
</g>
<!-- MonitorRoutingModule -->
<g id="node7" class="node">
<title>MonitorRoutingModule</title>
<polygon fill="#8dd3c7" stroke="black" points="1144.06,-84.8 1141.06,-88.8 1120.06,-88.8 1117.06,-84.8 993.94,-84.8 993.94,-48.8 1144.06,-48.8 1144.06,-84.8"/>
<text text-anchor="middle" x="1069" y="-62.6" font-family="Times,serif" font-size="14.00">MonitorRoutingModule</text>
</g>
<!-- MonitorRoutingModule&#45;&gt;MonitorModule -->
<g id="edge6" class="edge">
<title>MonitorRoutingModule&#45;&gt;MonitorModule</title>
<path fill="none" stroke="black" d="M1069,-85.09C1069,-107.01 1069,-140.8 1069,-140.8 1069,-140.8 695.15,-140.8 695.15,-140.8"/>
<polygon fill="black" stroke="black" points="695.15,-137.3 685.15,-140.8 695.15,-144.3 695.15,-137.3"/>
</g>
<!-- SharedModule -->
<g id="node8" class="node">
<title>SharedModule</title>
<polygon fill="#8dd3c7" stroke="black" points="976.43,-84.8 973.43,-88.8 952.43,-88.8 949.43,-84.8 877.57,-84.8 877.57,-48.8 976.43,-48.8 976.43,-84.8"/>
<text text-anchor="middle" x="927" y="-62.6" font-family="Times,serif" font-size="14.00">SharedModule</text>
</g>
<!-- SharedModule&#45;&gt;MonitorModule -->
<g id="edge7" class="edge">
<title>SharedModule&#45;&gt;MonitorModule</title>
<path fill="none" stroke="black" d="M927,-84.91C927,-104.14 927,-131.8 927,-131.8 927,-131.8 694.74,-131.8 694.74,-131.8"/>
<polygon fill="black" stroke="black" points="694.74,-128.3 684.74,-131.8 694.74,-135.3 694.74,-128.3"/>
</g>
</g>
</svg>
