<?xml version="1.0" encoding="UTF-8" standalone="no"?>
<!DOCTYPE svg PUBLIC "-//W3C//DTD SVG 1.1//EN"
 "http://www.w3.org/Graphics/SVG/1.1/DTD/svg11.dtd">
<!-- Generated by graphviz version 5.0.0 (20220707.1540)
 -->
<!-- Title: dependencies Pages: 1 -->
<svg width="2296pt" height="174pt"
 viewBox="0.00 0.00 2296.00 173.80" xmlns="http://www.w3.org/2000/svg" xmlns:xlink="http://www.w3.org/1999/xlink">
<g id="graph0" class="graph" transform="scale(1 1) rotate(0) translate(4 169.8)">
<title>dependencies</title>
<polygon fill="white" stroke="transparent" points="-4,4 -4,-169.8 2292,-169.8 2292,4 -4,4"/>
<text text-anchor="middle" x="1144" y="-8.2" font-family="sans-serif" font-size="14.00">dependencies</text>
<g id="clust1" class="cluster">
<title>cluster_MonitorModule</title>
<polygon fill="none" stroke="black" stroke-dasharray="1,5" points="8,-32.8 8,-157.8 2280,-157.8 2280,-32.8 8,-32.8"/>
</g>
<g id="clust2" class="cluster">
<title>cluster_MonitorModule_declarations</title>
<polygon fill="none" stroke="black" points="549,-40.8 549,-92.8 2272,-92.8 2272,-40.8 549,-40.8"/>
</g>
<g id="clust12" class="cluster">
<title>cluster_MonitorModule_imports</title>
<polygon fill="none" stroke="black" points="16,-40.8 16,-92.8 541,-92.8 541,-40.8 16,-40.8"/>
</g>
<!-- AlertViewComponent -->
<g id="node1" class="node">
<title>AlertViewComponent</title>
<polygon fill="#ffffb3" stroke="black" points="2264.42,-84.8 2123.58,-84.8 2123.58,-48.8 2264.42,-48.8 2264.42,-84.8"/>
<text text-anchor="middle" x="2194" y="-62.6" font-family="Times,serif" font-size="14.00">AlertViewComponent</text>
</g>
<!-- MonitorModule -->
<g id="node10" class="node">
<title>MonitorModule</title>
<polygon fill="#8dd3c7" stroke="black" points="1094.94,-149.8 1091.94,-153.8 1070.94,-153.8 1067.94,-149.8 989.06,-149.8 989.06,-113.8 1094.94,-113.8 1094.94,-149.8"/>
<text text-anchor="middle" x="1042" y="-127.6" font-family="Times,serif" font-size="14.00">MonitorModule</text>
</g>
<!-- AlertViewComponent&#45;&gt;MonitorModule -->
<g id="edge1" class="edge">
<title>AlertViewComponent&#45;&gt;MonitorModule</title>
<path fill="none" stroke="black" d="M2194,-84.89C2194,-107.93 2194,-144.8 2194,-144.8 2194,-144.8 1104.87,-144.8 1104.87,-144.8"/>
<polygon fill="black" stroke="black" points="1104.87,-141.3 1094.87,-144.8 1104.87,-148.3 1104.87,-141.3"/>
</g>
<!-- MonitorAlarmStatusComponent -->
<g id="node2" class="node">
<title>MonitorAlarmStatusComponent</title>
<polygon fill="#ffffb3" stroke="black" points="2105.71,-84.8 1908.29,-84.8 1908.29,-48.8 2105.71,-48.8 2105.71,-84.8"/>
<text text-anchor="middle" x="2007" y="-62.6" font-family="Times,serif" font-size="14.00">MonitorAlarmStatusComponent</text>
</g>
<!-- MonitorAlarmStatusComponent&#45;&gt;MonitorModule -->
<g id="edge2" class="edge">
<title>MonitorAlarmStatusComponent&#45;&gt;MonitorModule</title>
<path fill="none" stroke="black" d="M2007,-84.84C2007,-106.46 2007,-139.8 2007,-139.8 2007,-139.8 1104.91,-139.8 1104.91,-139.8"/>
<polygon fill="black" stroke="black" points="1104.91,-136.3 1094.91,-139.8 1104.91,-143.3 1104.91,-136.3"/>
</g>
<!-- MonitorChannelHistoryChartComponent -->
<g id="node3" class="node">
<title>MonitorChannelHistoryChartComponent</title>
<polygon fill="#ffffb3" stroke="black" points="1890.48,-84.8 1643.52,-84.8 1643.52,-48.8 1890.48,-48.8 1890.48,-84.8"/>
<text text-anchor="middle" x="1767" y="-62.6" font-family="Times,serif" font-size="14.00">MonitorChannelHistoryChartComponent</text>
</g>
<!-- MonitorChannelHistoryChartComponent&#45;&gt;MonitorModule -->
<g id="edge3" class="edge">
<title>MonitorChannelHistoryChartComponent&#45;&gt;MonitorModule</title>
<path fill="none" stroke="black" d="M1767,-85.02C1767,-105.17 1767,-134.8 1767,-134.8 1767,-134.8 1104.72,-134.8 1104.72,-134.8"/>
<polygon fill="black" stroke="black" points="1104.72,-131.3 1094.72,-134.8 1104.72,-138.3 1104.72,-131.3"/>
</g>
<!-- MonitorComponent -->
<g id="node4" class="node">
<title>MonitorComponent</title>
<polygon fill="#ffffb3" stroke="black" points="1625.72,-84.8 1498.28,-84.8 1498.28,-48.8 1625.72,-48.8 1625.72,-84.8"/>
<text text-anchor="middle" x="1562" y="-62.6" font-family="Times,serif" font-size="14.00">MonitorComponent</text>
</g>
<!-- MonitorComponent&#45;&gt;MonitorModule -->
<g id="edge4" class="edge">
<title>MonitorComponent&#45;&gt;MonitorModule</title>
<path fill="none" stroke="black" d="M1562,-85.02C1562,-103.63 1562,-129.8 1562,-129.8 1562,-129.8 1104.72,-129.8 1104.72,-129.8"/>
<polygon fill="black" stroke="black" points="1104.72,-126.3 1094.72,-129.8 1104.72,-133.3 1104.72,-126.3"/>
</g>
<!-- MonitorDetailComponent -->
<g id="node5" class="node">
<title>MonitorDetailComponent</title>
<polygon fill="#ffffb3" stroke="black" points="1480.93,-84.8 1319.07,-84.8 1319.07,-48.8 1480.93,-48.8 1480.93,-84.8"/>
<text text-anchor="middle" x="1400" y="-62.6" font-family="Times,serif" font-size="14.00">MonitorDetailComponent</text>
</g>
<!-- MonitorDetailComponent&#45;&gt;MonitorModule -->
<g id="edge5" class="edge">
<title>MonitorDetailComponent&#45;&gt;MonitorModule</title>
<path fill="none" stroke="black" d="M1400,-84.83C1400,-101.86 1400,-124.8 1400,-124.8 1400,-124.8 1104.82,-124.8 1104.82,-124.8"/>
<polygon fill="black" stroke="black" points="1104.82,-121.3 1094.82,-124.8 1104.82,-128.3 1104.82,-121.3"/>
</g>
<!-- MonitorEditComponent -->
<g id="node6" class="node">
<title>MonitorEditComponent</title>
<polygon fill="#ffffb3" stroke="black" points="1301.05,-84.8 1150.95,-84.8 1150.95,-48.8 1301.05,-48.8 1301.05,-84.8"/>
<text text-anchor="middle" x="1226" y="-62.6" font-family="Times,serif" font-size="14.00">MonitorEditComponent</text>
</g>
<!-- MonitorEditComponent&#45;&gt;MonitorModule -->
<g id="edge6" class="edge">
<title>MonitorEditComponent&#45;&gt;MonitorModule</title>
<path fill="none" stroke="black" d="M1226,-85.04C1226,-100.37 1226,-119.8 1226,-119.8 1226,-119.8 1104.73,-119.8 1104.73,-119.8"/>
<polygon fill="black" stroke="black" points="1104.73,-116.3 1094.73,-119.8 1104.73,-123.3 1104.73,-116.3"/>
</g>
<!-- MonitorEditEntryComponent -->
<g id="node7" class="node">
<title>MonitorEditEntryComponent</title>
<polygon fill="#ffffb3" stroke="black" points="1132.66,-84.8 951.34,-84.8 951.34,-48.8 1132.66,-48.8 1132.66,-84.8"/>
<text text-anchor="middle" x="1042" y="-62.6" font-family="Times,serif" font-size="14.00">MonitorEditEntryComponent</text>
</g>
<!-- MonitorEditEntryComponent&#45;&gt;MonitorModule -->
<g id="edge7" class="edge">
<title>MonitorEditEntryComponent&#45;&gt;MonitorModule</title>
<path fill="none" stroke="black" d="M1042,-84.91C1042,-84.91 1042,-103.79 1042,-103.79"/>
<polygon fill="black" stroke="black" points="1038.5,-103.79 1042,-113.79 1045.5,-103.79 1038.5,-103.79"/>
</g>
<!-- MonitorHistoryChartComponent -->
<g id="node8" class="node">
<title>MonitorHistoryChartComponent</title>
<polygon fill="#ffffb3" stroke="black" points="933.32,-84.8 732.68,-84.8 732.68,-48.8 933.32,-48.8 933.32,-84.8"/>
<text text-anchor="middle" x="833" y="-62.6" font-family="Times,serif" font-size="14.00">MonitorHistoryChartComponent</text>
</g>
<!-- MonitorHistoryChartComponent&#45;&gt;MonitorModule -->
<g id="edge8" class="edge">
<title>MonitorHistoryChartComponent&#45;&gt;MonitorModule</title>
<path fill="none" stroke="black" d="M833,-85.04C833,-100.37 833,-119.8 833,-119.8 833,-119.8 979.26,-119.8 979.26,-119.8"/>
<polygon fill="black" stroke="black" points="979.26,-123.3 989.26,-119.8 979.26,-116.3 979.26,-123.3"/>
</g>
<!-- MonitorViewComponent -->
<g id="node9" class="node">
<title>MonitorViewComponent</title>
<polygon fill="#ffffb3" stroke="black" points="714.55,-84.8 557.45,-84.8 557.45,-48.8 714.55,-48.8 714.55,-84.8"/>
<text text-anchor="middle" x="636" y="-62.6" font-family="Times,serif" font-size="14.00">MonitorViewComponent</text>
</g>
<!-- MonitorViewComponent&#45;&gt;MonitorModule -->
<g id="edge9" class="edge">
<title>MonitorViewComponent&#45;&gt;MonitorModule</title>
<path fill="none" stroke="black" d="M636,-84.83C636,-101.86 636,-124.8 636,-124.8 636,-124.8 978.92,-124.8 978.92,-124.8"/>
<polygon fill="black" stroke="black" points="978.92,-128.3 988.92,-124.8 978.92,-121.3 978.92,-128.3"/>
</g>
<!-- MonitorRoutingModule -->
<g id="node11" class="node">
<title>MonitorRoutingModule</title>
<polygon fill="#8dd3c7" stroke="black" points="533.06,-84.8 530.06,-88.8 509.06,-88.8 506.06,-84.8 382.94,-84.8 382.94,-48.8 533.06,-48.8 533.06,-84.8"/>
<text text-anchor="middle" x="458" y="-62.6" font-family="Times,serif" font-size="14.00">MonitorRoutingModule</text>
</g>
<!-- MonitorRoutingModule&#45;&gt;MonitorModule -->
<g id="edge10" class="edge">
<title>MonitorRoutingModule&#45;&gt;MonitorModule</title>
<path fill="none" stroke="black" d="M458,-85.02C458,-103.63 458,-129.8 458,-129.8 458,-129.8 979.14,-129.8 979.14,-129.8"/>
<polygon fill="black" stroke="black" points="979.14,-133.3 989.14,-129.8 979.14,-126.3 979.14,-133.3"/>
</g>
<!-- SharedModule -->
<g id="node12" class="node">
<title>SharedModule</title>
<polygon fill="#8dd3c7" stroke="black" points="365.43,-84.8 362.43,-88.8 341.43,-88.8 338.43,-84.8 266.57,-84.8 266.57,-48.8 365.43,-48.8 365.43,-84.8"/>
<text text-anchor="middle" x="316" y="-62.6" font-family="Times,serif" font-size="14.00">SharedModule</text>
</g>
<!-- SharedModule&#45;&gt;MonitorModule -->
<g id="edge11" class="edge">
<title>SharedModule&#45;&gt;MonitorModule</title>
<path fill="none" stroke="black" d="M316,-85.02C316,-105.17 316,-134.8 316,-134.8 316,-134.8 979.2,-134.8 979.2,-134.8"/>
<polygon fill="black" stroke="black" points="979.2,-138.3 989.2,-134.8 979.2,-131.3 979.2,-138.3"/>
</g>
<!-- TooltipModule -->
<g id="node13" class="node">
<title>TooltipModule</title>
<polygon fill="#8dd3c7" stroke="black" points="248.27,-84.8 245.27,-88.8 224.27,-88.8 221.27,-84.8 147.73,-84.8 147.73,-48.8 248.27,-48.8 248.27,-84.8"/>
<text text-anchor="middle" x="198" y="-62.6" font-family="Times,serif" font-size="14.00">TooltipModule</text>
</g>
<!-- TooltipModule&#45;&gt;MonitorModule -->
<g id="edge12" class="edge">
<title>TooltipModule&#45;&gt;MonitorModule</title>
<path fill="none" stroke="black" d="M198,-84.84C198,-106.46 198,-139.8 198,-139.8 198,-139.8 979.2,-139.8 979.2,-139.8"/>
<polygon fill="black" stroke="black" points="979.2,-143.3 989.2,-139.8 979.2,-136.3 979.2,-143.3"/>
</g>
<!-- WidgetsModule -->
<g id="node14" class="node">
<title>WidgetsModule</title>
<polygon fill="#8dd3c7" stroke="black" points="130.21,-84.8 127.21,-88.8 106.21,-88.8 103.21,-84.8 23.79,-84.8 23.79,-48.8 130.21,-48.8 130.21,-84.8"/>
<text text-anchor="middle" x="77" y="-62.6" font-family="Times,serif" font-size="14.00">WidgetsModule</text>
</g>
<!-- WidgetsModule&#45;&gt;MonitorModule -->
<g id="edge13" class="edge">
<title>WidgetsModule&#45;&gt;MonitorModule</title>
<path fill="none" stroke="black" d="M77,-84.89C77,-107.93 77,-144.8 77,-144.8 77,-144.8 979.09,-144.8 979.09,-144.8"/>
<polygon fill="black" stroke="black" points="979.09,-148.3 989.09,-144.8 979.09,-141.3 979.09,-148.3"/>
</g>
</g>
</svg>
