<svg id="Layer_7" data-name="Layer 7" xmlns="http://www.w3.org/2000/svg" xmlns:xlink="http://www.w3.org/1999/xlink" viewBox="0 0 220.54 180.3"><defs><style>.cls-1{fill:#fff;}.cls-2{fill:#762600;}.cls-3{fill:url(#linear-gradient);}.cls-4{fill:#ffa52d;}.cls-5{fill:#003a56;}.cls-6{fill:#ff950a;}.cls-7{fill:#1e0a00;}</style><linearGradient id="linear-gradient" x1="1916" y1="2589.63" x2="1916" y2="2649.3" gradientTransform="matrix(0.89, 0.46, 0.46, -0.89, -648.06, 1540.05)" gradientUnits="userSpaceOnUse"><stop offset="0.22" stop-color="#1e0a00"/><stop offset="1" stop-color="#762600"/></linearGradient></defs><path class="cls-1" d="M2322.72,81c10.83-7.77,21.62-14.69,35.3-15.52,6.76-.41,13.57.75,20.22-1s12.32-5.68,17.7-9.81c3.85-3,5.9-7.74,3.23-12.31-2.22-3.79-8.43-6.2-12.31-3.23-4.54,3.47-9.45,7.66-15.32,8.31-7,.78-14.07-.2-21.17.86-13.93,2.07-25.48,9.05-36.73,17.12-3.95,2.83-5.85,7.84-3.23,12.32,2.28,3.89,8.34,6.07,12.31,3.23Z" transform="translate(-2192.81 -21.53)"/><path class="cls-2" d="M2357.14,68.31s-6.73-28.37-28.74-26.49c-18.55,1.58-51.22,30.5-51.43,63.16s30.21,66.35,33.17,80.07l-85-61.88,4.08-36.25,15.94-14.41L2287,51.06,2268.3,45.2l60-21.43,18.31,12.36Z" transform="translate(-2192.81 -21.53)"/><path class="cls-3" d="M2238,77s13.36-13.11,31.66-4.76C2288.81,81,2276.73,88.9,2277,105a74,74,0,0,0,4.56,24s-2.42,16.31-33.55-.93S2238,77,2238,77Z" transform="translate(-2192.81 -21.53)"/><path class="cls-4" d="M2358.31,68.59c2.75-12-4-37.13-23.09-45.06-25.07-10.44-93.21,28.7-90.77,34.09s12.56-6.55,14-2.55c2.38,6.6-36.59,13.34-48.86,45.87-9.06,24,1.37,39.7,16.79,49.15,20,12.24,62.41,15.1,57.32,22.08-1.12,1.54-10.79-5.22-13.24-2.22-3.39,4.16,37.14,11.22,36.81,25.58-.23,10.17,4.5,6.62,4.34-4.1-.13-8.63-6.86-15.42-26.6-31.34-29.89-24.12-77.67-47.8-36.22-83.14,21.78-18.56,40.92-16.59,43-29.31.94-5.79-14.59,1.48-13.49-2.51s34.32-19.38,56.37-10.7S2355.55,80.59,2358.31,68.59Z" transform="translate(-2192.81 -21.53)"/><ellipse class="cls-5" cx="2201.25" cy="64.46" rx="7.99" ry="11.98" transform="matrix(0.95, -0.3, 0.3, 0.95, -2109.69, 645.59)"/><ellipse class="cls-1" cx="2200.55" cy="56" rx="1.15" ry="2.3" transform="translate(-654.08 2133.89) rotate(-73.96)"/><path class="cls-2" d="M2357.14,68.31s-6.73-28.37-28.74-26.49c-18.55,1.58-51.22,30.5-51.43,63.16s30.21,66.35,33.17,80.07l-85-61.88,4.08-36.25,15.94-14.41L2287,51.06,2268.3,45.2l60-21.43,18.31,12.36Z" transform="translate(-2192.81 -21.53)"/><path class="cls-3" d="M2238,77s13.36-13.11,31.66-4.76C2288.81,81,2276.73,88.9,2277,105a74,74,0,0,0,4.56,24s-2.42,16.31-33.55-.93S2238,77,2238,77Z" transform="translate(-2192.81 -21.53)"/><path class="cls-6" d="M2358.31,68.59c2.75-12-4-37.13-23.09-45.06-25.07-10.44-93.21,28.7-90.77,34.09s12.56-6.55,14-2.55c2.38,6.6-36.59,13.34-48.86,45.87-9.06,24,1.37,39.7,16.79,49.15,20,12.24,62.41,15.1,57.32,22.08-1.12,1.54-10.79-5.22-13.24-2.22-3.39,4.16,37.14,11.22,36.81,25.58-.23,10.17,4.5,6.62,4.34-4.1-.13-8.63-6.86-15.42-26.6-31.34-29.89-24.12-77.67-47.8-36.22-83.14,21.78-18.56,40.92-16.59,43-29.31.94-5.79-14.59,1.48-13.49-2.51s34.32-19.38,56.37-10.7S2355.55,80.59,2358.31,68.59Z" transform="translate(-2192.81 -21.53)"/><path class="cls-7" d="M2308.82,201.83a.9.9,0,0,1-.47-.13c-.93-.55-1.4-2.74-1.32-6.17.2-8.72-15-14.71-26.09-19.08-6.08-2.4-10.48-4.13-10.89-5.72a1,1,0,0,1,.22-.93c1.54-1.9,5.43-.32,8.85,1.07,1.89.77,4,1.64,4.38,1.16a1.48,1.48,0,0,0,.29-1.43c-1-2.64-10.08-4.92-20.63-7.55-12.12-3-27.21-6.79-36.91-12.74-13.17-8.07-26.79-23.21-16.9-49.45,7.94-21,27.32-31.51,38.9-37.76,6.23-3.37,10.74-5.8,10-7.94a.94.94,0,0,0-.55-.61c-1-.35-3,.89-4.94,2.07-2.53,1.54-5.15,3.13-7,2.57a2.49,2.49,0,0,1-1.53-1.46c-.3-.67.19-1.67,1.52-3,4.9-5,21.62-15.32,40.1-23.11,12.87-5.42,36.4-13.71,49.47-8.27,18.46,7.69,26.22,32.38,23.24,45.34h0c-.49,2.12-.81,2.54-1.21,2.54h0c-.63,0-1-1.16-1.89-4.81-2.16-8.48-6.66-26.12-20.85-31.7-7.31-2.88-27-5.38-49.32,5.77-4.63,2.31-6.51,4-6.72,4.76-.12.43,0,.59.07.64.56.62,3,.21,5.28-.19,3.15-.54,6.41-1.09,7.67.16a2,2,0,0,1,.47,1.87c-1.13,6.92-7.3,9.62-15.84,13.35-7.62,3.33-17.1,7.47-27.24,16.11-11.14,9.5-16.4,18.56-16.08,27.7.58,16.55,19.62,30.61,38,44.21,4.81,3.55,9.79,7.23,14.26,10.84,19.92,16.07,26.56,22.87,26.69,31.53.08,5.72-1.21,9.48-2.52,10.24A.86.86,0,0,1,2308.82,201.83Zm-36.35-32.4a2.21,2.21,0,0,0-1.81.69.54.54,0,0,0-.13.49c.35,1.34,5.1,3.21,10.59,5.38,11.23,4.43,26.61,10.49,26.4,19.56-.08,3.7.5,5.38,1.08,5.72a.45.45,0,0,0,.5,0c1-.58,2.36-4,2.27-9.8-.12-8.46-6.72-15.19-26.5-31.15-4.47-3.6-9.44-7.28-14.25-10.83-18.51-13.67-37.65-27.81-38.23-44.6-.32-9.3,5-18.5,16.26-28.1,10.19-8.69,19.71-12.85,27.36-16.19,8.71-3.81,14.46-6.32,15.54-13a1.54,1.54,0,0,0-.33-1.44c-1.08-1.07-4.35-.52-7.24,0-2.68.46-5,.85-5.74,0a1.09,1.09,0,0,1-.18-1.1c.32-1.16,2.93-3.06,7-5.08A87.23,87.23,0,0,1,2308,32.61c10.35-1.79,19.62-1.23,26.82,1.6,14.43,5.68,19,23.49,21.15,32,.54,2.11,1.09,4.28,1.42,4.43,0,0,.28-.28.71-2.16,2.94-12.8-4.72-37.18-23-44.77-12.9-5.37-36.29,2.88-49.08,8.27-18.42,7.77-35.08,18-39.94,23-1.51,1.56-1.54,2.23-1.43,2.48a2,2,0,0,0,1.22,1.18c1.61.5,4.25-1.1,6.57-2.51s4.19-2.54,5.37-2.12a1.38,1.38,0,0,1,.85.92c.92,2.55-3.5,4.93-10.2,8.55-11.52,6.22-30.79,16.62-38.66,37.5-9.78,25.93,3.68,40.88,16.69,48.85,9.63,5.9,24.68,9.66,36.77,12.68,11.13,2.78,19.93,5,21,7.87a2,2,0,0,1-.36,1.9c-.58.79-2.42,0-5-1C2276.78,170.45,2274.25,169.43,2272.47,169.43Z" transform="translate(-2192.81 -21.53)"/><ellipse class="cls-7" cx="2201.25" cy="64.46" rx="7.99" ry="11.98" transform="matrix(0.95, -0.3, 0.3, 0.95, -2109.69, 645.59)"/><ellipse class="cls-1" cx="2200.55" cy="56" rx="1.15" ry="2.3" transform="translate(-654.08 2133.89) rotate(-73.96)"/><path class="cls-1" d="M2318.35,156.36a70.79,70.79,0,0,1,38.23,11.49c10.88,7,21.15,15,34.19,17.37,4.78.88,9.71-1.31,11.07-6.28,1.2-4.38-1.48-10.19-6.28-11.07-13-2.41-22.72-11.5-33.84-18a87.56,87.56,0,0,0-43.37-11.52c-11.58-.11-11.59,17.89,0,18Z" transform="translate(-2192.81 -21.53)"/><path class="cls-1" d="M2328.34,117.29c6.76.68,13.49.28,20.26.27a55.08,55.08,0,0,1,18.91,3.18c6.64,2.28,13.1,3.12,19.91,1,6.55-2.09,12.93-5,19.32-7.54,4.52-1.78,7.67-6,6.29-11.07-1.19-4.31-6.53-8.08-11.08-6.29-6.15,2.42-12.27,5.06-18.51,7.25-6,2.09-10.41-.7-16.17-2.36-12.71-3.66-26-1.08-38.93-2.39-4.84-.49-9,4.48-9,9,0,5.27,4.14,8.51,9,9Z" transform="translate(-2192.81 -21.53)"/></svg>