<svg id="Layer_1" data-name="Layer 1" xmlns="http://www.w3.org/2000/svg" xmlns:xlink="http://www.w3.org/1999/xlink" viewBox="0 0 494.33 180.3"><defs><style>.cls-1{fill:#ff950a;}.cls-2{fill:#100500;}.cls-3{fill:#762600;}.cls-4{fill:url(#linear-gradient);}.cls-5{fill:#ffa52d;}.cls-6{fill:#003a56;}.cls-7{fill:#fff;}.cls-8{fill:#1e0a00;}</style><linearGradient id="linear-gradient" x1="523.45" y1="1266.75" x2="523.45" y2="1326.42" gradientTransform="matrix(0.89, 0.46, 0.46, -0.89, -648.06, 1540.05)" gradientUnits="userSpaceOnUse"><stop offset="0.22" stop-color="#1e0a00"/><stop offset="1" stop-color="#762600"/></linearGradient></defs><path class="cls-1" d="M25.05,670.61a46.34,46.34,0,0,0,11.58,6.89,30.77,30.77,0,0,0,11.16,2.07q7,0,11.23-3.24a10.89,10.89,0,0,0,4.2-9.16,11.66,11.66,0,0,0-2.62-7.65,19.19,19.19,0,0,0-6.55-4.69,77.93,77.93,0,0,0-8.89-3.38q-4.41-1.38-8.82-3.24a34.35,34.35,0,0,1-8.06-4.75A21.73,21.73,0,0,1,22.35,636a25.08,25.08,0,0,1-2.27-11.3,24.47,24.47,0,0,1,4.27-14.47A27.19,27.19,0,0,1,36.13,601a41.86,41.86,0,0,1,16.74-3.24,52.16,52.16,0,0,1,13.92,1.86q6.75,1.86,10.06,4.34a6.85,6.85,0,0,1,3.86,6.2,10.51,10.51,0,0,1-1.52,4.62,25.14,25.14,0,0,1-4,5.44,36.48,36.48,0,0,0-9.79-5.58,29.77,29.77,0,0,0-10.75-2.14q-6.75,0-10.75,2.69a8.8,8.8,0,0,0-4,7.79,9.55,9.55,0,0,0,1.31,5A12.94,12.94,0,0,0,45.55,632q3,1.93,11.3,5,4.41,1.65,9,3.58a35.72,35.72,0,0,1,8.27,4.89,23.07,23.07,0,0,1,6.06,7.44,24.11,24.11,0,0,1,2.34,11.23q0,14.05-9.3,22t-25.29,8A61,61,0,0,1,34,692.64a40.9,40.9,0,0,1-11-4.13c-2.57-1.74-3.86-3.77-3.86-6.06C19.12,679.8,21.09,675.85,25.05,670.61Z" transform="translate(-18.87 -551.99)"/><path class="cls-2" d="M47.92,694.43a61.57,61.57,0,0,1-14-1.52,41,41,0,0,1-11.09-4.16c-2.65-1.79-4-3.9-4-6.28,0-2.72,2-6.75,6-12l.15-.2.2.15a46.4,46.4,0,0,0,11.51,6.85,30.73,30.73,0,0,0,11.07,2.05c4.61,0,8.33-1.07,11.08-3.19a10.72,10.72,0,0,0,4.11-9,11.48,11.48,0,0,0-2.56-7.48A19.12,19.12,0,0,0,54,655.06a81.05,81.05,0,0,0-8.86-3.36c-2.92-.91-5.9-2-8.84-3.25a34.87,34.87,0,0,1-8.12-4.79,22,22,0,0,1-6-7.54,25.38,25.38,0,0,1-2.3-11.4,24.77,24.77,0,0,1,4.32-14.61,27.57,27.57,0,0,1,11.89-9.39,42.39,42.39,0,0,1,16.84-3.26,52.79,52.79,0,0,1,14,1.87c4.51,1.23,7.92,2.71,10.14,4.38a7.08,7.08,0,0,1,4,6.4,10.76,10.76,0,0,1-1.55,4.74,25.77,25.77,0,0,1-4,5.5l-.16.17-.18-.15a36.24,36.24,0,0,0-9.72-5.53,29.48,29.48,0,0,0-10.66-2.12c-4.43,0-8,.89-10.61,2.64a8.59,8.59,0,0,0-3.89,7.58,9.34,9.34,0,0,0,1.27,4.83,12.84,12.84,0,0,0,4.26,4.05A66.73,66.73,0,0,0,57,636.76c2.92,1.09,5.94,2.3,9,3.59a35.9,35.9,0,0,1,8.33,4.93,23.47,23.47,0,0,1,6.13,7.52,24.5,24.5,0,0,1,2.37,11.35c0,9.41-3.16,16.89-9.39,22.24S58.59,694.43,47.92,694.43ZM25.09,671c-3.8,5.07-5.72,8.94-5.72,11.5,0,2.2,1.26,4.16,3.75,5.85a40.43,40.43,0,0,0,10.94,4.1,61.08,61.08,0,0,0,13.86,1.51c10.55,0,19-2.67,25.13-7.93s9.22-12.6,9.22-21.85A24,24,0,0,0,80,653a22.85,22.85,0,0,0-6-7.36,35.57,35.57,0,0,0-8.21-4.86c-3-1.28-6-2.49-9-3.58a66.64,66.64,0,0,1-11.35-5A13.25,13.25,0,0,1,41,628a9.82,9.82,0,0,1-1.34-5.09,9.06,9.06,0,0,1,4.11-8c2.69-1.81,6.36-2.73,10.89-2.73a30,30,0,0,1,10.84,2.15,37.12,37.12,0,0,1,9.67,5.48,25.19,25.19,0,0,0,3.8-5.22,10.26,10.26,0,0,0,1.49-4.5,6.57,6.57,0,0,0-3.73-6c-2.2-1.64-5.55-3.09-10-4.32A52.09,52.09,0,0,0,52.91,598a41.79,41.79,0,0,0-16.65,3.22,27.06,27.06,0,0,0-11.68,9.22,24.38,24.38,0,0,0-4.23,14.33,25,25,0,0,0,2.25,11.19,21.46,21.46,0,0,0,5.86,7.36,34.4,34.4,0,0,0,8,4.72c2.93,1.24,5.89,2.33,8.8,3.23a76.35,76.35,0,0,1,8.92,3.39,19.53,19.53,0,0,1,6.63,4.75,12,12,0,0,1,2.68,7.81,11.2,11.2,0,0,1-4.3,9.37c-2.83,2.18-6.66,3.29-11.38,3.29a31.26,31.26,0,0,1-11.25-2.09A46.6,46.6,0,0,1,25.09,671Z" transform="translate(-18.87 -551.99)"/><path class="cls-1" d="M177.61,645.39q0,15.15-5.1,26.25A37.24,37.24,0,0,1,158,688.45q-9.37,5.7-22.6,5.71t-22.6-5.93a37.22,37.22,0,0,1-14.06-17Q94,660.25,94,645.51q0-14.47,5.31-25.43a38.52,38.52,0,0,1,14.81-16.68q9.51-5.71,22.46-5.72,19.71,0,30.39,12.54T177.61,645.39Zm-19.43.14q0-15.71-5.58-24.19t-16.19-8.48q-11.16,0-17,8.41t-5.86,24.25q0,16,5.79,24.81T136,679.15q10.75,0,16.47-8.82T158.18,645.53Zm-23.43,56.36a10.63,10.63,0,0,1,3.38-3.1,8.34,8.34,0,0,1,4.34-1.17,11.88,11.88,0,0,1,5.1,1.1,34.67,34.67,0,0,1,4.69,2.69q2.34,1.59,5.17,3.24a32.73,32.73,0,0,0,6.68,2.83,39.78,39.78,0,0,0,9.37,1.45c-.09,3.67-1,6.48-2.83,8.41a9.74,9.74,0,0,1-7.51,2.89,25.07,25.07,0,0,1-11-2.76,44.13,44.13,0,0,1-10.41-7.1A32.74,32.74,0,0,1,134.75,701.89Z" transform="translate(-18.87 -551.99)"/><path class="cls-2" d="M163.14,720.47A25.36,25.36,0,0,1,152,717.68a43.58,43.58,0,0,1-10.46-7.14,33,33,0,0,1-7-8.54l-.07-.14.09-.13a11,11,0,0,1,3.45-3.17,8.79,8.79,0,0,1,4.47-1.21,12.24,12.24,0,0,1,5.21,1.12,35.15,35.15,0,0,1,4.72,2.71c1.56,1.06,3.3,2.15,5.15,3.23a30,30,0,0,0,6.63,2.8,39.79,39.79,0,0,0,9.31,1.44h.24v.24c-.09,3.72-1.07,6.6-2.89,8.57A10,10,0,0,1,163.14,720.47ZM135,701.91a32.85,32.85,0,0,0,6.83,8.27,43.72,43.72,0,0,0,10.35,7.06A25,25,0,0,0,163.14,720a9.58,9.58,0,0,0,7.33-2.81c1.7-1.83,2.63-4.52,2.75-8a39.52,39.52,0,0,1-9.19-1.45,31.7,31.7,0,0,1-6.74-2.85c-1.86-1.09-3.61-2.18-5.18-3.25a34.11,34.11,0,0,0-4.65-2.67,11.56,11.56,0,0,0-5-1.08,8.14,8.14,0,0,0-4.21,1.14A10.78,10.78,0,0,0,135,701.91Zm.4-7.48c-8.92,0-16.57-2-22.74-6A37.68,37.68,0,0,1,98.55,671.4c-3.21-7.34-4.84-16-4.84-25.87,0-9.64,1.79-18.23,5.33-25.54A38.82,38.82,0,0,1,114,603.21c6.35-3.82,14-5.76,22.59-5.76,13.15,0,23.44,4.25,30.58,12.63s10.74,20.25,10.74,35.31c0,10.09-1.72,19-5.12,26.36a37.73,37.73,0,0,1-14.57,16.92C151.91,692.49,144.26,694.43,135.44,694.43Zm1.1-96.48c-8.55,0-16.06,1.9-22.34,5.67A38.36,38.36,0,0,0,99.48,620.2C96,627.42,94.2,636,94.2,645.52c0,9.75,1.62,18.39,4.8,25.66A37.21,37.21,0,0,0,113,688c6.09,3.9,13.65,5.89,22.47,5.89s16.29-1.91,22.47-5.68a37.25,37.25,0,0,0,14.37-16.7c3.37-7.33,5.08-16.13,5.08-26.15,0-14.93-3.57-26.71-10.62-35S149.54,598,136.54,598ZM136,679.4c-7.31,0-13-3-16.88-8.93s-5.83-14.29-5.83-24.94,2-18.79,5.9-24.41,9.73-8.51,17.23-8.51c7.13,0,12.65,2.89,16.4,8.6s5.62,13.84,5.62,24.32c0,10.65-1.94,19.05-5.76,24.94S143.21,679.4,136,679.4Zm.41-66.29c-7.32,0-13,2.79-16.82,8.3s-5.81,13.65-5.81,24.11,1.93,18.85,5.75,24.66,9.33,8.72,16.47,8.72a18.29,18.29,0,0,0,16.26-8.72c3.77-5.81,5.68-14.1,5.68-24.66,0-10.38-1.86-18.47-5.54-24S143.35,613.11,136.4,613.11Z" transform="translate(-18.87 -551.99)"/><path class="cls-1" d="M264.71,654.62a103.66,103.66,0,0,1-.55,11.16,31,31,0,0,1-5.3,15.3,27.84,27.84,0,0,1-12.13,9.58,46.26,46.26,0,0,1-18.12,3.24q-16.26,0-24.67-6.82t-10.2-21.85a86.76,86.76,0,0,1-.55-10.61v-55a45.44,45.44,0,0,1,6.62-.69q12.27,0,12.27,10.75v46.16q0,8.26,1.65,12.82a12.36,12.36,0,0,0,5.38,6.75c2.48,1.47,5.79,2.22,9.92,2.22q8.68,0,12.75-5c2.71-3.31,4.06-8.53,4.06-15.71V599.64a46.91,46.91,0,0,1,6.62-.69q12.27,0,12.27,10.75v44.92Z" transform="translate(-18.87 -551.99)"/><path class="cls-2" d="M228.6,694.15c-10.85,0-19.2-2.31-24.83-6.88s-9.09-12-10.29-22a87.06,87.06,0,0,1-.55-10.64v-55.2l.21,0a47.38,47.38,0,0,1,6.65-.69c8.3,0,12.52,3.7,12.52,11v46.17c0,5.46.55,9.74,1.64,12.73a12.29,12.29,0,0,0,5.27,6.62c2.43,1.44,5.72,2.17,9.8,2.17,5.68,0,9.91-1.64,12.55-4.87s4-8.48,4-15.55V599.42l.21,0a45.89,45.89,0,0,1,6.65-.69c8.3,0,12.52,3.7,12.52,11v44.92a106.76,106.76,0,0,1-.55,11.19,31.31,31.31,0,0,1-5.35,15.42,28,28,0,0,1-12.24,9.66A46.81,46.81,0,0,1,228.6,694.15Zm-35.17-94.3v54.78a88.16,88.16,0,0,0,.55,10.58c1.18,9.9,4.58,17.19,10.11,21.68s13.78,6.77,24.51,6.77a46.24,46.24,0,0,0,18-3.22,27.59,27.59,0,0,0,12-9.49,30.74,30.74,0,0,0,5.26-15.18,103.28,103.28,0,0,0,.55-11.14V609.7c0-7.06-3.93-10.5-12-10.5a46.4,46.4,0,0,0-6.37.65V657c0,7.19-1.39,12.53-4.12,15.87s-7.1,5-12.94,5c-4.16,0-7.54-.75-10-2.24a12.78,12.78,0,0,1-5.48-6.88c-1.11-3-1.67-7.39-1.67-12.9V609.7c0-7.06-3.93-10.5-12-10.5A46.43,46.43,0,0,0,193.43,599.85Z" transform="translate(-18.87 -551.99)"/><path class="cls-1" d="M335.54,691.83l-7.86-22.6H295.84l-7.58,22.6H269.52l32-91a27.7,27.7,0,0,1,11-1.93q10.2,0,13,8.54l29.63,84.34H335.54ZM312,616.17l-12.54,39.28h24.67Z" transform="translate(-18.87 -551.99)"/><path class="cls-2" d="M355.47,692.08h-20.1l-7.86-22.6H296l-7.58,22.6H269.17l.12-.34,32-91.06.1,0a28,28,0,0,1,11.13-1.95c6.89,0,11.32,2.92,13.19,8.71Zm-19.75-.5h19l-29.51-84c-1.79-5.56-6.07-8.38-12.72-8.38A27.77,27.77,0,0,0,301.7,601l-31.82,90.52h18.21L295.67,669h32.19ZM324.44,655.7H299.09l.1-.34,12.78-40,.24.76Zm-24.66-.5h24L312,617Z" transform="translate(-18.87 -551.99)"/><path class="cls-3" d="M511.18,598.77s-6.73-28.37-28.74-26.49c-18.55,1.58-51.22,30.5-51.43,63.15s30.21,66.35,33.17,80.07l-85-61.88,4.08-36.25L399.19,603,441,581.52l-18.68-5.86,60-21.43,18.31,12.36Z" transform="translate(-18.87 -551.99)"/><path class="cls-4" d="M392.06,607.46s13.36-13.11,31.66-4.76c19.13,8.72,7,16.65,7.29,32.73a74,74,0,0,0,4.56,24s-2.42,16.31-33.55-.93S392.06,607.46,392.06,607.46Z" transform="translate(-18.87 -551.99)"/><path class="cls-5" d="M512.35,599.05c2.75-12-4-37.13-23.09-45.06-25.07-10.44-93.21,28.7-90.77,34.09s12.56-6.55,14-2.55c2.38,6.6-36.59,13.34-48.86,45.87-9.06,24,1.37,39.7,16.79,49.15,20,12.24,62.41,15.1,57.32,22.08-1.12,1.54-10.79-5.22-13.24-2.22-3.39,4.16,37.14,11.22,36.81,25.58-.23,10.17,4.5,6.62,4.34-4.1-.13-8.63-6.86-15.42-26.6-31.34-29.89-24.12-77.67-47.8-36.22-83.14,21.78-18.56,40.92-16.59,43-29.31.94-5.79-14.59,1.48-13.49-2.51s34.32-19.38,56.37-10.7S509.59,611.05,512.35,599.05Z" transform="translate(-18.87 -551.99)"/><ellipse class="cls-6" cx="355.29" cy="594.91" rx="7.99" ry="11.98" transform="translate(-181.8 -417.08) rotate(-17.56)"/><ellipse class="cls-7" cx="354.59" cy="586.46" rx="1.15" ry="2.3" transform="translate(-325.88 213.22) rotate(-73.96)"/><path class="cls-3" d="M511.18,598.77s-6.73-28.37-28.74-26.49c-18.55,1.58-51.22,30.5-51.43,63.15s30.21,66.35,33.17,80.07l-85-61.88,4.08-36.25L399.19,603,441,581.52l-18.68-5.86,60-21.43,18.31,12.36Z" transform="translate(-18.87 -551.99)"/><path class="cls-4" d="M392.06,607.46s13.36-13.11,31.66-4.76c19.13,8.72,7,16.65,7.29,32.73a74,74,0,0,0,4.56,24s-2.42,16.31-33.55-.93S392.06,607.46,392.06,607.46Z" transform="translate(-18.87 -551.99)"/><path class="cls-1" d="M512.35,599.05c2.75-12-4-37.13-23.09-45.06-25.07-10.44-93.21,28.7-90.77,34.09s12.56-6.55,14-2.55c2.38,6.6-36.59,13.34-48.86,45.87-9.06,24,1.37,39.7,16.79,49.15,20,12.24,62.41,15.1,57.32,22.08-1.12,1.54-10.79-5.22-13.24-2.22-3.39,4.16,37.14,11.22,36.81,25.58-.23,10.17,4.5,6.62,4.34-4.1-.13-8.63-6.86-15.42-26.6-31.34-29.89-24.12-77.67-47.8-36.22-83.14,21.78-18.56,40.92-16.59,43-29.31.94-5.79-14.59,1.48-13.49-2.51s34.32-19.38,56.37-10.7S509.59,611.05,512.35,599.05Z" transform="translate(-18.87 -551.99)"/><path class="cls-8" d="M462.86,732.29a.9.9,0,0,1-.47-.13c-.93-.55-1.4-2.74-1.32-6.17.2-8.72-15-14.71-26.09-19.08-6.08-2.41-10.48-4.13-10.89-5.72a1,1,0,0,1,.22-.93c1.54-1.9,5.43-.32,8.85,1.07,1.89.77,4,1.64,4.38,1.16a1.48,1.48,0,0,0,.29-1.43c-1-2.64-10.08-4.92-20.63-7.55-12.12-3-27.21-6.79-36.91-12.74-13.17-8.07-26.79-23.21-16.9-49.45,7.94-21.05,27.32-31.51,38.9-37.76,6.23-3.37,10.74-5.8,10-7.94a.94.94,0,0,0-.55-.61c-1-.35-3,.89-4.94,2.07-2.53,1.54-5.15,3.13-7,2.57a2.49,2.49,0,0,1-1.53-1.46c-.3-.67.19-1.67,1.52-3,4.9-5,21.62-15.32,40.1-23.11,12.87-5.42,36.4-13.71,49.47-8.27,18.46,7.69,26.22,32.38,23.24,45.34h0c-.49,2.12-.81,2.54-1.21,2.54h0c-.63,0-1-1.16-1.89-4.81-2.16-8.48-6.66-26.12-20.85-31.7-7.31-2.88-27-5.38-49.32,5.77-4.63,2.31-6.51,4-6.72,4.76-.12.43,0,.59.07.64.56.62,3,.21,5.28-.19,3.15-.54,6.41-1.09,7.67.16a2,2,0,0,1,.47,1.87c-1.13,6.92-7.3,9.62-15.84,13.35-7.62,3.33-17.1,7.47-27.24,16.11-11.14,9.5-16.4,18.56-16.08,27.7.58,16.55,19.62,30.61,38,44.21,4.81,3.55,9.79,7.23,14.26,10.84,19.92,16.07,26.56,22.87,26.69,31.53.08,5.72-1.21,9.48-2.52,10.24A.86.86,0,0,1,462.86,732.29Zm-36.35-32.4a2.21,2.21,0,0,0-1.81.69.52.52,0,0,0-.13.48c.35,1.35,5.1,3.22,10.59,5.39,11.23,4.42,26.61,10.48,26.4,19.55-.08,3.71.5,5.39,1.08,5.72a.45.45,0,0,0,.5,0c1-.58,2.36-4,2.27-9.8-.12-8.46-6.72-15.19-26.5-31.15-4.47-3.6-9.44-7.28-14.25-10.83-18.51-13.67-37.65-27.81-38.23-44.6-.32-9.3,5-18.5,16.26-28.1,10.19-8.69,19.71-12.85,27.36-16.19,8.71-3.81,14.46-6.32,15.54-13a1.55,1.55,0,0,0-.33-1.44c-1.08-1.07-4.35-.52-7.24,0-2.68.46-5,.85-5.74,0a1.08,1.08,0,0,1-.18-1.09c.32-1.16,2.93-3.06,7-5.08A87.25,87.25,0,0,1,462,563.06c10.35-1.78,19.62-1.22,26.82,1.6,14.43,5.68,19,23.49,21.15,32,.54,2.11,1.09,4.28,1.42,4.43,0,0,.28-.28.71-2.16,2.94-12.8-4.72-37.18-23-44.77-12.9-5.37-36.29,2.88-49.08,8.27-18.42,7.77-35.08,18-39.94,23-1.51,1.56-1.54,2.23-1.43,2.48a2,2,0,0,0,1.22,1.18c1.61.5,4.25-1.1,6.57-2.51s4.19-2.54,5.37-2.12a1.38,1.38,0,0,1,.85.92c.92,2.55-3.5,4.93-10.2,8.55-11.52,6.22-30.79,16.62-38.66,37.5-9.78,25.93,3.68,40.88,16.69,48.85,9.63,5.9,24.68,9.66,36.77,12.68,11.13,2.78,19.93,5,21,7.87a2,2,0,0,1-.36,1.9c-.58.79-2.42,0-5-1C430.82,700.91,428.29,699.89,426.51,699.89Z" transform="translate(-18.87 -551.99)"/><ellipse class="cls-8" cx="355.29" cy="594.91" rx="7.99" ry="11.98" transform="translate(-181.8 -417.08) rotate(-17.56)"/><ellipse class="cls-7" cx="354.59" cy="586.46" rx="1.15" ry="2.3" transform="translate(-325.88 213.22) rotate(-73.96)"/></svg>