<svg id="Layer_1" data-name="Layer 1" xmlns="http://www.w3.org/2000/svg" viewBox="0 0 33 39.99"><defs><style>.cls-1{fill:#336178;}</style></defs><title>map-dark</title><g id="Group_246" data-name="Group 246"><path id="Path_125" data-name="Path 125" class="cls-1" d="M631.59,367.28l4.1,1.67H639l.82,1.63L638.6,372l1.19-.42.69-1-.3,1.42.3,1.1-2.33.76.45,1.28,1.88-1.07.8-1,.18-2.52.36-1.1-1.07-1.43-.28-1.08v-2l-.69-.74-.32-1h22.77v15.63l.68,2h-9.08l-4.48,1.8H643l-1.21.89-2-.48-.32-2.9h-3.78l.82-.6-2-.49.64-.61-.47-1-.46-1.28.46-.48-.73-.56Z" transform="translate(-631.59 -363.23)"/><path id="Path_126" data-name="Path 126" class="cls-1" d="M635.12,380.67l3.85.19.5,2.82,2.25.57,1.59-1h6.13l4.63-1.68h9.06l.43,1.15,1,.53v.7L663.13,387v.83L661.55,390v1.13l1.58.6-.61.8v10.71H633.81l-1.2-4.21,2-8.52Z" transform="translate(-631.59 -363.23)"/></g></svg>