<?xml version="1.0" encoding="UTF-8" standalone="no"?>
<!DOCTYPE svg PUBLIC "-//W3C//DTD SVG 1.1//EN" "http://www.w3.org/Graphics/SVG/1.1/DTD/svg11.dtd">
<svg width="100%" height="100%" viewBox="0 0 31 36" version="1.1" xmlns="http://www.w3.org/2000/svg" xmlns:xlink="http://www.w3.org/1999/xlink" xml:space="preserve" xmlns:serif="http://www.serif.com/" style="fill-rule:evenodd;clip-rule:evenodd;stroke-linejoin:round;stroke-miterlimit:2;">
    <g id="Group_245">
        <rect id="Rectangle_332" x="0" y="0" width="3" height="10" style="fill:white;"/>
        <rect id="Rectangle_384" x="0" y="13" width="3" height="10" style="fill:white;"/>
        <rect id="Rectangle_385" x="4" y="0" width="3" height="10" style="fill:white;"/>
        <rect id="Rectangle_386" x="4" y="13" width="3" height="10" style="fill:white;"/>
        <rect id="Rectangle_387" x="8" y="0" width="3" height="10" style="fill:white;"/>
        <rect id="Rectangle_388" x="8" y="13" width="3" height="10" style="fill:white;"/>
        <rect id="Rectangle_389" x="0" y="26" width="3" height="10" style="fill:white;"/>
        <rect id="Rectangle_390" x="4" y="26" width="3" height="10" style="fill:white;"/>
        <rect id="Rectangle_391" x="8" y="26" width="3" height="10" style="fill:white;"/>
        <rect id="Rectangle_392" x="12" y="0" width="3" height="10" style="fill:white;"/>
        <rect id="Rectangle_393" x="12" y="13" width="3" height="10" style="fill:white;"/>
        <rect id="Rectangle_394" x="16" y="0" width="3" height="10" style="fill:white;"/>
        <rect id="Rectangle_395" x="16" y="13" width="3" height="10" style="fill:white;"/>
        <rect id="Rectangle_396" x="20" y="0" width="3" height="10" style="fill:white;"/>
        <rect id="Rectangle_397" x="20" y="13" width="3" height="10" style="fill:white;"/>
        <rect id="Rectangle_398" x="12" y="26" width="3" height="10" style="fill:white;"/>
        <rect id="Rectangle_399" x="16" y="26" width="3" height="10" style="fill:white;"/>
        <rect id="Rectangle_400" x="20" y="26" width="3" height="10" style="fill:white;"/>
        <rect id="Rectangle_401" x="24" y="0" width="3" height="10" style="fill:white;"/>
        <rect id="Rectangle_402" x="24" y="13" width="3" height="10" style="fill:white;"/>
        <rect id="Rectangle_403" x="24" y="26" width="3" height="10" style="fill:white;"/>
        <rect id="Rectangle_404" x="28" y="0" width="3" height="10" style="fill:white;"/>
        <rect id="Rectangle_405" x="28" y="13" width="3" height="10" style="fill:white;"/>
        <rect id="Rectangle_406" x="28" y="26" width="3" height="10" style="fill:white;"/>
    </g>
</svg>
