<svg id="Layer_1" data-name="Layer 1" xmlns="http://www.w3.org/2000/svg" viewBox="0 0 31 36"><defs><style>.cls-1{fill:#336178;}</style></defs><title>timeline-dark</title><g id="Group_245" data-name="Group 245"><rect id="Rectangle_332" data-name="Rectangle 332" class="cls-1" width="3" height="10"/><rect id="Rectangle_384" data-name="Rectangle 384" class="cls-1" y="13" width="3" height="10"/><rect id="Rectangle_385" data-name="Rectangle 385" class="cls-1" x="4" width="3" height="10"/><rect id="Rectangle_386" data-name="Rectangle 386" class="cls-1" x="4" y="13" width="3" height="10"/><rect id="Rectangle_387" data-name="Rectangle 387" class="cls-1" x="8" width="3" height="10"/><rect id="Rectangle_388" data-name="Rectangle 388" class="cls-1" x="8" y="13" width="3" height="10"/><rect id="Rectangle_389" data-name="Rectangle 389" class="cls-1" y="26" width="3" height="10"/><rect id="Rectangle_390" data-name="Rectangle 390" class="cls-1" x="4" y="26" width="3" height="10"/><rect id="Rectangle_391" data-name="Rectangle 391" class="cls-1" x="8" y="26" width="3" height="10"/><rect id="Rectangle_392" data-name="Rectangle 392" class="cls-1" x="12" width="3" height="10"/><rect id="Rectangle_393" data-name="Rectangle 393" class="cls-1" x="12" y="13" width="3" height="10"/><rect id="Rectangle_394" data-name="Rectangle 394" class="cls-1" x="16" width="3" height="10"/><rect id="Rectangle_395" data-name="Rectangle 395" class="cls-1" x="16" y="13" width="3" height="10"/><rect id="Rectangle_396" data-name="Rectangle 396" class="cls-1" x="20" width="3" height="10"/><rect id="Rectangle_397" data-name="Rectangle 397" class="cls-1" x="20" y="13" width="3" height="10"/><rect id="Rectangle_398" data-name="Rectangle 398" class="cls-1" x="12" y="26" width="3" height="10"/><rect id="Rectangle_399" data-name="Rectangle 399" class="cls-1" x="16" y="26" width="3" height="10"/><rect id="Rectangle_400" data-name="Rectangle 400" class="cls-1" x="20" y="26" width="3" height="10"/><rect id="Rectangle_401" data-name="Rectangle 401" class="cls-1" x="24" width="3" height="10"/><rect id="Rectangle_402" data-name="Rectangle 402" class="cls-1" x="24" y="13" width="3" height="10"/><rect id="Rectangle_403" data-name="Rectangle 403" class="cls-1" x="24" y="26" width="3" height="10"/><rect id="Rectangle_404" data-name="Rectangle 404" class="cls-1" x="28" width="3" height="10"/><rect id="Rectangle_405" data-name="Rectangle 405" class="cls-1" x="28" y="13" width="3" height="10"/><rect id="Rectangle_406" data-name="Rectangle 406" class="cls-1" x="28" y="26" width="3" height="10"/></g></svg>