<?xml version="1.0" encoding="UTF-8" standalone="no"?>
<!DOCTYPE svg PUBLIC "-//W3C//DTD SVG 1.1//EN"
 "http://www.w3.org/Graphics/SVG/1.1/DTD/svg11.dtd">
<!-- Generated by graphviz version 2.47.0 (20210316.0004)
 -->
<!-- Title: dependencies Pages: 1 -->
<svg width="566pt" height="211pt"
 viewBox="0.00 0.00 566.00 211.00" xmlns="http://www.w3.org/2000/svg" xmlns:xlink="http://www.w3.org/1999/xlink">
<g id="graph0" class="graph" transform="scale(1 1) rotate(0) translate(4 207)">
<title>dependencies</title>
<polygon fill="white" stroke="transparent" points="-4,4 -4,-207 562,-207 562,4 -4,4"/>
<text text-anchor="start" x="258.01" y="-42.4" font-family="Times-12" font-weight="bold" font-size="14.00">Legend</text>
<polygon fill="#ffffb3" stroke="transparent" points="45,-10 45,-30 65,-30 65,-10 45,-10"/>
<text text-anchor="start" x="68.63" y="-15.4" font-family="Times-12" font-size="14.00"> &#160;Declarations</text>
<polygon fill="#8dd3c7" stroke="transparent" points="158,-10 158,-30 178,-30 178,-10 158,-10"/>
<text text-anchor="start" x="181.73" y="-15.4" font-family="Times-12" font-size="14.00"> &#160;Module</text>
<polygon fill="#80b1d3" stroke="transparent" points="244,-10 244,-30 264,-30 264,-10 244,-10"/>
<text text-anchor="start" x="267.78" y="-15.4" font-family="Times-12" font-size="14.00"> &#160;Bootstrap</text>
<polygon fill="#fdb462" stroke="transparent" points="341,-10 341,-30 361,-30 361,-10 341,-10"/>
<text text-anchor="start" x="364.67" y="-15.4" font-family="Times-12" font-size="14.00"> &#160;Providers</text>
<polygon fill="#fb8072" stroke="transparent" points="437,-10 437,-30 457,-30 457,-10 437,-10"/>
<text text-anchor="start" x="460.73" y="-15.4" font-family="Times-12" font-size="14.00"> &#160;Exports</text>
<g id="clust1" class="cluster">
<title>cluster_TestModule</title>
<polygon fill="none" stroke="black" stroke-dasharray="1,5" points="8,-70 8,-195 550,-195 550,-70 8,-70"/>
</g>
<g id="clust2" class="cluster">
<title>cluster_TestModule_declarations</title>
<polygon fill="none" stroke="black" points="250,-78 250,-130 542,-130 542,-78 250,-78"/>
</g>
<g id="clust5" class="cluster">
<title>cluster_TestModule_imports</title>
<polygon fill="none" stroke="black" points="16,-78 16,-130 242,-130 242,-78 16,-78"/>
</g>
<!-- MaterialTestComponent -->
<g id="node1" class="node">
<title>MaterialTestComponent</title>
<polygon fill="#ffffb3" stroke="black" points="534.36,-122 381.64,-122 381.64,-86 534.36,-86 534.36,-122"/>
<text text-anchor="middle" x="458" y="-99.8" font-family="Times,serif" font-size="14.00">MaterialTestComponent</text>
</g>
<!-- TestModule -->
<g id="node3" class="node">
<title>TestModule</title>
<polygon fill="#8dd3c7" stroke="black" points="297.65,-187 294.65,-191 273.65,-191 270.65,-187 214.35,-187 214.35,-151 297.65,-151 297.65,-187"/>
<text text-anchor="middle" x="256" y="-164.8" font-family="Times,serif" font-size="14.00">TestModule</text>
</g>
<!-- MaterialTestComponent&#45;&gt;TestModule -->
<g id="edge1" class="edge">
<title>MaterialTestComponent&#45;&gt;TestModule</title>
<path fill="none" stroke="black" d="M458,-122.11C458,-141.34 458,-169 458,-169 458,-169 307.85,-169 307.85,-169"/>
<polygon fill="black" stroke="black" points="307.85,-165.5 297.85,-169 307.85,-172.5 307.85,-165.5"/>
</g>
<!-- TestComponent -->
<g id="node2" class="node">
<title>TestComponent</title>
<polygon fill="#ffffb3" stroke="black" points="363.94,-122 258.06,-122 258.06,-86 363.94,-86 363.94,-122"/>
<text text-anchor="middle" x="311" y="-99.8" font-family="Times,serif" font-size="14.00">TestComponent</text>
</g>
<!-- TestComponent&#45;&gt;TestModule -->
<g id="edge2" class="edge">
<title>TestComponent&#45;&gt;TestModule</title>
<path fill="none" stroke="black" d="M278.05,-122.11C278.05,-122.11 278.05,-140.99 278.05,-140.99"/>
<polygon fill="black" stroke="black" points="274.55,-140.99 278.05,-150.99 281.55,-140.99 274.55,-140.99"/>
</g>
<!-- NgClass -->
<g id="node4" class="node">
<title>NgClass</title>
<polygon fill="#8dd3c7" stroke="black" points="233.94,-122 230.94,-126 209.94,-126 206.94,-122 170.06,-122 170.06,-86 233.94,-86 233.94,-122"/>
<text text-anchor="middle" x="202" y="-99.8" font-family="Times,serif" font-size="14.00">NgClass</text>
</g>
<!-- NgClass&#45;&gt;TestModule -->
<g id="edge3" class="edge">
<title>NgClass&#45;&gt;TestModule</title>
<path fill="none" stroke="black" d="M223.95,-122.11C223.95,-122.11 223.95,-140.99 223.95,-140.99"/>
<polygon fill="black" stroke="black" points="220.45,-140.99 223.95,-150.99 227.45,-140.99 220.45,-140.99"/>
</g>
<!-- TestRoutingModule -->
<g id="node5" class="node">
<title>TestRoutingModule</title>
<polygon fill="#8dd3c7" stroke="black" points="152.27,-122 149.27,-126 128.27,-126 125.27,-122 23.73,-122 23.73,-86 152.27,-86 152.27,-122"/>
<text text-anchor="middle" x="88" y="-99.8" font-family="Times,serif" font-size="14.00">TestRoutingModule</text>
</g>
<!-- TestRoutingModule&#45;&gt;TestModule -->
<g id="edge4" class="edge">
<title>TestRoutingModule&#45;&gt;TestModule</title>
<path fill="none" stroke="black" d="M88,-122.11C88,-141.34 88,-169 88,-169 88,-169 204.04,-169 204.04,-169"/>
<polygon fill="black" stroke="black" points="204.04,-172.5 214.04,-169 204.04,-165.5 204.04,-172.5"/>
</g>
</g>
</svg>
